<?xml version="1.0" encoding="utf-8"?>
<!-- Generator: Adobe Illustrator 22.0.1, SVG Export Plug-In . SVG Version: 6.00 Build 0)  -->
<svg version="1.1" id="Layer_1" xmlns="http://www.w3.org/2000/svg" xmlns:xlink="http://www.w3.org/1999/xlink" x="0px" y="0px"
	 viewBox="0 0 1500 1080" style="enable-background:new 0 0 1500 1080;" xml:space="preserve">
<style type="text/css">
	.st0{fill:#FF8E00;}
	.st1{fill:#231F20;}
	.st2{fill:#202020;}
	.st3{fill:#FFFFFF;}
</style>
<path class="st0" d="M757.7,504.8c-4.5,8.1-3.8,17.6-4.1,26.6c-0.4,10.3-0.7,20.6-1.1,30.9c-0.3,8.4,12.7,8.4,13,0
	c0.3-9,0.6-18,0.9-27c0.3-7.3-1.1-17.3,2.5-23.9C773,504,761.7,497.5,757.7,504.8z"/>
<path class="st1" d="M799,390.4c5.6,6.2,16.1,15.9,31.8,10.2c15.8-5.7,29.6-5.8,29.6-5.8s4.4-10.6-24-34.6
	c-28.4-24-75-33.4-100.9-11.3c0,0-30.3,6-28.4,52.8c1.9,46.8,24.6,68.9,24.6,68.9l5.7,6.3l25.8-20.2c0,0,3.3-4.4,2.4-8.5
	c-0.9-4.1-0.8-7.1-2.2-9.5c-1.4-2.4-11-12.4-4.7-16.2s10.9,0.8,12.3,3.8c1.4,3,3,10.1,3,10.1l1.9-0.2c0,0,15.8-29.5,15.8-40.7
	c0-11.2-0.6-14.8-0.6-14.8S797,388.1,799,390.4z"/>
<g>
	<g>
		<g>
			<path class="st2" d="M806,349.4c-0.1-0.1-0.2-0.1-0.3-0.3c-0.9-1.3-2-4.2,2.1-5.4c0.1,0,0.4-0.1,0.5-0.1c3.2,1.3,6.4,2.6,9.6,4
				c8.6,3.7,17.2,7.4,25.6,11.6c4.2,2.1,8.4,4.2,12.6,6.6c1,0.6,2.1,1.2,3.1,1.8c0.5,0.3,1,0.6,1.5,0.9l1.5,1c1,0.7,2,1.3,3,2.2
				l1.5,1.2c0.5,0.4,0.9,0.9,1.4,1.3c1.5,1.5,2.9,3.2,4,5.4c0,0,0.3,0.7,0.7,1.9c0.3,1.2,0.6,3.3-0.1,5.5c-0.7,2.2-2.4,4-4.2,5.2
				c-1.8,1.2-3.7,1.8-5.5,2.2c-2.9,0.7-4.8,0.7-5.9,0.6c-1.1-0.1-1.4-0.4-1.2-0.7c0.5-0.7,3.2-1.6,6.1-3.1c-0.2,0,0.6-0.3,1.8-1.1
				c1.1-0.7,2.6-1.9,3.3-3.2c0.7-1.3,0.5-2.4,0.2-3.4c-0.4-1-0.9-1.7-0.9-1.7c-0.6-1.1-1.5-2.2-2.6-3.2c-3-2.8-6.8-5.2-10.8-7.5
				c-4-2.2-8.1-4.4-12.2-6.4c-8.3-4.1-16.8-7.8-25.3-11.4C812.3,352,809.1,350.7,806,349.4z"/>
		</g>
	</g>
</g>
<g>
	<g>
		<g>
			<path class="st2" d="M847.8,393.9c0-0.1,0-0.2,0.1-0.4c0.3-0.7,0.9-1.7,1.8-2.2c0.9-0.5,2.2-0.4,3.9,1c0.1,0.1,0.3,0.3,0.3,0.4
				c0.7,3.4,1.2,6.8,1.8,10.3c1.9,12.3,3.1,24.7,3.2,37.2c0,6.3-0.3,12.6-1.3,18.9c-0.5,3.2-1.1,6.3-2.1,9.4c-0.5,1.6-1,3.1-1.7,4.6
				l-0.5,1.1l-0.5,1.1l-1.1,2.1c-0.7,1.4-1.5,2.8-2.3,4.2c-0.8,1.4-1.8,2.7-2.7,4.1c-0.4,0.7-1,1.3-1.5,2c-0.6,0.6-1.1,1.3-1.7,1.9
				l-1.9,1.8l-0.5,0.4l-0.5,0.4l-1.1,0.8c-2.9,2.1-6.4,3.5-9.9,3.9c-3.5,0.5-7,0.1-10.1-0.5c-3.2-0.6-6.2-1.4-9.2-2.1
				c-3.2-0.8-6.2-2-9.1-3.2l-2-0.9c-0.5-0.2-1-0.4-1.4-0.7c-0.9-0.5-1.9-0.9-2.8-1.4c0,0-0.5-0.3-1.4-0.8c-0.9-0.5-2.1-1.3-3.4-2.2
				c-2.7-1.8-6-4.2-8.6-6.4c-4.4-3.6-5.4-5.2-4.5-5.3c0.8-0.2,3.5,1,6.6,2.6c-0.3-0.3,3.4,1.7,7.2,3.6c3.8,1.9,7.7,3.5,7.7,3.5
				l2.6,1.3l1.3,0.6l1.2,0.5c0.7,0.3,1.3,0.5,2,0.8c1.3,0.6,2.7,1,4.1,1.5c1.4,0.4,2.7,0.8,4.2,1.1c2.9,0.7,5.8,1.5,8.6,1.9
				c2.8,0.4,5.5,0.5,7.9-0.1c2.5-0.5,4.7-1.7,6.8-3.3c4-3.4,7.1-8.4,9.7-13.6l1-2l0.8-1.9c0.5-1.3,1-2.6,1.3-4
				c0.4-1.4,0.7-2.8,1-4.2c0.3-1.4,0.5-2.8,0.7-4.3c0.8-5.8,1.1-11.7,1.1-17.6c-0.1-11.9-1.3-23.8-3.1-35.7
				C849,400.6,848.4,397.2,847.8,393.9z"/>
		</g>
	</g>
</g>
<g>
	<g>
		<g>
			<path class="st2" d="M852.9,430.6c-0.1-0.1-0.1-0.2-0.1-0.4c0.1-0.8,0.4-1.9,1.1-2.6c0.7-0.7,2-1.1,4-0.2c0.1,0,0.4,0.2,0.5,0.3
				c1.7,3.1,3.2,6.2,4.7,9.4l1.1,2.6c0.8,1.8,1.5,3.6,2.2,5.5c0,0,0.1,0.4,0.3,1.1c0.2,0.7,0.4,1.7,0.7,2.9c0.2,1.2,0.5,2.7,0.5,4.3
				c0,0.4,0,0.8,0,1.3c0,0.4-0.1,0.9-0.2,1.4c0,0.2-0.1,0.5-0.2,0.8c-0.1,0.3-0.2,0.5-0.4,0.8c-0.3,0.6-0.7,1-1.1,1.4
				c-0.2,0.2-0.4,0.3-0.6,0.4c-0.2,0.1-0.4,0.2-0.5,0.3c-0.4,0.2-0.7,0.4-1.1,0.5c-0.7,0.3-1.4,0.5-2.1,0.7c-3,0.7-4.9,0.6-6,0.4
				c-1.1-0.2-1.4-0.5-1.1-0.8c0.5-0.6,3.3-1.4,6.1-2.9c-0.1,0,0.2-0.1,0.7-0.4c0.3-0.1,0.5-0.3,0.8-0.6c0.1-0.1,0.3-0.2,0.4-0.4
				c0.1-0.1,0.3-0.3,0.3-0.4c0-0.1,0.1-0.1,0.1-0.2c0-0.1,0-0.2,0-0.4c0-0.2,0-0.4,0-0.7c0-0.3,0-0.5-0.1-0.8
				c-0.2-1.2-0.6-2.4-1-3.6c-0.8-2.3-1.6-4.1-1.6-4.1c-0.6-1.5-1.2-3-1.8-4.4l-1.1-2.5C856,436.6,854.5,433.6,852.9,430.6z"/>
		</g>
	</g>
</g>
<g>
	<g>
		<g>
			<path class="st2" d="M840.1,407.2c0.1,0,0.1,0,0.1,0.2c0.1,0.5,0.1,1.4-0.3,2.3c-0.2,0.5-0.5,1-0.8,1.5c-0.3,0.5-0.7,1.1-1.1,1.6
				c0,0-0.2,0.2-0.2,0.2c0,0-0.3-0.1-0.6-0.2c-0.4-0.1-1-0.3-1.7-0.5c-1.4-0.3-3.3-0.4-5,0c-0.4,0.1-0.9,0.2-1.3,0.4
				c-0.4,0.2-0.8,0.3-1.2,0.5c-0.4,0.2-0.7,0.4-1,0.6c-0.3,0.2-0.6,0.4-0.9,0.6c-0.5,0.4-1,0.8-1.2,1.1c-0.3,0.3-0.4,0.5-0.4,0.5
				s-0.1,0.1-0.4,0.2c-0.2,0.1-0.6,0.3-0.9,0.7c-0.7,0.6-1.7,1.3-2.5,2c-1.3,1.2-2.2,1.4-2.7,1c-0.5-0.4-0.5-1.5-0.3-2.7
				c-0.1,0,0-0.3,0.1-0.8c0.1-0.5,0.5-1.2,0.7-1.9c0.3-0.7,0.6-1.4,0.9-1.9c0.3-0.5,0.5-0.9,0.5-0.9s0.2-0.2,0.6-0.7
				c0.4-0.4,1.1-1,1.8-1.6c0.4-0.3,0.8-0.7,1.4-1c0.5-0.3,1-0.7,1.6-0.9c0.6-0.3,1.2-0.5,1.9-0.8c0.7-0.2,1.3-0.4,2-0.5
				c2.8-0.6,5.5-0.4,7.5,0.1C838.7,406.6,840,407.2,840.1,407.2z"/>
		</g>
	</g>
</g>
<path class="st1" d="M846.4,424.9c0,0-3.1-6.7-9.5-4.3c-4.2,1.6-1,12.3,3.5,12.8C844.9,433.8,849.2,432.1,846.4,424.9z"/>
<g>
	<g>
		<g>
			<path class="st2" d="M828.6,468.6c0,0,0.1,0,0.1,0.2c0.1,0.5,0.3,1.3,0.3,2.3c0,1-0.1,2.2-0.8,3.5c0,0-0.1,0.2-0.2,0.2
				c-0.1,0-1.3-0.1-3.1-0.5c-1.8-0.4-4.2-1-6.4-2c-2.3-1-4.5-2.5-5.9-3.9c-0.4-0.4-0.7-0.7-1-1c-0.3-0.3-0.5-0.6-0.7-0.8
				c-0.4-0.5-0.5-0.8-0.5-0.8s-0.4-0.8-0.6-2c-0.3-1.2-0.3-2.7,0-3.9c0.2-1,0.5-1.6,0.8-1.9c0.3-0.3,0.6-0.4,0.9-0.3
				c0.6,0.2,1.1,0.9,1.7,1.8c0-0.1,0.5,0.9,1.1,1.7c0.6,0.8,1.4,1.5,1.4,1.5s0.4,0.7,1.3,1.5c0.9,0.9,2.4,1.9,4.1,2.6
				c1.7,0.8,3.6,1.3,5.1,1.6c0.7,0.1,1.3,0.2,1.8,0.3C828.3,468.6,828.5,468.6,828.6,468.6z"/>
		</g>
	</g>
</g>
<g>
	<g>
		<g>
			<path class="st2" d="M792,483.2c0.1-0.1,0.2-0.1,0.4,0c1.6,0.2,4.4,1.4,2.6,5.2c0,0.1-0.2,0.4-0.3,0.4l-9.3,4.5l-2.8,1.4
				l-5.2,2.5c0,0-8.8,3.6-15.2,5.6c-10.7,3.7-7.3,0.5-1.3-3.2c-0.7,0.2,14.5-8.4,14.5-8.4l4.4-2.2l2.8-1.4L792,483.2z"/>
		</g>
	</g>
</g>
<g>
	<g>
		<g>
			<path class="st2" d="M512.5,436.3c-0.2,0-0.2,0-0.4-0.1c-1.5-0.7-3.7-2.7-0.7-5.8c0.1-0.1,0.3-0.3,0.5-0.3c0.2,0,4-0.4,9.5-1
				c5.2-0.5,10.7-1.1,16.3-1.7c8.4-0.8,17.1-1.7,26-2.5c17.8-1.6,36.6-3.1,56-4c9.7-0.5,19.6-0.8,29.7-0.6
				c5.1,0.1,10.1,0.3,15.4,1.1c1.3,0.2,2.5,0.4,3.8,0.6l3.8,0.7c2.5,0.5,5,1,7.5,1.6c5,1.1,10.1,2.5,15,4.2c5,1.7,9.9,3.7,14.6,6.5
				c1.1,0.7,2.3,1.4,3.4,2.2l1.7,1.2c0.5,0.4,1.1,0.9,1.6,1.3c1.1,0.8,2.1,1.8,3.1,2.8c0.9,1,1.9,2,2.8,3.1c0.9,1.1,1.7,2.2,2.5,3.3
				l2.2,3.1c1.5,2.1,2.9,4.1,4.5,6.2c3,4.1,6.2,8.1,9.3,12.3c3.1,4.2,6.1,8.6,8.5,13.5c2.4,4.8,4.2,10,5.3,15.2
				c0.3,1.3,0.5,2.7,0.7,4c0.1,0.7,0.2,1.4,0.2,2.1l0.1,1.9c0.2,2.5,0.3,5.1,0.5,7.6c1.1,20.3,1.6,40.3,1.2,59.6
				c0,1.2,0,2.4-0.1,3.6c0,1.2-0.1,2.4-0.1,3.6c-0.1,2.4-0.2,4.8-0.2,7.2c-0.1,2.4-0.3,4.7-0.4,7.1c-0.1,2.4-0.2,4.7-0.5,7
				c-0.4,4.7-0.7,9.3-1.3,13.8c-0.3,2.3-0.5,4.5-0.9,6.8c-0.4,2.2-0.7,4.5-1.1,6.7c-0.3,2.2-0.9,4.4-1.4,6.6
				c-0.2,1.1-0.5,2.2-0.7,3.2l-0.2,0.8c0-0.1,0-0.1,0-0.1l0.2,0.9c1.1,4.2,2.1,8.2,3.2,12.3c2.1,8,4,15.8,5.9,23.3
				c1.8,7.5,3.6,14.7,5.2,21.5c0.8,3.4,1.5,6.8,2.3,10c0.4,1.9,0.8,3.8,1.2,5.6c0.2,1.1,0.4,2,0.6,2.8c0.3,1.6,0.5,2.5,0.5,2.5
				s0.4,2.4,0.7,5.6c0.2,1.6,0.4,3.4,0.5,5.2c0.1,1.8,0.2,3.7,0.3,5.4c0.2,5.7-0.2,7.5-0.9,7c-0.7-0.5-1.6-3.3-2.5-6.6
				c0,0.4-1-3.7-2.1-7.8c-0.5-2.1-1.1-4.1-1.5-5.7c-0.4-1.6-0.7-2.6-0.7-2.6s-0.2-0.9-0.5-2.4c-0.1-0.4-0.2-0.8-0.3-1.3
				c-0.3-1.6-0.7-3.2-1.1-5c-2.7-12-5.9-25.5-9.6-40.2c-1.8-7.3-3.8-15-5.9-22.9c-0.5-2-1.1-4-1.6-6.1c-0.1-0.5-0.3-0.9-0.3-1.4
				l0.4-1.6l0.3-1.5c0.2-1,0.5-2,0.7-3c0.2-1,0.5-2,0.7-3c0.2-1,0.4-2.1,0.5-3.1c0.3-2.1,0.7-4.2,1-6.3c2.4-17,3.2-35.3,3.4-54.2
				c0.1-18.9-0.4-38.5-1.6-58.4l-0.2-3.7c-0.1-0.7,0-1.1-0.2-1.7l-0.3-1.7l-0.3-1.7l-0.4-1.7l-0.4-1.7c-0.1-0.6-0.3-1.1-0.5-1.7
				c-1.3-4.6-3.3-8.9-5.8-13.1c-2.5-4.2-5.4-8.2-8.5-12.2c-3.1-4-6.2-8.1-9.2-12.2c-1.5-2-3-4.3-4.4-6.3c-1.3-2-2.9-3.7-4.5-5.4
				c-3.4-3.2-7.4-5.9-11.7-8c-4.3-2.1-9-3.8-13.7-5.3c-4.7-1.4-9.5-2.6-14.3-3.6l-3.6-0.8l-3.6-0.7c-1.2-0.2-2.5-0.5-3.6-0.6
				c-1.2-0.2-2.3-0.3-3.5-0.4c-4.8-0.5-9.7-0.6-14.5-0.6c-9.7-0.1-19.4,0.3-28.9,0.8c-19,1-37.5,2.5-55,4
				c-8.8,0.8-17.3,1.6-25.5,2.4c-5.1,0.5-10,1-14.7,1.5C516.4,435.8,512.7,436.2,512.5,436.3z"/>
		</g>
	</g>
</g>
<path class="st1" d="M526.7,428.4c0,0-54.5-4.7-81,43.2c-23.6,42.6,2.5,101.2,5,120.7c2.5,19.5,15.1,54.2,15.1,54.2
	s61.8,3.4,83.2-7.3c0,0,5.7-79,4.4-92.9C552.3,532.4,519.7,492.7,526.7,428.4z"/>
<g>
	<g>
		<g>
			<path class="st3" d="M506.9,422.2c0-0.2,0-0.2,0.2-0.4c0.5-0.7,1.3-1.5,2.3-1.8c1-0.2,2.2,0.2,3.5,1.8c0,0.1,0.2,0.3,0.2,0.5
				c0,3.4,0,6.7,0.1,10.1c0.2,5.7,0.7,11.5,1.4,17.2c0.7,5.7,1.6,11.4,2.8,17l1.2,5.5c0,0,0.1,0.6,0.2,1.5c0.2,1,0.4,2.3,0.7,3.9
				c0.1,0.8,0.3,1.6,0.4,2.5c0.2,0.9,0.3,1.7,0.5,2.6c0.4,1.8,0.7,3.6,1,5.2c2.5,10.9-0.2,7.3-3.3,0.9c0,0.4-1.5-3.6-3-7.6
				c-0.7-2.1-1.4-4.1-1.9-5.7c-0.5-1.6-0.8-2.6-0.8-2.6l-1.1-4.9c-1.2-5.8-2.2-11.7-2.9-17.5c-0.7-5.9-1.2-11.8-1.4-17.7
				C506.8,429.2,506.8,425.7,506.9,422.2z"/>
		</g>
	</g>
</g>
<g>
	<g>
		<g>
			<path class="st2" d="M552.8,592.9c-0.2,0-0.2,0-0.4-0.1c-1.4-0.8-3.4-3-0.3-5.8c0.1-0.1,0.3-0.2,0.5-0.3c3.2-0.1,6.4-0.3,9.6-0.5
				l0.6,0l3.4-0.3l4.1-0.4c5.5-0.5,11-1.1,16.4-2.1c2.7-0.5,5.2-1.1,8.2-1.7c1.4-0.3,2.8-0.5,4.2-0.8l4.2-0.6
				c5.6-0.8,11.2-1.4,16.8-1.9c5.6-0.5,11.2-1,16.8-1.4l9.9-0.7l8.3-0.5l4.1-0.2l1.9-0.1l0.5,0l0.3,0l0.1,0c0,0-0.1,0.1-0.1,0.1
				l-1.1,0.9l-4.3,3.5c-0.8,0.6-1.3,1.1-2,1.6l-1.9,1.6c-0.7,0.5-1.1,1-1.6,1.5l-1.5,1.5l-0.7,0.8c-0.2,0.2-0.2,0.3-0.4,0.4
				l-0.6,0.8c-0.9,1-1.7,2.1-2.5,3.1c-0.8,1.1-1.6,2.1-2.3,3.3c-2.9,4.5-5.2,9.3-6.8,14.4c-0.5,1.3-0.8,2.6-1.1,3.9
				c-0.1,0.7-0.4,1.3-0.5,2l-0.3,2l-0.3,2l-0.2,2.1c-0.2,1.4-0.3,2.8-0.5,4.2c-0.6,5.7-1.1,11.4-1.7,17.1l-3.2,34.3
				c-1.1,11.4-2.3,22.9-3.9,34.3c-0.7,5.7-1.7,11.4-2.8,17.2l-1,4.3c-0.3,1.5-0.9,3-1.3,4.4c-1,2.8-2.2,5.5-3.4,8.2
				c-1.2,2.7-2.5,5.2-3.7,7.8c-1.2,2.5-2.2,5.1-2.9,7.6c-1.5,5-1,10,1.3,14.6c0.5,1.2,1.2,2.3,1.9,3.4l0.2,0.3l0,0c0,0,0,0,0,0
				c0,0,0,0,0.1,0.1c0.3,0.2,0.9,0.4,1.5,0.6c2.4,0.7,5.2,1.1,7.9,1.5c5.6,0.7,11.2,1.1,16.9,1.4c11.4,0.6,22.8,0.8,34.2,0.7
				c5.7,0,11.4-0.1,17.1-0.4c2.8-0.1,5.7-0.2,8.5-0.4c1.4-0.1,2.8-0.2,4.2-0.4c0.7-0.1,1.4-0.2,2-0.3c0.3,0,0.6-0.1,0.9-0.2
				c0.3,0,0.5-0.1,0.8-0.2c1-0.3,1.9-0.8,2.5-1.3c0.3-0.3,0.5-0.6,0.6-0.8c0.1-0.3,0.2-0.5,0.2-0.8c0-0.3-0.1-0.6-0.2-1
				c-0.2-0.4-0.3-0.8-0.6-1.2c-0.6-0.8-1.4-1.6-2.4-2.3c-1.9-1.5-4.3-2.7-6.8-3.7c-2.5-1-5.1-1.8-7.8-2.6c-1.3-0.3-2.8-0.8-4.2-1.2
				c-1.4-0.4-2.9-0.9-4.3-1.4c-2.8-1.1-5.5-2.2-8.2-3.5c-5.3-2.6-10.4-5.5-15.3-8.7l-3.6-2.4l-1.8-1.2l-0.9-0.6l-0.4-0.3
				c-0.3-0.2-0.6-0.4-0.9-0.6c-0.3-0.2-0.5-0.4-0.8-0.6c-0.2-0.2-0.5-0.4-0.7-0.7c-0.3-0.6-0.5-1.2-0.5-1.9c0-0.3,0-0.7,0-1.1l0-0.5
				l0-0.4c0-0.4,0.1-0.8,0.1-1.2c0.2-1.5,0.5-3,0.8-4.4c1.2-5.7,2.7-11.3,4.1-16.9l4.5-16.6c1.5-5.5,3.1-11.1,4.3-16.5l0.2-1
				l0.3-1.2c0.2-0.8,0.4-1.6,0.6-2.2c0.4-1.4,0.9-2.8,1.3-4.2c0.9-2.8,1.9-5.5,2.8-8.2c1.9-5.4,3.9-10.8,5.8-16.2l8.4-22.6l1.7-4.6
				c0,0,3.9-8.6,7.2-14.5c5.3-10,4.9-5.3,3.1,1.4c0.4-0.6-4.8,16-4.8,16l-1.7,4.5l-5.5,14.7l-5.8,15.8c-1.9,5.3-3.8,10.6-5.5,15.8
				c-0.5,1.3-0.8,2.6-1.2,3.9c-0.2,0.7-0.3,1.2-0.5,1.9l-0.2,0.9L671,688c-0.7,2.8-1.4,5.6-2.1,8.3c-2.9,10.9-6,21.7-8.7,32.5
				c-0.7,2.7-1.3,5.4-1.9,8.1c-0.3,1.3-0.6,2.7-0.8,4c-0.1,0.6-0.2,1.3-0.3,1.9l0,0.1l5.6,3.7c2.3,1.5,4.7,3,7,4.4
				c4.7,2.8,9.6,5.3,14.7,7.3l1.9,0.7l1.9,0.6c1.3,0.5,2.6,0.8,3.8,1.1c2.7,0.7,5.6,1.5,8.4,2.5c2.8,1,5.5,2.2,8.2,3.8
				c1.3,0.8,2.6,1.8,3.9,2.9c1.2,1.2,2.4,2.5,3.2,4.4c0.4,0.9,0.7,2,0.8,3.1c0.1,1.1-0.1,2.3-0.5,3.3c-0.8,2.1-2.4,3.7-4,4.7
				c-1.6,1-3.3,1.6-5.1,1.9c-1.6,0.3-3,0.4-4.4,0.5c-5.7,0.5-11.4,0.7-17,0.9c-5.7,0.1-11.3,0.2-16.9,0.2c-11.3,0-22.6-0.3-33.9-1
				c-5.7-0.4-11.3-0.8-17.1-1.8c-1.4-0.3-2.9-0.5-4.4-1c-0.8-0.2-1.5-0.5-2.4-0.8c-0.5-0.2-0.8-0.4-1.5-0.8
				c-0.3-0.2-0.5-0.4-0.8-0.7l-0.7-0.8l-1.2-2.1c-0.4-0.7-0.8-1.3-1.1-2c-0.6-1.4-1.3-2.8-1.7-4.3c-0.6-1.5-0.8-3.1-1.1-4.6
				c-0.1-1.6-0.3-3.2-0.1-4.8c0.2-3.2,1-6.3,2-9.1c2.1-5.6,4.8-10.5,7-15.6c1.1-2.5,2.1-5,2.8-7.5l0.3-0.9l0.2-1l0.4-2l0.4-2l0.4-2
				l0.7-4.1l0.6-4.1c0.4-2.7,0.8-5.5,1.2-8.3c1.4-11.1,2.6-22.2,3.7-33.4l3.2-33.6c0.5-5.6,1.1-11.2,1.7-16.8l0.5-4.2l0.3-2.1
				l0.4-2.2l0.4-2.2c0.1-0.7,0.3-1.4,0.5-2.2c0.4-1.4,0.7-2.9,1.2-4.3c1.8-5.6,4.3-11,7.5-15.9c0.8-1.3,1.7-2.4,2.5-3.6
				c0.9-1.1,1.8-2.3,2.7-3.4l1.1-1.3l-6.9,0.5c-5.6,0.4-11.1,0.9-16.7,1.4c-5.5,0.5-11.1,1.1-16.6,1.9l-4.1,0.6
				c-1.3,0.2-2.7,0.5-4,0.7c-2.5,0.5-5.5,1.2-8.3,1.7c-5.7,1-11.3,1.7-16.9,2.2l-4.2,0.4l-3.5,0.3l-0.6,0
				C559.3,592.6,556,592.7,552.8,592.9z"/>
		</g>
	</g>
</g>
<path class="st1" d="M644.1,547.2l-3,31.8c0,0-81.9,10.7-93.3,10.7l1.2-56.2L644.1,547.2z"/>
<g>
	<g>
		<g>
			<path class="st3" d="M557.8,595.6c0,0,0,0.1-0.2,0.1c-0.5,0.1-1.3,0-2.3-0.2c-1-0.3-2.1-0.7-3.3-1.5c0,0-0.2-0.1-0.2-0.2
				c0,0,0.3-0.9,0.6-2.2c0.3-1.3,0.7-3,1-4.7c0.6-3.4,0.6-6.8,0.6-6.8s0.2-0.5,0.4-1.3c0.3-0.7,0.6-1.7,1-2.5c1-2.8,2.4-2.1,3.4-0.3
				c0.1-0.1,0.4,1,0.8,2.1c0.1,0.6,0.3,1.1,0.4,1.6c0.1,0.4,0.2,0.7,0.2,0.7s0,0.2,0,0.7c0,0.4,0,1-0.1,1.7
				c-0.1,1.4-0.3,3.3-0.6,5.2c-0.3,1.9-0.7,3.7-1,5.1C558.1,594.6,557.8,595.6,557.8,595.6z"/>
		</g>
	</g>
</g>
<g>
	<g>
		<g>
			<path class="st2" d="M633.1,618.5c-0.1-0.1-0.2-0.1-0.3-0.4c-0.3-0.8-0.5-2-0.1-2.9c0.5-0.9,1.5-1.6,3.5-1.8c0.1,0,0.4,0,0.5,0.1
				c2.6,1.9,5.4,3.7,8.4,5.2c1.1,0.6,2.1,1.1,3.2,1.6l1.6,0.8l1.7,0.7c1.7,0.8,3.4,1.3,5.2,2c0,0,0.5,0.2,1.4,0.6
				c0.9,0.3,2.1,0.9,3.6,1.4c0.7,0.3,1.5,0.5,2.3,0.8c0.8,0.3,1.7,0.5,2.5,0.8c0.9,0.2,1.7,0.6,2.6,0.8c0.8,0.2,1.7,0.4,2.5,0.6
				c0.7,0.2,1.3,0.3,1.9,0.5c0.6,0.1,1.1,0.2,1.5,0.3c0.9,0.2,1.6,0.4,2.1,0.6c1,0.4,1.3,0.7,1,1c-0.3,0.3-1.2,0.5-2.4,0.7
				c-1.3,0.2-2.9,0.3-4.7,0.3c0.2,0.1-0.8,0-2.4-0.1c-0.8,0-1.7-0.2-2.7-0.3c-1-0.1-2.1-0.2-3.2-0.4c-1.1-0.2-2.2-0.4-3.2-0.6
				c-1-0.2-2-0.5-2.8-0.6c-0.8-0.2-1.5-0.4-2-0.5c-0.5-0.1-0.7-0.2-0.7-0.2c-1.6-0.6-3.2-1.1-4.8-1.8l-1.8-0.8l-1.8-0.8
				c-1.2-0.5-2.4-1.1-3.5-1.8C639.1,622.5,636.1,620.6,633.1,618.5z"/>
		</g>
	</g>
</g>
<g>
	<g>
		<g>
			<path class="st2" d="M641.1,621.8c0-0.1,0-0.1,0.2-0.1c1-0.3,3.4-0.4,5.6,1.5c0,0,0.2,0.2,0.2,0.2c-0.1,0.3-5.6,21.1-5.6,21.1
				s-1.5,3.2-3.1,5.4c-2.3,3.7-3.2,1.7-3.3-1c-0.2,0.2,0.4-6.3,0.4-6.3S641.1,622.1,641.1,621.8z"/>
		</g>
	</g>
</g>
<g>
	<g>
		<g>
			<path class="st2" d="M651,629.1c0-0.1,0-0.2,0.2-0.4c1.1-1.2,3.7-2.7,5.7,1.1c0,0.1,0.2,0.4,0.2,0.5l-2.1,10.1l-1.9,9.5l-1.1,5.6
				c0,0-2.5,9.1-4.8,15.5c-3.5,10.8-4,6.1-3.3-0.9c-0.3,0.7,2.2-16.6,2.2-16.6l1-4.8l1.9-9.5L651,629.1z"/>
		</g>
	</g>
</g>
<g>
	<g>
		<g>
			<path class="st2" d="M543.1,629.8c0-0.2,0-0.2,0.2-0.4c0.9-1.4,3.1-3.4,5.8-0.1c0,0.1,0.2,0.3,0.3,0.5c0,0.2,0,4,0,9.6
				c0,1.4,0,2.9,0,4.4c-0.1,4.6-0.2,9.2-0.3,14c-0.3,9.5-0.7,19.2-1.3,29.3c-0.6,10-1.5,20.3-2.8,30.8c-1.3,10.5-2.9,21.2-5.8,32
				c-1.5,5.4-3.2,10.8-6.1,16.1c-1.5,2.6-3.2,5.3-6.1,7.4c-0.3,0.3-0.7,0.5-1.1,0.7c-0.4,0.2-0.8,0.5-1.2,0.7l-1.3,0.5l-1.2,0.3
				c-1.5,0.4-3,0.7-4.5,0.9c-5.9,0.7-11.7,0.5-17.5,0.1c-5.7-0.4-11.4-1.1-17.1-2c-11.4-1.7-22.7-3.9-34-6.3
				c-11.3-2.4-22.6-5.1-33.8-7.9c-22.5-5.6-44.8-11.8-66.6-18.2c-5.4-1.6-10.9-3.2-16.3-4.8l-0.9-0.3l0,0c0,0,0,0,0,0
				c0,0.2-0.1,0.8-0.1,1.3c0,2.3,0.6,4.9,1.3,7.4c0.7,2.5,1.6,5,2.7,7.4c1,2.3,2.3,4.7,3.7,6.4c0.2,0.2,0.3,0.3,0.5,0.5
				c0.1,0.1,0.1,0.1,0.2,0.2c0.1,0.1,0.1,0.1,0.1,0.1c0,0,0,0,0,0c0,0.1-0.1,0.1,0.1,0l0.4,0.2c0.2,0.1,0.5,0.2,0.8,0.3
				c1,0.4,2.3,0.7,3.5,1c2.5,0.6,5.3,1,8.3,2c1.5,0.5,3.1,1.3,4.5,2.5c0.4,0.3,0.7,0.7,1,1c0.3,0.4,0.6,0.8,0.9,1.2
				c0.5,0.8,1,1.9,1.2,2.9c0.4,2.1-0.1,4.1-0.9,5.7c-0.8,1.6-1.8,2.9-2.9,4.1c-2.2,2.3-4.8,3.9-7.6,5.1c-2.8,1.1-5.7,1.8-8.6,2
				c-1.4,0.1-3,0.1-4.2,0c-1.3,0-2.6-0.1-3.9-0.1c-2.6-0.1-5.2-0.2-7.8-0.5c-5.2-0.5-10.5-1.3-15.6-3.4c-2.5-1.1-5-2.5-7.1-4.7
				c-2.1-2.1-3.7-4.8-4.3-7.7c-0.2-0.7-0.3-1.4-0.4-2.1l-0.2-1.8c-0.1-1.1-0.3-2.2-0.5-3.3c-0.4-2.3-0.9-4.5-1.4-6.8
				c-2-9-4.2-17.9-5.1-26.8c-0.5-4.4-0.7-8.9-0.1-13.4c0.3-2.2,0.8-4.5,1.6-6.7c0.9-2.2,2.2-4.3,3.9-6c1.7-1.8,3.9-2.9,6.1-3.7
				c0.6-0.2,1.1-0.3,1.6-0.5c0.5-0.1,1-0.2,1.5-0.3c1-0.2,2-0.4,3-0.5c2-0.3,3.9-0.4,5.8-0.5c0.3,0,0.6,0,0.9,0c1.2,0,2.2,0,3,0
				c1.6,0.1,2.6,0.1,2.6,0.1s0.6,0.1,1.6,0.2c1,0.1,2.4,0.4,4,0.7c3.2,0.6,7.2,1.6,10.4,2.8c5.5,1.8,6.9,3,6.2,3.4
				c-0.7,0.4-3.6,0.2-7-0.1c0.3,0.1-3.8-0.4-7.9-0.6c-1-0.1-2.1-0.1-3.1-0.2c-1,0-1.9-0.1-2.7-0.1c-0.8,0-1.4,0-1.9,0
				c-0.5,0-0.7,0-0.7,0s-0.9,0-2.4-0.1c-0.4,0-0.8,0-1.2,0c-0.2,0-0.5,0-0.7,0c-0.1,0-0.2,0-0.4,0l-0.6,0c-0.4,0-0.8,0-1.2,0.1
				c-0.8,0.1-1.6,0.1-2.4,0.2c-0.8,0.1-1.6,0.2-2.4,0.3c-0.8,0.2-1.6,0.3-2.4,0.5c-0.4,0.1-0.7,0.2-1.1,0.3c-0.3,0.1-0.7,0.2-1,0.3
				c-0.6,0.3-1.3,0.6-1.8,1c-1.1,0.8-2.1,1.7-2.9,3c-0.8,1.3-1.4,2.8-1.7,4.4c-0.1,0.4-0.2,0.8-0.3,1.3l-0.2,1.3
				c-0.1,0.9-0.2,1.8-0.2,2.7c-0.1,1.8,0,3.7,0,5.7c0.2,3.9,0.8,7.9,1.5,12c0.7,4.1,1.7,8.3,2.6,12.6c1,4.3,2,8.7,2.8,13.4l0.3,1.8
				l0.2,1.8c0.1,0.9,0.3,1.9,0.6,2.7c0.5,1.7,1.6,3.2,3,4.5c2.8,2.5,7.1,4,11.6,4.9c4.5,0.9,9.3,1.2,14.3,1.4c1.2,0,2.5,0.1,3.7,0.1
				c1.3,0.1,2.4,0.1,3.5,0c2.2-0.1,4.4-0.6,6.5-1.4c2-0.8,4-2,5.5-3.4c0.7-0.7,1.4-1.5,1.8-2.3c0.4-0.8,0.7-1.6,0.6-2.2
				c0-0.3-0.1-0.5-0.2-0.7c0-0.1-0.2-0.3-0.2-0.4c-0.1-0.2-0.2-0.3-0.3-0.4c-0.5-0.5-1.2-1-2.1-1.4c-1.9-0.8-4.4-1.3-7.1-1.8
				c-1.3-0.3-2.7-0.6-4.2-1c-0.4-0.1-0.7-0.2-1.1-0.4c-0.4-0.1-0.7-0.3-1.1-0.4l-0.6-0.3c-0.2-0.1-0.4-0.1-0.7-0.3
				c-0.3-0.2-0.5-0.3-0.8-0.5l-0.6-0.5c-0.4-0.3-0.6-0.6-1-1l-0.8-1l-0.7-1l-0.6-1c-0.8-1.3-1.5-2.6-2.1-3.9c-1.2-2.6-2.3-5.2-3.1-8
				c-0.9-2.7-1.6-5.5-1.9-8.6c-0.1-0.8-0.1-1.6-0.1-2.4c0-0.4,0-0.9,0.1-1.3c0-0.2,0.1-0.5,0.1-0.8c0.1-0.3,0.1-0.5,0.2-0.8
				c0.2-0.6,0.4-1.3,0.8-1.9c0.2-0.3,0.3-0.6,0.6-0.8c0.2-0.2,0.4-0.5,0.7-0.7c1-0.9,2.4-1.2,3.7-1.1c0.3,0,0.7,0.1,1,0.1
				c0.3,0.1,0.6,0.1,0.9,0.2l1,0.3l2,0.6c1.3,0.4,2.7,0.8,4,1.2c5.3,1.5,10.7,3.1,16,4.7c21.5,6.2,43.4,12.2,65.5,17.6
				c11,2.7,22.1,5.3,33.2,7.6c11.1,2.3,22.1,4.4,33.2,5.9c5.5,0.7,11,1.3,16.4,1.6c2.7,0.1,5.4,0.2,8.1,0.1c2.6-0.1,5.3-0.4,7.6-0.9
				l0.9-0.2l0.4-0.1l0.3-0.1c0.4-0.1,0.8-0.4,1.2-0.6c0.8-0.6,1.6-1.3,2.3-2.2c1.5-1.8,2.7-4,3.8-6.3c2.1-4.7,3.6-9.7,4.9-14.8
				c2.5-10.2,4-20.6,5.1-30.8c1.2-10.2,2-20.3,2.5-30.1c0.6-9.8,1-19.4,1.2-28.7c0.1-4.6,0.2-9.2,0.3-13.7c0-0.9,0-1.8,0-2.7
				C543.1,633.7,543.1,630,543.1,629.8z"/>
		</g>
	</g>
</g>
<g>
	<g>
		<g>
			<path class="st2" d="M464.9,639.6c0-0.1,0-0.2,0.1-0.4c0.5-1.5,2.3-4,5.7-1.4c0.1,0,0.3,0.3,0.4,0.4l2.3,10.1l10.3,44.8l1.3,5.6
				c0,0,1.5,9.4,2.1,16c1.2,11.3-1.1,7.2-3.4,0.6c0,0.7-4.9-16-4.9-16l-1.1-4.8l-10.3-44.8L464.9,639.6z"/>
		</g>
	</g>
</g>
<g>
	<g>
		<g>
			<path class="st2" d="M487.2,718.2c0.1,0,0.2,0,0.4,0.2c1.2,1.1,2.7,3.7-1,5.7c-0.1,0-0.4,0.2-0.5,0.2c-3.4-0.6-6.7-1.2-10.1-1.8
				c-19.2-3.3-38.6-5.9-58-8c-9.7-1.1-19.4-1.9-29.2-2.7c-4.9-0.4-9.7-0.7-14.6-1l-2-0.1l-1.5-0.1l-3-0.1c0,0-2.3-0.3-5.5-0.7
				c-3.2-0.5-7.2-0.9-10.5-1.5c-11.2-1.7-6.7-2.9,0.3-3.4c-0.4-0.1,3.8-0.3,8.1-0.4c4.3-0.1,8.7-0.1,8.7-0.1l3,0.1l1.5,0.1l3,0.2
				c4.8,0.3,9.6,0.6,14.5,1c4.8,0.4,9.6,0.8,14.4,1.2l7.2,0.7l7.2,0.8c19.2,2.1,38.3,4.7,57.4,8
				C480.4,716.9,483.8,717.5,487.2,718.2z"/>
		</g>
	</g>
</g>
<g>
	<g>
		<g>
			<path class="st2" d="M446.4,715.2c0-0.1,0-0.1,0.1-0.2c0.4-0.3,1.2-0.7,2.2-0.9c1-0.2,2.2-0.1,3.6,0.7c0,0,0.2,0.2,0.3,0.2
				c0,0.1,0,2,0,4.7c0,2.8-0.2,6.4-0.5,10c-0.3,3.6-0.7,7.2-1.1,9.9c-0.2,1.3-0.4,2.5-0.6,3.2c-0.1,0.8-0.2,1.2-0.2,1.2
				s-0.1,0.3-0.3,0.8c-0.2,0.5-0.4,1.1-0.8,1.9c-0.6,1.5-1.6,3.3-2.4,4.8c-3,4.9-3.6,2.2-3.3-1.1c-0.1,0.1,0.2-1.8,0.4-3.8
				c0.1-1,0.2-2,0.3-2.8c0-0.8,0.1-1.3,0.1-1.3s0.1-0.4,0.2-1.1c0.1-0.7,0.3-1.8,0.5-3c0.4-2.5,0.8-5.9,1-9.3
				c0.3-3.4,0.4-6.9,0.4-9.5C446.5,717.1,446.4,715.3,446.4,715.2z"/>
		</g>
	</g>
</g>
<g>
	<g>
		<g>
			<path class="st2" d="M448.4,725.6c0.1,0,0.1,0,0.2,0.2c0.6,0.9,1.3,3.3-0.6,5.8c0,0-0.2,0.2-0.3,0.2c-0.4,0-28.6-3.1-28.6-3.1
				s-4.5-1.1-7.7-2.4c-5.3-1.9-3-3,0.5-3.4c-0.3-0.2,8.2-0.3,8.2-0.3S448,725.6,448.4,725.6z"/>
		</g>
	</g>
</g>
<g>
	<g>
		<g>
			<path class="st2" d="M329.3,740.4c0,0,0,0,0,0.2c0,0.5,0,1.3-0.3,2.3c-0.3,1-0.8,2.1-1.4,3.3c0,0-0.1,0.2-0.1,0.2
				c0,0-0.2,0-0.4-0.1c-0.2-0.1-0.6-0.1-1-0.2c-0.9-0.2-2-0.3-3.1-0.3c-1.1,0-2.2,0.1-3,0.3c-0.8,0.2-1.3,0.4-1.3,0.4
				s-0.4,0-0.9-0.1c-0.5-0.1-1.3-0.1-2-0.2c-1.1,0-1.8-0.4-2.1-0.9c-0.3-0.5-0.1-1.3,0.3-2c-0.1,0,0.5-0.7,1.2-1.4
				c0.7-0.6,1.6-1.2,1.6-1.2s0.2-0.1,0.5-0.2c0.3-0.1,0.8-0.3,1.4-0.4c1.2-0.3,2.8-0.5,4.3-0.5C326.2,739.5,329.2,740.4,329.3,740.4
				z"/>
		</g>
	</g>
</g>
<g>
	<g>
		<g>
			<path class="st2" d="M330.9,751.1c0,0,0,0,0.1,0.2c0.1,0.5,0.2,1.3,0.2,2.3c-0.1,1-0.3,2.2-0.7,3.5c0,0-0.1,0.2-0.1,0.2
				c0,0-0.2,0-0.5,0c-0.3,0-0.8-0.1-1.3-0.1c-1.1,0-2.5-0.1-3.9,0c-2.8,0.1-5.4,0.8-5.4,0.8s-1.8-0.2-3.4-0.6
				c-1.2-0.2-1.9-0.7-2-1.3c-0.1-0.6,0.2-1.3,0.8-2c-0.1-0.1,0.7-0.6,1.5-1.2c0.4-0.3,0.9-0.5,1.2-0.7c0.3-0.2,0.6-0.3,0.6-0.3
				s0.2,0,0.5-0.1c0.3-0.1,0.8-0.2,1.5-0.3c1.2-0.2,2.8-0.4,4.4-0.5c1.6-0.1,3.2-0.1,4.4,0C330,751,330.8,751.1,330.9,751.1z"/>
		</g>
	</g>
</g>
<g>
	<g>
		<g>
			<path class="st2" d="M334,756.9c0.1,0,0.1,0,0.1,0.2c0.2,0.5,0.4,1.3,0.1,2.3c-0.1,0.5-0.3,1-0.5,1.6c-0.1,0.3-0.2,0.6-0.3,0.9
				c0,0.2-0.1,0.3-0.1,0.5l0,0l0,0l0,0l0,0c0-0.2,0-0.1,0-0.1l0,0l0,0l0,0.1l0,0.2c0,0.1,0,0.3,0,0.3c0,0,0,0.1,0,0.1c0,0,0,0,0,0
				c0,0,0,0-0.1,0c-0.1,0-0.2,0-0.5,0.1c-0.5,0.1-1.3,0.5-2.2,1.1c-0.4,0.3-0.8,0.6-1.2,0.9c-0.4,0.4-0.7,0.7-1,1c-0.6,0.6-1,1-1,1
				s-0.4,0.2-0.9,0.4c-0.6,0.2-1.3,0.5-2,0.6c-2.2,0.7-2.9-0.6-2.7-2.1c-0.1,0,0.1-0.8,0.4-1.6c0.2-0.4,0.3-0.8,0.4-1.1
				c0.1-0.3,0.2-0.5,0.2-0.5s0.5-0.5,1.2-1.3c0.8-0.7,1.8-1.7,3.1-2.6c1.3-0.9,2.8-1.6,4.1-2C332.6,756.8,333.9,756.9,334,756.9z"/>
		</g>
	</g>
</g>
<g>
	<g>
		<g>
			<path class="st2" d="M338.2,761.5c0,0,0,0,0.1,0.1c0.3,0.3,0.8,1,1.3,1.9c0.4,0.9,0.9,2.1,1.3,3.3c0,0,0.1,0.2,0.1,0.2
				c0,0-0.1,0.1-0.3,0.1c-0.2,0.1-0.4,0.2-0.7,0.4c-0.6,0.4-1.3,0.9-2,1.5c-1.4,1.2-2.6,2.6-2.6,2.6s-0.3,0.1-0.8,0.3
				c-0.5,0.2-1.1,0.3-1.8,0.5c-2,0.5-2.8-0.6-2.8-2c-0.1,0,0-0.7,0.2-1.4c0.2-0.7,0.5-1.4,0.5-1.4s0.4-0.5,1-1.1
				c0.6-0.6,1.4-1.5,2.4-2.2C335.8,762.7,338,761.5,338.2,761.5z"/>
		</g>
	</g>
</g>
<g>
	<g>
		<g>
			<path class="st2" d="M331.1,702.7c0,0,0.1-0.1,0.2,0c0.5,0,1.4,0.3,2.2,0.9c0.4,0.3,0.8,0.8,1.1,1.2c0.4,0.4,0.8,1,1.2,1.5
				c0,0,0.1,0.2,0.1,0.2c0,0-0.5,0.6-1.1,1.9c-0.6,1.3-1.2,3.1-1.5,5.1c-0.3,2-0.4,4-0.4,5.6c0,0.8,0.1,1.4,0.1,1.9
				c0,0.5,0,0.7,0,0.7s0,0.2-0.1,0.5c0,0.3-0.1,0.7-0.2,1.2c-0.2,1-0.4,2.2-0.7,3.2c-0.7,3.6-2.3,2.6-3.4,0.5
				c-0.2,0.3-1.9-5.1-1.8-5.2c0,0,0-0.3,0-0.8c0-0.5-0.1-1.2-0.1-2.1c0-1.8,0.1-4.2,0.5-6.6c0.4-2.4,1.1-4.8,2-6.6
				C330.1,703.9,331,702.7,331.1,702.7z"/>
		</g>
	</g>
</g>
<g>
	<g>
		<g>
			<path class="st2" d="M618,732c-0.1,0-0.1,0-0.1-0.2c-0.1-0.5-0.1-1.4,0.3-2.3c0.3-1,1-2,2-3.1c0,0,0.2-0.2,0.2-0.2
				c0,0,0.3,0.1,0.8,0.3c0.5,0.2,1.2,0.5,2.1,0.8c1.8,0.6,4.1,1.3,6.5,1.9c2.4,0.6,4.8,1,6.7,1.2c0.9,0.1,1.7,0.2,2.2,0.3
				c0.5,0,0.8,0.1,0.8,0.1s0.8,0.2,1.8,0.6c1.1,0.3,2.4,0.8,3.6,1.3c3.9,1.3,2.4,2.7-0.1,3.4c0.1,0.1-1.4,0.3-3,0.5
				c-0.8,0.1-1.6,0.2-2.2,0.2c-0.6,0-1,0.1-1,0.1s-0.3,0-0.9-0.1c-0.6-0.1-1.4-0.2-2.4-0.3c-2-0.3-4.6-0.7-7.1-1.3
				c-2.6-0.6-5.1-1.3-7-2C619.4,732.6,618.1,732,618,732z"/>
		</g>
	</g>
</g>
<g>
	<g>
		<g>
			<path class="st2" d="M653.8,738.3c0.1,0,0.1,0,0.2,0.2c0.2,0.5,0.5,1.3,0.4,2.3c0,0.5-0.2,1.1-0.3,1.6c-0.2,0.6-0.4,1.2-0.7,1.8
				c0,0-0.1,0.2-0.1,0.2c0,0-0.3,0-0.7,0c-0.5,0-1.1,0-1.9,0.1c-1.5,0.1-3.6,0.6-5.3,1.6c-0.4,0.3-0.9,0.5-1.3,0.8
				c-0.4,0.3-0.8,0.6-1.2,0.9c-0.7,0.7-1.3,1.2-1.8,1.9c-0.5,0.6-0.9,1.1-1.1,1.5c-0.2,0.4-0.4,0.6-0.4,0.6s-0.1,0.1-0.3,0.3
				c-0.2,0.2-0.5,0.5-0.8,0.9c-0.6,0.8-1.6,1.7-2.3,2.6c-1.2,1.5-2,1.9-2.5,1.6c-0.5-0.3-0.7-1.4-0.7-2.7c-0.1,0.1,0-0.3,0-0.9
				c0-0.6,0.3-1.3,0.4-2.1c0.2-0.8,0.4-1.6,0.6-2.2c0.2-0.6,0.4-1,0.4-1s0.2-0.3,0.5-0.8c0.3-0.5,0.9-1.2,1.5-2
				c0.2-0.2,0.3-0.4,0.5-0.6c0.2-0.2,0.4-0.4,0.6-0.6c0.4-0.4,0.9-0.9,1.4-1.3c0.5-0.4,1.1-0.8,1.7-1.3c0.6-0.4,1.2-0.7,1.9-1.1
				c2.6-1.4,5.4-2,7.6-2.2C652.2,738.1,653.7,738.3,653.8,738.3z"/>
		</g>
	</g>
</g>
<g>
	<g>
		<g>
			<path class="st2" d="M656.3,744.6c0,0,0,0,0.2,0.1c0.4,0.3,1,0.8,1.5,1.7c0.6,0.8,1.2,1.9,1.7,3.2c0,0,0.1,0.2,0.1,0.3
				c0,0-0.2,0.1-0.4,0.3c-0.2,0.2-0.6,0.4-1,0.7c-0.8,0.6-1.8,1.4-2.8,2.3c-1.9,1.8-3.4,3.8-3.4,3.8s-1.4,0.9-2.9,1.6
				c-1,0.6-1.8,0.7-2.3,0.3c-0.5-0.4-0.7-1.1-0.7-2c-0.1,0,0.1-0.9,0.3-1.8c0.2-0.5,0.3-0.9,0.4-1.3c0.1-0.4,0.2-0.6,0.2-0.6
				s0.1-0.2,0.3-0.4c0.2-0.3,0.5-0.7,0.9-1.1c0.7-0.9,1.8-2,2.9-3.1c1.1-1.1,2.3-2,3.2-2.7C655.5,745.1,656.2,744.6,656.3,744.6z"/>
		</g>
	</g>
</g>
<g>
	<g>
		<g>
			<path class="st2" d="M664.4,749.2c0,0,0,0,0.2,0.1c0.4,0.3,0.9,0.9,1.4,1.8c0.5,0.9,1,2,1.4,3.3c0,0,0.1,0.2,0.1,0.3
				c0,0-0.1,0.1-0.3,0.2c-0.2,0.1-0.5,0.3-0.8,0.6c-0.7,0.5-1.6,1.2-2.4,2c-0.8,0.8-1.5,1.7-2,2.3c-0.2,0.3-0.4,0.6-0.6,0.8
				c-0.1,0.2-0.2,0.3-0.2,0.3s-0.3,0.2-0.8,0.5c-0.5,0.3-1.2,0.7-1.8,1c-2,1.2-3,0.1-3.1-1.5c-0.1,0,0-0.8,0.2-1.7
				c0.1-0.4,0.2-0.9,0.3-1.2c0.1-0.3,0.1-0.6,0.1-0.6s0.1-0.2,0.3-0.4c0.2-0.3,0.4-0.6,0.8-1.1c0.7-0.9,1.6-2,2.6-3
				c1-1,2.2-2,3.1-2.6C663.6,749.7,664.4,749.3,664.4,749.2z"/>
		</g>
	</g>
</g>
<g>
	<g>
		<g>
			<path class="st2" d="M672.6,754c0,0,0,0,0.2,0.1c0.4,0.3,1,0.8,1.7,1.5c0.6,0.8,1.4,1.8,2.1,2.9c0,0,0.1,0.2,0.1,0.2
				c0,0-0.1,0.1-0.3,0.2c-0.2,0.1-0.4,0.3-0.6,0.6c-0.5,0.5-1.2,1.2-1.8,2c-0.6,0.8-1.2,1.5-1.6,2.1c-0.4,0.6-0.6,1-0.6,1
				s-0.3,0.2-0.7,0.4c-0.4,0.3-1,0.6-1.6,0.8c-1.8,1-2.9,0-3.2-1.4c-0.1,0-0.1-0.7,0-1.5c0.1-0.8,0.2-1.5,0.2-1.5s0.3-0.5,0.8-1.3
				c0.5-0.8,1.2-1.8,2-2.7C670.7,755.7,672.6,754.1,672.6,754z"/>
		</g>
	</g>
</g>
<g>
	<g>
		<g>
			<path class="st2" d="M642.2,553c-0.2,0-0.2,0-0.4-0.2c-0.6-0.6-1.3-1.6-1.2-2.6c0-1,0.7-2.1,2.5-3.1c0.1,0,0.4-0.1,0.5-0.1
				c3.2,0.7,6.5,1.3,9.9,1.8c9.3,1.2,18.7,1.5,28,0.7c2.3-0.2,4.6-0.5,6.9-0.8l3.4-0.6c1.1-0.2,2.3-0.4,3.4-0.6
				c2.3-0.5,4.6-0.9,6.8-1.6l6.4-1.8l1.7-0.5l0.2-0.1c0.1-0.1,0,0.1,0,0.2l0,0.4v0.9l0,3.6l0,58.9l0,28.7l0,14.3l0,0.7l0,0l0.6,1.6
				l1.3,3.3l2.7,6.7c7.1,17.7,14.2,35.5,21.6,53.1c3.7,8.8,7.4,17.6,11.2,26.4c1.9,4.4,3.8,8.7,5.8,13c1,2.1,2,4.3,3.1,6.2
				c0.3,0.5,0.5,0.9,0.8,1.4c0.3,0.4,0.3,0.5,0.8,1c0.8,0.8,1.6,1.7,2.4,2.5c3.2,3.2,6.7,5.6,10.4,5.9c1.9,0.3,3.6-0.2,6.4-0.6
				c2.5-0.3,5-0.4,7.4-0.5c4.9-0.1,9.7,0,14.6,0.3c1.2,0.1,2.5,0.2,3.7,0.3c0.6,0.1,1.2,0.1,1.9,0.2l1,0.2c0.4,0.1,0.8,0.2,1.2,0.3
				l0.6,0.1l0.8,0.1c0.5,0.1,1.1,0.2,1.7,0.2c1.1,0.1,2.3,0.3,3.5,0.4c2.3,0.2,4.7,0.4,7.1,0.6l2.3,0.2c0,0,0,0,0,0l-0.7-0.9
				c-1.3-1.8-2.9-3.6-4.4-5.4c-1.5-1.8-3.1-3.5-4.7-5.2c-1.6-1.7-3.3-3.4-4.9-4.7l-0.4-0.3c0,0,0.1,0-0.2-0.1l-1.7-0.6l-3.4-1.1
				l-6.8-2.3l-5.4-1.8l-1.4-0.5l-0.1,0l-0.2,0c0,0-1.1,0-3.1,0.1c-1.3,0-2.9,0.1-4.8,0.1c-2.5,0.1-5.4,0.3-7.9,0.5
				c-2.7,0.3-4.4,0.7-5.5,0.9c-1,0.2-1.4,0.2-1.4-0.2c0.1-0.4,0.7-1.3,1.8-2c1.1-0.7,2.7-1.5,4.4-2.1c-0.4,0,3.6-1.3,7.8-2.1
				c1.7-0.3,3.4-0.6,4.9-0.9c1.2-0.2,2.2-0.3,2.9-0.4c0.2,0,0.3,0,0.5-0.1c0.3,0,0.5-0.1,0.7-0.1c0.4,0,0.6-0.1,0.6-0.1l14.6,4.9
				l3.4,1.1l1.7,0.6l1,0.3l0.8,0.4c0.3,0.1,0.5,0.3,0.6,0.4c1.2,0.9,2,1.7,3,2.6c0.9,0.9,1.7,1.7,2.6,2.6c3.3,3.5,6.5,7,9.5,10.9
				c0.4,0.5,0.8,1,1.1,1.5l0.3,0.5c0.2,0.2,0.3,0.5,0.5,0.7l0.9,1.5c0.3,0.5,0.5,1,0.7,1.5c0.1,0.2,0.2,0.5,0.3,0.7l0.2,0.7
				c0.1,0.2,0.1,0.5,0.2,0.7l0,0.6c0,0.2,0,0.4,0,0.6c0,0.2,0,0.4-0.1,0.5c-0.1,0.3-0.3,0.7-0.5,1.1c-0.3,0.4-0.5,0.6-0.7,0.7
				c-0.2,0.1-0.3,0.2-0.7,0.4c-0.2,0.1-0.4,0.2-0.6,0.2l-0.8,0.1l-0.4,0l-0.2,0c-0.1,0-0.2-0.1-0.3-0.1c-0.4-0.2-0.6-0.1-0.9-0.2
				l-1.7-0.1l-2.5-0.2c-2.4-0.2-4.7-0.3-7.1-0.6c-2.4-0.2-4.7-0.4-7.3-0.9c-0.3-0.1-0.6-0.1-1-0.2l-0.6-0.1l-0.3-0.1l-0.3-0.1
				l-0.4-0.1l-0.8-0.1c-1.1-0.1-2.2-0.3-3.3-0.4c-2.3-0.2-4.6-0.3-6.9-0.4c-4.6-0.1-9.3-0.1-13.7,0.2c-0.6,0-1.1,0.1-1.6,0.2
				c-0.6,0.1-1.1,0.1-1.6,0.2l-1.8,0.3c-0.7,0.1-1.4,0.1-2.1,0.2c-2.8,0.1-5.7-0.5-8.2-1.6c-2.5-1.2-4.7-2.7-6.6-4.4
				c-0.9-0.8-1.9-1.7-2.7-2.6c-0.4-0.4-0.9-0.9-1.3-1.3l-0.6-0.7c-0.1-0.1-0.2-0.3-0.4-0.4l-0.4-0.5l-0.4-0.5L752,766l-0.5-0.8
				c-0.3-0.6-0.6-1.1-0.9-1.6c-0.6-1.1-1.1-2.2-1.6-3.2c-1-2.2-2-4.3-3-6.5c-2-4.3-3.8-8.6-5.7-13c-3.7-8.7-7.4-17.3-10.9-26
				c-7.2-17.4-14.2-34.8-21.2-52.3l-2.6-6.6l-0.7-1.6l-0.4-0.9l-0.3-0.8c-0.1-0.3,0-0.6-0.1-0.9v-3.7v-14.1v-28.2v-53.9l-1.4,0.4
				c-1.2,0.4-2.3,0.6-3.5,0.8l-3.5,0.8c-2.4,0.5-4.8,0.8-7.1,1.2c-2.4,0.2-4.8,0.6-7.2,0.7c-9.6,0.7-19.3,0.5-28.8-0.8
				C649.1,554.4,645.6,553.8,642.2,553z"/>
		</g>
	</g>
</g>
<g>
	<g>
		<g>
			<path class="st2" d="M819.1,774c0,0,0,0,0,0.2c-0.3,0.9-1.3,3-3.7,4.5c0,0-0.2,0.1-0.3,0.1c-0.2-0.1-12.6-10.4-12.6-10.4
				s-1.6-2.2-2.4-4.1c-1.6-3,0.3-3.3,2.2-2.6c-0.1-0.2,4.3,2,4.3,2S819,773.9,819.1,774z"/>
		</g>
	</g>
</g>
<g>
	<g>
		<g>
			<path class="st2" d="M707.7,577.9c-0.1,0-0.1,0-0.2-0.2c-0.2-0.5-0.5-1.4-0.4-2.4c0.1-1,0.5-2.2,1.5-3.3c0,0,0.2-0.2,0.3-0.2
				c0.1,0,1.8,0.4,4.4,0.8c2.6,0.4,6.1,0.9,9.5,1.2c3.5,0.3,6.9,0.4,9.4,0.4c1.3,0,2.3,0,3.1-0.1c0.7,0,1.2-0.1,1.2-0.1
				s1.1,0.1,2.6,0.2c1.5,0.2,3.4,0.2,5,0.4c2.7,0,3.7,0.5,3.6,1.1c-0.1,0.6-1.4,1.5-3,2.3c0.2,0-1.8,0.7-3.9,1.2
				c-1.1,0.2-2.1,0.5-2.9,0.7c-0.8,0.1-1.4,0.2-1.4,0.2s-1.8,0.1-4.5,0.1c-2.7,0-6.3-0.1-9.9-0.4c-3.6-0.3-7.1-0.8-9.8-1.2
				C709.6,578.3,707.8,577.9,707.7,577.9z"/>
		</g>
	</g>
</g>
<g>
	<g>
		<g>
			<path class="st2" d="M769.9,499.4c0-0.1-0.1-0.2,0-0.4c0.2-0.7,0.6-1.8,1.5-2.4c0.8-0.6,2.1-0.9,4,0.3c0.1,0,0.3,0.3,0.4,0.4
				c1.2,3.5,2,7,2.5,10.7c0.2,1.8,0.3,3.7,0.3,5.5c0,1.9-0.1,3.6-0.2,5.3c-0.2,3.5-0.4,6.9-0.6,10.3c-0.5,6.9-1,13.7-1.6,20.6
				c-1.1,13.7-2.4,27.4-3.6,41.1l-1.8,20.5l-0.8,10.2c-0.2,3.4-0.5,6.8-0.6,10.1c-0.1,3.2,0.2,6.6,0.5,9.9c0.3,3.4,0.7,6.8,1.1,10.1
				c0.8,6.8,1.8,13.5,2.9,20.3c2.2,13.5,4.6,27,7.7,40.2c0.8,3.3,1.7,6.6,2.7,9.7c0.5,1.5,1.1,3.1,1.7,4.2l0.1,0.2c0,0,0,0,0.1,0.1
				c0,0.1,0.1,0.1,0.1,0.2l0.7,0.7c0.5,0.4,1,0.8,1.6,1.1c2.3,1.3,5.3,1.8,8.6,2c1.7,0.1,3.4,0.1,5.5,0.5c0.5,0.1,1.1,0.2,1.6,0.4
				c0.6,0.2,1.2,0.4,1.6,0.6c0.9,0.4,1.7,0.8,2.5,1.3c6.2,3.4,12,7.2,17.8,10.9l4.3,2.8l0.4,0.2c0.2,0.1,0.3,0.2,0.5,0.4l0.5,0.5
				l0.9,0.9l1.9,1.7l8.4,7.7l7.2,6.6l1.1,1l0.6,0.5l0.3,0.3c-0.1,0-0.2,0-0.4,0l-3,0.2c0,0-1.2,0-3.3,0.1c-1.9,0-4.7,0.1-7.8,0.1
				c-3.3-0.1-7.3-0.2-10.6-0.5c-11.3-0.6-6.9-2.3,0-3.4c-0.4,0,3.8-0.6,8-1.1c0.5-0.1,1.1-0.1,1.6-0.2l0.4,0l0.2,0c0,0,0,0,0,0
				l0.1-0.1c0.1-0.1,0.1-0.1,0.1-0.2c0-0.1-0.2-0.2-0.2-0.2l-2.8-2.5l-7.3-6.7l-4-2.6l-4.2-2.7c-2.8-1.8-5.7-3.6-8.5-5.3
				c-1.4-0.9-2.9-1.7-4.3-2.5c-0.7-0.4-1.4-0.8-2.1-1.1l-1-0.5c-0.3-0.1-0.5-0.2-0.7-0.3c-1.1-0.3-2.7-0.4-4.4-0.5
				c-1.7-0.1-3.5-0.2-5.4-0.5c-1.9-0.3-3.8-0.8-5.7-1.7c-1.9-0.8-3.6-2.1-5.1-3.5c-0.2-0.2-0.4-0.5-0.7-0.8
				c-0.2-0.3-0.4-0.6-0.5-0.8c-0.2-0.5-0.5-1-0.7-1.4l-0.6-1.3l-0.5-1.3c-0.6-1.7-1.1-3.4-1.6-5c-0.9-3.3-1.8-6.7-2.5-10
				c-3-13.3-5.4-26.7-7.5-40.1c-1-6.7-2-13.4-2.8-20.2c-0.4-3.4-0.8-6.8-1-10.2c-0.1-1.7-0.2-3.4-0.3-5.2c-0.1-1.8,0-3.6,0.1-5.3
				c0.4-6.9,0.9-13.6,1.5-20.3l1.8-20.2c1.2-13.5,2.4-26.9,3.5-40.4c0.6-6.7,1.1-13.4,1.5-20.2c0.2-3.4,0.5-6.7,0.6-10.1
				c0.1-1.7,0.2-3.4,0.2-4.9c0-1.6-0.1-3.1-0.3-4.7C771.7,505.6,770.9,502.4,769.9,499.4z"/>
		</g>
	</g>
</g>
<g>
	<g>
		<g>
			<path class="st2" d="M770,562.9c0,0,0,0,0.1,0.2c0.2,0.9,0.6,3.1,0,5.8c0,0-0.1,0.2-0.1,0.3c-0.1,0-10.4,0-10.4,0
				s-1.7-0.6-2.8-1.6c-2-1.3-1.2-2.7,0-3.4c-0.1-0.1,2.9-1.2,2.9-1.2S769.8,562.9,770,562.9z"/>
		</g>
	</g>
</g>
<g>
	<g>
		<g>
			<path class="st2" d="M420.8,827.6c-0.2,0-0.2,0-0.4-0.1c-1.4-0.8-3.5-3-0.3-5.8c0.1-0.1,0.3-0.2,0.5-0.3c0.2,0,4-0.1,9.5-0.3
				c18-0.6,37.4-1.3,58-2c24.5-0.7,50.3-1.5,76.9-2.3c53.3-1.5,109.9-3,166.5-4.1c113.1-2.2,226-3.3,310.5-0.9
				c10.6,0.3,20.7,0.7,30.3,1.1c4.8,0.3,9.5,0.5,14.1,0.7c2.3,0.1,4.5,0.2,6.7,0.4c0.3,0,0.6,0,1,0.1c1.1,0.1,2.1,0.2,2.9,0.2
				c1.6,0.1,2.5,0.2,2.5,0.2s2.4,0.4,5.5,0.8c3.2,0.5,7.2,1.3,10.4,2.1c11.1,2.4,6.4,3.3-0.6,3.4c0.4,0.1-3.8,0-8.1-0.1
				c-4.3,0-8.6-0.1-8.6-0.1s-0.9-0.1-2.4-0.2c-0.4,0-0.8-0.1-1.3-0.1c-0.2,0-0.5,0-0.7-0.1c-0.1,0-0.3,0-0.4,0
				c-0.8-0.1-1.6-0.1-2.4-0.2c-1-0.1-2.1-0.1-3.1-0.2c-4.2-0.2-8.6-0.5-13-0.7c-4.5-0.2-9.1-0.4-13.8-0.6
				c-9.5-0.4-19.4-0.6-29.8-0.9c-83.2-2-194.3-0.9-305.9,1.4c-55.8,1.1-111.6,2.6-164.1,4.1c-26.3,0.8-51.7,1.6-75.8,2.3
				c-19.5,0.7-38.1,1.3-55.2,1.9C424.7,827.5,421,827.6,420.8,827.6z"/>
		</g>
	</g>
</g>
<g>
	<g>
		<g>
			<path class="st2" d="M862.3,770.9c-0.2,0-0.2,0-0.4-0.2c-1.4-0.9-3.3-3.1-0.1-5.8c0.1,0,0.3-0.2,0.5-0.3l10.3,0l395.8,0
				c0,0,9.5,0.6,16.1,1.6c11.3,1.3,6.8,2.7-0.2,3.4c0.7,0.1-16.7,1.2-16.7,1.2h-395H862.3z"/>
		</g>
	</g>
</g>
<g>
	<g>
		<g>
			<path class="st2" d="M753.7,764.7c0.1,0,0.1,0,0.1,0.2c0.5,0.9,1.2,3.1,0,5.8c0,0-0.1,0.2-0.2,0.3c-0.3,0-21.2,0-21.2,0
				s-3.4-0.6-5.8-1.6c-4.1-1.3-2.4-2.7,0.1-3.4c-0.3-0.1,6-1.2,6-1.2S753.4,764.7,753.7,764.7z"/>
		</g>
	</g>
</g>
<g>
	<g>
		<g>
			<path class="st2" d="M602.4,764.7c0.2,0,0.2,0,0.4,0.2c1.4,0.9,3.3,3.1,0.1,5.8c-0.1,0-0.3,0.2-0.5,0.3l-10.3,0l-14.4,0l-5.8,0
				c0,0-9.5-0.6-16.1-1.6c-11.3-1.3-6.8-2.7,0.2-3.4c-0.7-0.1,16.7-1.2,16.7-1.2h4.9h14.4H602.4z"/>
		</g>
	</g>
</g>
<g>
	<g>
		<g>
			<path class="st2" d="M868.2,734.6c-0.2,0-0.2,0-0.4-0.2c-1.4-0.9-3.3-3.1-0.1-5.8c0.1,0,0.3-0.2,0.5-0.3l10.3,0l300,0
				c0,0,9.5,0.6,16.1,1.6c11.3,1.3,6.8,2.7-0.2,3.4c0.7,0.1-16.7,1.2-16.7,1.2H878.5H868.2z"/>
		</g>
	</g>
</g>
<g>
	<g>
		<g>
			<path class="st2" d="M1217.1,734.6c-0.2,0-0.2,0-0.4-0.2c-1.4-0.9-3.3-3.1-0.1-5.8c0.1,0,0.3-0.2,0.5-0.3l10.3,0l9,0l5.8,0
				c0,0,9.5,0.6,16.1,1.6c11.3,1.3,6.8,2.7-0.2,3.4c0.7,0.1-16.7,1.2-16.7,1.2h-4.9h-9H1217.1z"/>
		</g>
	</g>
</g>
<polygon class="st1" points="1185.3,734.2 1005.7,813.5 814.7,814.4 1044.4,731.2 "/>
<g>
	<g>
		<g>
			<path class="st2" d="M710.4,547.2c0,0,0,0.1-0.2,0.1c-0.9,0.3-3.2,0.7-5.8-0.1c0,0-0.2-0.1-0.2-0.1c0-1.1,0-2.3,0-3.3
				c0-0.5,0-1.1-0.1-1.5c0-0.2-0.1-0.5-0.1-0.6c0,0,0,0,0,0c0,0.1-0.1-0.1-0.2-0.3c-0.1-0.2-0.3-0.3-0.4-0.5c-0.3-0.4-0.6-0.7-1-1.1
				c-0.7-0.8-1.5-1.5-2.3-2.3c0,0-1.1-1.9-1.7-3.6c-1.1-2.7,0.5-3.1,2.3-2.6c0-0.1,0.9,0.3,1.9,0.8c0.9,0.5,1.9,1,1.9,1
				c0.8,0.8,1.7,1.6,2.5,2.5c0.4,0.4,0.8,0.9,1.2,1.4c0.2,0.2,0.4,0.5,0.6,0.8c0.2,0.3,0.4,0.6,0.7,1.1c0.1,0.3,0.2,0.5,0.3,0.8
				c0.1,0.3,0.2,0.6,0.2,0.8c0.1,0.5,0.1,0.8,0.2,1.2c0.1,0.7,0.1,1.3,0.1,2C710.4,544.8,710.4,546,710.4,547.2z"/>
		</g>
	</g>
</g>
<g>
	<g>
		<g>
			<path class="st3" d="M802.1,345.9c0.1,0,0.1,0,0.2,0.1c0.5,0.7,1,2.1-1,2.7c0,0-0.2,0-0.3,0c-1.6-0.6-3.2-1.2-4.8-1.7
				c-1.2-0.4-2.4-0.8-3.6-1.2c-0.9-0.3-1.8-0.5-2.7-0.8c0,0-1.1-0.4-2.6-0.8c-1.5-0.5-3.4-1-5-1.4c-1.4-0.3-2.3-0.5-2.8-0.7
				c-0.5-0.2-0.7-0.4-0.5-0.5c0.3-0.3,1.8-0.5,3.6-0.5c-0.2-0.1,2,0,4.1,0.3c2.2,0.3,4.3,0.7,4.3,0.7c0.8,0.2,1.6,0.4,2.4,0.7
				c1.3,0.4,2.5,0.8,3.7,1.2C798.8,344.7,800.5,345.3,802.1,345.9z"/>
		</g>
	</g>
</g>
<g>
	<g>
		<g>
			<path class="st3" d="M856.3,373c0.1,0,0.1,0.1,0.1,0.2c0.3,0.8,0.3,2.2-1.8,2.3c0,0-0.2,0-0.3,0l-2-1.5l-2.1-1.5
				c-5.4-3.8-11.3-6.9-17.3-9.8c-3-1.4-6.1-2.8-9.1-4.1l-7.5-3.2c0,0-4.2-2.2-7.1-4c-4.9-2.9-2.5-2.6,0.8-1.5
				c-0.2-0.1,1.8,0.6,3.8,1.3c2,0.7,4.1,1.5,4.1,1.5l7.6,3.3c3,1.3,6.1,2.7,9.1,4.1c6,2.9,11.9,6.1,17.5,9.9l2.1,1.5
				C854.9,371.9,855.6,372.5,856.3,373z"/>
		</g>
	</g>
</g>
<path class="st0" d="M744.7,564.3c-1.4-19.9-1.8-40.1-4.7-59.8c-3.1-21.8-17.2-45.3-36.5-56.4c-7-4-13.9-8.7-21.3-11.8
	c-13.1-5.5-27.2-5.6-41.2-5.4c-19.8,0.3-39.7,1.6-59.3,4.3c-9.9,1.4-19.8,3.1-29.6,5.1c-6.4,1.4-18.3,1.6-18.1,10.6
	c0,0.5,0.1,1,0.1,1.5c1.9,14,4.1,28.1,8.3,41.7c2.1,6.8,4.6,13.4,7.9,19.8c2.6,5.1,6.3,13.9,11.5,16.8c6.1,3.4,14.3,3.4,21,4.5
	c12.7,1.9,25.3,4.5,38.1,6.2c13.2,1.7,26.5,2.4,39.8,3.5c8.3,0.7,17,1.4,24.9-1.3c5.1-1.8,8.1-5,8.7-10.4c0.5-4.1,1.1-7.2,6.1-6.6
	c3.2,0.4,6.4,1.3,9.2,2.7c8.6,4.5,10.8,14.5,12.9,23.1c1.8,7.6,4.7,19.7,14.8,19.6C741.7,571.9,745,568.7,744.7,564.3z"/>
<path class="st1" d="M567.7,430.2c0,0,6.9,29.5,5.7,37.5c0,0,46-2.6,88.3-2.2c0,0,2.3-29.1-8.4-38.8
	C653.3,426.6,596.1,425.8,567.7,430.2z"/>
<g>
	<g>
		<g>
			<path class="st3" d="M641.5,446.4c0,0.2-0.1,0.3-0.4,0.6c-0.9,1-2.3,2-3.9,2c-1.6,0-3.2-1-4.7-3.6c-0.1-0.1-0.2-0.5-0.2-0.7
				c0.4-2.3,0.7-4.7,0.7-6.8c0-0.6,0-1.1,0-1.6c0-0.3-0.1-0.5-0.1-0.7l-0.1-0.5l0,0l0,0l-2.2,0l-5.5,0l-2.5,0l0,0c0,0,0,0,0,0
				c0-0.5,0,1.7-0.1,3c-0.1,1.4-0.4,2.9-0.8,4.3c-0.6,2-1.4,4.1-2.8,6.1c-1.4,1.9-3.3,3.6-5.5,4.7c-0.5,0.2-0.9,0.4-1.4,0.6
				l-1.4,0.5l-1.4,0.3l-1.3,0.2c-1.7,0.2-3.4,0.4-5,0.3c0,0-1,0-2.7-0.3c-1.7-0.3-4.1-0.8-6.7-1.8c-2.6-1.1-5.5-2.7-7.8-5.4
				c-1.1-1.3-2-2.9-2.5-4.6c-0.5-1.7-0.6-3.4-0.3-4.9c0.3-2.5,1.3-4.3,2.1-5.6c0.8-1.3,1.6-2.1,2.2-2.7c1.3-1.1,1.9-1.2,2-0.5
				c0.1,0.6-0.2,1.9-0.7,3.6c-0.4,1.7-0.8,3.8-0.5,5.7c0.1-0.2,0.1,0.9,0.8,2.2c0.3,0.7,0.9,1.4,1.7,2.1c0.8,0.7,1.8,1.3,3,1.8
				c2.3,1,5.1,1.4,7.1,1.5c1,0,1.9,0,2.5,0c0.6,0,0.9-0.1,0.9-0.1c1,0,2.1-0.1,3-0.3c0.9-0.2,1.6-0.4,2.2-0.7c0.8-0.4,1.5-1,2.1-1.8
				c0.6-0.8,1.1-1.8,1.4-3.1c0.2-0.9,0.4-1.8,0.5-2.8c0.1-1.2,0.2-1.4,0-4.4c0-0.5-0.1-1-0.2-1.4c-0.1-0.1,0.1-0.2,0.1-0.3l0.2-0.2
				l0.4-0.5l1.2-1.4l2.2-2.7l0.3-0.4c0.1-0.1,0.1-0.1,0.2-0.2h0.3h1.4h2.8h3h5.5h3.3h1.4c0.5,0,0.9,0,1.3,0.1
				c0.8,0.1,1.7,0.1,2.5,0.3c0.5,1.1,1.1,2.2,1.6,3.4l0.4,0.8c0.1,0.1,0.1,0.3,0.2,0.4l0.1,0.5l0.5,1.9c0,0.2,0.1,0.3,0.1,0.5l0,0.3
				l0.1,0.6c0,0.4,0.1,0.8,0.1,1.2c0,0.8,0.1,1.5,0.1,2.3C642.4,440.9,642,443.7,641.5,446.4z"/>
		</g>
	</g>
</g>
<g>
	<g>
		<path class="st3" d="M1067,750.4c-8.2-0.9-16.5-1.8-24.7-2.7c-0.5-0.1-0.5,0.7,0,0.8c8.2,0.9,16.5,1.8,24.7,2.7
			C1067.5,751.2,1067.5,750.5,1067,750.4L1067,750.4z"/>
	</g>
</g>
<g>
	<g>
		<path class="st3" d="M1003.5,751.7c3.8,0.3,7.5,0.8,11.3,1.2c2.3,0.2,12.7-0.1,13.5,1.6c0.1,0.2,0.3,0.2,0.5,0.1
			c2.3-1,4.6-2.3,6.9-3.1c3.3-1.1,6.4-0.6,9.8-0.3c0.7,0.1,7.8,0.6,7.8,0.7c0,0.7-5.6,3.1-6.4,3.6c-0.4,0.2-0.2,0.7,0.2,0.7
			c3.3,0.4,6.1,1.1,9.2,0c3.2-1.1,7.2-2.6,9.9-4.5c0.3-0.2,0.2-0.6-0.1-0.7c-0.2-0.1-0.5-0.1-0.7-0.2c-0.5-0.1-0.7,0.6-0.2,0.7
			c-0.2-0.1-3.4,1.5-4.4,1.9c-2.6,1.1-5.2,2.5-8.2,2.5c-0.6,0-3.5,0-3.8-0.7c-0.1-0.2,6.2-3,6.7-3.3c0.4-0.2,0.1-0.7-0.2-0.7
			c-2.9-0.3-5.8-0.5-8.7-0.8c-2.6-0.2-6.2-1.3-8.7-0.8c-3.1,0.6-6,3.6-9.1,3.8c-2.7,0.2-6.5-0.8-9.3-1.1c-5.3-0.5-10.6-1.2-15.9-1.6
			C1003,750.9,1003,751.6,1003.5,751.7L1003.5,751.7z"/>
	</g>
</g>
<g>
	<g>
		<path class="st3" d="M1045.6,748.1c-7-1-12.9-1.9-19.4,0.9c-2.7,1.1-4.1,1.3-7.2,1c-1.2-0.1-2.4-0.2-3.5-0.3c-1,0-0.8-0.3,0.6-0.7
			c1.7-1.6,4.9-2.3,7-3.1c0.4-0.1,0.3-0.7-0.1-0.7c-3.7-0.2-8.2-1-11.7,0.2c-3.4,1.1-6.7,3.6-9.6,5.7c-0.4,0.3,0,0.9,0.4,0.6
			c5.3-4,10-6.2,16.7-5.9c2,0.1,3.6-0.7,1,0.7c-2.1,1.1-4.2,2-6.2,3.2c-0.3,0.2-0.2,0.7,0.2,0.7c2.9,0.2,5.9,0.5,8.8,0.7
			c2.6,0.1,1.6,0,4.1-1.4c5.8-3,12.8-1.8,18.9-0.9C1045.8,748.9,1046,748.2,1045.6,748.1L1045.6,748.1z"/>
	</g>
</g>
<g>
	<g>
		<path class="st3" d="M1027.2,766.5c1.7,0.1,4.2,0.8,5.8,0.4c1.3-0.3,2.9-1.6,4.1-2.2c4.4-2.1,9-3.7,13.5-5.6
			c0.4-0.2,0.1-0.7-0.2-0.7c-2.9-0.3-5.8-0.5-8.7-0.8c-0.5,0-0.5,0.7,0,0.8c1.4,0.1,2.9,0.2,4.3,0.4c1.9,0.2,3.1-0.5,1.4,0.8
			c-1.7,1.4-5.2,2.1-7.3,3c-1.6,0.7-3.2,1.4-4.7,2.1c-2.9,1.5-5.1,1.3-8.3,1.1C1026.7,765.8,1026.7,766.5,1027.2,766.5L1027.2,766.5
			z"/>
	</g>
</g>
<g>
	<g>
		<path class="st3" d="M1041.9,757.8c-2.2,0.3-3.9,1.3-6,1.9c-3.4,0.9-7.3,0-10.7-0.3c-6-0.7-11.9-1.5-17.9-2.4
			c-4.7-0.7-9.4-1.2-14.1-1.7c-2.5-0.3-3.2-0.4-5.3,0.4c-2.5,0.9-4.8,2.4-7.1,3.7c-0.4,0.2,0,0.9,0.4,0.6c2-1.2,4.1-2.5,6.3-3.3
			c3.1-1.1,6-0.6,9.2-0.3c5.3,0.6,10.6,1.3,16,2.1c4.5,0.6,9,1.2,13.5,1.7c2.4,0.3,5.9,1.2,8.4,0.9c2.6-0.4,4.7-2.1,7.4-2.5
			C1042.4,758.5,1042.4,757.8,1041.9,757.8L1041.9,757.8z"/>
	</g>
</g>
<g>
	<g>
		<path class="st3" d="M1023,766.7c1.8-1.1,3.7-1.9,5.7-2.5c0.3-0.1,0.4-0.7,0-0.7c-14-2.1-28-3.8-42.1-5c-0.5,0-0.5,0.7,0,0.8
			c8.5,0.7,16.9,1.6,25.4,2.6c4.4,0.5,8.8,1.4,13.2,1.8c2.4,0.2,2.7-0.2,0.9,0.7c-1.2,0.6-2.3,1-3.4,1.7
			C1022.2,766.3,1022.6,766.9,1023,766.7L1023,766.7z"/>
	</g>
</g>
<g>
	<g>
		<path class="st3" d="M969.2,789.3c4.4-1.8,7.8-3.3,12.7-2.3c1.6,0.3,2-0.2,0.4,0.8c-0.9,0.5-2.1,0.8-3,1.2
			c-1.8,0.7-3.5,1.4-5.3,2.2c-3.5,1.5-6.1,3.5-10,3.1c-1.3-0.1-3.5,0.1-4.7-0.4c-0.4-0.2-0.9,0.5,0.8-0.3c1.1-0.5,2.3-0.9,3.5-1.3
			c0.3-0.1,0.4-0.7,0-0.7c-14-2.1-28-3.8-42.1-5c-0.5,0-0.5,0.7,0,0.8c8.5,0.7,16.9,1.6,25.4,2.6c4.4,0.5,8.8,1.4,13.2,1.8
			c2.2,0.2,2.7-0.2,1,0.6c-1.1,0.5-2.1,0.9-3.2,1.6c-0.3,0.2-0.2,0.7,0.2,0.7c3.5,0.1,7.4,1.3,10.6,0c5.6-2.3,11.2-5,16.9-7.4
			c0.4-0.2,0.1-0.7-0.2-0.7c-2.8-0.3-6-1.1-8.8-0.7c-2.6,0.3-5.2,1.8-7.6,2.8C968.5,788.8,968.7,789.5,969.2,789.3L969.2,789.3z"/>
	</g>
</g>
<g>
	<g>
		<path class="st3" d="M916,788.2c4.7-2.6,8.3-4.4,13.8-3.8c4.5,0.5,9.1,1,13.6,1.7c8.5,1.3,17.1,2.3,25.7,3.2c0.5,0,0.5-0.7,0-0.8
			c-9.8-0.9-19.5-2.4-29.3-3.7c-4.4-0.6-9.1-1.4-13.5-1.5c-3.9-0.1-7.3,2.4-10.6,4.2C915.2,787.7,915.6,788.4,916,788.2L916,788.2z"
			/>
	</g>
</g>
<g>
	<g>
		<path class="st3" d="M1022.2,769.3c-4.8,2.5-9.2,4.3-14.6,4.2c-4.6,0-9.3-0.5-13.9-0.8c-9.2-0.6-18.3-1.2-27.5-1.8
			c-0.7,0-5.4,0.2-5.8-0.4c-1.3-1.8,5.3-1,6.4-1c4.5,0.3,9,0.6,13.5,0.8c4.5,0.3,9.1,0.5,13.6,0.7c3.3,0.2,5.7,0.8,8.5-1.1
			c0.3-0.2,0.2-0.7-0.2-0.7c-7.5-1-15-2.1-22.4-3.4c-0.8-0.1-8.6-1.1-8.7-1.6c-0.2-1.3,6.1-1.1,6.6-1c13.6,1.6,27.1,4.5,40.7,6.4
			c0.5,0.1,0.7-0.7,0.2-0.7c-9.2-1.3-18.5-2.8-27.7-4.3c-4.3-0.7-8.7-1.4-13-2.2c-3.5-0.6-5.2,0.3-8.7,1.4c-0.3,0.1-0.4,0.6,0,0.7
			c6.5,1.3,12.9,2.5,19.5,3.5c3.2,0.5,6.3,0.9,9.5,1.4c0.3,0,2.7,0.1,2.8,0.5c0.1,0.3-5.8,0.4-6.2,0.3c-6.8-0.3-13.6-0.7-20.4-1.1
			c-3.2-0.2-6.4-0.4-9.6-0.6c-3.7-0.2-3.6-0.5-6.6,1.7c-0.3,0.2-0.2,0.7,0.2,0.7c11.7,0.9,23.5,1.6,35.3,2.4
			c5.5,0.3,11.4,1.3,16.9,1c4-0.2,8.4-2.7,12-4.5C1023,769.7,1022.7,769,1022.2,769.3L1022.2,769.3z"/>
	</g>
</g>
<g>
	<g>
		<path class="st3" d="M991.4,768.9c0.2-0.4,0.2-0.5,0-0.3c-0.1,0.1-0.3,0.1-0.4,0.2c-0.3,0.1-0.6,0.3-0.8,0.4
			c-0.6,0.3-1.3,0.6-1.9,0.8c-0.4,0.2-0.2,0.9,0.2,0.7c0.6-0.2,1.2-0.5,1.8-0.8c0.5-0.2,1.2-0.5,1.7-0.8c0.2-0.1,0.4-0.4,0.3-0.6
			c-0.1-0.4-0.5-0.4-0.8-0.4C990.9,768.1,990.9,768.9,991.4,768.9L991.4,768.9z"/>
	</g>
</g>
<g>
	<g>
		<path class="st3" d="M985.5,767.7c-1,0.5-2.1,1-3.1,1.5c-0.4,0.2-0.1,0.9,0.4,0.6c1-0.5,2.1-1,3.1-1.5
			C986.3,768.1,985.9,767.5,985.5,767.7L985.5,767.7z"/>
	</g>
</g>
<g>
	<g>
		<path class="st3" d="M1005.5,777.9c-17.8-2-35.6-3.8-53.4-5.4c-0.5,0-0.5,0.7,0,0.8c17.8,1.6,35.6,3.4,53.4,5.4
			C1006,778.7,1006,777.9,1005.5,777.9L1005.5,777.9z"/>
	</g>
</g>
<g>
	<g>
		<path class="st3" d="M949.8,773.2c-1.3,0.2-2.3,0.4-3.5,1c-0.4,0.2-0.1,0.7,0.2,0.7c6.2,0.7,12.4,1.4,18.6,2
			c2.8,0.3,5.7,0.9,8.5,0.7c2.7-0.2-1.6-0.2-2.1-0.2c-1.6-0.1-3.2-0.2-4.9-0.2c-6.1-0.3-12.2-0.7-18.3-1.1c-4.1-0.3-6.9,0.4-9.8,3.6
			c-0.2,0.2-0.1,0.6,0.3,0.6c9.6-0.2,19.3,0.1,28.9,0c2.3,0,5-0.6,7.2-0.3c0.9,0.1,1.1-0.4-0.1,0.2c-0.7,0.4-1.5,0.6-2.3,1
			c-0.7,0.4-2.3,1-2.1,2.1c0.6,3.4,15,1.4,17.1,1.2c6.6-0.7,12.9-2.3,18.6-5.8c0.4-0.3,0-0.9-0.4-0.6c-6,3.8-12.9,5.3-19.9,5.9
			c-3.7,0.3-7.4,0.5-11.1,0.1c-6.5-0.6,0.6-2.9,2.3-4.1c0.3-0.2,0.2-0.7-0.2-0.7c-5.9,0.3-11.8,0.4-17.7,0.3c-3,0-6-0.1-9-0.1
			c-1.9,0-7.6,1.1-9.3,0.1c-1.2-0.6-0.3-0.8,1.1-1.6c2.1-1.2,4.2-1.2,6.6-1.2c2.9,0.1,5.7,0.4,8.6,0.5c6.2,0.4,12.6,1.1,18.8,0.9
			c0.4,0,0.5-0.7,0.1-0.7c-4.8-0.9-9.6-1.2-14.4-1.7c-2.5-0.3-5-0.5-7.5-0.8c-1.2-0.1-8.2-0.3-4-1
			C950.5,773.9,950.3,773.1,949.8,773.2L949.8,773.2z"/>
	</g>
</g>
<g>
	<g>
		<path class="st3" d="M979.9,781.2c2.7,1,6.4,0.3,9.2,0.1c2-0.1,5.3,0,6.8-1.6c0.1-0.1,0.1-0.2,0.1-0.4c-0.6-1.7-6.2-1.5-7.9-1.7
			c-1.6-0.2-3.1-0.6-4.6,0.1c-1.4,0.6-3,1.3-4,2.5c-0.1,0.1-0.1,0.3-0.1,0.5c0.1,0.1,0.1,0.2,0.2,0.3c0.2,0.4,0.9,0.1,0.6-0.4
			c-0.7-1.5,6.7-2.4,6.7-2.4c1.4,0.1,2.9,0.3,4.3,0.6c0.7,0.1,1.4,0.2,2.1,0.3c1.1-0.1,1.3,0.1,0.7,0.5c-0.9,1.2-5.8,1-7.4,1
			c-2,0.1-4.7,0.5-6.7-0.2C979.7,780.3,979.5,781,979.9,781.2z"/>
	</g>
</g>
<path class="st3" d="M1048.8,748.9c-6.3-0.9-13.4-2.1-18.9-1.1c-2.3,0.4-3.3,1.4-5.1,2.1c-2.6,1-9,0.8-13.4-0.5
	c1.3-0.9,3.6-1.4,5.3-1.9c2-0.5-0.5-2.8-2.5-2.2c-2.7,0.7-6.5,1.7-7.4,3.5c-0.3,0.6,0.1,1.2,1.2,1.7c5.3,2.4,16,3.6,19.7,1.7
	c3.5-1.9,5.5-2.7,11.1-2.3c2,0.1,4.1,0.4,6.2,0.7c0.7,0.1,8.8,1.2,8.8,1.3c0.1,0.5-4.3,1.4-5.4,1.6c-2,0.5,0.6,2.8,2.5,2.2
	c2.3-0.6,10.3-1.3,8.7-3.9C1058.3,749.5,1051.6,749.3,1048.8,748.9z"/>
<path class="st3" d="M1041.1,758.3c-2.8,1.2-5.6,2.4-8.3,3.6c-0.3-0.3-0.7-0.6-1.4-0.7c-7.7-1.7-15.4-1.7-23.1-3.1
	c-7.8-1.4-14.8-2.2-21.9-1.6c-2.3,0.2-0.6,2.6,1.6,2.4c7.2-0.6,13.8,0.4,21.6,1.7c6.8,1.2,13.6,1.2,20.3,2.5c-1,0.5-2,0.9-3,1.4
	c-1.7,0.8,1.6,2.7,3.2,2c4.4-2.1,8.8-4.1,13.4-6C1045.4,759.8,1042.9,757.5,1041.1,758.3z"/>
<path class="st3" d="M1008.8,769.3c-2.6-0.7-5.2-1.2-7.8-1.6c-0.4-0.1-0.7,0-0.9,0c-0.3,0-0.5-0.1-0.8-0.1
	c-5.4-0.9-10.8-1.8-16.2-2.8c-3.4-0.6-7.5-1.9-10.7-1.7c-2.3,0.1-0.7,2.5,1.6,2.4c2.8-0.2,7.9,1.4,11,1.9c0.4,0.1,0.9,0.2,1.3,0.2
	c-0.8,0.3-1.6,0.6-2.5,0.8c-1.6,0.4-0.3,1.9,1.3,2.2c-8.4-0.7-17.2-2.2-24.8-1.7c-2.3,0.2-0.7,2.5,1.6,2.4c9.8-0.6,21.7,2,31.9,2.1
	c2,0,4.1-0.1,6.1-0.2c0.5,0.4,1.3,0.8,2.2,0.7c2.6-0.2,5.1-0.5,7.5-0.8c1.4-0.2,3.1-0.5,2.9-1.7
	C1012.5,770.4,1010.5,769.8,1008.8,769.3z M997,770.9c-3.4,0.3-7.1,0.2-10.9,0c0.1,0,0.3,0,0.4-0.1c0.8-0.2,1.6-0.4,2.3-0.7
	c0.5-0.2,0.9-0.5,1.4-0.7c0.7,0,1.3-0.3,1.4-0.8c0.4,0.1,0.8,0.1,1.2,0.2c0.8,0.1,9.5,1.6,9.5,1.6
	C1002.3,770.8,997.6,770.8,997,770.9z"/>
<path class="st3" d="M1001.4,777.3c-16.8-2.8-33.7-3-50-4.1c-2.5-0.2-1.9,2.2,0.6,2.4c8.9,0.6,18,0.9,27.1,1.6
	c-0.5,0.2-1.1,0.5-1.6,0.8c-0.5-0.5-1.3-0.9-2.3-0.8c-10.9,0.3-21.7,0.7-33.3-0.4c-2.5-0.2-1.9,2.1,0.6,2.4
	c11.2,1.1,21.7,0.7,32.3,0.4c-2.4,1.7-2.9,3.6,2.6,4.6c5.3,1,10.8,0.3,15.1-0.5c2.9-0.5,9.4-1.2,7.2-4.1c-0.1-0.1-0.1-0.1-0.2-0.2
	c0.8,0.1,1.7,0.3,2.5,0.4C1004.6,780.1,1003.9,777.7,1001.4,777.3z M996.1,779.7c1.1,1.4-13.1,2.4-15.2,2.4c-0.4,0-3,0-3.4-0.3
	c-0.2-0.2,1.9-1.5,2.2-1.7c1.8-1.1,4-1.8,6.5-2.3c0.1,0,0.2-0.1,0.3-0.1c3.2,0.3,6.4,0.6,9.6,1.1C995.8,779,995.8,779.3,996.1,779.7
	z"/>
<path class="st3" d="M975.7,786.3c-2.9,1.3-5.9,2.5-8.9,3.7c-9.6-1.3-19.3-3.1-28.9-4.2c-4.7-0.6-9.6-1.2-14.3-1.7
	c-1.5-0.1-2.9-0.5-3.4,0.4c-0.7,1.3,3,2.8,3.7,1.5c-0.3,0.5,8.9,1.5,9.9,1.6c3.9,0.4,7.9,0.9,11.9,1.4c5.6,0.8,11.2,1.7,16.9,2.6
	c-0.7,0.3-1.3,0.5-2,0.8c-1.8,0.7,0.7,2.9,2.5,2.2c1.9-0.7,3.7-1.5,5.5-2.2c0.1,0,0.1,0,0.2,0c1.1,0.1,1.6-0.2,1.6-0.7
	c2.9-1.2,5.7-2.3,8.5-3.5C980.7,787.5,977.4,785.5,975.7,786.3z"/>
</svg>
