<?xml version="1.0" encoding="utf-8"?>
<!-- Generator: Adobe Illustrator 22.0.1, SVG Export Plug-In . SVG Version: 6.00 Build 0)  -->
<svg version="1.1" id="Layer_1" xmlns="http://www.w3.org/2000/svg" xmlns:xlink="http://www.w3.org/1999/xlink" x="0px" y="0px"
	 viewBox="0 0 1500 1080" style="enable-background:new 0 0 1500 1080;" xml:space="preserve">
<style type="text/css">
	.st0{fill:#202020;}
	.st1{fill:#FF8E01;}
	.st2{fill:none;stroke:#000000;stroke-width:0.5;stroke-miterlimit:10;}
	.st3{fill:#231F20;}
	.st4{fill:#FFFFFF;}
	.st5{fill:#3F3B3C;}
</style>
<g>
	<g>
		<g>
			<path class="st0" d="M1037.9,818c-0.2,0-0.2,0-0.4-0.2c-1.4-0.9-3.3-3.1-0.1-5.8c0.1,0,0.3-0.2,0.5-0.3l10.3,0l23.2,0h0.7
				c0.2,0,0.7,0,1.1,0.1c0.9,0.1,1.8,0.4,2.5,0.8c1.6,0.9,2.7,2.4,3.2,4.1c0.1,0.4,0.2,0.9,0.2,1.3l0,0.3l0,0.2v0.4v1.5l0,2.9
				l0,11.6l0,11.6l0,5.8l0,5.2v1.4c0,0,0,0.1,0,0.1h-0.1h-0.2h-0.4h-0.7h-2.9l-24.2,0l-12.6,0l-3.3,0l-3.1,0h-1.6h-0.8
				c-0.1,0-0.3,0-0.4,0v-0.4l0-9.2l0-14c0,0,0.1-1.3,0.2-3.5c0.3-3.1,0.7-8.4,1.3-12.6c0-0.4,0.1-0.7,0.1-1c0.1-0.4,0.1-0.9,0.3-1.2
				c0.3-0.7,0.7-1.3,1.2-1.7c0.9-0.8,1.8-1,2.4-1c0.6,0,1,0.2,1.1,0.3c0.2,0.2,0.2,0.3,0,0.5c-0.3,0.3-1,0.6-1.4,1.3
				c-0.2,0.3-0.4,0.8-0.5,1.2c0,0.2,0,0.4,0,0.7c0,0.4,0.1,0.8,0.1,1.2c0.1-0.5,0.6,7.3,0.9,12.4c0.1,2.4,0.3,4.3,0.3,4.3v14.4v2.2
				h3.6h12h22.2v-18v-11.6v-2.9v-1.5v-0.4c0,0,0-0.2,0-0.2l0,0c0,0,0-0.1,0-0.1c0-0.1-0.1-0.3-0.3-0.3c-0.1,0-0.1-0.1-0.2-0.1
				c0.1,0-0.6,0-1.1,0h-23.2H1037.9z"/>
		</g>
	</g>
</g>
<g>
	<g>
		<g>
			<path class="st0" d="M1069.3,845.4c0,0,0,0.1-0.2,0.1c-0.9,0.4-3.1,1-5.8,0c0,0-0.2-0.1-0.3-0.2c0-0.2,0-18.1,0-18.1
				s0.6-2.9,1.6-5c1.3-3.5,2.7-2.1,3.4,0.1c0.1-0.2,1.2,5.1,1.2,5.1S1069.3,845.2,1069.3,845.4z"/>
		</g>
	</g>
</g>
<g>
	<g>
		<g>
			<path class="st0" d="M1069.3,855.9c0,0,0,0-0.2,0c-0.9,0.1-3.1,0.3-5.8,0c0,0-0.2,0-0.3,0c0-0.1,0-5,0-5s0.6-0.8,1.6-1.4
				c1.3-1,2.7-0.6,3.4,0c0.1-0.1,1.2,1.4,1.2,1.4S1069.3,855.9,1069.3,855.9z"/>
		</g>
	</g>
</g>
<g>
	<path class="st1" d="M695.7,557.4c-0.7-4.7-1-9.5-1.3-14.3c-1.6-0.5-3.3-0.6-5-0.4c-17.4,2-35.8,3.9-52.6,9.2
		c-9.6,3-18,8.5-24.8,15.8c-4.3,4.6-8.6,9.4-11.6,14.9l-41.1,70.7C549,673,539.3,693,526.6,711.4c-13.1,19.1-24.9,40.1-17.2,64
		c8.6,26.5,31.9,41.2,55.4,53.3c8,4.1,19.1,2.4,23.6-6.2c4.2-7.9,2.4-19.2-6.2-23.6c-1.9-1-3.8-1.9-5.7-2.9
		c-7.4-12.5-11.3-23.7-13.9-39.3c-0.1-0.5-0.1-0.9-0.2-1.1c0-0.3-0.1-0.7-0.1-1.4c-0.2-2.1-0.4-4.1-0.5-6.2c-0.2-3.9-0.2-7.7,0-11.6
		c0.1-2.1,0.2-4.2,0.4-6.2c0.1-0.8,0.2-1.6,0.2-2.4c0-0.3,0.1-0.6,0.2-1c0-0.1,0-0.1,0-0.2c12.9-16.7,26.7-33.1,42.5-47.9
		c9.4-8.8,16.4-14.5,26.3-21c13.7-6.5,29.7-7.2,46.7-6.6c17,0.6,33.9,2.3,50.8,1.2c24.3,3.8,48.7,8.2,72.9,13.1
		c1.2,0.3,2.5,0.4,3.8,0.4c12.9,3.2,25.6,7,36.3,12.1c4.1,1.9,8.1,4.1,12,6.4c1.9,1.2,3.9,2.4,5.7,3.6c1.2,0.8,2.3,1.6,3.5,2.4
		c0.3,0.2,0.7,0.5,0.9,0.7c2.6,2.1,5.1,4.3,7.4,6.6c7.9,12.4,17.4,23.7,27.9,34c1.2,1.6,2.6,3,4.2,4.1c0.1,0.1,0.3,0.3,0.4,0.4
		c7,6.6,14.3,12.9,21.5,19.2c8,7.1,15.9,15.5,24.9,21.4c13.2,8.6,27.4,1.2,35-10.8c5.3-8.4,9-18.2,11.5-27.8c5.7-22,7-45.8,7.2-68.5
		c0.2-24.3-2.1-48.6-6.3-72.6c-1.4-7.9-9.6-12-16.6-12.7c-9.5-0.9-17.8,5.7-21.9,13.7c-3.7,7.2-4.2,15.5-5.1,23.5
		c-1.5,13.9-1.6,28-1.7,42c-0.1,13.6-0.3,27.2-1.8,40.7c0,0-0.4,3.3-0.4,3.5c-0.2,1.5-0.5,3-0.8,4.6c-0.5,3-1.2,5.9-1.9,8.8
		c-0.5,2.1-1.1,4.2-1.8,6.3c-6.3-5.5-8.1-16.7-13.1-25.4c-9.9-26.7-14.3-28.8-28.8-53.4c-0.4-1.3-10.2-15.3-13-21.4
		c-8.9-19.2-16.7-33-23.3-35.8c-6.4-2.7-30.1-4.9-37.6-5.8c-5.5-0.9-14.6-3.4-19.5,2.1c-2,2.2-5.6,4.4-7.8,6.3
		c-0.5,0.5-3.8,2.5-4.3,2.9c-1.1,0.8-2.2,1.5-3.3,2.2c-2.5,1.6-5.1,2.9-7.8,4.3c-0.3,0.2-0.4,0.2-0.5,0.3c-0.2,0.1-0.4,0.1-0.6,0.2
		c-1.5,0.6-3,1.1-4.6,1.6c-2.8,0.9-5.7,1.6-8.7,2.2c-0.8,0.1-2,0.3-2.2,0.4c-1.2,0.1-2.5,0.2-3.8,0.3c-3,0.2-6,0.2-8.9,0
		c-1.4-0.1-2.7-0.2-4.1-0.3c3.6,0.2-1.6-0.3-2-0.3c-5.8-1.1-11.5-2.7-16.9-4.9c0.1,0-1.5-0.7-2.1-1c-1.3-0.6-2.5-1.2-3.8-1.9
		c-3-1.6-5.9-3.3-8.7-5.2c-1.2-0.8-2.3-1.6-3.5-2.4c-0.4-0.3-1.4-1.1-1.8-1.4c-2.2-1.8-4.4-3.7-6.5-5.7
		C709.1,585.4,698.7,576.2,695.7,557.4z"/>
</g>
<g>
	<path class="st2" d="M697.6,459.9"/>
</g>
<g>
	<g>
		<g>
			<path class="st0" d="M845.9,565.8c-0.3,0.2-0.4,0.2-0.9,0.2c-1.7,0.1-4-0.2-5.5-1.7c-1.5-1.4-2.2-3.9-1.2-7.9
				c0-0.1,0.3-0.7,0.5-0.9l2-1.3l1.9-1.5l1.9-1.5c0.6-0.5,1.3-1,1.8-1.5l3.5-3.3c1.2-1.1,2.2-2.3,3.3-3.5
				c12.2-13.2,20.6-30.2,23.6-48.1l0.8-5.3c0.2-1.8,0.3-3.6,0.4-5.4c0,0,0-0.3,0.1-0.8c0.1-0.5,0.1-1.2,0.2-2.2
				c0.1-1.9,0.5-4.5,0.5-7.5c0.4-6.1-0.1-13.8-0.9-20.2c-0.8-5.4-1.6-9-1.8-11.2c-0.2-2.2,0.1-2.9,0.9-2.6c1.6,0.6,5,5.6,7.6,12.4
				c0-0.4,0.7,1.5,1.6,4.5c0.9,3.1,2,7.4,2.7,11.8c0.3,2.2,0.5,4.5,0.8,6.6c0.2,1.1,0.2,2.1,0.2,3.1c0,1,0.1,1.9,0.1,2.8
				c0,0.9,0.1,1.7,0.1,2.4c0,0.7,0,1.3,0,1.8c0,1,0,1.6,0,1.6l-0.2,2.6c-0.1,0.9-0.1,1.7-0.3,2.6l-0.8,5.2
				c-3.4,20.2-12.8,39.3-26.7,54.4c-1.3,1.3-2.5,2.7-3.8,4l-4,3.7c-0.7,0.6-1.4,1.2-2.1,1.8l-2.2,1.7l-2.2,1.7L845.9,565.8z"/>
		</g>
	</g>
</g>
<g>
	<g>
		<g>
			<path class="st0" d="M707.6,464.4c0.1-0.2,0.1-0.2,0.3-0.4c0.7-0.6,1.7-1.2,2.7-1.1c1,0.1,2.1,0.9,2.9,2.7c0,0.1,0.1,0.4,0.1,0.5
				c-0.9,3-1.4,6.2-1.5,9.4c-0.3,6.7,1,13.5,2.7,20.3c0.9,3.4,1.9,6.8,3,10.2c1.1,3.4,2.2,6.8,3.3,10.1c2.4,6.6,5.1,13.1,8.4,19.3
				c0.8,1.6,1.7,3,2.6,4.5c0.9,1.5,1.9,2.9,2.9,4.3c2,2.8,4.2,5.5,6.6,7.9c4.7,5,10.1,9.3,16.1,12.6c6,3.4,12.4,5.8,19.1,7.3
				c6.7,1.4,13.6,2,20.5,1.6l0.6,0l0.5,0l0.4,0l0.7-0.1c0.5,0,1-0.1,1.5-0.1c1-0.1,1.9-0.2,2.9-0.4c0,0,2.3-0.1,5.4-0.5
				c3.1-0.4,7-1,10.2-1.7c2.7-0.6,4.5-1,5.6-1.1c1.1-0.1,1.5,0.1,1.3,0.5c-0.3,0.8-2.8,2.4-6,3.9c0.4-0.1-3.6,1.6-7.8,2.9
				c-2.1,0.7-4.3,1.2-5.9,1.6c-1.6,0.4-2.8,0.6-2.8,0.6c-1,0.1-2,0.3-3.1,0.4l-1.5,0.1l-0.4,0l-0.5,0l-0.7,0c-0.9,0-1.8,0.1-2.7,0.1
				c-7.3,0.2-14.7-0.6-21.8-2.4c-7.1-1.8-14-4.6-20.3-8.4c-6.3-3.8-12-8.5-17-13.9c-5-5.4-9.1-11.6-12.5-18
				c-3.3-6.4-6.1-13.1-8.4-19.8c-1.2-3.4-2.3-6.8-3.3-10.1c-1-3.4-2.1-6.8-3-10.3c-1.8-7-3.1-14.3-2.8-21.8
				C705.9,471.7,706.5,468,707.6,464.4z"/>
		</g>
	</g>
</g>
<g>
	<g>
		<g>
			<path class="st0" d="M706.8,468.4c-0.1,0.1-0.2,0.1-0.4,0c-1.7-0.3-4.2-1.7-2.2-5.4c0-0.1,0.2-0.3,0.3-0.4
				c1.5-0.6,3.1-1.2,4.6-1.9l4.5-2.2l1.1-0.5l1-0.6l2.1-1.2c1.4-0.8,2.8-1.5,4.1-2.4l4-2.6c1.3-0.9,2.5-1.9,3.8-2.8l1.9-1.4l1.8-1.5
				c1.2-1,2.4-2,3.6-3.1c2.3-2.2,4.6-4.3,6.7-6.7c2.2-2.3,4.2-4.8,6.2-7.2c1-1.2,1.9-2.5,2.8-3.8l1.4-1.9l1.3-2
				c0.8-1.3,1.7-2.7,2.5-4l2.3-4.1l0.8-1.5l0.6-1.3l1.3-2.7c0,0,0.3-0.5,0.8-1.3c0.5-0.8,1.1-2.1,1.8-3.5c1.5-2.8,3.1-6.4,4.5-9.4
				c2-5.2,3.1-6.7,3.6-6c0.4,0.7,0.2,3.6-0.3,7.2c0.1-0.2-0.1,0.8-0.5,2.3c-0.2,0.8-0.4,1.7-0.7,2.6c-0.2,1-0.5,2-0.9,3.1
				c-0.7,2.1-1.4,4.2-1.9,5.7c-0.6,1.5-1.1,2.6-1.1,2.6l-1.3,2.8c-0.2,0.5-0.4,0.9-0.7,1.4l-1.1,1.9c-0.8,1.4-1.6,2.9-2.4,4.3
				l-2.6,4.1c-3.7,5.4-7.7,10.7-12.2,15.4l-1.7,1.8c-0.6,0.6-1.2,1.1-1.8,1.7l-3.5,3.4l-3.7,3.2c-0.6,0.5-1.2,1.1-1.9,1.6l-2,1.5
				c-5.2,4.1-10.8,7.5-16.6,10.5l-4.8,2.3C710.1,467.1,708.4,467.7,706.8,468.4z"/>
		</g>
	</g>
</g>
<g>
	<g>
		<g>
			<path class="st0" d="M767.1,360.1c0-0.2,0-0.2,0.2-0.4c0.5-0.7,1.4-1.4,2.4-1.6c1-0.1,2.2,0.4,3.4,2.1c0,0.1,0.2,0.3,0.2,0.5
				l-0.2,2.5c-0.1,0.8,0,1.6-0.1,2.5l0,2.5c0,0.8,0.1,1.6,0.1,2.5c0.3,5.5,1.2,11.1,2.8,16.4c1.6,5.4,3.7,10.6,6.3,15.5
				c0.7,1.2,1.3,2.5,2.1,3.7l2.2,3.5l2.4,3.4c0.8,1.2,1.7,2.2,2.6,3.3c3.6,4.3,7.6,8.3,11.9,11.8c8.8,7,18.9,12.2,29.7,15.6
				c5.4,1.7,10.9,3,16.5,3.8l3.5,0.5l2.9,0.3c0,0,2.3,0.4,5.4,0.8c1.6,0.2,3.3,0.4,5.1,0.6c1.8,0.2,3.6,0.3,5.2,0.5
				c1.4,0.1,2.6,0.2,3.5,0.3c0.9,0.1,1.7,0.2,2.2,0.3c1.1,0.2,1.4,0.5,1.1,0.8c-0.3,0.3-1.1,0.7-2.3,1c-1.2,0.4-2.8,0.8-4.6,1
				c0.2,0-0.8,0.2-2.3,0.3c-1.6,0.2-3.7,0.3-5.9,0.4c-2.2,0.1-4.4,0.1-6.1,0.1c-1.7-0.1-2.8-0.1-2.8-0.1c-1-0.1-2-0.2-3-0.3
				l-1.5-0.2l-1.3-0.2c-0.7-0.1-1.5-0.2-2.2-0.3c-5.8-0.9-11.5-2.4-17.1-4.3c-11.2-3.7-21.7-9.4-30.9-16.9c-4.6-3.7-8.7-8-12.5-12.6
				c-3.7-4.6-7.1-9.5-9.8-14.8c-5.5-10.5-9-22.1-9.6-34c0-0.9-0.1-1.8-0.1-2.7l0-2.7c0-0.9,0-1.8,0.1-2.7L767.1,360.1z"/>
		</g>
	</g>
</g>
<g>
	<g>
		<g>
			<path class="st0" d="M712.1,520.2c0.1-0.1,0.1-0.1,0.3,0c0.7,0.1,1.7,0.4,2.5,1c0.8,0.7,1.4,1.8,0.5,4c0,0.1-0.2,0.4-0.4,0.5
				c-0.1,0-0.4,0.2-0.9,0.4c-0.3,0.1-0.6,0.3-0.9,0.4c-0.2,0.1-0.4,0.2-0.6,0.3c-0.2,0.1-0.4,0.1-0.7,0.2c-1.9,0.7-4.6,1.1-7.7,1
				c-0.2,0-0.4,0-0.6,0l-0.5,0c-0.6,0-1.2-0.1-1.8-0.2c-0.6-0.1-1.2-0.1-1.8-0.2c-4.7-0.8-9.2-2.4-13.4-4.7c-2.1-1.1-4.2-2.4-6.2-4
				c-0.9-0.8-1.8-1.5-2.7-2.3c-0.9-0.8-1.8-1.6-2.7-2.4c-3.5-3.4-6.9-7.3-9.1-12.1c-0.5-1.2-1.1-2.4-1.5-3.7
				c-0.5-1.2-0.8-2.5-1.1-3.8c-0.3-1.3-0.5-2.6-0.7-3.8c-0.1-1.3-0.3-2.6-0.4-3.9c-0.4-5.1-0.1-10.2,0.2-15.3
				c0.7-10,1.8-20.5,4.5-30.8c2.7-10.4,7-20.3,11.8-29.9c4.9-9.7,10.5-19.1,16.8-28.1c6.3-9.1,13.2-17.7,20.7-26
				c7.6-8.3,16.5-15.6,26.8-20.9c2.5-1.3,5.2-2.4,7.9-3.5c1.4-0.5,2.7-1,4.1-1.3l1.7-0.5l2-0.8c5.3-2.1,10.9-3.5,16.6-4.3
				c11.4-1.6,22.8-0.4,33.6,1.9c2.7,0.6,5.4,1.2,8,1.9c1.3,0.3,2.7,0.7,4,1.2c1.3,0.4,2.7,0.8,4,1.3c1.3,0.5,2.6,1.1,3.9,1.6
				c0.6,0.3,1.3,0.5,1.9,0.8l1.9,1c1.2,0.7,2.5,1.3,3.7,1.9c1.2,0.7,2.4,1.5,3.5,2.2c1.2,0.7,2.3,1.6,3.4,2.4
				c1.1,0.8,2.2,1.6,3.3,2.5c1,0.9,2.1,1.8,3.1,2.7l0.8,0.7l0.7,0.7l1.4,1.4c2,1.9,3.7,3.9,5.5,5.9c0.9,1,1.7,2.1,2.5,3.1
				c0.8,1,1.7,2.1,2.4,3.1c6.3,8.5,11.5,17.4,16.3,26.1c1.2,2.2,2.4,4.3,3.6,6.5c1.2,2.2,2.4,4.4,3.4,6.6c1.1,2.2,2.1,4.4,3,6.7
				c0.5,1.1,0.9,2.2,1.4,3.4c0.4,1.1,0.8,2.3,1.3,3.4c3.3,9.1,5.6,18.3,6.5,27.4c0.1,1.1,0.2,2.3,0.3,3.4c0.1,1.1,0.1,2.3,0.2,3.4
				c0.1,1.1,0.1,2.2,0.1,3.4c0,1.1,0,2.2,0,3.3c-0.2,4.4-0.6,8.7-1.3,12.9c-0.7,4.2-1.6,8.2-2.8,12.1c-0.5,2-1.2,3.8-1.8,5.7
				c-0.7,1.8-1.3,3.7-2,5.5c-1.3,3.6-2.8,7-4.2,10.3c-0.9,1.9-1.7,3.8-2.5,5.6c-0.5,1-0.9,1.9-1.2,2.6c-0.7,1.4-1,2.3-1,2.3
				s-1.1,2.1-2.7,4.9c-1.5,2.8-3.4,6.3-4.9,9.2c-0.6,1.3-1.1,2.3-1.6,3.1c-0.4,0.8-0.8,1.5-1.1,1.9c-0.6,0.9-1,1.1-1.2,0.8
				c-0.4-0.7-0.2-3.7,0.7-7.2c-0.2,0.3,1-3.8,2.4-7.9c1.4-4.1,3-8.2,3-8.2s0.4-0.8,1-2.2c0.8-1.7,1.7-3.8,2.7-6.1
				c2.6-6,5.3-12.4,7.4-19.2c2.2-6.9,3.7-14.3,4.4-22.1c0.6-7.8,0.2-16-1.3-24.4c-1.6-8.3-4.2-16.8-7.8-25.2
				c-0.8-2.1-1.9-4.2-2.9-6.3c-0.9-2.1-2.1-4.1-3.2-6.2c-1.1-2.1-2.3-4.2-3.4-6.3c-1.2-2.1-2.3-4.2-3.6-6.3
				c-4.8-8.4-10.1-16.7-16.4-24.3c-0.8-1-1.6-1.8-2.5-2.8c-0.8-0.9-1.6-1.9-2.5-2.7c-0.9-0.9-1.8-1.7-2.6-2.6
				c-0.9-0.8-1.9-1.6-2.8-2.4l-1.4-1.2c-0.5-0.4-1-0.7-1.5-1.1c-1-0.7-2-1.5-3-2.2c-1.1-0.7-2.1-1.3-3.2-2l-1.6-1l-1.7-0.9
				c-1.1-0.6-2.2-1.1-3.3-1.7c-1.2-0.5-2.3-1-3.5-1.4l-1.7-0.7c-0.6-0.2-1.2-0.4-1.8-0.6l-3.6-1.1c-5-1.4-10.1-2.5-15.3-3.4
				c-10.3-1.7-20.8-2-30.9,0.2c-0.6,0.1-1.3,0.3-1.9,0.4l-1.9,0.5c-1.3,0.3-2.5,0.7-3.7,1.1c-1.2,0.4-2.4,0.9-3.6,1.4l-0.9,0.4
				l-0.4,0.2l-0.4,0.1l-0.5,0.1l-1.9,0.5c-4.9,1.6-9.7,3.7-14.2,6.4c-4.5,2.7-8.7,5.8-12.7,9.3c-4,3.5-7.6,7.2-11.1,11.3
				c-7,8.1-13.6,16.5-19.5,25.3c-5.9,8.8-11.2,17.9-15.7,27.2c-4.5,9.4-8.3,18.8-10.5,28.5c-2.3,9.7-3.1,19.6-3.8,29.4
				c-0.3,4.8-0.4,9.6,0.1,14.1c0.2,2.3,0.7,4.4,1.3,6.5l0.5,1.5l0.3,0.8l0.3,0.7l0.6,1.5l0.8,1.4c0.2,0.5,0.5,0.9,0.8,1.4l0.9,1.3
				c0.7,0.8,1.3,1.7,2,2.5c0.7,0.8,1.4,1.6,2.2,2.4l1.2,1.2l1.2,1.1c0.8,0.7,1.6,1.5,2.5,2.1c0.4,0.3,0.9,0.7,1.3,1l1.2,0.9
				c1.7,1.2,3.5,2.2,5.4,3.1c1.9,0.9,3.8,1.6,5.7,2.2c1.9,0.5,3.9,1,5.8,1.2c0.5,0.1,1,0.1,1.4,0.1l0.2,0l0.2,0l0.5,0
				c2.4,0,4.3-0.3,5.6-0.7c0.2,0,0.3-0.1,0.5-0.1c0.1-0.1,0.3-0.1,0.4-0.2c0.2-0.1,0.4-0.2,0.6-0.3
				C711.9,520.3,712.1,520.2,712.1,520.2z"/>
		</g>
	</g>
</g>
<g>
	<g>
		<g>
			<path class="st0" d="M757.3,484.7c0.1-0.2,0.1-0.2,0.3-0.4c0.7-0.6,1.8-1.1,2.8-1c1,0.2,2,1,2.7,2.8c0,0.1,0.1,0.4,0.1,0.5
				c-1,2.9-1.4,5.9-1.2,8.9c0,0.4,0.1,0.8,0.1,1.1l0.1,0.7l0,0.1l0,0l0,0l0,0l0.1-0.2c0.2-0.3,0.4-0.6,0.5-0.9
				c0.3-0.6,0.6-1.2,0.9-1.9c0.5-1.3,0.7-2.7,0.8-4.1s-0.1-2.8-0.5-4.1c-0.2-0.7-0.4-1.3-0.7-1.9c-0.1-0.3-0.3-0.6-0.5-0.9l-0.1-0.2
				l0,0c-4.7,0,6.4,0,5.3,0l0,0l0,0l0,0.1l-0.1,0.1l-0.3,0.5c-1.5,2.7-2.5,5.6-3,8.6v0c-0.2,1.3-0.3,2.6-0.3,3.9
				c0,1.2,0.2,2.1,0.5,2.5l0.1,0.1c0,0,0,0,0,0c0,0,0,0,0.1,0.1c0,0,0.2,0.1,0.2,0.1l0,0c0,0,0,0,0,0c0,0,0,0,0,0l0.1-0.3l0.3-0.8
				c0.7-2.3,0.9-4.8,0.5-7.2c-0.2-1.2-0.6-2.4-1-3.5c-0.1-0.3-0.2-0.5-0.4-0.8c-0.1-0.3-0.3-0.5-0.4-0.7c-0.1-0.2-0.3-0.4-0.4-0.5
				c-0.1-0.1-0.1-0.1-0.2-0.2c0,0-0.1-0.1-0.1-0.1h0c0,0,0,0,0,0l0,0c-0.1,0-0.3,0.3-0.5,0.6l-0.3,0.3l-0.2,0.4
				c-0.2,0.2-0.3,0.5-0.4,0.8c-0.1,0.3-0.2,0.6-0.3,0.9c0,0.2,0,0.3-0.1,0.5l0,0.3c-0.2,1.3,0,2.7,0.5,3.9c0,0,0,0.1,0,0.1
				c0,0,0,0,0,0c0,0-0.1,0.1-0.1,0.2c0,0.1,0,0.3,0.1,0.5c0.1,0.2,0.3,0.6,0.6,0.8c0.2,0,0.4-0.1,0.6-0.5c0.1-0.2,0.2-0.4,0.2-0.6
				c0-0.1,0.1-0.3,0.1-0.4c0-0.2,0-0.3,0-0.6c-0.3-2.5-1.1-4.1-1.5-5.1c-0.4-1-0.4-1.4,0-1.4c0.4,0,1.3,0.5,2.3,1.5
				c1,1,2,2.5,2.6,4.4c0-0.1,0,0,0,0.1c0,0.1,0.1,0.3,0.2,0.6c0.1,0.3,0.1,0.7,0.2,1.1c0.1,0.5,0.1,1,0.2,1.6c0,1.1,0,2.5-0.4,3.8
				c-0.3,1.3-0.7,2.6-1.3,4.3c-0.7-0.2-1.5-0.6-2.2-0.9c-0.7-0.3-1.4-0.6-2-1c-0.7-0.3-1.3-0.8-1.9-1.3c-0.6-0.5-1.1-1.1-1.6-1.7
				c-0.4-0.7-0.9-1.3-1.2-1.8c-0.2-0.3-0.3-0.6-0.5-0.9c-0.1-0.2-0.2-0.5-0.3-0.7c-0.1-0.3-0.2-0.5-0.3-0.7
				c-0.1-0.2-0.1-0.3-0.1-0.3c-0.2-0.5-0.3-1-0.4-1.5c-0.1-0.5-0.2-1-0.2-1.6c-0.1-0.5-0.1-1.1,0-1.6l0-0.8l0.1-1
				c0.3-2.2,1.3-4.4,2.8-6.1c0.4-0.4,0.8-0.9,1.5-1.4c0.7-0.5,1.5-0.9,2.3-1c1.7-0.4,3.4,0.1,4.8,1.1c0.1,0.1,0.3,0.2,0.4,0.3
				c0.1,0.1,0.2,0.2,0.3,0.3c0.2,0.2,0.4,0.4,0.6,0.6c0.4,0.4,0.7,0.8,0.9,1.2c0.3,0.4,0.5,0.9,0.7,1.2c0.2,0.4,0.4,0.8,0.6,1.2
				c0.7,1.6,1.2,3.2,1.5,4.9c0.6,3.4,0.3,6.9-0.7,10.2l-0.4,1.2c-0.1,0.2-0.2,0.4-0.3,0.7c-0.1,0.3-0.3,0.6-0.5,0.9
				c-0.8,1.2-2,2.2-3.4,2.5c-1.4,0.4-2.9,0.2-4.2-0.4c-0.7-0.3-1.2-0.6-1.7-1.1c-0.3-0.2-0.5-0.5-0.7-0.7l-0.3-0.4l-0.3-0.4
				c-0.7-1-1-2.1-1.3-3.1c-0.2-1-0.3-1.9-0.3-2.8c0-1.7,0.1-3.3,0.4-4.9v0c0.6-3.8,1.8-7.4,3.7-10.7l0.4-0.6l0.1-0.2l0-0.1l0,0l0,0
				c-1.1,0,10,0,5.3,0l0,0l0.2,0.3c0.2,0.5,0.5,0.9,0.7,1.4c0.4,0.9,0.8,1.9,1.1,2.9c0.6,2,0.8,4,0.7,6.1c-0.1,2-0.5,4-1.2,6
				c-0.3,1-0.8,1.9-1.3,2.8c-0.3,0.4-0.5,0.9-0.8,1.3l-0.6,0.9c-0.3,0.3-0.6,0.6-0.8,0.9c-0.6,0.6-1.1,1.3-1.8,1.6
				c-0.6,0.4-1.3,0.6-2,0.7c-1.5,0.2-2.9-0.4-4-1.5c-0.5-0.5-1-1.2-1.3-1.9c-0.3-0.7-0.6-1.6-0.7-2.3l-0.1-0.6
				c0-0.2-0.1-0.4-0.1-0.5l-0.1-0.7c-0.1-0.5-0.1-1-0.1-1.4C755.5,492.2,756,488.3,757.3,484.7z"/>
		</g>
	</g>
</g>
<g>
	<g>
		<g>
			<path class="st0" d="M834.9,485.8c0.1-0.1,0.1-0.2,0.3-0.3c1.4-0.9,4.2-1.8,5.4,2.2c0,0.1,0.1,0.4,0,0.5c-1.3,3.1-2.5,6.1-2.9,9
				c-0.1,1.1-0.2,2.1-0.1,3.2c0,0.5,0.1,1.1,0.1,1.6l0.1,0.8l0.1,0.4c0,0.1,0,0.1,0.1,0.2c0.2,0.8,0.7,1.8,1.2,2.7
				c0.1,0.2,0.3,0.4,0.4,0.6l0.3,0.4l0,0h0l0,0l0,0c0,0,0,0,0.1-0.1l1.1-1.2c0.3-0.4,0.7-0.9,1-1.3c1.2-1.8,2-3.6,2.2-5.6
				c0.1-1,0.1-2,0-2.9c-0.1-0.5-0.2-1-0.3-1.5c-0.1-0.4-0.3-1.2-0.3-1c0-0.1,0,0,0-0.1l0,0c0,0,0,0,0,0c0-0.1,0,0.1-0.1,0.2
				l-0.1,0.4c-0.2,0.5-0.4,1-0.5,1.5c-0.6,2-0.7,4.2-0.8,6.6c-0.1,1.7,0,3.1,0.4,4.2c0.2,0.5,0.4,1,0.7,1.3c0.2,0.3,0.6,0.5,0.9,0.7
				c0.4,0.2,0.7,0.2,0.8,0.1c0.1,0,0.1,0,0.1-0.1c0,0,0.1-0.1,0.2-0.2c0.2-0.3,0.5-0.8,0.8-1.6c0.3-0.7,0.5-1.5,0.7-2.2
				c0.8-3,0.9-6.2,0.4-9.3c-0.3-1.5-0.7-3.1-1.3-4.5c-0.3-0.7-0.6-1.4-1-2.1c-0.3-0.7-0.7-1.2-1.1-1.7c-0.4-0.4-0.8-0.8-1.1-0.9
				c-0.3-0.1-0.3-0.1-0.4-0.1c-0.1,0-0.5,0.2-0.9,0.6c-0.2,0.2-0.4,0.5-0.6,0.8c-0.2,0.3-0.5,0.5-0.6,0.8c-1.6,2.3-2.3,5.3-2.1,8.2
				c0,0.7,0.2,1.4,0.3,2.1l0.3,1c0,0.1,0,0.1,0.1,0.1l0,0.1l0.1,0.2c0.2,0.4,0.3,0.9,0.6,1.2l0.4,0.7l0,0c0,0,0,0,0,0.1
				c0,0.1,0,0.1,0.1,0.2c0.1,0.1,0.2,0.3,0.2,0.2c0.1,0,0.1,0,0.2-0.1c0.1-0.2,0.2,0,0.5-1.3c0.5-1.9,1.1-3.8,1.3-5.4
				c0.3-2.5-0.3-4.1-0.5-5.2c-0.3-1-0.2-1.5,0.2-1.4c0.4,0.1,1.2,0.6,2,1.8c0.8,1.1,1.6,2.9,1.7,4.9c0-0.3,0.2,1.5,0,3.9
				c-0.1,0.6-0.1,1.2-0.2,1.8c-0.1,0.8-0.2,1.6-0.3,2.4c-0.2,1.2-0.2,2.5-0.2,3.9c0,1.4-0.1,2.8-0.1,4.1c-0.7-0.2-2-0.8-2.9-1.2
				c-1-0.4-1.8-0.8-2.6-1.2c-0.2-0.1-0.4-0.2-0.5-0.3c-0.2-0.1-0.3-0.2-0.5-0.3c-0.3-0.2-0.5-0.4-0.7-0.5c-0.4-0.3-0.6-0.5-0.6-0.5
				c-0.8-0.7-1.5-1.7-2.3-2.5c-0.4-0.6-0.8-1.2-1.1-1.9l-0.4-1l-0.2-0.5l-0.1-0.1c0,0,0-0.1-0.1-0.2l-0.2-0.8
				c-0.6-2-0.9-4.1-0.8-6.1c0.1-4.1,1.6-8.2,4.3-11.4c0.6-0.8,1.4-1.6,2.6-2.4c1.1-0.8,2.9-1.3,4.5-1c1.6,0.2,2.9,1,3.9,1.8
				c1,0.8,1.7,1.7,2.3,2.6c0.3,0.4,0.6,0.9,0.8,1.4c0.2,0.4,0.5,0.9,0.7,1.3l0.6,1.3l0.5,1.4c0.6,1.8,1.1,3.7,1.3,5.6
				c0.5,3.8,0.3,7.8-0.8,11.5c-0.3,0.9-0.6,1.9-0.9,2.8c-0.4,0.9-0.9,2.1-1.9,3.2c-1,1.1-2.7,2-4.2,2.1c-1.5,0.2-2.9-0.2-4.1-0.8
				c-1.2-0.6-2.3-1.4-3.2-2.5c-0.8-1-1.3-2.2-1.6-3.3c-0.7-2.2-0.7-4.3-0.7-6.1c0.1-2.6,0.2-5.4,1-8.2c0.2-0.7,0.4-1.4,0.7-2.1
				l0.2-0.5l0.3-0.6c0.3-0.6,0.5-1.1,0.8-1.7c1.1-2.2,2.4-4.1,3.6-6.2l0.9-1.5l0.2-0.4l0.1-0.2l0.1-0.1c0,0,0-0.1,0.1,0l0.4,0.7
				l1.8,3c0.6,1,1.1,1.9,1.7,3l0.8,1.6l0.7,1.7c0.5,1.3,0.6,1.8,0.8,2.5c0.2,0.7,0.3,1.4,0.4,2.2c0.2,1.5,0.2,3,0,4.5
				c-0.4,3-1.6,5.9-3.2,8.2c-0.4,0.6-0.8,1.1-1.3,1.7l-1.4,1.6c-0.1,0.1-0.4,0.4-0.6,0.6c-0.2,0.2-0.5,0.4-0.7,0.6
				c-0.5,0.4-1,0.7-1.6,0.9c-0.6,0.2-1.1,0.4-1.7,0.4c-0.3,0-0.6,0-0.9-0.1c-0.3-0.1-0.6-0.1-0.9-0.2c-1.1-0.4-2.1-1.2-2.9-2.1
				c-0.1-0.1-0.2-0.2-0.3-0.3l-0.2-0.3c-0.1-0.2-0.3-0.3-0.4-0.5c-0.2-0.3-0.4-0.6-0.6-1c-0.4-0.6-0.7-1.3-1-2
				c-0.3-0.7-0.6-1.4-0.8-2.2c-0.1-0.2-0.1-0.5-0.2-0.7l-0.1-0.5l-0.2-1c-0.1-0.7-0.2-1.4-0.2-2.1c-0.1-1.4,0-2.9,0.2-4.3
				C832.1,492.5,833.6,489,834.9,485.8z"/>
		</g>
	</g>
</g>
<g>
	<g>
		<g>
			<path class="st0" d="M748.6,522.6c0-0.2,0-0.2,0.1-0.4c0.3-0.8,1-1.7,2-2.1c1-0.4,2.2-0.1,3.8,1.2c0.1,0,0.3,0.3,0.3,0.4
				c0.5,3.2,1.3,6.3,2.3,9.4c1.7,4.7,4.2,9,7.4,12.6c1.6,1.8,3.4,3.4,5.4,4.8c2,1.3,4.1,2.4,6.4,3.1c1.6,0.6,3.3,0.9,5,1.2
				c0,0,0.1,0,0.4,0.1c0.2,0,0.6,0.1,1,0.2c0.4,0.1,1,0.2,1.6,0.2c0.6,0.1,1.3,0.2,2,0.1c2.9,0.1,6.6-0.3,9.6-1.3
				c0.6-0.2,1.2-0.5,1.7-0.7c0.5-0.2,1-0.5,1.4-0.6c0.9-0.4,1.5-0.7,2-0.9c1-0.4,1.4-0.4,1.4,0c0,0.4-0.5,1.2-1.3,2.3
				c-0.5,0.5-1,1-1.6,1.6c-0.7,0.5-1.4,1.1-2.2,1.6c0.2-0.1-0.7,0.5-2.2,1.2c-1.5,0.7-3.7,1.5-6,1.9c-0.6,0.1-1.1,0.2-1.7,0.3
				c-0.6,0.1-1.1,0.2-1.7,0.2c-1.1,0-2.1,0.2-3,0.1c-0.9,0-1.6,0-2.2-0.1c-0.5-0.1-0.8-0.1-0.8-0.1l-1.3-0.2l-1.3-0.3
				c-0.4-0.1-0.9-0.2-1.3-0.3l-1.3-0.4c-2.8-0.9-5.5-2.2-7.9-3.9c-2.4-1.6-4.6-3.6-6.5-5.7c-3.9-4.3-6.8-9.4-8.7-14.7
				C750,529.8,749.1,526.2,748.6,522.6z"/>
		</g>
	</g>
</g>
<g>
	<g>
		<g>
			<path class="st0" d="M912.3,523c0-0.2,0-0.3,0.3-0.5c0.7-0.9,1.9-2.1,3.5-2.5c1.5-0.4,3.4,0,5.2,2.7c0.1,0.1,0.3,0.6,0.3,0.8
				c0,2.8-0.6,5.5-1,8.3c-0.3,1.4-0.7,2.7-1,4.1l-0.5,2c-0.2,0.7-0.5,1.3-0.7,2c-4.8,14.1-15.1,26.3-28.2,33.5
				c-6.6,3.6-13.8,5.9-21.2,6.9c-7.4,1-15,0.6-22.2-1.1c-14.6-3.4-27.7-12.4-36.1-24.8c-4.2-6.2-7.3-13.1-9-20.4
				c-1.7-7.3-2.1-14.8-1.1-22.2c1-7.4,3.3-14.6,6.9-21.2c3.6-6.6,8.4-12.4,14.1-17.2c5.7-4.8,12.3-8.6,19.4-11
				c7.1-2.4,14.6-3.5,22-3.3c7.4,0.2,14.9,1.8,21.8,4.8c6.9,2.9,13.2,7.2,18.5,12.4c0.3,0.3,0.7,0.6,1,1l0.7,0.8l0.4,0.5l0.8,0.9
				l1.7,1.8l3,3.9c0,0,0.1,0.2,0.4,0.6c0.2,0.4,0.5,1,0.9,1.7c0.4,0.7,0.8,1.6,1.3,2.5c0.2,0.5,0.5,1,0.7,1.5
				c0.2,0.6,0.4,1.1,0.7,1.7c2.1,4.7,3.4,11.1,3.6,16.3c0,1.1,0.1,2.1,0.1,3c0,0.5,0,0.9,0,1.3c0,0.4-0.1,0.8-0.1,1.2
				c-0.2,1.5-0.4,2.6-0.6,3.4c-0.4,1.6-0.9,2-1.3,1.6c-0.5-0.4-1-1.7-1.4-3.5c-0.3-0.9-0.4-1.9-0.8-2.9c-0.3-1.1-0.7-2.2-1-3.4
				c0,0.1-0.1-0.1-0.2-0.7c-0.2-0.6-0.5-1.4-0.8-2.4c-0.2-0.5-0.4-1.1-0.6-1.7c-0.2-0.6-0.4-1.2-0.7-1.9c-0.6-1.3-1.2-2.6-1.8-4
				c-0.7-1.3-1.5-2.6-2.2-3.8c-0.3-0.6-0.8-1.2-1.1-1.7c-0.4-0.5-0.7-1-1-1.5c-0.6-0.9-1.2-1.7-1.6-2.2c-0.4-0.5-0.7-0.8-0.7-0.8
				l-1.2-1.6l-0.6-0.8l-0.7-0.8l-1.4-1.5l-0.3-0.4l-0.5-0.6c-0.3-0.3-0.5-0.6-0.8-0.8c-1.2-1-2.3-2.1-3.5-3.1
				c-9.6-7.9-22.2-12-34.6-11.5c-6.2,0.2-12.4,1.6-18.1,4c-5.7,2.4-11,5.9-15.5,10.2c-4.5,4.3-8.2,9.4-10.9,15
				c-2.7,5.6-4.3,11.7-4.9,17.9c-1.2,12.4,2.6,25.1,10,35.1c7.4,10,18.5,17.2,30.7,19.8c12.2,2.5,25.3,0.6,36.1-5.6
				c5.4-3.1,10.3-7.1,14.3-11.9c4-4.8,7.1-10.3,9.1-16.2c0.2-0.6,0.4-1.1,0.6-1.7l0.4-1.7c0.3-1.1,0.6-2.3,0.9-3.4
				C911.8,527.7,912.3,525.4,912.3,523z"/>
		</g>
	</g>
</g>
<g>
	<g>
		<g>
			<path class="st0" d="M784.4,575c0.1-0.1,0.1-0.1,0.3-0.2c0.7-0.3,1.7-0.5,2.7-0.3c1,0.3,1.9,1,2.1,3.1c0,0.1,0,0.4-0.1,0.6
				c-1.9,3-4.4,5.8-7.4,7.9c-3.8,2.8-8.4,4.5-12.9,5.3c-4.5,0.8-9.1,0.7-13.5,0.1c-4.4-0.6-8.7-1.6-12.9-3
				c-4.2-1.4-8.3-3.2-12.1-5.5c-3.9-2.3-7.5-5-10.6-8.3c-3.1-3.3-5.8-7-7.7-11.3c-0.5-1.1-0.8-2.2-1.2-3.3c-0.2-0.6-0.3-1.2-0.4-1.7
				c-0.1-0.6-0.3-1.2-0.3-1.8c-0.1-0.6-0.2-1.2-0.2-1.8l0-1.9c0.1-1.1,0.2-2.2,0.3-3.3l0.3-3.3l0.3-2.9c0,0,0.4-2.2,1.1-5.2
				c0.7-3,1.7-6.7,2.8-9.8c1.7-5.2,2.9-6.5,3.3-5.8c0.4,0.7,0.2,3.4-0.1,6.7c0.1-0.3-0.4,3.6-0.7,7.6c-0.4,4-0.6,8.1-0.6,8.1
				l-0.3,2.8l-0.4,3.9l-0.1,1.5l0,1.3c0,0.4,0.1,0.9,0.1,1.3c0,0.4,0.1,0.9,0.2,1.3l0.3,1.3l0.4,1.3l0.2,0.7l0.3,0.6l0.6,1.3
				c1.6,3.4,4,6.5,6.8,9.2c2.8,2.7,5.9,5.1,9.4,7c3.4,1.9,7.1,3.5,10.9,4.7c3.8,1.2,7.7,2.1,11.6,2.6c3.9,0.5,7.8,0.5,11.6-0.2
				c3.7-0.7,7.3-2,10.2-4.2C780.9,579.7,782.8,577.4,784.4,575z"/>
		</g>
	</g>
</g>
<g>
	<g>
		<g>
			<path class="st0" d="M699.3,533.1c0.1,0,0.2,0,0.4,0.2c1.2,1.1,2.8,3.6-0.8,5.8c-0.1,0-0.4,0.2-0.5,0.2c-3.4-0.5-6.8-1-10.1-1.4
				c-9.2-1.1-18.4-1.6-27.6-1c-4.6,0.3-9.1,0.9-13.7,1.6c-4.5,0.8-8.8,1.9-13,3.5c-8.4,3.2-16,8.3-22.4,14.6
				c-3.2,3.2-6.2,6.6-9,10.3l-2,2.8l-2,2.9l-4,5.8c-5.3,7.7-10.6,15.5-15.7,23.3l-3.8,5.9l-3.7,6l-7.4,12l-14.7,24l-7.4,12
				c-2.4,4-4.7,8.1-7.1,12.1c-9.4,16.2-18.6,32.6-26.2,49.6c-1.9,4.3-3.7,8.5-5.3,12.9c-1.7,4.3-3.3,8.7-4.5,13.1
				c-1.2,4.3-1.8,8.7-1.5,12.9c0.2,2.1,0.5,4.2,1.2,6.3c0.3,1.1,0.7,2.1,1,3.2c0.4,1,0.8,2.1,1.2,3.1c3.5,8.2,8.9,15.7,15.2,22.3
				c6.3,6.6,13.4,12.5,21.1,17.5l2.8,1.8l0.6,0.4l1.3,0.8c0.8,0.5,1.7,1,2.6,1.5c0,0,1.9,1.3,4.6,2.9c2.7,1.7,6.1,3.6,9,5.2
				c2.5,1.3,4.1,2.2,5,2.8c0.9,0.6,1.1,1,0.7,1.2c-0.7,0.4-3.7,0-7.1-0.9c0.3,0.2-3.8-1-7.8-2.7c-4.1-1.6-8.1-3.6-8.1-3.6
				c-0.9-0.5-1.8-1-2.6-1.5c-0.4-0.3-0.9-0.5-1.3-0.8l-2.7-1.7c-2-1.3-3.9-2.6-5.9-4c-7.6-5.6-14.7-12-20.9-19.3
				c-6.1-7.3-11.3-15.6-14.2-25.1c-0.4-1.2-0.7-2.4-1-3.6l-0.4-1.9l-0.3-1.9c-0.3-2.5-0.3-5.1-0.1-7.6c0.4-5,1.7-9.7,3.2-14.2
				c3-8.9,6.6-17.6,10.5-26c7.9-16.9,17.1-33.1,26.5-49.1c4.6-8.1,9.6-15.9,14.4-23.8l14.5-23.7l7.3-11.8c1.2-2,2.4-3.9,3.7-5.9
				l3.8-5.8c5.1-7.7,10.3-15.4,15.6-23c2.7-3.8,5.2-7.6,8.2-11.4c2.9-3.8,6.1-7.3,9.6-10.7c6.9-6.6,15.3-12,24.4-15.3
				c4.5-1.7,9.3-2.8,14-3.6c4.7-0.8,9.4-1.3,14.1-1.6c9.5-0.6,19-0.1,28.3,1.1C692.4,532.1,695.8,532.6,699.3,533.1z"/>
		</g>
	</g>
</g>
<g>
	<g>
		<g>
			<path class="st0" d="M874.1,588.6c0,0-0.1,0-0.2-0.1c-0.2-0.1-0.6-0.2-1-0.3c-0.4-0.1-0.9-0.2-1.4-0.4c-0.5-0.2-1-0.5-1.3-1
				c-0.3-0.6-0.5-1.5,0.1-2.9c0-0.1,0.3-0.5,0.5-0.6c1.2-0.7,2.6-1.1,3.9-1.2c1.3-0.1,2.5,0.1,3.6,0.4c2.2,0.7,4.2,1.8,5.8,3.7
				c1.8,2.3,3.2,4.5,4.4,6.8c0.6,1.1,1.3,2.3,1.8,3.4c0.6,1.1,1.2,2.3,1.7,3.4c2.3,4.5,4.4,9.1,6.5,13.7l2.4,5.2
				c0,0,0.8,2.2,1.9,5.2c1.1,3,2.4,6.8,3.4,10c0.9,2.6,1.5,4.4,1.8,5.4c0.2,1.1,0.1,1.5-0.3,1.4c-0.4-0.1-1.1-0.7-1.9-1.7
				c-0.8-1-1.8-2.3-2.7-3.8c0.1,0.4-2-3.3-4.1-7.1c-2-3.8-4.1-7.6-4.1-7.6l-2-4.5c-2.1-4.5-4.2-9.1-6.4-13.5
				c-0.5-1.1-1.1-2.2-1.7-3.3c-0.6-1.1-1.1-2.2-1.7-3.2c-1.2-2.1-2.5-4.1-3.8-5.8c-0.6-0.7-1.7-1.4-2.8-1.7
				C875.5,588.2,874.5,588.3,874.1,588.6z"/>
		</g>
	</g>
</g>
<g>
	<g>
		<g>
			<path class="st0" d="M952.6,589c0-0.1,0-0.2,0.2-0.4c0.9-1.2,3.3-3.2,5.8,0.2c0,0.1,0.2,0.4,0.2,0.5c-0.2,3.5-0.6,7-0.9,10.3
				c-0.2,2.4-0.3,4.7-0.4,7l0,0.9l0,0.5c0,0.2,0,0.3,0,0.4l0,0.3l-0.2,1.8l-0.4,3.6c-0.5,4.8-1.1,9.6-1.7,14.4l-3.7,28.8
				c-1.2,9.6-2.4,19.2-3.3,28.7c-0.5,4.8-0.9,9.6-1.2,14.4l-0.4,6.5c0,0-0.3,2.3-0.7,5.5c-0.4,3.2-0.9,7.1-1.4,10.4
				c-1.4,11.2-2.7,6.8-3.4-0.3c-0.1,0.4-0.3-3.8-0.4-8.1c0-2.2-0.1-4.3-0.1-6c0-1.6,0-2.7,0-2.7l0.5-7.4l0.6-7.2l0.7-7.1
				c0.9-9.5,2.1-19,3.3-28.4l3.6-28.3c0.6-4.7,1.2-9.4,1.7-14.1l0.4-3.5l0.2-1.8c0-0.1,0,0,0-0.1c0,0,0,0,0,0l0-0.1l0-0.5l0-0.9
				c0.1-2.5,0.2-4.9,0.4-7.3C952,595.7,952.4,592.3,952.6,589z"/>
		</g>
	</g>
</g>
<g>
	<g>
		<g>
			<path class="st0" d="M954.2,543.8c0,0,0-0.1,0.2-0.1c0.9-0.4,3.2-1,5.8,0.2c0,0,0.2,0.1,0.2,0.2c0,0.3-0.5,19.1-0.5,19.1
				s-0.7,3.1-1.7,5.2c-1.4,3.6-2.7,2.1-3.4-0.2c-0.1,0.2-1-5.5-1-5.5S954.2,544.1,954.2,543.8z"/>
		</g>
	</g>
</g>
<g>
	<g>
		<g>
			<path class="st0" d="M999.4,583.8c0-0.1,0-0.2,0.1-0.4c0.5-1.5,2.3-4,5.6-1.5c0.1,0,0.3,0.3,0.4,0.4c0.8,3.4,1.7,6.7,2.4,10.1
				c5.3,23,8.7,46.5,9.2,70.3c0.3,11.9-0.2,23.7-1.6,35.5c-1.4,11.8-3.7,23.5-7,34.9c-0.8,2.9-1.6,5.7-2.5,8.6
				c-0.9,2.9-2,5.7-3.1,8.5c-2.3,5.6-5.1,11-8.2,16.1c-0.4,0.6-0.8,1.3-1.2,1.9l-0.6,0.9l-0.2,0.3c0,0.1-0.1,0.1-0.2,0.2l-0.1,0.1
				l-0.3,0.4l-2.7,3.5c-1.8,2.3-3.6,4.7-5.7,7c-2,2.3-4.2,4.5-6.7,6.5c-2.5,2-5.3,3.7-8.3,4.9c-0.8,0.3-1.5,0.6-2.3,0.8l-2,0.6
				c-0.4,0.2-0.7,0-1-0.2l-1-0.4l-2.3-0.9c-0.7-0.3-1.4-0.6-2.1-0.9c-1.4-0.6-2.7-1.3-4.1-2c-1.4-0.7-2.7-1.4-4-2.1
				c-5.3-2.9-10.3-6.3-15-9.8l-2.5-1.9l-1.2-0.9l-2.4-1.9c0,0-0.4-0.4-1.2-1.1c-0.7-0.7-1.8-1.7-2.9-2.8c-2.3-2.3-5.1-5.2-7.3-7.8
				c-7.5-8.5-3.2-6.5,2.4-2.4c-0.2-0.3,3.1,2.3,6.5,4.8c3.4,2.5,6.9,5,6.9,5l2.3,1.8l1.2,0.9l1.7,1.3c1.1,0.9,2.3,1.7,3.4,2.5
				c4.6,3.3,9.4,6.2,14.4,8.8c1.2,0.6,2.5,1.3,3.8,1.8l1.9,0.9l1.9,0.8l0.5,0.2l0,0l0.4-0.1c0.3-0.1,0.6-0.2,0.9-0.3
				c1.2-0.5,2.4-1,3.5-1.6c4.5-2.5,8.3-6.4,11.9-10.8c1.8-2.2,3.5-4.4,5.3-6.7l1.2-1.6l1.1-1.7c0.8-1.2,1.5-2.4,2.2-3.6
				c2.8-4.8,5.2-9.9,7.2-15.1c1-2.6,1.9-5.3,2.7-8c0.8-2.7,1.6-5.5,2.4-8.2c5.9-21.9,8.4-44.8,7.6-67.6c-0.6-22.8-3.9-45.5-9.1-67.9
				C1001,590.4,1000.1,587.1,999.4,583.8z"/>
		</g>
	</g>
</g>
<g>
	<g>
		<g>
			<path class="st0" d="M993.2,502.6c0-0.1,0-0.2,0.2-0.4c0.5-0.7,1.3-1.5,2.3-1.7c1-0.2,2.3,0.1,3.5,1.8c0,0.1,0.2,0.4,0.2,0.5
				c-0.1,3.5-0.4,7-0.7,10.5c-0.5,5.8-1.3,11.5-2.5,17.2c-0.6,2.9-1.3,5.7-2.2,8.6c-0.9,2.8-2,5.7-3.7,8.5c-1.2,1.8-2.6,3.7-4.7,5.2
				c0,0-0.2,0.1-0.5,0.3c-0.3,0.2-0.9,0.4-1.5,0.7c-0.3,0.1-0.7,0.2-1.1,0.3c-0.4,0.1-0.9,0.2-1.3,0.2c-0.5,0-1,0-1.5,0
				c-0.5-0.1-1-0.2-1.5-0.3c-0.2,0-0.6-0.1-0.9-0.3c-0.3-0.1-0.6-0.3-0.9-0.4c-0.6-0.3-1.1-0.8-1.6-1.2c-0.9-0.9-1.4-2-1.8-3
				c-0.2-0.5-0.4-1-0.5-1.5l-0.2-0.9l-0.1-0.9c-0.1-1.1,0.1-2.2,0.4-3.1c0.4-1.5,1-2.6,1.5-3.4c0.5-0.8,0.8-1.5,1.1-1.9
				c0.6-0.9,1-1.1,1.2-0.7c0.2,0.4,0.3,1.3,0.1,2.6c-0.1,1.3-0.5,2.8-0.5,4.3c0.1-0.2,0,0.7,0.2,1.7c0.1,0.3,0.2,0.5,0.3,0.8
				c0.1,0.3,0.3,0.7,0.5,1c0.4,0.7,0.9,1.3,1.3,1.5c0.2,0.1,0.4,0.2,0.6,0.2c0,0,0.1,0,0.1,0l0.2,0c0.2,0,0.3,0,0.5,0
				c0.3,0,0.6-0.1,0.8-0.1c0.3-0.1,0.5-0.2,0.7-0.3c0.4-0.3,0.8-0.4,1-0.7c0.2-0.2,0.4-0.3,0.4-0.3c0.9-0.7,1.7-1.8,2.4-3
				c1.3-2.1,2.2-4.6,3.1-7.1c0.8-2.6,1.5-5.2,2-7.9c1.1-5.4,1.8-11,2.3-16.5C992.9,509.3,993.1,505.9,993.2,502.6z"/>
		</g>
	</g>
</g>
<g>
	<g>
		<g>
			<path class="st0" d="M949.4,490.9c0-0.1,0-0.2,0.2-0.3c0.6-0.5,1.4-1.2,2.5-1.3c1-0.1,2.3,0.3,3.2,2.3c0,0.1,0.1,0.4,0.1,0.6
				c-0.8,3.7-2.3,7.4-4.8,10.6c-2.7,3.5-6.8,6.2-11.4,7c-0.6,0.1-1.2,0.2-1.7,0.2c-0.6,0-1.1,0.1-2.1,0c-0.4,0-0.9-0.1-1.4-0.2
				c-0.4-0.1-0.9-0.1-1.3-0.3l-1.2-0.5c-0.4-0.2-0.6-0.4-0.9-0.8c-0.5-0.7-0.8-1.3-0.9-2.2c0.1-0.9,0.1-1.8,0.3-2.8l0.3-1.7l0.3-1.5
				c0.8-3.9,1.9-7.8,3.7-11.6c0.9-1.9,1.9-3.6,3-5.3c0.5-0.8,1.1-1.7,1.6-2.5c0.3-0.4,0.5-0.7,1-1.4c0.5-0.5,0.9-0.9,1.3-1.3
				c1.6-1.5,3.2-2.6,4.9-3.7l0.6-0.4l0.4-0.3l0.4-0.2c0.6-0.3,1-0.5,1.5-0.7l0.7-0.3l0.4-0.1c0.2-0.1,0.5-0.2,0.6-0.2l1.4-0.4
				c3.7-1,7.5-1.9,11.4-2.6c3.9-0.6,7.9-1,12-0.8c4.1,0.2,8.2,1,12.1,2.7l1.4,0.6l1.4,0.7c0.9,0.5,1.8,1,2.7,1.6l1.3,0.8l1.2,1
				c0.8,0.6,1.6,1.3,2.4,2c3.1,2.8,5.6,6.1,7.6,9.7c4,7.2,5.6,15.4,5.5,23.5c0,1,0,2-0.1,3l-0.3,3l-0.5,3c-0.2,1-0.4,1.9-0.6,2.9
				c-0.9,3.8-2,7.5-3.2,11.2l-2.1,6.6c0,0-0.9,2.2-2,5.1c-1.1,2.9-2.3,6.7-3.2,9.8c-0.7,2.7-1.1,4.5-1.4,5.5c-0.4,1-0.7,1.3-1,1
				c-0.3-0.3-0.5-1.2-0.8-2.4c-0.2-1.3-0.3-2.9-0.2-4.7c-0.1,0.4,0.1-4,1-8.3c0.4-2.2,0.9-4.3,1.3-5.9c0.4-1.6,0.6-2.7,0.6-2.7
				l2.7-8.4c1.1-3.5,2.1-7.1,2.8-10.5c0.6-3.4,0.9-6.9,0.8-10.4c-0.1-3.5-0.6-7-1.5-10.3c-0.9-3.3-2.3-6.5-4.1-9.4
				c-1.8-2.9-4-5.5-6.6-7.7c-0.7-0.5-1.3-1.1-2-1.5l-2.2-1.4c-0.7-0.4-1.5-0.8-2.2-1.2c-0.8-0.3-1.5-0.7-2.3-1
				c-6.3-2.3-13.5-2-20.5-0.7c-3.5,0.6-7.1,1.5-10.6,2.5l-0.5,0.1l-0.5,0.2c-0.4,0.2-0.8,0.3-1.1,0.5c-0.2,0.1-0.3,0.2-0.4,0.2
				l-0.1,0.1l-0.3,0.2l-1.1,0.7c-1.4,1-2.9,2.1-3.9,3.1c-0.1,0.1-0.2,0.2-0.3,0.3l-0.1,0.1c0,0-0.1,0.2-0.2,0.2l-0.8,1.1
				c-0.5,0.7-1,1.5-1.4,2.2c-0.9,1.5-1.8,3-2.5,4.6c-1.4,3.1-2.4,6.5-3,10l-0.2,1.3l-0.1,0.7c0,0.2,0,0.1,0,0.1l0,0l0.1,0l0.4,0
				c0.2,0,0.4,0,0.5,0c0.4,0,0.7-0.1,1.1-0.1c1.4-0.3,2.8-0.9,4.1-1.7c1.3-0.8,2.4-1.8,3.3-3C947.6,496.7,948.8,493.9,949.4,490.9z"
				/>
		</g>
	</g>
</g>
<g>
	<g>
		<g>
			<path class="st0" d="M956.6,535.7c0-0.2,0-0.2,0.1-0.4c0.3-0.8,1-1.7,2-2.1c1-0.4,2.2-0.2,3.8,1.2c0.1,0,0.3,0.3,0.3,0.4
				c0.5,3.2,1.3,6.4,2.4,9.4c0.5,1.4,1.1,2.9,1.6,3.7c0.1,0.2,0.3,0.4,0.4,0.5c0.1,0.1,0.2,0.2,0.5,0.4l0.4,0.3l0.2,0.2l0,0l0,0l0,0
				c0,0,0,0,0,0l0.1-0.1c0.1-0.1,0.2-0.2,0.3-0.3l0.3-0.3l0.3-0.4c0.8-0.9,1.5-2.2,2.1-3.4c2.5-5.2,4.2-11.2,5.6-17.2
				c0.4-1.8,0.8-3.7,1.2-5.5c0,0,0.6-2.3,1.4-5.3c0.8-3.1,1.7-6.9,2.6-10.2c1.2-5.5,2-7.1,2.5-6.5c0.6,0.6,0.9,3.6,0.9,7.1
				c0.1-0.4,0,3.9-0.4,8.2c-0.4,4.3-1,8.7-1,8.7c-0.3,1.6-0.7,3.3-1.1,4.9c-1.5,6.2-3.1,12.4-6.1,18.6c-0.8,1.5-1.6,3.1-2.8,4.6
				l-0.5,0.6l-0.5,0.6c-0.2,0.2-0.4,0.4-0.6,0.6l-0.4,0.3c-0.2,0.1-0.3,0.3-0.5,0.4c-0.3,0.2-0.7,0.4-1,0.5l-0.5,0.3
				c-0.2,0.1-0.4,0.1-0.5,0.2c-0.7,0.2-1.5,0.1-2.3,0c-0.7-0.2-1.5-0.5-2.1-0.9l-0.4-0.3l-0.3-0.2l-0.6-0.4
				c-0.3-0.2-0.9-0.7-1.2-1.1c-0.4-0.4-0.7-0.9-1-1.4c-0.6-0.9-1-1.8-1.3-2.6c-0.3-0.8-0.6-1.5-0.9-2.3
				C958,542.8,957.1,539.3,956.6,535.7z"/>
		</g>
	</g>
</g>
<g>
	<g>
		<g>
			<path class="st0" d="M937.4,540.8c-0.1-0.1-0.1-0.2-0.1-0.4c0-1.7,0.9-4.5,4.9-3.2c0.1,0,0.4,0.2,0.5,0.3l1.4,2.2
				c0.5,0.8,1,1.6,1.4,2.3l1.3,2.3c0.4,0.7,0.8,1.3,1.2,2c0.4,0.6,0.8,1.1,1.2,1.6c0.2,0.2,0.4,0.5,0.6,0.7l0.1,0.1l0,0c0,0,0,0,0,0
				s0,0,0.1,0c0.3,0,0.6-0.2,0.9-0.4c0.1-0.1,0.3-0.2,0.4-0.4c0.1-0.1,0.1-0.1,0.2-0.2c0,0,0,0,0,0l1-2c0.6-1.3,1.3-2.6,1.8-4
				c2.3-5.3,4.1-11,5.3-16.7c0.4-1.8,0.7-3.6,1-5.5c0,0,0.5-2.2,1.1-5.3c0.6-3.1,1.1-7,1.5-10.3c0.5-5.6,0.8-7.3,1.5-6.8
				c0.7,0.5,1.5,3.4,1.9,6.9c0.1-0.4,0.5,3.9,0.4,8.3c0,4.4-0.5,8.9-0.5,8.9c-0.3,1.7-0.6,3.3-0.9,5c-1.3,6.1-3.2,12.1-5.6,17.8
				c-0.6,1.4-1.3,2.9-2,4.2l-1,2.1c-0.1,0.2-0.2,0.3-0.3,0.5l-0.4,0.5c-0.2,0.3-0.4,0.4-0.6,0.7c-0.4,0.4-0.8,0.8-1.3,1.1
				c-0.9,0.7-2,1.2-3.3,1.4c-0.6,0.1-1.4,0.2-2.1,0.1c-0.7-0.1-1.5-0.3-2.1-0.6c-0.3-0.2-0.6-0.4-0.9-0.6c-0.3-0.2-0.6-0.6-0.7-0.7
				c-0.3-0.3-0.6-0.7-0.9-1c-0.6-0.7-1.1-1.3-1.5-2c-0.5-0.8-1.1-1.6-1.5-2.4L940,545c-0.4-0.7-0.8-1.4-1.2-2.1L937.4,540.8z"/>
		</g>
	</g>
</g>
<g>
	<g>
		<g>
			<path class="st0" d="M920.4,518.4c-0.1,0-0.2,0-0.4-0.1c-1.5-0.6-3.9-2.5-1.2-5.7c0-0.1,0.3-0.3,0.4-0.3l10.1-1.9l6.5-1.2
				l5.7-1.1c0,0,9.4-1.1,16.1-1.4c11.3-0.8,7.1,1.4,0.4,3.4c0.7,0-16.2,4.2-16.2,4.2l-4.9,0.9l-6.5,1.2L920.4,518.4z"/>
		</g>
	</g>
</g>
<g>
	<g>
		<g>
			<path class="st0" d="M913.1,544.8c-0.1,0-0.2,0-0.4-0.1c-1.5-0.6-4-2.3-1.3-5.7c0-0.1,0.3-0.3,0.4-0.4c3.4-0.7,6.8-1.4,10.2-2.1
				l8.8-1.7l5.6-1.1c0,0,9.4-1.1,16.1-1.6c5.6-0.5,7.4-0.3,7,0.5c-0.4,0.7-3.1,1.9-6.5,2.9c0.4,0-3.7,1.1-7.8,2.2
				c-4.1,1.1-8.4,2.2-8.4,2.2l-4.8,0.9l-8.8,1.7C919.8,543.4,916.4,544.1,913.1,544.8z"/>
		</g>
	</g>
</g>
<g>
	<g>
		<g>
			<path class="st0" d="M1005.4,530.8c-0.2,0-0.2,0-0.4-0.1c-0.7-0.4-1.7-1.1-2-2.1c-0.3-1,0-2.2,1.5-3.7c0.1-0.1,0.3-0.2,0.4-0.3
				c3.3-0.2,6.6-0.7,10-1.2c3.1-0.5,6.2-1,9.2-1.7c1.6-0.3,2.9-0.6,4.1-1.1c1.2-0.5,2.3-1.1,3.2-1.9c0.9-0.8,1.6-1.7,2.3-2.8
				c0.1-0.3,0.3-0.6,0.4-0.9l0.2-0.4l0.1-0.4c0.2-0.5,0.3-1.1,0.3-1.7c0.3-2.4-0.5-5.1-1.8-6.7c-0.4-0.5-0.8-0.8-1.2-1
				c-0.2-0.1-0.4-0.1-0.6-0.2c-0.4-0.1-0.7-0.1-1.1-0.2c0,0-0.5-0.1-1.3-0.2c-0.9-0.1-2.2-0.2-3.7-0.2c-3-0.1-7,0.1-10.3,0.3
				c-5.6,0.4-7.4,0.2-7-0.6c0.4-0.7,3.1-1.9,6.6-2.9c-0.4,0,3.7-1.1,8.1-1.8c2.2-0.4,4.5-0.6,6.2-0.7c1.8-0.1,3.1,0.1,3.1,0.1
				l0.7,0.1c0.3,0.1,0.6,0.2,0.9,0.3c0.6,0.2,1.2,0.5,1.7,0.7c0.5,0.3,1,0.7,1.5,1c0.4,0.4,0.9,0.8,1.2,1.2c1.4,1.7,2.2,3.6,2.7,5.5
				c0.5,1.9,0.7,3.8,0.5,5.8c-0.1,1-0.3,2-0.6,3l-0.3,0.8l-0.3,0.7c-0.2,0.4-0.4,0.9-0.6,1.3c-0.9,1.7-2.1,3.3-3.7,4.6
				c-1.5,1.3-3.2,2.3-5,3c-1.7,0.7-3.6,1.1-5.1,1.4c-3.2,0.7-6.4,1.2-9.5,1.7C1012.4,530,1009,530.5,1005.4,530.8z"/>
		</g>
	</g>
</g>
<g>
	<path class="st3" d="M566.5,856.1c-4.5-62.1-15.3-127.2-18.2-189.4c-0.7-14.4,12-26.4,27.8-26.3c108.8,0.7,220.7,2.7,329.5,6.2
		c16.5,0.5,28.9,14.1,26.4,29c-10.3,61.3-19.8,119.8-28.5,180.5H566.5z"/>
</g>
<g>
	<g>
		<g>
			<path class="st0" d="M434,862.3c-0.2,0-0.2,0-0.4-0.2c-1.4-0.9-3.3-3.1-0.1-5.8c0.1,0,0.3-0.2,0.5-0.3c9.2,0,671.7,0,671.7,0
				s9.5,0.6,16.1,1.6c11.3,1.3,6.8,2.7-0.2,3.4c0.7,0.1-16.7,1.2-16.7,1.2S443.3,862.3,434,862.3z"/>
		</g>
	</g>
</g>
<g>
	<path class="st2" d="M685,420.3"/>
</g>
<path class="st2" d="M890.3,466.4"/>
<path class="st3" d="M884.1,469.4c0,0,12.1-25.1-10.5-67.6s-56.7-71.9-100.6-69.5c-48.6,2.7-89.1,65.2-93.9,97.8s-15.8,65.6,3,86.5
	c18.8,20.9,32.2,6.7,31.6-13.1c-0.6-19.8-8.2-35.1,5.3-44.3c13.6-9.1,45-32.8,54-72.3c0,0,33.8,60,106.8,61.7
	C879.8,448.6,884.4,451.4,884.1,469.4z"/>
<g>
	<path class="st4" d="M769.3,746.6c0-5.1-5-9-10.2-11c-9.4-3.6-20.6-2.9-29.4,1.8c-2.3,1.2-4.5,2.8-6.2,4.7
		c-4.5,5.2-4.7,12.5-3.3,19c1.1,5.1,3.4,10.4,8.2,13.3c4.7,2.9,12.4,2.4,15.1-2.2c1.3-2.2,1.2-4.9,1.8-7.3c0.6-2.5,2.3-5.1,5-5.4
		c1.2-0.1,2.4,0.2,3.5,0.4c7.6,1.3,15.6-4.6,15.9-11.5"/>
</g>
<g>
	<path class="st2" d="M954.5,566.1"/>
</g>
<g>
	<g>
		<g>
			<path class="st0" d="M995.1,560c0.2,0,0.2,0,0.5,0.1c0.8,0.4,1.7,1.2,2,2.2c0.3,1-0.2,2.2-1.5,3.6c-0.1,0.1-0.3,0.3-0.4,0.3
				c-3.1,0.3-6.3,1.1-9.5,2l-7.1,2.2c-1.2,0.4-2.5,0.7-3.9,1c-1.3,0.3-2.5,0.5-3.8,0.7c-2.5,0.4-5.1,0.7-7.6,0.9
				c-1.3,0.1-2.6,0.2-3.9,0.2c-1.3,0-2.7,0-3.9,0c-1.2,0-2.2,0-3.1,0.1c-0.8,0.1-1.4,0.4-2,0.9c-0.1,0.1-0.3,0.3-0.4,0.4l-0.4,0.5
				c-0.2,0.3-0.4,0.6-0.6,1c-0.4,0.7-0.6,1.6-0.7,2.4c-0.1,0.8,0,1.6,0.3,2.2c0.1,0.3,0.3,0.5,0.5,0.7c0.2,0.2,0.4,0.4,0.7,0.6
				c0.6,0.4,1.5,0.7,2.5,0.9c0.5,0.1,1,0.2,1.6,0.2l0.4,0l0.4,0c0.2,0,0.3,0,0.5,0.1l1,0.3c2.2,0.6,4.5,1,6.8,1.3
				c1.2,0.1,2.3,0.2,3.5,0.2c1.2,0,2.4,0,3.6,0c4.8-0.1,9.6-0.7,14.3-1.6c2.3-0.5,4.7-1,6.9-1.7c0.6-0.2,1.1-0.4,1.7-0.5l1.5-0.5
				l3.2-1.6l1.7-0.9c0.4-0.2,0.8-0.4,1.2-0.7c0.8-0.4,1.4-0.9,1.9-1.3c0,0,0.1-0.1,0.2-0.2c0.1-0.1,0.2-0.1,0.3-0.2
				c0.1-0.1,0.3-0.3,0.4-0.4c0.6-0.6,1.2-1.3,1.7-2.4c0.1-0.1,0.1-0.3,0.2-0.4c0-0.1,0.1-0.2,0.1-0.3c0.1-0.2,0.1-0.5,0.1-0.8
				c0-0.6,0-1.3-0.2-1.9c-0.2-0.6-0.5-1.3-0.9-1.9c-0.4-0.6-0.9-1.1-1.4-1.6c-0.9-0.7-1.9-1.2-2.7-1.5c-0.8-0.3-1.5-0.6-2-0.8
				c-1-0.4-1.3-0.7-1-1c0.3-0.3,1.2-0.6,2.6-0.7c1.3-0.1,3.2,0.1,5.1,1.1c-0.2-0.1,0.9,0.3,2.3,1.7c1.4,1.3,2.9,3.6,3.2,6.6
				c0.1,0.7,0,1.5-0.1,2.3c-0.1,0.7-0.3,1.3-0.5,1.9c-0.4,1.2-1.1,2.3-1.6,3.1c-0.3,0.4-0.5,0.7-0.8,1c-0.3,0.3-0.5,0.6-0.7,0.8
				c-0.4,0.4-0.7,0.7-0.7,0.7c-1,0.8-2,1.4-3,1.9l-1.4,0.7l-2.7,1.4l-1.6,0.9c-0.3,0.2-0.6,0.3-0.7,0.3l-0.5,0.2l-0.9,0.3
				c-1.2,0.4-2.4,0.8-3.7,1.1c-2.5,0.7-4.9,1.2-7.4,1.7c-5,0.9-10,1.4-15.1,1.4c-2.5,0-5.2,0-7.7-0.4c-1.3-0.2-2.6-0.4-3.9-0.6
				c-0.6-0.1-1.3-0.3-1.9-0.4l-0.9-0.2l-0.5-0.1l-0.2-0.1c0,0,0,0,0,0c0.2,0-0.4,0-0.7-0.1c-0.3,0-0.7-0.1-1-0.1
				c-0.7-0.1-1.4-0.3-2.1-0.4c-1.4-0.4-3-1-4.4-2.2c-1.4-1.1-2.5-2.9-3-4.6c-0.5-1.7-0.5-3.4-0.3-5c0.3-1.6,0.8-3.1,1.7-4.5
				c0.9-1.5,2-2.6,3.5-3.6c1.5-0.9,3.2-1.5,4.7-1.7c1.5-0.2,2.9-0.2,4.2-0.1c4.6,0.2,9.3-0.3,14-1c1.1-0.2,2.4-0.4,3.5-0.6
				c1-0.2,2.2-0.5,3.3-0.9l7-2.1C987.8,561.2,991.3,560.3,995.1,560z"/>
		</g>
	</g>
</g>
<path d="M924,520.9c0,0,1,10.4-3.7,16.4l40.6-5.4c0,0,3.2-14.3,3.4-19.6C964.6,506.9,924,520.9,924,520.9z"/>
<path d="M1008.2,504.9c0,0,22.9-5.7,24.8,2c2,8-4.3,15.6-24.8,17.2C1008.2,524.2,1012.3,513.6,1008.2,504.9z"/>
<g>
	<g>
		<g>
			<path class="st0" d="M945.9,708.2c0,0,0,0.1-0.1,0.2c-0.6,0.7-2.5,2.2-5.3,2.4c-0.1,0-0.2,0-0.3,0c-0.1-0.2-7.2-16.4-7.2-16.4
				s-0.6-2.9-0.5-5.1c-0.2-3.7,1.6-3,3.2-1.3c0-0.3,3.1,4.2,3.1,4.2S945.8,707.9,945.9,708.2z"/>
		</g>
	</g>
</g>
<g>
	<g>
		<g>
			<path class="st4" d="M707,382.2C707,382.2,707,382.2,707,382.2c0.4-0.3,0.7-0.8,0.2,0c0,0-0.1,0.1-0.1,0.1c0,0.1-0.6,1-1.3,2.4
				c-0.8,1.4-1.8,3.3-2.7,5.1c-1.9,3.7-3.6,7.5-3.6,7.5s-1.5,2.2-3.1,3.4c-1.3,1.1-2.1,1.2-2.5,0.7c-0.4-0.4-0.4-1.4-0.1-2.4
				c-0.1,0.1,0.4-1.1,0.9-2.2c0.6-1.1,1.2-2.2,1.2-2.2s2.6-3.2,5.4-6.4c1.4-1.6,2.8-3.1,3.9-4.3C706.2,383.1,706.9,382.3,707,382.2z
				"/>
		</g>
	</g>
</g>
<g>
	<g>
		<g>
			<path class="st4" d="M765.3,338c0.1,0,0.1,0,0.4,0c0.7-0.1,1.5-0.2,1.8-0.2c0.3,0-0.1,0-1.7,0.4c-0.1,0-0.4,0.1-0.5,0.1l-1.3,0.3
				c-0.4,0.1-0.8,0.2-1.2,0.4l-2.5,0.8l-2.4,0.9c-0.4,0.2-0.8,0.3-1.2,0.5l-1.2,0.5l-2,0.9l-1.9,1.1c-0.6,0.3-1.3,0.7-1.9,1.1
				l-1.9,1.2c-0.6,0.4-1.2,0.8-1.8,1.2c-0.6,0.4-1.2,0.8-1.8,1.3c-1.2,0.9-2.4,1.7-3.5,2.7c-0.7,0.6-1.5,1.2-2.2,1.8l-2.1,1.9
				c0,0-0.5,0.4-1.2,1c-0.7,0.6-1.8,1.5-3,2.5c-2.4,2-5.5,4.6-8.1,6.6c-4.4,3.5-6.1,4.1-6.1,3.3c0-0.8,1.8-3.1,4.2-5.7
				c-0.3,0.2,2.7-2.8,5.9-5.6c1.6-1.4,3.3-2.8,4.5-3.9c1.3-1.1,2.2-1.7,2.2-1.7l2-1.5l2.1-1.4c1.2-0.9,2.6-1.6,3.9-2.4
				c0.6-0.4,1.3-0.7,2-1.1c0.7-0.4,1.3-0.8,2-1.1l2-1c0.7-0.3,1.4-0.6,2.1-0.9l2.1-0.9l2.1-0.8l1.2-0.4c0.4-0.1,0.8-0.2,1.3-0.4
				l2.5-0.7l2.6-0.5c0.4-0.1,0.8-0.2,1.3-0.2L765.3,338z"/>
		</g>
	</g>
</g>
<path class="st3" d="M1035.6,813.1c2.9,2.2,7.1,2.9,10.3,1.6c1.2,0.3,2.4,0.5,3.7,0.5c0.9,0,1.8-0.1,2.7-0.3
	c0.2,0.8,0.3,1.7,0.5,2.5c0.9,0,1.7,0,2.6,0c0.9,0,1.7,0.1,2.5,0.2c0.2,0,0.4-0.1,0.6-0.1c3.5-1,7-1.2,10.4-0.8
	c4.6-4.2,7.1-10.4,6.2-17.1c5.1-2,9-7,8.8-12.6c-0.3-6.6-4.9-12.3-11.4-13.4c1.4-1.6,2.3-3.6,2.2-5.8c-0.2-4.8-3.9-8.9-9-8.9
	c-4.6,0-9,3.9-8.9,8.7c-0.4-0.6-0.9-1.1-1.4-1.6c-1.2-1.3-2.7-2.3-4.4-2.8c-1.6-0.8-3.4-1.2-5.2-1.2c-1.2,0.2-2.4,0.3-3.6,0.5
	c-0.2,0.1-0.4,0.1-0.6,0.2c1.4-3.8-0.5-8.9-5.7-8.9c-8.2,0-8.2,12.7-0.1,12.8c-0.5,0.7-1.1,1.4-1.6,2.1c-1.2,2.1-1.8,4.4-1.8,6.8
	v1.5c-0.1,1.8,0.3,3.5,1.1,5c-1.5-0.9-3.2-1.4-5.2-1.4c-5.3,0-10.5,4.7-10.2,10.2c0.2,5.4,4.3,9.9,9.7,10.2
	C1028.9,805.9,1031.8,810.3,1035.6,813.1z M1059.3,774c0.9,0.9,1.9,1.7,3.1,2.2c-1.3,0.9-2.4,2-3.3,3.3c0.1-0.8,0.2-1.6,0.2-2.4
	v-1.5C1059.3,775.1,1059.3,774.5,1059.3,774z M1063.2,801.7c-0.1-1.2-0.3-2.4-0.6-3.5c2.1,1.5,4.6,2.4,7.5,2.5c1,7.8-4.3,15-12.2,16
	c-0.2-1.3-0.5-2.5-0.7-3.7C1060.8,810.4,1063.4,806.3,1063.2,801.7z M1055.4,786.7c0.5-0.7,1-1.4,1.6-2c-0.1,0.8-0.2,1.6-0.2,2.4
	c0.1,1.2,0.3,2.4,0.6,3.5c-1.3-0.9-2.7-1.6-4.3-2.1C1053.9,788,1054.6,787.4,1055.4,786.7z M1038.3,790.9c0-0.9-0.2-1.9-0.5-2.8
	c0.8,0.6,1.7,1,2.7,1.3c0.6,0.3,1.2,0.6,1.9,0.8c-3.9,2.4-6.6,6.7-6.4,11.4c0.1,2.4,0.8,4.7,1.9,6.7c-0.4-0.3-0.8-0.6-1-0.9
	c-1.8-2-3.5-4.6-4.4-7.4C1036,798.4,1038.5,794.9,1038.3,790.9z"/>
<g>
	<g>
		<g>
			<path class="st4" d="M1075.6,780.5c0,0-0.1,0-0.1-0.1c-0.1-0.3-0.3-0.8-0.2-1.3c0.1-0.5,0.4-1.1,1.6-1.2c0,0,0.2,0,0.3,0
				c1.8,1.1,3.1,2.9,3.8,4.8c0.5,1.3,0.7,2.8,0.7,4.2c-0.1,1.1-0.2,2.2-0.6,3.2c0,0-0.4,1.3-1.5,2.7c-1,1.5-2.7,3-4.2,3.8
				c-1.3,0.7-2.2,1-2.8,1c-0.6,0.1-0.7,0-0.7-0.2c0.2-0.4,1.3-1.1,2.5-2.3c-0.2,0.1,1.4-1.2,2.4-2.8c0.5-0.8,0.9-1.7,1.1-2.4
				c0.2-0.7,0.3-1.1,0.3-1.1c0.2-0.7,0.3-1.4,0.3-2.1c0-1-0.1-2.1-0.5-3C1077.6,782.4,1076.7,781.2,1075.6,780.5z"/>
		</g>
	</g>
</g>
<g>
	<g>
		<g>
			<path class="st4" d="M1049.8,768.7c-0.1,0-0.1,0-0.1-0.1c-0.1-0.3-0.3-0.8-0.2-1.4c0.1-0.5,0.4-1.1,1.6-1.2c0,0,0.2,0,0.3,0
				c1.7,1,3.2,2.4,4.2,4.1c0.1,0.2,0.3,0.5,0.4,0.7c0.5,1,0.9,2,1.1,3.1c0,0,0,0.3,0.1,0.9c0,0.6,0,1.4-0.2,2.3
				c-0.3,1.8-1.4,3.8-2.7,5.1c-1.1,1.1-1.9,1.6-2.5,1.8c-0.5,0.2-0.7,0.1-0.7-0.1c0.1-0.4,1.1-1.4,1.8-2.8c-0.1,0.1,1-1.5,1.2-3.4
				c0.2-0.9,0.1-1.9,0-2.5c-0.1-0.7-0.2-1.1-0.2-1.1c-0.1-0.7-0.4-1.3-0.7-1.9c-0.1-0.2-0.2-0.4-0.3-0.5
				C1052.1,770.4,1051.1,769.4,1049.8,768.7z"/>
		</g>
	</g>
</g>
<g>
	<g>
		<g>
			<path class="st4" d="M1024.4,787.5C1024.4,787.5,1024.4,787.5,1024.4,787.5c-0.5-0.3-1.5-0.9-2-2.2c0,0,0-0.1,0-0.1
				c0,0,0.5-0.5,1.3-1c0.8-0.5,2-1.2,3.3-1.4c1.3-0.2,2.7,0,3.7,0.3c0.9,0.3,1.5,0.6,1.5,0.6s0.1,0.1,0.2,0.2
				c0.1,0.1,0.3,0.3,0.5,0.5c0.4,0.4,0.8,1,1,1.5c0.9,1.7-0.2,1.6-1.1,1.3c0,0.1-0.5-0.2-1.1-0.4c-0.3-0.1-0.5-0.2-0.7-0.2
				c-0.2-0.1-0.3-0.1-0.3-0.1s-0.1-0.1-0.3-0.1c-0.2-0.1-0.4-0.2-0.7-0.3c-0.6-0.2-1.4-0.3-2.2-0.1c-0.8,0.1-1.6,0.5-2.1,0.9
				C1024.8,787.2,1024.5,787.5,1024.4,787.5z"/>
		</g>
	</g>
</g>
<g>
	<g>
		<g>
			<path class="st4" d="M1039.7,797.6c0-0.1,0.1-0.1,0.2-0.2c0.4-0.3,1-0.5,1.5-0.3c0.5,0.2,0.8,0.7,1.1,1.6c0,0,0,0.2,0,0.2
				c-0.5,1.2-0.6,2.6-0.3,4c0.1,0.5,0.3,1,0.5,1.5c0.3,0.8,0.8,1.5,1.3,2.2c0,0,0.1,0.2,0.4,0.6c0.3,0.4,0.6,0.9,1.1,1.4
				c0.9,1.1,2.4,2.1,3.9,2.4c1.2,0.3,2.1,0.1,2.6,0.1c0.5-0.1,0.7,0,0.7,0.2c-0.1,0.2-0.4,0.6-1,0.9c-0.6,0.3-1.5,0.6-2.5,0.6
				c0.1,0-0.5,0.1-1.3-0.1c-0.9-0.2-2-0.6-3.1-1.3c-1-0.7-1.9-1.5-2.5-2.1c-0.6-0.6-1-1.1-1-1.1c-0.5-0.7-1-1.5-1.4-2.4
				c-0.3-0.7-0.6-1.4-0.7-2.1C1038.7,801.7,1038.8,799.5,1039.7,797.6z"/>
		</g>
	</g>
</g>
<g>
	<path class="st3" d="M633.1,315.7c0-0.8,0.1-1.5,0.1-2.3l0-2.3c-0.1-1.5-0.2-3.1-0.6-4.7c-0.4-1.6-1.2-3.3-2.4-4.7
		c-1.1-1.4-2.5-2.4-3.8-3.2c-1.3-0.8-2.6-1.5-3.8-2.2l-0.5-0.3l-0.2-0.1c-0.1,0-0.2-0.1-0.2-0.1c-0.1-0.1-0.3-0.2-0.4-0.3
		c-0.3-0.2-0.4-0.5-0.6-0.9c-0.3-0.7-0.4-1.8-0.4-3c0-1.2,0.2-2.5,0.3-3.9c0-0.1-0.1-0.4-0.2-0.4c-1-1.5-2-1.7-2.8-1.5
		c-0.3,0.1-0.6,0.2-0.9,0.4c-1.1-1-2.8-1.7-4.3-1.7c-5.5,0-13-0.5-16.5,4.4c0,0,0,0,0,0c-0.4-1.4-0.8-2.6-1.2-3.5
		c-0.4-0.9-0.7-1.5-1-1.7c-0.3-0.2-0.5,0.1-0.6,0.9c-0.1,0.9,0,2.4,0.1,4.5c0,1.3,0,2.6-0.2,4c-0.1,1.4-0.4,2.7-0.7,3.4
		c-0.1,0.2-0.2,0.3-0.2,0.4c0,0.1-0.1,0-0.1,0.1c0,0,0,0-0.1,0c-0.1,0-0.1,0-0.2,0c0,0-0.2,0-0.2,0c-0.1,0-0.2,0-0.3,0
		c-0.1,0-0.2,0-0.3,0c-0.2,0-0.3,0-0.3,0c-0.7,0.1-1.5,0.1-2.5,0.2c-0.5,0.1-1,0.2-1.5,0.3c-0.2,0.1-0.5,0.1-0.7,0.2l-0.4,0.1
		l-0.5,0.2l-0.6,0.3c-1.7,0.9-3,2.4-3.8,3.9c-0.9,1.5-1.4,3.1-1.8,4.6c-0.7,3.1-0.9,6.1-0.7,9.1c0.1,1.5,0.2,3,0.4,4.5
		c0.2,1.5,0.5,3,1,4.5c0.5,1.6,1.2,3,2,4.4c0.9,1.3,1.9,2.6,3,3.7c2.3,2.2,5,3.9,7.8,5.1c2.8,1.2,5.8,1.9,8.8,2.3
		c0.7,0.1,1.5,0.2,2.2,0.2l2.2,0.1c0.8,0,1.5,0,2.3,0c0.8,0,1.5,0,2.3-0.2l2.3-0.3c0.8-0.2,1.5-0.4,2.3-0.5c0.8-0.2,1.5-0.4,2.2-0.7
		c0.7-0.3,1.5-0.5,2.2-0.9c2.9-1.3,5.4-3.4,7.4-5.8c2-2.4,3.6-5.2,4.6-8.1C632.4,321.7,632.9,318.7,633.1,315.7z"/>
	<path class="st3" d="M623.2,279.5c0.2,0.1,0.2,0.2,0.4,0.5c0.3,0.5,0.4,1.1,0.2,1.7c-0.2,0.5-0.7,0.7-1.2,0.9
		c-0.2,0.1-0.5,0.2-0.7,0.3c-0.1,0-0.2,0-0.3,0l-0.2,0c-0.1,0-0.3,0-0.5,0c-0.2,0-0.5,0.1-0.7,0.3c0,0-0.1,0.1-0.2,0.1
		c0,0-0.1,0-0.1-0.1l-0.4-0.2c-0.3-0.1-0.5-0.3-0.8-0.4c-0.5-0.3-1.1-0.5-1.7-0.7c-1.1-0.4-2.3-0.8-3.6-1.1
		c-1.8-0.4-3.7-0.7-5.6-0.8c-1.4-0.1-2.8-0.1-4.3-0.1c0,0-1.8-0.1-4.2,0c-2.4,0.1-5.5,0.4-8.1,0.8c-2.2,0.4-3.6,0.6-4.5,0.6
		c-0.9,0-1.2-0.1-1-0.4c0.3-0.6,2.3-1.8,4.9-2.9c-0.3,0,2.9-1.2,6.3-2c1.7-0.4,3.5-0.7,4.8-0.9c1.3-0.2,2.2-0.2,2.2-0.2
		c1.4,0,2.7,0,4.1,0.1c2.1,0.2,4.3,0.5,6.4,0.9c1.4,0.3,2.8,0.8,4.2,1.3c0.7,0.3,1.4,0.6,2.1,0.9c0.3,0.2,0.7,0.3,1,0.5l0.5,0.3
		C622.8,279.2,623,279.4,623.2,279.5z"/>
	<path class="st3" d="M621.6,271.5c0.1,0.1,0.2,0.1,0.3,0.2c0.4,0.5,0.8,1.4,0.6,2.2c-0.1,0.8-0.8,1.6-2.4,2c-0.1,0-0.3,0.1-0.4,0
		c-2.4-1-4.8-1.8-7.3-2.3c-1.8-0.4-3.6-0.7-5.5-0.8l-1.1-0.1l-1.1,0c-0.7,0-1.4-0.1-2.1,0c0,0-0.4,0-1.2-0.1c-0.7,0-1.8,0-3,0
		c-2.4,0.1-5.4,0.5-7.9,1c-1.1,0.2-1.9,0.5-2.6,0.7c-0.7,0.2-1.2,0.4-1.7,0.5c-0.8,0.2-1.2,0.1-1.1-0.3c0.1-0.3,0.6-0.8,1.4-1.5
		c0.4-0.3,0.9-0.6,1.4-1c0.5-0.3,1.1-0.7,1.8-1c-0.1,0,0.6-0.3,1.7-0.8c0.6-0.2,1.3-0.5,2.1-0.7c0.8-0.2,1.6-0.5,2.5-0.7
		c0.9-0.2,1.7-0.4,2.6-0.5c0.8-0.1,1.6-0.2,2.3-0.3c1.3-0.1,2.3-0.2,2.3-0.2c0.7,0,1.4,0,2.1,0c0.7,0,1.4,0.1,2,0.1
		c2.1,0.2,4.1,0.5,6.1,0.9C616.3,269.5,619,270.4,621.6,271.5z"/>
	<path class="st3" d="M615.1,262.1c0,0,0.1,0,0.1,0.1c0.2,0.8,0.1,2.6-1.3,4.4c0,0-0.1,0.1-0.2,0.2c0,0-0.9-0.3-2.2-0.6
		c-1.3-0.3-3-0.6-4.7-0.7c-1.7-0.1-3.4-0.1-4.7,0c-1.3,0.1-2.1,0.2-2.1,0.2s-0.6-0.1-1.3-0.1c-0.8-0.1-1.8-0.2-2.7-0.3
		c-1.4-0.1-2-0.5-2-1c0-0.5,0.6-1.1,1.4-1.6c-0.1,0,0.9-0.5,2-1c0.5-0.2,1.1-0.4,1.5-0.5c0.4-0.1,0.7-0.2,0.7-0.2s1-0.1,2.4-0.2
		c1.4-0.1,3.4-0.1,5.3,0c1.9,0.1,3.9,0.5,5.3,0.8C614.1,261.8,615.1,262.1,615.1,262.1z"/>
	<path class="st3" d="M572.2,303.5c0,0,0,0,0,0.1c-0.2,0.7-0.7,2.4-2.1,4.1c0,0-0.1,0.1-0.1,0.1c-0.1,0-6.8-3.5-6.8-3.5
		s-0.9-1-1.3-2.1c-0.8-1.6,0.2-2.3,1.2-2.4c0-0.1,2.4,0.2,2.4,0.2S572.1,303.5,572.2,303.5z"/>
	<path class="st3" d="M575.2,336.3C575.2,336.3,575.2,336.3,575.2,336.3c0.6,0.6,1.7,2,2.5,4c0,0,0.1,0.2,0.1,0.2
		c0,0-0.4,0.2-0.9,0.6c-0.6,0.3-1.3,0.7-2,1.1c-1.5,0.7-3.1,1.3-3.1,1.3s-1.2-0.1-2.1-0.6c-1.5-0.7-1.3-1.8-0.8-2.6
		c-0.1,0,0.3-0.4,0.6-0.7c0.3-0.3,0.7-0.7,0.7-0.7s1.3-0.5,2.6-1.1c0.6-0.3,1.3-0.6,1.7-0.9C574.9,336.5,575.2,336.3,575.2,336.3z"
		/>
	<path class="st3" d="M606,348.2c0,0,0,0,0.1-0.1c0.7-0.2,2.5-0.5,4.6-0.1c0,0,0.2,0,0.2,0.1c0,0.1,0.1,6.9,0.1,6.9
		s-0.5,1.1-1.2,1.9c-1,1.3-2.1,0.8-2.7,0c-0.1,0.1-1-1.9-1-1.9S606,348.3,606,348.2z"/>
	<path class="st3" d="M639.3,336.7c0,0,0,0-0.1-0.1c-0.2-0.7-0.3-2.5,0.4-4.6c0,0,0.1-0.2,0.1-0.2c0,0,0.7,0.1,1.6,0.2
		c0.9,0.1,2.2,0.2,3.4,0.4c2.5,0.4,4.9,0.9,4.9,0.9s1.5,0.8,2.4,1.8c1.6,1.5,0.6,2.3-0.7,2.6c0,0.1-0.7,0.1-1.4,0.2
		c-0.7,0.1-1.4,0.1-1.4,0.1s-2.3-0.5-4.5-0.8c-1.1-0.2-2.3-0.3-3.2-0.4C640,336.7,639.4,336.7,639.3,336.7z"/>
	<path class="st3" d="M640.2,304.3C640.2,304.3,640.2,304.3,640.2,304.3c-0.5-0.7-1.3-2.3-1.6-4.4c0,0,0-0.2,0-0.2
		c0,0,0.5-0.2,1.2-0.4c0.7-0.3,1.6-0.6,2.5-1c1.8-0.7,3.5-1.6,3.5-1.6s1.3-0.1,2.5,0.1c1.8,0.2,1.8,1.4,1.2,2.4c0.1,0-0.3,0.5-0.8,1
		c-0.4,0.5-0.9,0.9-0.9,0.9s-1.8,0.9-3.7,1.7c-0.9,0.4-1.9,0.8-2.6,1C640.8,304.1,640.3,304.3,640.2,304.3z"/>
</g>
<path class="st4" d="M610.9,325c-2.9,0-5.7-0.6-7.9-2.6c-0.9-0.8-4.1-4.7-2.7-5.8c2.7-2.3-1.2-6.2-3.9-3.9
	c-3.5,3.1-1.3,8.7,1.1,11.8c3.2,4.2,8.3,6.1,13.5,6C614.4,330.5,614.4,325,610.9,325z"/>
<g>
	<g>
		<g>
			<path class="st3" d="M530.2,375.1c0-0.1,0-0.2,0.1-0.3c0.4-0.5,1-1,1.8-1.3c0.8-0.2,1.8,0,2.8,1.5c0,0.1,0.2,0.3,0.2,0.4
				c-0.1,1.4-0.2,2.7-0.3,3.9c0,1.2,0.1,2.3,0.4,3c0.2,0.4,0.3,0.7,0.6,0.9c0.1,0.1,0.3,0.2,0.4,0.3c0,0,0.1,0.1,0.2,0.1l0.2,0.1
				l0.5,0.3c1.2,0.7,2.5,1.4,3.8,2.2c1.3,0.8,2.7,1.8,3.8,3.2c1.2,1.4,1.9,3.1,2.4,4.7c0.4,1.6,0.6,3.2,0.7,4.7l0,2.3
				c0,0.8-0.1,1.5-0.1,2.3c-0.2,3-0.8,6-1.8,8.9c-1.1,2.9-2.6,5.7-4.6,8.1c-2,2.4-4.6,4.4-7.4,5.8c-0.7,0.4-1.4,0.6-2.2,0.9
				c-0.7,0.3-1.5,0.6-2.2,0.7c-0.8,0.2-1.5,0.4-2.3,0.5l-2.3,0.3c-0.8,0.1-1.5,0.1-2.3,0.2c-0.8,0-1.5,0.1-2.3,0l-2.2-0.1
				c-0.7-0.1-1.5-0.2-2.2-0.2c-3-0.4-6-1.1-8.8-2.3c-2.8-1.2-5.5-2.9-7.8-5.1c-1.2-1.1-2.1-2.4-3-3.7c-0.8-1.4-1.6-2.8-2-4.4
				c-0.5-1.6-0.8-3-1-4.5c-0.2-1.5-0.4-3-0.4-4.5c-0.1-3,0-6,0.7-9.1c0.4-1.5,0.9-3.1,1.8-4.6c0.9-1.5,2.1-2.9,3.8-3.9l0.6-0.3
				l0.5-0.2l0.4-0.1c0.2-0.1,0.5-0.2,0.7-0.2c0.5-0.2,1-0.2,1.5-0.3c0.9-0.1,1.8-0.2,2.5-0.2c0,0,0.1,0,0.3,0c0.1,0,0.2,0,0.3,0
				c0.1,0,0.2,0,0.3,0c0.1,0,0.2,0,0.2,0c0.1,0,0.1,0,0.2,0c0,0,0,0,0.1,0c0,0,0.1,0,0.1-0.1c0.1-0.1,0.2-0.1,0.2-0.4
				c0.4-0.7,0.6-2,0.7-3.4c0.2-1.4,0.2-2.7,0.2-4c-0.1-2.2-0.2-3.7-0.1-4.5c0.1-0.9,0.3-1.1,0.6-0.9c0.3,0.2,0.6,0.8,1,1.7
				c0.4,0.9,0.8,2.1,1.2,3.5c0-0.2,0.2,0.6,0.4,1.9c0.1,0.6,0.2,1.4,0.2,2.2c0.1,0.8,0.1,1.7,0.1,2.7c0,0.5-0.1,1-0.2,1.5
				c-0.2,0.6-0.3,1.1-0.6,1.7l-0.2,0.4c-0.1,0.1-0.2,0.3-0.3,0.4c-0.2,0.3-0.4,0.5-0.7,0.7c-0.5,0.5-1.1,0.7-1.5,0.9
				c-0.2,0.1-0.5,0.1-0.7,0.2c-0.2,0-0.4,0.1-0.5,0.1c-0.4,0.1-0.6,0.1-0.8,0.1c-0.4,0.1-0.6,0.1-0.6,0.1c-0.8,0.1-1.5,0.1-2,0.2
				c-0.3,0.1-0.5,0.1-0.8,0.2l-0.2,0.1l-0.2,0.1c-0.1,0-0.2,0.1-0.3,0.2c-0.4,0.2-0.8,0.5-1.1,0.8c-1.4,1.4-2.2,3.8-2.6,6.2
				c-0.4,2.5-0.4,5.1-0.2,7.7c0.2,2.6,0.6,5.3,1.6,7.4c0.9,2.2,2.4,4.1,4.3,5.7c3.8,3.2,8.8,4.9,14,5.4c0.6,0.1,1.3,0.1,2,0.1l1,0
				c0.3,0,0.6,0,1,0l1.9-0.1c0.6,0,1.3-0.2,1.9-0.2l0.9-0.1c0.3,0,0.6-0.1,0.9-0.2c0.6-0.2,1.2-0.3,1.8-0.5l1.7-0.7l0.4-0.2l0.4-0.2
				l0.8-0.4c2.2-1.2,4.1-2.7,5.6-4.7c1.5-1.9,2.7-4.2,3.5-6.6c0.8-2.4,1.3-5,1.4-7.5c0.1-1.3,0-2.6,0-3.9c-0.1-1.3-0.2-2.5-0.5-3.6
				c-0.3-1.1-0.8-2-1.4-2.7c-0.7-0.8-1.6-1.5-2.7-2.1c-1.1-0.7-2.3-1.3-3.5-2l-0.5-0.2c-0.2-0.1-0.3-0.1-0.5-0.3
				c-0.4-0.3-0.9-0.5-1.3-0.9c-0.8-0.7-1.4-1.6-1.8-2.5c-0.7-1.8-0.8-3.5-0.8-5C530,377.8,530.1,376.4,530.2,375.1z"/>
			<path class="st3" d="M537.8,367.2c0.2,0.1,0.2,0.2,0.4,0.5c0.3,0.5,0.4,1.1,0.2,1.7c-0.2,0.5-0.7,0.7-1.2,0.9
				c-0.2,0.1-0.5,0.2-0.7,0.3c-0.1,0-0.2,0-0.3,0l-0.2,0c-0.1,0-0.3,0-0.5,0c-0.2,0-0.5,0.1-0.7,0.3c0,0-0.1,0.1-0.2,0.1
				c0,0-0.1,0-0.1-0.1l-0.4-0.2c-0.3-0.1-0.5-0.3-0.8-0.4c-0.5-0.3-1.1-0.5-1.7-0.7c-1.1-0.4-2.3-0.8-3.6-1.1
				c-1.8-0.4-3.7-0.7-5.6-0.8c-1.4-0.1-2.8-0.1-4.3-0.1c0,0-1.8-0.1-4.2,0c-2.4,0.1-5.5,0.4-8.1,0.8c-2.2,0.4-3.6,0.6-4.5,0.6
				c-0.9,0-1.2-0.1-1-0.4c0.3-0.6,2.3-1.8,4.9-2.9c-0.3,0,2.9-1.2,6.3-2c1.7-0.4,3.5-0.7,4.8-0.9c1.3-0.2,2.2-0.2,2.2-0.2
				c1.4,0,2.7,0,4.1,0.1c2.1,0.1,4.3,0.4,6.4,0.9c1.4,0.3,2.8,0.7,4.2,1.3c0.7,0.3,1.4,0.5,2.1,0.9c0.3,0.2,0.7,0.3,1,0.5l0.5,0.3
				C537.3,366.9,537.6,367,537.8,367.2z"/>
			<path class="st3" d="M536.2,359.2c0.1,0.1,0.2,0.1,0.3,0.2c0.4,0.5,0.8,1.4,0.6,2.2c-0.1,0.8-0.8,1.6-2.4,2.1
				c-0.1,0-0.3,0.1-0.4,0c-2.4-1-4.8-1.8-7.3-2.3c-1.8-0.4-3.6-0.7-5.5-0.8l-1.1-0.1l-1.1,0c-0.7,0-1.4,0-2.1,0c0,0-0.4,0-1.2-0.1
				c-0.7,0-1.8,0-3,0c-2.4,0.1-5.4,0.5-7.9,1.1c-1.1,0.2-1.9,0.5-2.6,0.7c-0.7,0.2-1.2,0.4-1.7,0.5c-0.8,0.2-1.2,0.1-1.1-0.3
				c0.1-0.3,0.6-0.8,1.4-1.5c0.4-0.3,0.9-0.6,1.4-1c0.5-0.3,1.1-0.7,1.8-1c-0.1,0,0.6-0.3,1.7-0.8c0.6-0.2,1.3-0.5,2.1-0.8
				c0.8-0.2,1.6-0.5,2.5-0.7c0.9-0.2,1.7-0.4,2.6-0.5c0.8-0.1,1.6-0.2,2.3-0.3c1.3-0.1,2.3-0.2,2.3-0.2c0.7,0,1.4,0,2.1,0
				c0.7,0,1.4,0.1,2,0.1c2.1,0.1,4.1,0.5,6.1,0.9C530.8,357.2,533.6,358.1,536.2,359.2z"/>
			<path class="st3" d="M529.7,349.8c0,0,0.1,0,0.1,0.1c0.2,0.8,0.1,2.6-1.3,4.4c0,0-0.1,0.1-0.2,0.2c0,0-0.9-0.3-2.2-0.6
				c-1.3-0.3-3-0.6-4.7-0.7c-1.7-0.1-3.4-0.1-4.7,0c-1.3,0.1-2.1,0.2-2.1,0.2s-0.6-0.1-1.3-0.1c-0.8-0.1-1.8-0.2-2.7-0.3
				c-1.4-0.1-2-0.5-2-1c0-0.5,0.6-1.1,1.4-1.6c-0.1,0,0.9-0.5,2-1c0.5-0.2,1.1-0.4,1.5-0.6c0.4-0.1,0.7-0.2,0.7-0.2s1-0.1,2.4-0.2
				c1.4-0.1,3.4-0.1,5.3,0c1.9,0.1,3.9,0.4,5.3,0.8C528.6,349.5,529.6,349.8,529.7,349.8z"/>
			<path class="st3" d="M486.8,391.3c0,0,0,0,0,0.1c-0.2,0.7-0.7,2.4-2.1,4.1c0,0-0.1,0.1-0.1,0.1c-0.1,0-6.8-3.5-6.8-3.5
				s-0.9-1-1.3-2.1c-0.8-1.6,0.2-2.3,1.2-2.4c0-0.1,2.4,0.2,2.4,0.2S486.7,391.2,486.8,391.3z"/>
			<path class="st3" d="M489.9,424C489.9,424,489.9,424,489.9,424c0.6,0.6,1.7,2,2.5,4c0,0,0.1,0.2,0.1,0.2c0,0-0.4,0.2-0.9,0.6
				c-0.6,0.3-1.3,0.7-2,1.1c-1.5,0.7-3.1,1.3-3.1,1.3s-1.2-0.1-2.1-0.6c-1.5-0.6-1.3-1.8-0.8-2.6c-0.1,0,0.3-0.4,0.6-0.7
				c0.3-0.3,0.7-0.7,0.7-0.7s1.3-0.5,2.6-1.1c0.6-0.3,1.3-0.6,1.7-0.9C489.5,424.2,489.9,424.1,489.9,424z"/>
			<path class="st3" d="M520.6,435.9c0,0,0,0,0.1-0.1c0.7-0.2,2.5-0.5,4.6-0.1c0,0,0.2,0,0.2,0.1c0,0.1,0.1,6.9,0.1,6.9
				s-0.5,1.1-1.2,1.9c-1,1.4-2.1,0.8-2.7,0c-0.1,0.1-1-1.9-1-1.9S520.6,436,520.6,435.9z"/>
			<path class="st3" d="M554,424.3c0,0,0,0-0.1-0.1c-0.2-0.7-0.4-2.5,0.4-4.6c0,0,0.1-0.2,0.1-0.2c0,0,0.7,0.1,1.6,0.2
				c0.9,0.1,2.2,0.2,3.4,0.4c2.5,0.4,4.9,0.9,4.9,0.9s1.5,0.8,2.4,1.8c1.6,1.5,0.6,2.3-0.7,2.6c0,0.1-0.7,0.1-1.4,0.2
				c-0.7,0.1-1.4,0.1-1.4,0.1s-2.3-0.5-4.5-0.8c-1.1-0.2-2.3-0.3-3.2-0.4C554.6,424.4,554,424.3,554,424.3z"/>
			<path class="st3" d="M554.8,391.9C554.8,391.9,554.8,391.9,554.8,391.9c-0.5-0.7-1.3-2.3-1.6-4.4c0,0,0-0.2,0-0.2
				c0,0,0.5-0.2,1.2-0.4c0.7-0.3,1.6-0.6,2.5-1c1.8-0.7,3.5-1.6,3.5-1.6s1.3-0.1,2.5,0.1c1.8,0.2,1.8,1.4,1.3,2.4
				c0.1,0-0.3,0.5-0.8,1c-0.4,0.5-0.9,0.9-0.9,0.9s-1.8,0.9-3.7,1.7c-0.9,0.4-1.9,0.8-2.6,1C555.4,391.7,554.9,391.9,554.8,391.9z"
				/>
		</g>
		<path class="st3" d="M517.8,413.3c-2.9-0.4-5.6-1.4-7.5-3.7c-0.8-0.9-3.4-5.2-1.9-6.2c3-1.9-0.4-6.3-3.3-4.4
			c-3.9,2.6-2.5,8.5-0.6,11.8c2.6,4.6,7.4,7.2,12.5,7.8C520.5,419.2,521.3,413.8,517.8,413.3z"/>
	</g>
</g>
<g>
	<g>
		<g>
			<path class="st5" d="M608.1,249.4c0,0.2,0,0.2-0.2,0.4c-0.9,1.4-3.1,3.3-5.8,0.1c0-0.1-0.2-0.3-0.3-0.5l0-10.3l0-25.6l0-5.8
				c0,0,0.6-9.5,1.6-16.1c1.3-11.3,2.7-6.8,3.4,0.2c0.1-0.7,1.2,16.7,1.2,16.7v4.9v25.6V249.4z"/>
		</g>
	</g>
</g>
<g>
	<g>
		<g>
			<path class="st5" d="M521.6,336.8c0,0.1,0,0.1-0.2,0.2c-0.9,0.5-3.1,1.3-5.8,0c0,0-0.2-0.1-0.3-0.2c0-0.3,0-22.5,0-22.5
				s0.6-3.6,1.6-6.1c1.3-4.3,2.7-2.6,3.4,0.1c0.1-0.3,1.2,6.4,1.2,6.4S521.6,336.5,521.6,336.8z"/>
		</g>
	</g>
</g>
</svg>
