<?xml version="1.0" encoding="utf-8"?>
<!-- Generator: Adobe Illustrator 22.0.1, SVG Export Plug-In . SVG Version: 6.00 Build 0)  -->
<svg version="1.1" id="Layer_1" xmlns="http://www.w3.org/2000/svg" xmlns:xlink="http://www.w3.org/1999/xlink" x="0px" y="0px"
	 viewBox="0 0 1500 1080" style="enable-background:new 0 0 1500 1080;" xml:space="preserve">
<style type="text/css">
	.st0{fill:#202020;}
	.st1{fill:#FF8E01;}
	.st2{fill:none;stroke:#000000;stroke-width:0.5;stroke-miterlimit:10;}
	.st3{fill:#FFFFFF;}
</style>
<g>
	<g>
		<g>
			<g>
				<path class="st0" d="M531.2,849c0,0.1,0,0.1-0.1,0.2c-0.5,0.6-1.7,1.2-2.6-0.4c0,0-0.1-0.2-0.1-0.2c0.1-0.7,0.2-1.4,0.3-2.2
					l0.1-0.9l0,0v0l0,0l0,0l-0.4,0.2l-0.6,0.3c-0.8,0.4-1.7,0.6-2.5,0.9c-1.7,0.4-3.3,0.7-5,0.9c-3.3,0.4-6.6,0.5-9.9,0.6
					c-3.4,0-6.6-0.2-9.9-0.6c-1.6-0.2-3.3-0.4-4.9-0.7l-2.4-0.5c-0.8-0.2-1.6-0.3-2.5-0.5c-0.2-0.1-0.4-0.1-0.6-0.2l-0.3-0.1
					l-0.2-0.1l-0.3-0.1c-0.7-0.3-1.4-0.7-1.8-1.2c-0.4-0.5-0.6-1-0.5-1.7c0.1-0.7,0.3-1,1-1.4c0.3-0.2,0.6-0.4,1-0.5l1-0.4
					c0.4-0.1,0.8-0.2,1.2-0.4c0.8-0.2,1.6-0.4,2.5-0.6c3.3-0.7,6.6-0.9,9.9-1.1c3.3-0.2,6.6-0.3,9.9-0.2l2.8,0.1
					c0,0,1.1,0.1,2.5,0.3c1.4,0.2,3.2,0.5,4.7,0.9c4.9,1.1,2.8,1.5-0.2,1.5c0.2,0-1.7,0-3.6,0c-1.9,0-3.8,0-3.8,0l-1.3,0l-2.3,0
					c-3.2,0-6.3,0.1-9.5,0.3c-3.2,0.2-6.3,0.5-9.3,1.2c-0.8,0.2-1.5,0.4-2.2,0.6l-0.5,0.1l0.4,0.1c0.3,0.1,0.7,0.2,1.1,0.3
					c0.7,0.2,1.5,0.3,2.3,0.5c0.8,0.2,1.5,0.3,2.3,0.4c1.5,0.2,3.1,0.4,4.7,0.6c3.1,0.3,6.3,0.5,9.4,0.5c3.2-0.1,6.3-0.2,9.4-0.6
					c1.5-0.2,3.1-0.4,4.5-0.8c0.7-0.2,1.4-0.4,2.1-0.7l0.5-0.2l0.2-0.1c0.1-0.1,0.3-0.2,0.5-0.3c0.2-0.1,0.3-0.2,0.5-0.3
					c0.2-0.1,0.4-0.3,0.5-0.4c0.3,0.1,0.6,0.2,0.8,0.2l1.7,0.4l0.1,0c0,0,0,0.1,0,0.1l0,0.3c0,0.7,0,1.5,0,2.2l-0.1,0.8l-0.1,0.6
					C531.4,847.4,531.3,848.2,531.2,849z"/>
			</g>
		</g>
	</g>
	<g>
		<g>
			<g>
				<path class="st0" d="M527.7,849.7c0,0,0.1,0,0.2,0c0.3,0,0.8,0,1.2,0.2c0.4,0.2,0.7,0.7,0.5,1.7c0,0-0.1,0.2-0.1,0.2
					c-1.4,1.2-3,1.9-4.6,2.3c-3.1,0.9-6.1,0.9-9,1.1c-3,0.1-5.9,0-8.9-0.2c-3-0.2-5.9-0.5-8.8-1c-1.5-0.2-2.9-0.5-4.4-0.8l-1.4-0.3
					c-0.5-0.1-0.9-0.2-1.4-0.4c0,0-0.3-0.1-0.7-0.3c-0.2-0.1-0.5-0.2-0.8-0.4c-0.2-0.1-0.3-0.2-0.5-0.3c-0.1-0.1-0.5-0.3-0.7-0.5
					l-0.2-0.1c-0.1,0-0.1-0.1-0.1-0.2c0-0.2-0.1-0.3-0.1-0.5c0-0.2-0.1-0.4-0.1-0.5l0-0.3c0-0.4-0.1-0.8-0.1-1.3
					c-0.1-0.9,0-1.7,0-2.5c0.2-2.6,0.7-3.3,1-3c0.2,0.3,0.3,1.5,0.6,3c0-0.2,0.2,1.6,0.7,3.3c0.1,0.3,0.1,0.2,0.1,0.3
					c0,0,0.1,0,0.1,0c0.3,0.2,0.7,0.3,1,0.4c0.6,0.2,1,0.3,1,0.3c0.4,0.1,0.8,0.2,1.2,0.3l1.6,0.3c1.4,0.3,2.8,0.5,4.2,0.8
					c2.8,0.4,5.6,0.7,8.4,0.9c2.8,0.2,5.7,0.2,8.5,0.1c2.8-0.1,5.7-0.2,8.2-0.9C525.5,851.1,526.7,850.5,527.7,849.7z"/>
			</g>
		</g>
	</g>
	<g>
		<g>
			<g>
				<path class="st0" d="M491.2,844.5c0.1-0.1,0.1-0.1,0.2-0.1c0.1,0,0.2,0,0.4,0c0.1,0,0.4,0,0.7,0.2c0.2,0.1,0.3,0.2,0.4,0.4
					c0.1,0.2,0,0.2,0,0.3c-0.1,0.2-0.2,0.2-0.3,0.2c-0.1,0-0.2,0-0.4,0l-0.2,0l0.1,0c0,0,0.1,0,0,0c0,0,0,0.1,0.1,0.2c0,0,0,0,0,0
					s0,0,0,0c0,0-0.1,0-0.1,0l0,0l0,0c-0.3,0,2.4,0.2,1.3,0.1v0v0l0,0l0,0l0,0c0,0.1,0,0.3,0,0.5c0,0.4-0.1,1,0,1.5
					c0,1.1,0.1,2.1,0.1,2.1s-0.2,0.7-0.5,1.3c-0.4,1-1.1,0.8-1.5,0.2c0,0-0.2-0.3-0.4-0.6c-0.2-0.3-0.3-0.7-0.3-0.7
					s-0.1-1.2-0.1-2.4c0-0.6,0-1.2,0.1-1.7c0-0.2,0-0.4,0-0.6c0-0.1,0-0.1,0-0.2c0.1-0.3,0.1-0.5,0.2-0.6
					C491.1,844.6,491.2,844.5,491.2,844.5z"/>
			</g>
		</g>
	</g>
	<g>
		<g>
			<g>
				<path class="st0" d="M495.9,847.1C495.9,847.1,495.9,847.1,495.9,847.1c0.4-0.2,1.4-0.4,2.6-0.2c0,0,0.1,0,0.1,0
					c0,0,0,0.3,0,0.7c0,0.4,0,0.9,0.1,1.4c0,1,0,2,0,2s-0.3,0.7-0.7,1.1c-0.6,0.8-1.2,0.4-1.5,0c-0.1,0-0.5-1.1-0.5-1.1s0-0.9,0-1.9
					c0-0.5-0.1-0.9-0.1-1.3C496,847.4,495.9,847.1,495.9,847.1z"/>
			</g>
		</g>
	</g>
	<g>
		<g>
			<g>
				<path class="st0" d="M502.2,847.2L502.2,847.2L502.2,847.2L502.2,847.2L502.2,847.2l1.3,0.1l0,0c0,0,0,0,0,0c0,0,0.1,0.1,0,0.1
					c-0.1,0,0,0,0-0.1l0.1-0.3l0,0l0,0l0,0l0,0l0,0.1l0,0.2c0,0.1,0,0.3-0.2,0.3c-0.1,0-0.3,0-0.4-0.3c-0.1-0.3-0.1-0.5-0.1-0.6
					c0-0.1,0.1-0.3,0.1-0.4c0.1-0.1,0.1-0.1,0.2-0.2c0,0,0.2-0.1,0.3-0.1c0,0,0.2,0,0.3,0c0.1,0,0.2,0,0.4,0.1
					c0.1,0,0.3,0.2,0.4,0.3c0.1,0.1,0.2,0.4,0.3,0.5c0,0.1,0,0.3,0.1,0.3c0,0,0,0,0,0c0,0,0,0.3,0,0.6c0,0.4,0,0.9,0,1.3
					c0,1,0,1.9,0,1.9s-0.3,0.6-0.6,1.1c-0.5,0.8-1.2,0.6-1.5,0.1c-0.1,0.1-0.6-1.1-0.6-1.1s-0.1-1,0-2c0-0.5,0-1,0-1.4
					C502.2,847.5,502.2,847.3,502.2,847.2z"/>
			</g>
		</g>
	</g>
	<g>
		<g>
			<g>
				<path class="st0" d="M508.1,847.4C508.1,847.4,508.1,847.4,508.1,847.4c0.5-0.1,1.5-0.2,2.7,0c0,0,0.1,0,0.1,0c0,0,0,3.6,0,3.6
					s-0.3,0.6-0.7,1c-0.6,0.7-1.2,0.4-1.5,0c-0.1,0-0.5-1-0.5-1S508.1,847.5,508.1,847.4z"/>
			</g>
		</g>
	</g>
	<g>
		<g>
			<g>
				<path class="st0" d="M514.2,847.4C514.3,847.3,514.3,847.3,514.2,847.4c0.5-0.1,1.5-0.2,2.7,0.1c0,0,0.1,0,0.1,0
					c0,0,0,0.2,0,0.5c0,0.3,0,0.7,0,1.1c0,0.8,0,1.6,0,1.6s-0.3,0.5-0.6,0.9c-0.5,0.7-1.2,0.5-1.5,0.1c-0.1,0.1-0.6-0.9-0.6-0.9
					s0-0.8,0-1.7c0-0.4,0-0.8,0-1.2C514.2,847.6,514.2,847.4,514.2,847.4z"/>
			</g>
		</g>
	</g>
	<g>
		<g>
			<g>
				<path class="st0" d="M520.1,846.9C520.1,846.9,520.1,846.9,520.1,846.9c0.5-0.1,1.4-0.3,2.6-0.2c0,0,0.1,0,0.1,0
					c0,0,0.2,3.5,0.2,3.5s-0.2,0.6-0.6,1c-0.5,0.7-1.2,0.5-1.5,0.1c-0.1,0-0.6-1-0.6-1S520.1,847,520.1,846.9z"/>
			</g>
		</g>
	</g>
</g>
<path class="st1" d="M1062.5,559c-1.2-3.7-3.9-7-7.1-9c-10.7-13.4-27.2-21.9-38.1-35.2c-12.8-15.6-27.9-27.1-39-41.8
	c-11.9-15.8-31.4-25.4-48.5-35.4c-8.8-5.1-18.3-9.7-28.4-11.2c-11-1.6-24.7-3.4-35.4-0.3c-22.1,6.6-38,26.5-39.1,50.6
	c-0.2,4,1.6,7.9,4.4,10.8c-2.4,3.8-4.9,7.5-7.3,11.3l-15.7,17.9c-0.5,0.5-0.8,1.1-1.2,1.6c-2.7,3.4-5.2,7-7.8,10.6
	c-0.9,0.9-1.8,1.8-2.7,2.7c-5.7,4.6-11.9,8.5-18.7,11.7c-0.2,0.1-0.3,0.2-0.5,0.3c-9.6-5.1-19.1-10.4-28.5-15.9
	c-18.3-10.7-36.1-22.2-53.4-34.4c-9.4-7.4-19.4-13.8-30.8-18.5c-7.5-3.1-17.4,3.4-19.1,10.8c-2.1,9,2.8,15.7,10.8,19.1
	c-2.1-0.9,0.3,0.1,0.6,0.3c0.9,0.5,1.9,0.9,2.8,1.4c1.8,0.9,3.6,1.9,5.4,3c1.8,1.1,3.5,2.2,5.2,3.3c0.8,0.6,1.7,1.2,2.5,1.8
	c0.4,0.3,0.7,0.5,0.9,0.6c0.2,0.2,0.5,0.4,0.9,0.7c6.4,5.3,12.5,11,18.5,16.9c3,2.9,5.9,5.8,8.9,8.7c0.3,0.4,0.7,0.9,1.1,1.3
	c1.7,1.8,3.6,3.5,5.5,5c8.3,7.8,16.9,15.3,26.5,21.8c8.2,5.6,16.9,10.4,26,14.3c11.8,5.1,24.3,8,36.2,1.1c1-0.6,1.9-1.2,2.8-1.9
	c25.4-8.4,48.5-26.6,65.5-46.6c2.6-3.1,5.1-6.2,7.6-9.5c2.2,3.7,4.3,7.5,6.1,11.3c0.5,1.1,1.9,4.2,1.9,4.1c0-0.1,1.3,3.3,1.7,4.3
	c1.5,3.9,2.9,7.8,4.2,11.7c5.3,15.8,9.3,32.1,16.1,47.4c6.8,15.3,19.2,28.8,36.4,31.5c17.7,2.7,32.9-4.6,46.8-14.4
	c11.8-3.8,23.2-8.6,34.2-14.4c12.3-6.4,23.7-14.1,32.2-24.4c3.5-0.5,6.8-2,9.1-4.3C1067.9,573.8,1067.1,565.4,1062.5,559z"/>
<path class="st1" d="M702.9,558.7c-6.8-9.1-14.4-17.6-22.7-25.3c-3.8-3.5-9.4,2.2-5.7,5.7c7.8,7.2,15.1,15.1,21.5,23.7
	C699.1,566.8,706,562.8,702.9,558.7z"/>
<path class="st1" d="M812.9,556.1c-1.6,41.9-8.1,83.3-19.1,123.6c-0.6,7.7,0.4,15.5,4.5,22c0.7,0.2,1.5,0.4,2.3,0.5
	c2.3-5.1,4.8-10,8.1-14.6c2.4-3.3,4.9-6.7,8.2-9c10.4-40,16.4-81.2,18-122.5C835.5,542,813.5,542,812.9,556.1z"/>
<g>
	<g>
		<g>
			<path class="st0" d="M833.3,561.6c0-0.2,0-0.2,0.2-0.4c1-1.3,3.4-3.1,5.8,0.3c0,0.1,0.2,0.4,0.2,0.5c-0.2,3.4-0.5,6.9-0.8,10.3
				c-2.1,24.3-5.3,48.5-9.8,72.5c-1.1,6-2.3,12-3.6,17.9l-2,8.9l-1,4.5l-0.4,1.6c-0.1,0.4-0.4,0.6-0.6,1l-0.3,0.5l-1.2,1.9
				l-21.3,32.8l-4.1,6.3c-0.1,0.3-0.1-0.1-0.2-0.2l-0.1-0.4l-0.3-0.9l-0.6-1.8l-1.2-3.6l-3.2-9.8l-4.7-14.2l-0.6-1.8l-0.4-1.2
				l-0.3-0.9c0-0.3,0.1-0.6,0.2-0.9l0.9-4l1.5-7.3c1-4.9,2-9.8,3-14.7c2.6-13.2,5-26.5,7.2-39.8l1.3-7.9c0,0,2.1-9.2,4-15.6
				c2.9-10.9,3.6-6.3,3.4,0.7c0.1-0.4-0.2,3.8-0.6,8.1c-0.4,4.3-0.8,8.6-0.8,8.6l-1.2,7.1c-2.2,13.4-4.6,26.7-7.2,40
				c-1,4.9-2,9.8-3,14.7l-1.5,7.4l-0.7,3.3l0.2,0.6l0.6,1.8l6.2,18.7l18.4-28.3l1.2-1.9l0.3-0.4l0,0l0.1-0.6l1-4.4l2-8.9
				c1.2-5.9,2.5-11.8,3.6-17.8c4.5-23.8,7.7-47.7,9.8-71.8C832.8,568.4,833.1,565,833.3,561.6z"/>
		</g>
	</g>
</g>
<g>
	<g>
		<g>
			<path class="st0" d="M907.5,624.7c0.1-0.1,0.2-0.1,0.4,0c1.6,0.3,4.2,1.7,2.2,5.4c0,0.1-0.2,0.3-0.4,0.4
				c-3.2,1.2-6.4,2.5-9.6,3.8c-21.2,8.5-41.9,18.4-61,30.8c-2.4,1.5-4.7,3.2-7.1,4.8l-3.4,2.5l-1.7,1.2l-1.4,1.2
				c-3.8,3.6-7.1,8.2-9.9,13c-2.8,4.8-5.1,9.9-6.8,15.1c-0.5,1.3-0.8,2.6-1.1,3.9c-0.2,0.7-0.3,1.3-0.4,2l-0.2,1l-0.1,1
				c-0.1,0.7-0.2,1.3-0.2,2l-0.1,1.9l0,4.3c0,11.5-0.2,23,0,34.5c0.1,5.7,0.3,11.4,0.6,17.2c0.3,5.7,0.6,11.4,1.1,17.1
				c1,11.4,2.4,22.8,3.4,34.4l0.4,4.5l0.2,3c0,0,0,2.4-0.1,5.6c-0.1,3.2-0.3,7.3-0.7,10.7c-0.6,5.7-1.3,7.3-1.9,6.7
				c-0.6-0.6-1.1-3.5-1.5-6.9c0,0.2-0.1-0.8-0.3-2.3c-0.2-1.5-0.4-3.6-0.6-5.7c-0.5-4.2-1.1-8.5-1.1-8.5l-0.2-3l-0.1-1.5l-0.6-6.3
				c-1.1-11.2-2.4-22.5-3.3-33.9c-0.8-11.4-1.3-22.7-1.5-34.1c-0.2-11.4,0-22.7,0-34c0-0.7,0-1.4,0-2.2l0.1-2.3
				c0.1-0.8,0.2-1.5,0.3-2.3l0.2-1.1l0.2-1.1c0.5-3,1.5-5.8,2.4-8.6c2-5.6,4.6-10.8,7.6-15.9c1.6-2.5,3.2-5,5-7.3
				c1.9-2.3,3.8-4.6,6.3-6.6c0.6-0.6,1.2-0.9,1.8-1.4l1.8-1.3c1.2-0.8,2.3-1.7,3.5-2.5l3.5-2.4l3.6-2.3c19.2-12.5,40-22.3,61.1-30.8
				C901.1,627.2,904.3,625.9,907.5,624.7z"/>
		</g>
	</g>
</g>
<path d="M1098.8,773.6c0,0,0-0.1,0-0.1c1.1-52.1-3.2-104.2-12.5-155.5c-1.4-7.6-10.6-12.7-17.9-11.1c-3.2,0.4-6.2,1.8-8.5,4.3
	c-5.3,5.7-11,11.2-17,16.2c-3.7,3.1-4,3.4-7.7,6c-3.1,2.2-6.2,4.3-9.4,6.4c-13.2,8.4-25.2,14.1-38.6,18.6c-15.1,5-30.1,9.3-45.7,6.9
	c1.1,0.1,0.7,0-1.2-0.3c-1.2-0.3-2.4-0.5-3.5-0.9c-1.2-0.3-2.3-0.7-3.4-1.1c0.9,0.3-3.1-1.6-3.6-1.8c-1.1-0.6-2.1-1.3-3.1-2
	c0.8,0.5-2.6-2.2-3-2.6c-0.3-0.3-1.8-2-1.9-2c-0.9-1.3-1.7-2.7-2.5-4.1c-0.1-0.1-0.1-0.2-0.1-0.3c-0.3-0.9-0.6-1.8-0.8-2.7
	c-2.1-7.8-11.1-13.4-19.1-10.8c-2,0.6-3.8,1.6-5.3,2.8c-2.4,0.7-4.7,2-6.8,3.6c-9.5,7.3-22.3,15.2-33.9,21.1
	c-11.5,5.9-23.6,11.8-32.3,21.7c-10.1,11.5-14.1,25.6-15.5,40.5c-0.2,2.5-0.4,5.1-0.5,7.7c-1.7,2.4-2.7,5.4-2.8,8.7
	c-0.6,13.5,0.3,27.2,0.5,40.8c0.1,7.3,1.5,15,1.8,22.2c0.3,6.2,18.8,20.3,24.6,22.7c23.7,9.9,37.7,12.3,50,10.3
	c8-1.3,3.6-28.5,2.4-36.2c-1.3-8.1-3.1-16.2-5-24.3c-1.2-19.6-1.7-39.3-1.4-59c38.1,3.4,76.2-2.2,111.9-15.4c0.3,1.6,1,3.2,2,4.7
	c5.1,7.5,7.5,13.1,10,20.8c2.7,8.3,4.9,16.7,7.1,25.1c0,0,15.4,56.5,15.4,56.6c1,3.9,1.1,2.5,4.7,4.4c3.5,1.8,9.6,4.3,14.1,6.1
	c3.9,1.6,10.9,6.1,14.5,8.3c14,8.6,30.7,19.1,41.8,13c3.3-1.8-1.1-32.6,1.5-35.6c1.4-1.7,2.3-3.7,2.7-5.8c0.8-4.2,1.6-8.4,2.3-12.6
	C1104,783.5,1102.6,777.4,1098.8,773.6z"/>
<path class="st1" d="M819.5,460.9c-14.5-5.1-24.6,6.2-33.3,15.7c-4,4.4-8.3,8.6-12.7,12.6c-2.4,2.2-4.9,4.3-7.4,6.4
	c-0.9,0.8-1.9,1.5-2.9,2.2c-4.6-0.2-9.3,2.2-11.6,6.2c-3.6,6.1-1.2,13.4,4.5,17.1c6,3.9,13.8,11.3,21.3,11.3c8.7,0,14.7-8.3,20-14.2
	c9.9-11.1,18.8-23,26.7-35.5c0-0.1,0.1-0.1,0.1-0.2c1.9-1.6,3.4-3.8,4.1-6.2C830.1,469.3,825.9,463.1,819.5,460.9z M762.4,498.4
	C760.8,499.8,760.6,498.6,762.4,498.4L762.4,498.4z"/>
<g>
	<g>
		<g>
			<path class="st0" d="M389.1,847c0,0.1,0,0.2-0.1,0.4c-0.3,0.7-0.8,1.7-1.7,2.2c-0.9,0.5-2.2,0.6-3.9-0.7c-0.1,0-0.3-0.3-0.4-0.4
				c-0.8-3.5-1.4-6.9-2.1-10.3l-4.1-21.3l-2-10.7l-0.6-3.3l-0.5-2.7l-0.3-1.3l-0.1-0.7l-0.1-0.3c0-0.1,0.1-0.1,0.1-0.1l0.2,0
				l8.5-1.2c14.6-1.8,29.2-2,43.7-2.1c7.2,0,14.5-0.1,21.6-0.2c3.6-0.1,7.2-0.2,10.8-0.4l5.1-0.3l1.4-0.1l0.7,0l0.3,0l0.2,0
				c0.1,0,0,0.1,0,0.1l-0.3,2.7l-1,7.7l-3.5,28.4c0,0-1.8,9.3-3.6,15.8c-2.7,11-3.5,6.4-3.4-0.6c-0.2,0.7,0.9-16.7,0.9-16.7
				l3.7-29.7l0.1-0.9l-2.3,0.1c-3.6,0.2-7.2,0.3-10.8,0.4c-7.2,0.2-14.3,0.2-21.4,0.2c-14.2,0.1-28.3,0.3-42.2,2.1l-1.3,0.2
				c-0.3,0-0.2,0-0.2,0l0,0l0,0l0.5,2.5l2,10.5l4,21C387.8,840.4,388.3,843.8,389.1,847z"/>
		</g>
	</g>
</g>
<g>
	<g>
		<g>
			<path class="st0" d="M421.3,793.6c0,0.1,0,0.2-0.1,0.4c-0.8,1.4-2.8,3.6-5.8,0.6c-0.1-0.1-0.3-0.3-0.3-0.5
				c-0.3-3.5-0.6-6.9-0.8-10.4c-0.5-7.8-0.6-15.6-0.5-23.4c0-1.9,0.1-3.9,0.1-5.8c0,0,0.2-2.4,0.7-5.6c0.4-3.2,1.1-7.2,1.8-10.5
				c1.1-5.6,2-7.2,2.5-6.5c0.6,0.6,0.8,3.5,0.9,7c0.1-0.4,0,3.8,0.1,8c0,4.2,0.2,8.6,0.2,8.6l-0.1,4.9c-0.1,7.7,0.1,15.3,0.6,23
				C420.7,786.8,421,790.2,421.3,793.6z"/>
		</g>
	</g>
</g>
<g>
	<path class="st2" d="M419.9,777.1"/>
</g>
<g>
	<g>
		<g>
			<path class="st0" d="M418.1,783.1c-0.1,0-0.2,0.1-0.4,0c-1.6-0.4-4.2-1.9-2-5.5c0-0.1,0.2-0.3,0.4-0.4c3.2-1.1,6.3-2.4,9.3-3.7
				c2.2-1,4.3-2,6.4-3.2c0.8-0.4,1.6-0.9,2.5-1.4c0.8-0.5,1.6-0.9,2.4-1.4c0,0,0.5-0.3,1.4-0.7c0.8-0.5,2.1-1.1,3.4-1.8
				c2.8-1.5,6.2-3.5,9-5.2c2.4-1.5,3.9-2.4,4.9-2.9c1-0.5,1.4-0.4,1.4,0c0,0.8-1.8,3.2-4.4,5.7c0.3-0.2-2.8,2.7-6.2,5.5
				c-0.9,0.7-1.7,1.3-2.6,2c-0.8,0.6-1.6,1.2-2.3,1.7c-1.4,0.9-2.3,1.6-2.3,1.6c-1.5,0.8-2.9,1.7-4.4,2.5c-2.2,1.2-4.5,2.3-6.7,3.3
				C424.7,780.6,421.4,781.9,418.1,783.1z"/>
		</g>
	</g>
</g>
<g>
	<g>
		<g>
			<path class="st0" d="M469.5,744.1c0.1,0.2,0.1,0.3,0.1,0.6c0,0.5-0.2,1.1-0.4,1.6c-0.3,0.5-0.6,0.9-1.1,1.1
				c-1,0.5-2.2,0.1-3.8-0.5c-0.1,0-0.3-0.1-0.4-0.2c-0.9-2.1-3.2-3.9-5.7-4.5c-2.2-0.6-4.8-0.4-7.3,0.4c-2.5,0.8-4.9,2.1-7,3.8
				c-4.3,3.3-7.4,8.1-9.1,13.3c-0.8,2.6-1.2,5.3-1.2,8l0.1,2c0.1,0.7,0.2,1.3,0.3,2l0,0.2c0,0,0,0,0,0l0.7,0l1.2,0.1l2.3,0.2
				c1.4,0.1,2.8,0.2,4.2,0.2c2.8-0.1,5.6-0.5,8.3-1.2c4.9-1.4,9.5-3.8,13-7.3c0.9-0.9,1.8-1.8,2.4-2.7c0.3-0.5,0.7-0.9,1-1.4
				c0.6-0.9,1.2-1.9,1.7-2.9c0,0,0.3-0.5,0.7-1.2c0.2-0.4,0.5-0.9,0.7-1.4c0.3-0.6,0.5-1.2,0.8-1.8c1.1-2.7,2-6.4,2.2-9.5
				c0-0.7,0-1.3,0-1.8c0-0.6,0-1.1,0-1.5c0-0.9,0-1.6-0.1-2.2c0-1.1,0.2-1.5,0.6-1.3c0.4,0.2,0.9,0.9,1.5,2.1
				c0.5,1.2,1.1,2.8,1.4,4.7c0.1-0.4,0.8,4.1,0,8.7c-0.4,2.3-1,4.6-1.6,6.2c-0.3,0.8-0.6,1.5-0.8,2c-0.2,0.5-0.3,0.7-0.3,0.7
				c-0.6,1.2-1.3,2.3-2.1,3.4l-0.6,0.8l-0.3,0.4c-0.2,0.3-0.4,0.6-0.7,0.8c-0.9,1.1-1.9,2.2-3,3.1c-4.3,3.9-9.5,6.6-14.9,8.1
				c-3.2,0.9-6.5,1.4-9.8,1.5c-1.6,0-3.3,0-4.9-0.2l-2.3-0.2l-1.1-0.1l-0.5,0c-0.3,0-0.7,0-1.1,0c-0.8,0-1.6,0-2.3,0.1l-0.6,0
				l-0.3,0l-0.1,0c-0.1,0-0.1,0-0.1-0.1l-0.3-1.1l-0.5-2.2l-0.3-1.1c0-0.2-0.1-0.4-0.1-0.5l-0.1-0.4c-0.1-0.8-0.3-1.7-0.4-2.5
				l-0.1-2.5c0-3.4,0.5-6.7,1.5-9.9c2-6.4,5.8-12.2,11.2-16.4c2.7-2.1,5.6-3.8,9-4.8c3.3-1,7-1.4,10.7-0.5c2.1,0.6,4,1.5,5.7,2.8
				C467.1,740.3,468.5,742,469.5,744.1z"/>
		</g>
	</g>
</g>
<g>
	<g>
		<g>
			<path class="st0" d="M415.9,754.7c0,0,0,0.1-0.1,0.2c-0.5,0.8-2,2.6-4.8,3.3c-0.1,0-0.2,0-0.3,0c0-0.1-0.7-1-1.6-2.4
				c-0.9-1.4-2.1-3.3-3.3-5.2c-2.3-3.8-4.4-7.7-4.4-7.7s-0.8-2.8-0.9-5.1c-0.3-3.6,1.5-3,3.1-1.5c0-0.1,0.8,0.8,1.7,1.8
				c0.8,1,1.7,2,1.7,2s2,3.7,4.2,7.3c1.1,1.8,2.3,3.6,3.1,4.9C415.2,753.7,415.8,754.6,415.9,754.7z"/>
		</g>
	</g>
</g>
<g>
	<g>
		<g>
			<path class="st0" d="M410.2,733.2c0,0.2,0,0.2-0.2,0.5c-0.5,0.8-1.4,1.6-2.4,1.7c-1.1,0.1-2.2-0.5-3.4-2c0-0.1-0.2-0.3-0.2-0.4
				c0.1-2.9-0.5-5.8-1.9-8.4c-0.4-0.7-0.7-1.4-1.2-2c-0.2-0.3-0.4-0.6-0.7-0.9c-0.2-0.3-0.6-0.7-0.8-1c-1.2-1.4-2.2-2.7-3.3-3.5
				c-1.1-0.9-2.4-1.5-3.9-2c-0.8-0.3-1.6-0.5-2.4-0.7l-0.6-0.1c-0.1,0-0.3-0.1-0.5-0.1c-0.3-0.1-0.7-0.1-1.1-0.1c-0.4,0-0.7,0-1.1,0
				l-0.1,0l0,0l0,0l0,0.1c-0.6,1.5-1.1,3-1.3,4.6c-0.5,3.1-0.4,6.4,0.5,9.5c0.5,1.6,1.1,3.1,2,4.5c0,0,0.2,0.5,0.7,1.2
				c0.5,0.7,1.1,1.8,2,2.9c0.9,1.1,2,2.3,3.3,3.4c1.3,1.1,2.7,2,4.1,2.8c2.4,1.2,4.1,1.8,5,2.2c1,0.4,1.3,0.8,0.9,1
				c-0.6,0.5-3.8,0.9-7.4-0.2c0.2,0.1-0.8-0.2-2.4-0.8c-1.5-0.6-3.6-1.7-5.5-3.1c-1.9-1.4-3.6-3.1-4.7-4.6c-0.6-0.7-1-1.4-1.3-1.8
				c-0.3-0.5-0.5-0.7-0.5-0.7c-0.9-1.6-1.6-3.4-2.2-5.2c-1.2-4-1.4-8.2-0.7-12.2c0.3-2,0.9-4,1.7-5.9c0.1-0.3,0.3-0.8,0.5-1.2
				l0.6-1.2l0.3-0.6l0.2-0.3c0.1-0.1,0.2-0.1,0.3-0.1c0.4-0.1,0.9-0.2,1.3-0.3c0.4-0.1,0.9-0.2,1.3-0.2l0.7,0l0.6,0
				c0.6,0,1.1,0,1.6,0.1c0.5,0,1.1,0.1,1.6,0.2c0.3,0,0.6,0.1,0.9,0.2l0.7,0.2c0.9,0.2,1.9,0.5,2.9,0.8c1.9,0.6,4,1.6,5.8,3
				c1.8,1.4,3.1,3.1,4.2,4.4l0.9,1.1c0.3,0.4,0.7,0.8,1,1.3c0.6,0.9,1.1,1.8,1.6,2.7C409.5,725.3,410.3,729.2,410.2,733.2z"/>
		</g>
	</g>
</g>
<g>
	<g>
		<g>
			<path class="st0" d="M418.2,743.7c0,0-0.1,0-0.2-0.1c-0.8-0.5-2.4-2.2-2.9-5.1c0-0.1,0-0.2,0-0.3c0.1,0,1.1-0.6,2.5-1.5
				c1.4-0.9,3.3-2.1,5-3.5c1.7-1.3,3.4-2.8,4.6-3.9c1.2-1.1,1.9-1.9,1.9-1.9s0.6-0.4,1.5-0.9c0.9-0.5,2-1.2,3-1.7
				c3.2-1.9,3.5,0,2.6,2.2c0.1,0-0.5,1.2-1.2,2.4c-0.4,0.6-0.8,1.2-1,1.7c-0.3,0.5-0.5,0.8-0.5,0.8s-0.8,0.9-2.1,2.1
				c-1.3,1.2-3.1,2.8-5,4.3c-1.9,1.5-3.9,2.8-5.4,3.8C419.4,743.1,418.3,743.7,418.2,743.7z"/>
		</g>
	</g>
</g>
<g>
	<g>
		<g>
			<path class="st0" d="M428.4,730.1c0,0.1,0,0.2-0.1,0.3c-0.3,0.6-0.9,1.5-1.8,2.1c-0.9,0.5-2.1,0.8-3.9-0.8
				c-0.1-0.1-0.3-0.4-0.3-0.5c-0.4-2.1-0.3-4.2,0-6.1c0.3-2,0.9-3.9,1.7-5.7c1.9-4,4.6-7.5,8-10.3c0.8-0.7,1.7-1.4,2.6-1.9
				c0.4-0.3,0.9-0.6,1.3-0.9l1.4-0.8c0.9-0.5,1.9-1,2.8-1.4c1-0.4,1.9-0.9,2.9-1.2c7.8-3,15.9-3.9,23.8-4.7l2.8-0.2l2.7,0l1.3,0
				l0.2,0c0.1,0,0.1,0,0.1,0.1l0,0.3l0,0.7c0,0.9,0.1,1.8,0.1,2.7c0,0.9-0.1,1.9-0.2,2.8c0,0.2-0.1,0.5-0.1,0.7
				c0,0.2-0.1,0.5-0.1,0.6c-0.1,0.3-0.1,0.6-0.2,0.8c-0.3,1.1-0.7,2.2-1.2,3.2c-0.9,2-1.9,3.7-3,5.4c-1.1,1.7-2.2,3.4-3.4,5.1
				c-0.3,0.4-0.6,0.8-1,1.3c-0.3,0.4-0.7,0.9-1,1.2c-0.7,0.8-1.4,1.6-2.1,2.3c-1.5,1.5-3.2,2.9-4.9,4.1l-0.6,0.4l-0.3,0.2l-0.7,0.4
				l-1.4,0.8l-2.7,1.5c0,0-0.5,0.3-1.4,0.7c-1,0.4-2.4,1.1-4,1.6c-1.7,0.5-3.6,0.9-5.6,1.1c-2,0.2-4,0.1-5.7-0.1
				c-3-0.4-4.8-1.3-5.7-1.9c-0.9-0.7-1-1-0.7-1.2c0.4-0.2,1.3-0.2,2.4-0.1c1.2,0,2.7,0,4.2-0.1c-0.2,0,0.7-0.1,2.1-0.3
				c1.4-0.2,3.3-0.7,5.1-1.4c1.8-0.7,3.5-1.6,4.8-2.4c1.4-0.9,2.3-1.4,2.3-1.4c0.8-0.5,1.7-1,2.5-1.4l1.2-0.7l0.8-0.5
				c0.4-0.2,0.7-0.5,1.1-0.8c2.7-2.1,5.2-4.7,7.2-7.6c1-1.5,2-3.1,3-4.7c0.9-1.6,1.8-3.2,2.4-4.7c0.3-0.7,0.5-1.5,0.7-2.2h0
				c-0.1,0,0.4,0-0.9,0.1c-7.5,0.7-15,1.7-21.7,4.3c-1.7,0.7-3.3,1.4-4.8,2.3c-0.4,0.2-0.8,0.4-1.1,0.7l-1.1,0.7
				c-0.4,0.2-0.7,0.5-1.1,0.7c-0.3,0.3-0.7,0.5-1,0.8c-2.6,2.2-4.8,4.9-6.2,7.9c-0.6,1.3-1,2.7-1.3,4.1
				C428.2,727.4,428.1,728.8,428.4,730.1z"/>
		</g>
	</g>
</g>
<g>
	<g>
		<g>
			<path class="st0" d="M420.3,741c0,0.1,0,0.2-0.1,0.4c-0.4,0.7-1.2,1.5-2.2,1.8c-1,0.3-2.2,0.1-3.7-1.5c-0.1-0.1-0.2-0.3-0.3-0.5
				c-0.1-3.6,0-7.1,0.3-10.6c0.6-7,1.6-13.8,2.5-20.7l0.7-5.7c0,0,1.9-9.3,3.7-15.8c2.8-11,3.6-6.4,3.4,0.7c0.2-0.7-1,16.7-1,16.7
				l-0.6,4.9c-0.9,6.8-1.9,13.7-2.4,20.4C420.3,734.3,420.2,737.7,420.3,741z"/>
		</g>
	</g>
</g>
<g>
	<g>
		<g>
			<path class="st0" d="M416.5,705c0,0,0,0,0,0.2c0,0.4,0.2,1.2,0.5,2.1c0.1,0.5,0.3,1,0.3,1.6c0,0.6-0.2,1.4-0.9,2.1
				c0,0-0.3,0.2-0.4,0.2c-0.1,0-1,0-2.2-0.7c-1.2-0.6-2.3-1.6-3.2-2.9c-0.4-0.6-0.7-1.1-1.2-1.7c-0.4-0.6-0.8-1.3-1.2-1.9
				c-0.8-1.4-1.5-2.8-2.2-4.3c-1.4-3-2.4-6.2-3-8.5c-0.3-1.2-0.5-2.2-0.6-2.9c-0.1-0.7-0.2-1.1-0.2-1.1s0-1.1,0.1-2.5
				c0.1-1.5,0.4-3.3,0.8-4.7c0.6-2.5,1.4-3.1,1.9-2.9c0.6,0.3,1.1,1.5,1.5,2.9c0.1-0.1,0.4,1.5,0.8,3.2c0.4,1.7,1,3.3,1,3.3
				s0.2,1.4,0.8,3.5c0.5,2.1,1.4,4.8,2.6,7.4c0.6,1.3,1.3,2.6,1.9,3.7c0.4,0.6,0.7,1.1,1,1.7c0.2,0.3,0.3,0.5,0.5,0.8
				c0.2,0.2,0.3,0.5,0.4,0.6C416,704.7,416.4,705,416.5,705C416.5,705,416.5,705,416.5,705z"/>
		</g>
	</g>
</g>
<g>
	<g>
		<g>
			<path class="st0" d="M406.3,695.6c0.1,0.1,0.1,0.1,0.1,0.3c0,0.7,0,1.7-0.5,2.7c-0.5,0.9-1.5,1.8-3.8,1.3c-0.1,0-0.4-0.2-0.6-0.3
				c-1.3-1.6-2.3-3.1-3.2-4.5c-1-1.4-1.9-2.9-2.9-4.4c-1.7-2.9-3.4-5.9-4.5-9.3c-0.6-1.7-1-3.5-1.2-5.3c-0.2-1.9-0.2-3.8,0.1-5.7
				c0.2-0.9,0.4-1.9,0.6-2.8c0.1-0.5,0.3-0.9,0.5-1.3l0.4-0.9c0.1-0.2,0.2-0.3,0.3-0.5l0.3-0.4c1.2-1.8,3.2-3.3,5.4-4
				c2.2-0.7,4.5-0.6,6.5,0c2,0.5,3.8,1.5,5.4,2.7c0.5,0.4,0.9,0.8,1.3,1.2c0.4,0.5,0.8,0.9,1.2,1.4c0.4,0.5,0.8,1,1,1.5
				c0.3,0.6,0.6,1.1,0.8,1.6c0,0,1,2.4,1.6,5.7c0.7,3.3,1,7.6,0.6,11.1c-0.3,2.9-0.8,4.8-1.2,5.8c-0.4,1-0.8,1.2-1.1,0.9
				c-0.5-0.7-0.6-3.5-1.2-6.8c-0.1,0.4-0.4-3.6-1.6-7.5c-0.6-1.9-1.3-3.8-2-5.1c-0.6-1.4-1.2-2.3-1.1-2.2c-0.5-1-1.3-1.9-2.3-2.7
				c-1.9-1.5-4.5-2.2-6.2-1.7c-0.9,0.3-1.6,0.8-2.2,1.7c0,0.1-0.1,0.1-0.1,0.1l0,0l0,0l-0.1,0.2c-0.1,0.3-0.2,0.6-0.3,0.9
				c-0.2,0.6-0.3,1.3-0.5,1.9c-0.2,1.3-0.3,2.6-0.1,4c0.2,1.4,0.5,2.7,0.9,4.1c0.9,2.7,2.3,5.4,3.9,8c0.9,1.4,1.8,2.8,2.7,4.2
				C404.4,693.1,405.4,694.5,406.3,695.6z"/>
		</g>
	</g>
</g>
<g>
	<g>
		<g>
			<path class="st0" d="M422.4,689.5c0.1,0.1,0.1,0.1,0,0.3c-0.2,0.7-0.4,1.7-1.2,2.5c-0.7,0.7-1.9,1.4-4,0.2
				c-0.1,0-0.4-0.3-0.5-0.4c-1.8-3.9-2-8.2-1.1-12.1c0.7-3.3,2.2-6.4,4.3-9c2-2.6,4.5-4.7,7.2-6.4c1.3-0.8,2.7-1.6,4.1-2.3
				c0.1-0.1,0.5-0.2,0.8-0.4l1-0.4c0.7-0.3,1.3-0.5,2-0.8l2-0.7l0.5-0.2c0.1,0.1,0.1,0.3,0.2,0.4l0.4,0.9c0.5,1.3,1.1,2.4,1.5,3.8
				c0.5,1.6,0.6,2.1,0.7,3c0.1,0.9,0.2,1.6,0.2,2.6c0,1.1,0,2.2-0.2,3.4c-0.1,1.1-0.4,2.1-0.7,3.1c0,0-0.1,0.2-0.2,0.5
				c-0.1,0.3-0.3,0.7-0.5,1.2c-0.5,1.1-1.3,2.4-2.4,3.9c-2.1,2.9-5.5,5.6-8.4,7.4c-2.4,1.6-4.1,2.4-5.2,2.7c-1,0.4-1.5,0.3-1.4-0.2
				c0.1-0.8,2.2-2.9,4.5-5.4c-0.3,0.2,2.7-2.6,4.9-5.8c1.1-1.6,1.9-3.3,2.3-4.6c0.2-0.6,0.4-1.2,0.4-1.6c0.1-0.4,0.1-0.6,0.1-0.6
				c0.3-1.3,0.5-2.7,0.4-4c0-0.6-0.1-1.1-0.2-1.7c0-0.3-0.1-0.5-0.1-0.8c0-0.1-0.1-0.3-0.1-0.4l0,0l-1.3,0.7
				c-1.1,0.6-2.1,1.2-3.1,1.9c-2,1.4-3.7,3-5.1,4.8c-1.4,1.8-2.3,3.9-2.8,6.1C421.1,684.1,421.3,687.1,422.4,689.5z"/>
		</g>
	</g>
</g>
<g>
	<g>
		<g>
			<path class="st0" d="M418.3,784.9c0,0,0,0,0,0.2c-0.2,0.9-1.1,3.1-3.4,4.7c0,0-0.2,0.1-0.3,0.1c0,0-0.9-0.7-2.2-1.6
				c-1.3-0.9-2.9-2.1-4.5-3.4c-3.2-2.5-6.4-5-6.4-5s-1.6-2.2-2.4-4.1c-1.5-3,0.3-3.3,2.3-2.6c0-0.1,1,0.4,2.1,0.9
				c1.1,0.5,2.2,1.1,2.2,1.1s3,2.5,6.2,4.8c1.6,1.2,3.1,2.4,4.4,3.2C417.4,784.3,418.2,784.8,418.3,784.9z"/>
		</g>
	</g>
</g>
<g>
	<g>
		<g>
			<path class="st0" d="M410.8,777.5c0,0.2,0,0.2-0.1,0.4c-0.4,0.8-1.2,1.7-2.2,2c-1,0.3-2.2-0.1-3.6-1.5c-0.1-0.1-0.2-0.3-0.3-0.4
				c-0.1-0.8-0.1-1.6-0.3-2.3c-0.1-0.3-0.1-0.7-0.2-1c0-0.2-0.2-0.6-0.4-0.9c-0.3-0.7-0.5-1.4-0.9-2c-0.4-0.6-0.7-1.3-1.1-1.9
				c-2-3-4.8-5.6-8-7.5c-3.2-1.9-6.8-3.3-10.4-4c-1.8-0.4-3.7-0.5-5.5-0.5l-2.4,0.2c0,0-0.1,0,0,0l0,0l0,0.1l0,0.3
				c0,0.2,0,0.4,0.1,0.6c0.1,0.4,0.1,0.8,0.2,1.2c0.1,0.4,0.2,0.8,0.3,1.2c0.5,1.7,1.4,3.3,2.3,4.9c0.9,1.5,2,2.9,3.1,4.2
				c0,0,0.1,0.1,0.2,0.3c0.2,0.2,0.4,0.5,0.7,0.8c0.6,0.8,1.5,1.8,2.4,2.9c1,1.1,2.1,2.1,3.5,3c1.4,0.9,3,1.8,4.4,2.4
				c2.3,1,3.9,0.9,5,0.7c1-0.1,1.5-0.1,1.4,0.3c-0.1,0.4-0.7,1.2-2.1,1.8c-1.4,0.6-3.4,0.8-5.3,0.4c0.2,0.1-0.9-0.1-2.4-0.6
				c-1.5-0.4-3.8-1.2-5.8-2.6c-2.1-1.3-3.8-2.9-5-4c-0.6-0.5-1.2-1.1-1.5-1.5c-0.4-0.4-0.6-0.6-0.6-0.6c-1.1-1.4-2.2-2.8-3.1-4.4
				c-1.2-1.9-2.2-4-3-6.2c-0.2-0.6-0.4-1.1-0.5-1.7c-0.2-0.6-0.2-1.2-0.3-1.8c-0.1-0.3-0.1-0.6-0.1-1l0-0.5c0-0.2,0-0.5,0-0.7
				c0.1-1,0.2-2,0.3-3l0.2-1.5c0-0.3,0.3-0.3,0.5-0.4l0.7-0.1l2.9-0.6l0.7-0.1l0.4,0l0.9-0.1c0.6,0,1.1-0.1,1.7-0.1
				c2.3,0,4.6,0.2,6.8,0.6c4.4,0.8,8.7,2.5,12.6,4.8c3.8,2.4,7.3,5.5,9.9,9.4c0.6,0.8,1,1.7,1.5,2.5c0.5,0.8,0.8,1.8,1.2,2.7
				c0.2,0.5,0.4,0.9,0.5,1.5c0.2,0.6,0.3,1.1,0.3,1.6C410.7,775.7,410.8,776.6,410.8,777.5z"/>
		</g>
	</g>
</g>
<g>
	<g>
		<g>
			<path class="st0" d="M681.1,382.3c-0.1-0.1-0.1-0.2,0-0.4c0.2-1.7,1.6-4.3,5.3-2.4c0.1,0,0.3,0.2,0.4,0.3
				c1.3,3.1,2.8,6.1,4.3,9.1c5.6,10.8,12.6,20.9,21.2,29.4c8.5,8.5,19,14.7,30.2,19.4c2.8,1.2,5.7,2.3,8.5,3.3
				c1.4,0.5,2.9,1,4.3,1.5c0.7,0.3,1.4,0.5,2.1,0.7c0.7,0.2,1.4,0.4,2.1,0.6c5.7,1.3,11.8,1.9,17.6,1.5c2.9-0.2,5.8-0.7,8.3-1.6
				c0.6-0.3,1.3-0.5,1.8-0.8c0.5-0.3,1.2-0.6,1.7-0.9c1-0.6,2.1-1.6,3-2.6l0.7-0.7l0.2-0.3l0.4-0.5c0.3-0.3,0.6-0.7,0.9-1.1
				c0.6-0.7,1.1-1.5,1.6-2.3c0,0,1.3-1.7,2.9-4.3c1.6-2.6,3.4-6.1,4.9-9.1c2.4-5.1,3.5-6.6,3.9-5.8c0.4,0.7,0.1,3.6-0.7,7.1
				c0.2-0.3-0.8,3.8-2.4,8c-0.8,2.1-1.7,4.2-2.5,5.7c-0.8,1.5-1.4,2.5-1.4,2.5c-0.6,0.9-1.3,1.7-1.9,2.6l-1.1,1.2l-0.3,0.3l-0.1,0.1
				l-0.2,0.2l-0.4,0.5l-0.9,0.9l-0.9,0.8c-0.6,0.6-1.4,1.1-2.1,1.7l-0.6,0.4l-0.6,0.3l-1.2,0.6c-0.8,0.4-1.6,0.7-2.4,1
				c-0.8,0.3-1.6,0.5-2.4,0.8c-3.3,0.9-6.5,1.2-9.8,1.3c-6.5,0.2-12.8-0.5-19.1-2.2c-0.8-0.2-1.6-0.5-2.4-0.7l-2.2-0.7
				c-1.5-0.5-2.9-1-4.4-1.6c-2.9-1.1-5.8-2.2-8.7-3.5c-2.9-1.2-5.7-2.6-8.5-4c-2.8-1.5-5.5-3-8.2-4.7c-5.3-3.4-10.3-7.4-14.8-11.9
				c-9-8.9-16.2-19.4-21.9-30.5C684,388.7,682.5,385.6,681.1,382.3z"/>
		</g>
	</g>
</g>
<g>
	<g>
		<g>
			<path class="st0" d="M701.7,416.2c-0.1-0.1-0.1-0.2,0-0.4c0.1-0.8,0.4-1.9,1.1-2.6c0.8-0.7,2-1.1,4-0.2c0.1,0,0.4,0.2,0.5,0.3
				c1.7,3.2,3,6.6,4.1,10l1.3,4.2c0.6,1.7,1.2,3.3,2,4.8c0,0,0.2,0.4,0.6,1.2c0.4,0.7,1,1.7,1.9,2.6c0.9,0.9,2,1.8,3.3,2.2l0.5,0.1
				l0.5,0.1c0.3,0,0.6,0,1,0c0.7-0.1,1.3-0.2,1.9-0.5c1-0.5,1.7-1.2,2.2-1.8c0.5-0.6,0.7-1.2,0.9-1.7c0.3-1,0.5-1.4,0.8-1.1
				c0.3,0.2,0.9,1.2,0.7,2.8c-0.1,1.6-1.1,3.5-2.9,4.8c0.1,0-0.1,0.1-0.5,0.4c-0.4,0.3-1.1,0.7-2.1,1c-0.2,0.1-0.5,0.1-0.8,0.2
				c-0.3,0.1-0.6,0.1-0.9,0.1c-0.6,0.1-1.3,0.1-1.9,0c-1.3-0.1-2.6-0.5-3.8-1.1c-2.4-1.2-4.3-3-5.5-4.5c-0.6-0.7-1-1.4-1.3-1.9
				c-0.3-0.5-0.4-0.7-0.4-0.7c-0.8-1.7-1.5-3.4-2-5l-1.4-4.3C704.4,422.1,703.2,419.1,701.7,416.2z"/>
		</g>
	</g>
</g>
<g>
	<g>
		<g>
			<path class="st0" d="M711.5,404.6c0.1,0.1,0.1,0.1,0.1,0.3c0,0.6-0.1,1.6-0.4,2.5c-0.2,0.5-0.4,1-1,1.3c-0.6,0.3-1.5,0.5-2.7,0.2
				c-0.1,0-0.5-0.2-0.6-0.3c-0.8-0.9-1.4-1.9-1.9-3.2c-0.2-0.6-0.4-1.3-0.4-2c-0.1-0.8,0-1.3,0-1.9c0.2-2.2,1-4.2,1.9-6
				c0.5-1,1.2-1.9,1.8-2.8c1.3-1.8,2.9-3.3,4.6-4.6c0,0,0.1-0.1,0.4-0.3c0.3-0.2,0.6-0.4,1.1-0.7c1-0.6,2.4-1.3,4.2-1.8
				c1.7-0.5,3.8-0.9,5.8-0.9c2,0,4.1,0.3,5.8,0.9c3,1,4.5,2.6,5.1,3.5c0.6,1,0.5,1.4,0.1,1.4c-0.4,0-1.1-0.4-2.2-0.8
				c-1-0.4-2.4-0.7-3.9-0.8c0.1,0.1-0.7-0.1-2,0c-1.3,0-3.2,0.3-4.9,0.9c-1.8,0.6-3.4,1.5-4.5,2.4c-0.6,0.4-1,0.8-1.3,1.1
				c-0.3,0.3-0.5,0.4-0.5,0.4c-1.1,0.9-2.1,1.9-2.9,3c-0.5,0.6-0.9,1.3-1.3,2c-0.7,1.2-1.1,2.5-1.2,3.7c-0.1,0.7-0.1,0.8,0.1,1.2
				C710.9,403.8,711.2,404.2,711.5,404.6z"/>
		</g>
	</g>
</g>
<g>
	<path class="st2" d="M684.7,383.2"/>
</g>
<g>
	<path class="st2" d="M820.9,327.2"/>
</g>
<g>
	<g>
		<g>
			<path class="st0" d="M755.8,436.5c-0.1,0-0.1-0.1-0.1-0.2c0-0.6,0.2-1.4,0.9-2.2c0.6-0.8,1.7-1.5,2.7-2.4c0,0,0.2-0.2,0.2-0.2
				c0,0,0.2,0.2,0.9,0.3c0.4,0,0.9-0.1,1.4-0.3c0.6-0.3,1.2-0.7,1.6-1.2c0.1-0.1,0.2-0.2,0.3-0.4c0.1-0.1,0.2-0.3,0.3-0.4
				c0.1-0.1,0.2-0.3,0.2-0.4c0.1-0.1,0.1-0.2,0.2-0.4c0.2-0.7,0.3-1.4,0.3-2c0-1.2-0.1-2.2-0.1-2.2s0.1-0.6,0.2-1.5
				c0.1-0.9,0.1-2.1,0.3-3.2c0.2-3.6,1.9-2.8,3.3-1c0-0.1,0.7,1,1.3,2.3c0.6,1.3,1.1,2.8,1.1,2.8s0,0.3,0.1,0.9
				c0.1,0.6,0.1,1.4,0.1,2.4c0,1-0.2,2.2-0.6,3.5c-0.4,1.4-1.3,2.8-2.3,3.9c-2.1,2.2-5,3.4-7.6,3.4c-1.3,0-2.5-0.4-3.2-0.7
				C756.2,436.8,755.8,436.5,755.8,436.5z"/>
		</g>
	</g>
</g>
<g>
	<g>
		<g>
			<path class="st0" d="M769,546.7c-0.1,0.1-0.2,0.1-0.4,0.1c-1.7-0.1-4.4-1.2-2.8-5.1c0-0.1,0.2-0.4,0.3-0.5c0.1,0,0.9-0.5,2.3-1.3
				c0.4-0.2,0.7-0.4,1.2-0.6c0.4-0.3,0.8-0.5,1.3-0.8c0.9-0.6,2-1.3,3.1-2l0.4-0.3l0.1-0.1l0.3-0.2c1-0.7,1.9-1.4,2.9-2.1
				c2-1.3,3.8-3,5.7-4.5c1-0.7,1.8-1.6,2.7-2.4c0.9-0.8,1.8-1.6,2.7-2.5c7.2-6.8,14-14.6,20.6-23c6.6-8.3,13.2-17.2,20.2-26.1
				c0.9-1.1,1.8-2.2,2.6-3.3c0.8-1,1.6-2.1,2.5-3.3c1.6-2.3,3.2-4.6,4.8-7c3.2-4.8,6.4-9.6,9.6-14.4c1.6-2.4,3.3-4.9,5-7.3
				c0.9-1.2,1.7-2.4,2.7-3.7c1.1-1.5,2.5-2.7,4-3.7c3-2,6.2-3.1,9.5-3.6c3.3-0.5,6.7-0.5,9.9,0.1c3.3,0.6,6.5,1.7,9.5,3.4
				c1.5,0.9,2.9,1.9,4.2,3c1.3,1.2,2.5,2.5,3.5,3.9c2,2.8,3.5,5.8,4.5,9c1,3.2,1.6,6.4,1.9,9.6c0.2,1.6,0.3,3.2,0.3,4.8
				c0,0.4,0,0.8,0,1.3l-0.1,1.3c0,0.9-0.2,1.7-0.3,2.5c-0.2,1.7-0.6,3.2-0.9,4.8c-0.4,1.5-0.8,3.1-1.3,4.6c-1.8,6-4,11.9-6.5,17.7
				c-2.4,5.8-5.1,11.4-8.2,17c-1.6,2.8-3.1,5.5-5.3,8.2c-2,2.5-3.9,4.8-5.9,7.2c-7.9,9.6-16.2,19-25,27.8c-4.4,4.4-9,8.7-13.7,12.7
				l-3.6,3l-3.7,2.9c-1.2,0.9-2.5,1.9-3.8,2.8c-1.3,0.9-2.5,1.7-3.7,2.6c-4.8,3.5-9.6,7.3-14.7,10.8c-5.1,3.5-10.4,6.7-16.3,9.1
				c-1.5,0.5-2.9,1.2-4.5,1.6c-0.8,0.2-1.5,0.5-2.3,0.7l-2.3,0.5c-0.8,0.2-1.6,0.3-2.3,0.4l-2.4,0.3c-1.7,0.2-3.4,0.1-5.1-0.1
				c-1.7-0.2-3.3-0.6-4.9-1.1c-0.8-0.3-1.6-0.6-2.3-0.9l-0.3-0.1c-0.1-0.1-0.3-0.1-0.5-0.2l-0.5-0.3l-0.9-0.5
				c-2.5-1.5-5-2.9-7.6-4.4c-2.5-1.5-5-3-7.5-4.5c-1.2-0.8-2.5-1.6-3.7-2.5c-0.6-0.5-1.2-0.9-1.8-1.3l-1.7-1.3
				c-4.5-3.4-9.1-6.8-13.5-10.3c-4.4-3.5-8.7-7-12.8-10.6c-4.1-3.5-8.2-7-12.3-10.5c-16.2-13.6-31.8-26.3-45.6-38.7
				c-3.5-3.1-6.8-6.2-10.1-9.2c-0.8-0.7-1.6-1.5-2.4-2.2l-0.2-0.2l-0.3-0.3l-0.2-0.3c-0.2-0.2-0.3-0.3-0.5-0.5
				c-0.3-0.3-0.7-0.7-1.1-1c-1.5-1.3-3.1-2.5-4.7-3.5c-3.3-2.1-6.9-3.9-10.4-5.2c-1.7-0.7-3.5-1.2-5.3-1.7c-0.3-0.1-0.5-0.1-0.8-0.2
				c-1-0.2-1.9-0.4-2.7-0.6c-1.5-0.3-2.4-0.4-2.4-0.4s-0.6-0.1-1.5-0.3c-0.9-0.2-2.3-0.5-3.8-0.8c-1.5-0.3-3.3-0.6-5.1-0.9
				c-0.9-0.1-1.8-0.3-2.7-0.4c-0.9-0.2-1.6-0.3-2.4-0.3c-5.2-0.2-5,2.8-5.7,2c-0.1-0.2-0.2-0.6-0.2-1.1c0-0.5,0.3-1.2,0.9-1.9
				c1.1-1.3,3-2.1,4.9-2.4c-0.2,0,0.9-0.3,2.6-0.3c1.6-0.1,3.7-0.1,5.9-0.1c2.2,0,4.4,0.1,6.1,0.3s2.8,0.3,2.8,0.3s0.9,0.1,2.5,0.5
				c0.4,0.1,0.8,0.2,1.3,0.3c0.2,0.1,0.5,0.1,0.8,0.2c0.1,0,0.3,0.1,0.4,0.1l0.7,0.2c0.5,0.1,0.9,0.2,1.4,0.4
				c0.9,0.3,1.8,0.6,2.8,0.9c3.8,1.3,7.3,3,10.9,5c1.8,1,3.6,2.2,5.3,3.5c0.9,0.7,1.7,1.3,2.6,2.1c0.4,0.4,0.8,0.8,1.2,1.2
				c0.2,0.2,0.4,0.4,0.6,0.6l0.3,0.3c0,0-0.1-0.1,0.1,0.1c1.5,1.4,3.1,2.9,4.6,4.3c1.6,1.4,3.1,2.9,4.7,4.3c3.2,2.9,6.5,5.8,10,8.8
				c13.7,11.9,29.1,24.3,45,38c7.9,6.8,16.1,13.7,24.7,20.3c2.2,1.6,4.4,3.3,6.6,5c1.1,0.8,2.2,1.7,3.3,2.5c1,0.8,2.2,1.5,3.3,2.2
				c4.6,2.9,9.5,5.7,14.5,8.6l1.9,1.1l0.5,0.3c0.1,0.1,0.1,0.1,0.1,0.1c0,0,0,0,0.1,0c0.3,0.1,0.6,0.2,0.9,0.4
				c1.2,0.4,2.4,0.8,3.6,1c1.2,0.2,2.5,0.3,3.7,0.3c1.2,0,2.5-0.3,3.9-0.4c5.3-0.8,10.5-2.9,15.4-5.5c5-2.7,9.7-6,14.4-9.5
				c2.4-1.8,4.8-3.6,7.2-5.4c2.4-1.8,5-3.5,7.3-5.3c9.4-7,18.3-15.1,26.6-23.8c8.3-8.7,16.2-17.9,23.9-27.3l1.4-1.8l0.7-0.9l0.6-0.8
				c0.8-1.1,1.6-2.3,2.4-3.5c1.5-2.5,3-5.1,4.3-7.8c2.7-5.3,5.1-10.8,7.3-16.4c2.2-5.6,4.2-11.2,5.6-16.9c0.7-2.8,1.2-5.6,1.1-8.2
				c-0.1-2.9-0.3-5.7-0.9-8.5c-0.5-2.7-1.3-5.4-2.5-7.8c-0.6-1.2-1.2-2.4-2-3.4c-0.8-1.1-1.5-2-2.5-2.9c-3.7-3.5-9-5.3-14.3-5.5
				c-2.6-0.1-5.2,0.3-7.6,1c-2.4,0.8-4.5,2-6,3.7c-0.2,0.2-0.3,0.4-0.5,0.7l-0.6,0.9c-0.4,0.6-0.8,1.2-1.2,1.7
				c-0.8,1.2-1.6,2.4-2.4,3.5c-1.6,2.4-3.2,4.8-4.8,7.2c-3.2,4.8-6.3,9.6-9.5,14.3c-1.6,2.4-3.2,4.7-5,7c-1.7,2.2-3.5,4.4-5.2,6.6
				c-6.8,8.7-13.2,17.5-19.9,25.8c-6.7,8.3-13.6,16.2-21.2,23.1c-1.9,1.7-3.8,3.4-5.7,5c-1,0.8-1.9,1.6-2.9,2.4c-1,0.7-2,1.5-3,2.2
				c-0.6,0.4-1.2,0.9-1.7,1.3l-0.2,0.1l-0.4,0.3c-1.2,0.8-2.3,1.5-3.3,2.1c-0.5,0.3-0.9,0.6-1.4,0.9c-0.4,0.2-0.8,0.5-1.2,0.7
				C770,546.1,769.1,546.6,769,546.7z"/>
		</g>
	</g>
</g>
<g>
	<g>
		<g>
			<path class="st0" d="M780.1,532.3c0.1,0.1,0.2,0.1,0.2,0.4c0.5,1.5,0.7,4.5-3.5,4.6c-0.1,0-0.4,0-0.5-0.1
				c-2.7-2.1-5.4-4.2-8.1-6.3c-7.5-5.7-15.2-11.2-23.1-16.4c-7.9-5.2-15.9-10.2-24.1-14.8c-8.2-4.6-16.6-8.9-25.1-12.9l-6.4-2.9
				l-6.5-2.8l-1.8-0.8c-0.5-0.2-0.9-0.4-1.4-0.6l-2.8-1.1c0,0-2.1-1-5-2.4c-2.9-1.3-6.5-3.1-9.5-4.6c-10.2-4.8-5.6-4.7,1.3-3.2
				c-0.2-0.1,0.8,0.1,2.3,0.5c1.5,0.4,3.5,1,5.6,1.6c1,0.3,2.1,0.6,3,0.9c1,0.3,1.9,0.6,2.7,0.9c1.6,0.5,2.6,0.8,2.6,0.8l2.8,1.1
				c0.5,0.2,0.9,0.4,1.4,0.6l2.7,1.1c4.4,1.8,8.6,3.8,12.9,5.7c8.5,4,16.9,8.4,25.1,13c8.2,4.6,16.2,9.6,24,14.9
				c7.8,5.2,15.5,10.7,23,16.4C774.6,528,777.3,530.1,780.1,532.3z"/>
		</g>
	</g>
</g>
<g>
	<g>
		<g>
			<path class="st0" d="M652.6,461c0.1,0.1,0.2,0.1,0.3,0.3c0.7,1.5,1.2,4.4-2.9,5c-0.1,0-0.4,0-0.5,0c-2.9-1.7-5.8-3.4-8.7-4.5
				c-2.2-0.9-4.4-1.5-6.5-1.7c-2.2-0.3-4.4-0.1-6.6,0.4c-2.2,0.5-4.5,1.2-6.8,2.1c-1.1,0.4-2.3,0.9-3.5,1.4c-1.2,0.5-2.4,1-3.6,1.4
				c-4.8,1.8-9.5,3.6-13.9,5.7c-2.2,1-4.4,2.2-6.4,3.4c-2,1.3-3.9,2.7-5.2,4.2c-0.4,0.6-0.3,0.3-0.3,0.4c-0.1,0.5-0.3,1.1-0.4,1.7
				c-0.1,0.6-0.2,1.2-0.3,1.7c-0.1,0.6-0.2,1.2-0.2,1.7c-0.3,2.3-0.3,4.7-0.1,7.1c0.2,2.4,0.6,4.7,1.1,7c0.3,1.1,0.6,2.3,1,3.4
				c0.2,0.6,0.4,1.1,0.6,1.6l0.1,0.2c0,0,0,0,0,0c0,0,0.2,0.3,0.4,0.4c1.4,1.5,3.2,2.7,5.1,3.5c2,0.8,4.1,1.2,6.3,1.2l0.7,0
				c0.1,0,0.2,0,0.3,0l0.6-0.1c0.4,0,0.8-0.1,1.3-0.2l0.6-0.1l0.6-0.2c0.4-0.1,0.8-0.2,1.2-0.4c0,0,0.1,0,0.3-0.1c0.2,0,0.1,0,0.2,0
				c0,0,0.1,0,0.2,0l0,0c0,0,0,0,0,0l0.1-0.3c0.1-0.4,0.2-0.8,0.3-1.2c0.4-1.7,1.1-3.6,2.1-5.3c0.9-1.8,2-3.4,3.2-4.7
				c1.9-2.3,3.6-3.4,4.5-3.9c1-0.5,1.4-0.4,1.4,0c0,0.8-1.7,3.1-3.2,6c0.2-0.3-1.7,3.1-2.4,7c-0.2,0.9-0.3,1.9-0.4,2.8
				c-0.1,0.8-0.1,1.5-0.2,2.3c0,0.4-0.1,0.9-0.1,1.3c0,0.1-0.1,0.2-0.2,0.2l-0.3,0.1c-0.2,0.1-0.4,0.2-0.5,0.3
				c-0.7,0.4-1.3,0.7-1.9,1c-0.4,0.2-0.8,0.4-1.1,0.5c-0.5,0.2-0.8,0.3-0.8,0.3l-1.7,0.5l-1.7,0.3c-0.6,0.1-1.2,0.1-1.7,0.2
				c-0.1,0-0.3,0-0.4,0l-0.9,0c-0.7,0-1.4,0-2.2-0.1c-2.9-0.2-5.7-1-8.3-2.4c-1.3-0.6-2.5-1.5-3.7-2.4c-0.6-0.5-1.1-1-1.6-1.5
				l-0.7-0.8l-0.6-0.6c-0.1-0.1-0.2-0.2-0.2-0.4l-0.2-0.4l-0.4-1c-0.1-0.3-0.3-0.6-0.4-0.9c-0.2-0.6-0.5-1.3-0.7-1.9
				c-0.4-1.3-0.8-2.6-1.1-3.9c-0.6-2.6-0.9-5.3-1.1-8c-0.1-2.7,0-5.4,0.4-8c0.2-1.3,0.4-2.7,0.7-4l0.3-1.1l0.2-0.9
				c0.1-0.3,0.4-0.5,0.5-0.7l0.8-1c0.2-0.3,0.5-0.6,0.8-0.8c2.1-2.1,4.3-3.7,6.6-5c2.3-1.4,4.6-2.5,6.9-3.6c4.7-2.2,9.4-4,14.1-5.8
				c4.5-1.7,9.2-4,14.6-5.1c2.7-0.6,5.6-0.8,8.4-0.4c2.8,0.3,5.5,1.1,8,2.1C646.4,457.4,649.6,459.2,652.6,461z"/>
		</g>
	</g>
</g>
<g>
	<g>
		<g>
			<path class="st0" d="M657.6,536.1c-0.1-0.1-0.2-0.1-0.3-0.3c-0.8-1.4-1.6-4.3,2.5-5.2c0.1,0,0.4,0,0.5,0l9.2,4.6l2.3,1.2l5.1,2.6
				c0,0,8.2,4.8,13.7,8.7c9.5,6.2,4.8,5.4-1.7,3c0.6,0.4-15.4-6.5-15.4-6.5l-4.4-2.2l-2.3-1.1L657.6,536.1z"/>
		</g>
	</g>
</g>
<g>
	<g>
		<g>
			<path class="st0" d="M609.6,512.2c0,0-0.1,0,0-0.2c0-1,0.5-3.3,2.6-5.2c0,0,0.2-0.2,0.2-0.2c0.2,0.1,16.1,8,16.1,8
				s2.3,1.9,3.7,3.6c2.5,2.7,0.7,3.3-1.6,3c0.1,0.2-5.1-1.2-5.1-1.2S609.8,512.3,609.6,512.2z"/>
		</g>
	</g>
</g>
<g>
	<g>
		<g>
			<path class="st0" d="M689.6,552c0-0.1,0-0.2,0.2-0.4c0.6-0.6,1.5-1.3,2.5-1.4c1-0.1,2.2,0.3,3.2,2.2c0,0.1,0.2,0.4,0.2,0.5
				l-0.5,2.7L695,557l-0.3,1.3l-1.4,5.2c-2.9,9.5-7.1,18.5-11.8,27.2c-4.7,8.6-10,17-15.9,24.8c-5.9,7.8-12.2,15.4-19.2,22.3
				l-2.6,2.6c-0.9,0.9-1.8,1.7-2.7,2.5l-5.5,5l-5.8,4.6c-1,0.8-1.9,1.6-2.9,2.3l-3,2.1l-3,2.1c-1,0.7-2,1.5-3.1,2.1l-6.8,4.1
				L608,667l-0.2,0.1l-0.2-0.2l-0.3-0.3l-0.6-0.6l-1.3-1.3l-3.1-3.1l-5.1-5.2l-20.4-20.6l-40.9-41.1c-13.6-13.7-27.3-27.4-40.9-41.2
				l-5.1-5.2l-3.3-3.4l-2.5-2.6l-0.6-0.6c0-0.1-0.1-0.1-0.1-0.2l0.2-0.1l0.4-0.3l1.4-1.1l4.5-3.6c0.9-0.7,1.8-1.5,2.7-2.3l2.7-2.3
				l2.6-2.4c6.9-6.5,13.3-13.6,19-21.2c2.9-3.8,5.5-7.7,8.1-11.7c2.4-4,4.7-8.2,6.6-12.4l1.3-3.2c0.2-0.5,0.3-1.1,0.5-1.6l0.3-0.8
				l0.1-0.4l0.1-0.3c0.1-0.2,0.1-0.3,0.1-0.5l1.6-7.1c0-0.1,0.1,0,0.2,0l0.2,0.1l0.4,0.2l0.8,0.5l1.6,0.9l3.1,1.9l3.6,2.1l3.1,1.8
				l6.3,3.5l7.7,4.2c0,0,8,5,13.5,8.8c9.4,6.3,4.8,5.5-1.8,3c0.3,0.2-3.6-1.4-7.5-3.2c-3.9-1.8-7.9-3.6-7.9-3.6l-2.6-1.4l-1.3-0.7
				l-2.8-1.5l-6.3-3.5c-2.1-1.2-4.2-2.4-6.2-3.6l0,0l0,0l-0.2,0.7l-0.6,1.8c-0.4,1.2-0.9,2.3-1.3,3.5c-0.4,1.2-1,2.3-1.5,3.4
				c-0.5,1.1-1,2.2-1.6,3.3c-4.5,8.7-10.1,16.7-16.2,24.2c-6.1,7.5-12.8,14.5-20.1,20.9l-2.8,2.4c-0.5,0.4-0.9,0.8-1.4,1.2l-1.3,1
				l0,0l0.3,0.3l10,10.2c13.3,13.5,26.8,27,40.2,40.5l40.2,40.5l20.1,20.3l5,5.1l0.3,0.3l0.1,0.1h0l0,0l1.4-0.9l3-1.8
				c1-0.6,2-1.2,2.9-1.9l5.7-4c1.9-1.3,3.7-2.8,5.5-4.3l2.7-2.2l1.4-1.1l1.3-1.2l5.2-4.7c0.9-0.8,1.7-1.6,2.5-2.4l2.5-2.5
				c3.4-3.3,6.4-6.9,9.5-10.3c1.5-1.8,2.9-3.6,4.4-5.5c0.7-0.9,1.5-1.8,2.2-2.7l2.1-2.8c5.6-7.5,10.6-15.4,15.1-23.7
				c4.4-8.2,8.3-16.8,11.1-25.6l1.3-4.8l0.3-1.2l0.2-1.2L689.6,552z"/>
		</g>
	</g>
</g>
<g>
	<g>
		<g>
			<path class="st0" d="M540.7,593.3c0.1,0,0.2,0.1,0.3,0.3c1,1.2,2,3.8-1.7,5.3c-0.1,0-0.4,0.1-0.5,0.1l-9.3-3.1
				c-13.5-4.4-27.2-8.5-41-12.6l-5.2-1.6c0,0-8.5-3.2-14.2-6c-9.8-4.5-5.3-4.4,1.2-3.1c-0.3-0.2,3.5,0.8,7.5,1.7
				c3.9,0.9,8,1.9,8,1.9l4.5,1.4c13.7,4.1,27.4,8.2,41.1,12.6L540.7,593.3z"/>
		</g>
	</g>
</g>
<g>
	<g>
		<g>
			<path class="st0" d="M583.9,639.1c0.1-0.1,0.2-0.1,0.4,0c0.7,0.2,1.8,0.6,2.5,1.4c0.7,0.8,1.1,2-0.1,4c0,0.1-0.3,0.4-0.4,0.5
				c-3.6,1.4-7.4,2.1-11.1,2.3c-9.7,0.3-18.8-2-27.5-4.8c-8.7-2.8-17.1-6.4-25.3-10.1c-8.2-3.8-16.3-7.8-24.3-11.9l-17.7-9
				c0,0-8.1-4.8-13.7-8.5c-4.8-3-6.1-4.3-5.3-4.6c0.8-0.3,3.6,0.4,7,1.6c-0.3-0.2,3.6,1.3,7.6,3c4,1.6,8,3.4,8,3.4l18.2,9.3
				c7.8,4,15.7,7.9,23.7,11.5c8,3.6,16,7,24.2,9.6c8.2,2.6,16.7,4.7,24.8,4.4C578,640.8,581.1,640.2,583.9,639.1z"/>
		</g>
	</g>
</g>
<g>
	<g>
		<g>
			<path class="st0" d="M450.5,598.9c0,0.1,0,0.2-0.1,0.3c-0.3,0.6-0.9,1.3-1.8,1.8c-0.8,0.4-2.1,0.5-3.5-1.1
				c-0.1-0.1-0.2-0.3-0.3-0.5c-0.2-1.8-0.1-3.5,0-5.2c0.1-1.7,0.3-3.3,0.5-4.9c1-6.5,2.9-12.9,6.1-18.8c0.4-0.7,0.8-1.5,1.3-2.2
				l1.3-2c0.9-1.4,1.8-2.8,3.1-4.3c0.7-0.7,1.5-1.4,2.5-2c0.3-0.1,0.6-0.3,0.8-0.4c0.3-0.1,0.7-0.2,1-0.3c0.7-0.2,1.4-0.2,2.1-0.1
				c1.3,0.1,2.5,0.6,3.5,1.3c1,0.6,1.8,1.5,2.5,2.4c0.7,1,1.1,2.2,1.3,3.4c0.2,1.2,0.1,2.2-0.1,3.2c-0.3,1.9-0.9,3.5-1.4,4.9
				c-0.1,0.3-0.2,0.7-0.3,1l-0.3,1.1l-0.5,2.3l-1,4.6c-0.7,3.1-1.3,6.2-2.1,9.3l-0.4,1.6l-0.4,1.4c-0.3,0.9-0.5,1.8-0.8,2.7
				c0,0-0.2,0.5-0.6,1.4c-0.4,0.9-1,2.3-1.9,3.7c-0.9,1.4-2.2,3-4.2,4c-1,0.5-2.2,0.9-3.3,0.8c-1.2-0.1-2.2-0.5-3-1
				c-1.4-0.9-2.1-2.1-2.4-3c-0.4-0.9-0.4-1.6-0.4-2.2c0-1,0.3-1.3,0.6-1.1c0.3,0.2,0.7,0.9,1.3,1.7c0.6,0.8,1.4,1.6,2.5,1.8
				c-0.1-0.1,0.5,0.2,1.2,0.1c0.4-0.1,0.8-0.2,1.2-0.6c0.5-0.3,0.9-0.9,1.4-1.5c0.9-1.3,1.5-3,1.8-4.2c0.4-1.4,0.6-2.3,0.6-2.3
				c0.3-0.8,0.5-1.7,0.7-2.6l0.3-1.3l0.5-1.9c0.7-3,1.3-6,2-9l1-4.6l0.5-2.3c0.1-0.3,0.2-0.9,0.3-1.3l0.4-1.2c0.5-1.5,0.9-2.8,1-3.9
				c0.1-0.5,0-1-0.1-1.3c-0.1-0.3-0.2-0.6-0.5-0.9c-0.5-0.7-1.4-1-1.7-1c-0.1,0-0.1,0-0.2,0c-0.1,0.1-0.3,0.1-0.5,0.3
				c-0.4,0.2-0.8,0.6-1.2,1.1c-0.8,0.9-1.6,2.1-2.4,3.4c-0.9,1.4-1.6,2.5-2.3,3.8c-2.7,5.1-4.5,10.8-5.3,16.7
				c-0.2,1.5-0.4,3-0.5,4.5C450.4,596.1,450.4,597.5,450.5,598.9z"/>
		</g>
	</g>
</g>
<g>
	<g>
		<g>
			<path class="st0" d="M665.7,540.9c0-0.1,0.1-0.2,0.3-0.3c1.3-1,4-2.3,5.6,1.7c0,0.1,0.1,0.4,0.1,0.5c-0.5,1.7-1.1,3.3-1.7,5
				c-0.6,1.6-1.2,3.3-1.9,4.9c-5.2,13.1-12.1,25.5-20.5,36.7c-1.2,1.6-2.3,3.1-3.6,4.6c0,0-0.4,0.4-1.1,1.2
				c-0.7,0.7-1.7,1.8-2.9,2.9c-0.6,0.6-1.2,1.2-1.9,1.8c-0.7,0.6-1.4,1.2-2.1,1.8c-1.4,1.2-2.8,2.4-4.2,3.4
				c-4.5,3.5-6.2,4.1-6.2,3.3c0-0.4,0.4-1.2,1.1-2.2c0.7-1,1.7-2.3,2.8-3.6c-0.2,0.1,0.4-0.6,1.4-1.8c1-1.2,2.3-2.8,3.6-4.4
				c2.6-3.3,5-6.8,5-6.8c1-1.2,2-2.6,3-3.8c8.1-10.8,14.7-22.7,19.7-35.3c0.7-1.6,1.2-3.2,1.8-4.7
				C664.7,544.1,665.2,542.5,665.7,540.9z"/>
		</g>
	</g>
</g>
<g>
	<g>
		<g>
			<path class="st0" d="M317.7,857.5c-0.2,0-0.2,0-0.4-0.2c-1.4-0.9-3.3-3.1-0.1-5.8c0.1,0,0.3-0.2,0.5-0.3c10.9,0,796.8,0,796.8,0
				s9.5,0.6,16.1,1.6c11.3,1.3,6.8,2.7-0.2,3.4c0.7,0.1-16.7,1.2-16.7,1.2S328.8,857.5,317.7,857.5z"/>
		</g>
	</g>
</g>
<g>
	<g>
		<g>
			<path class="st0" d="M659.6,353.9c0-0.1,0.1-0.2,0.3-0.4c1.3-1.1,4-2.2,5.6,1.7c0,0.1,0.1,0.4,0.1,0.5c-0.7,2.2-1.3,4.5-1.8,6.7
				l-0.4,1.7l-0.2,0.8l-0.1,0.4l-0.2,1c-0.1,0.4-0.2,0.9-0.2,1.3c-0.1,0.9-0.3,1.7-0.3,2.6c-0.7,7-0.2,14.2,0.6,21.5l0.6,5.4l0,0.2
				c0,0,0,0,0,0l0,0l0,0l0.1,0c0.2,0.1,0.6,0.1,0.9,0.1c2.5,0.1,5.3-1.3,7.5-3.5c1.1-1.1,2.1-2.3,2.9-3.8c0.9-1.4,1.6-3,2.4-4.6
				l0.3-0.6l0.1-0.3c0,0,0,0,0,0l0.3-1.3c0.2-0.9,0.5-1.8,0.8-2.7c0.5-1.8,1.1-3.6,1.7-5.4c2.4-7.2,5.3-14.2,8.8-20.9
				c0.9-1.7,1.8-3.4,2.7-5c0.5-0.8,0.9-1.6,1.4-2.5c0.5-0.8,1.1-1.8,1.7-2.6c0.7-0.9,1.5-1.8,2.6-2.6c1.1-0.8,2.5-1.5,4.2-1.6
				c1.6-0.1,3.3,0.4,4.5,1.2c1.2,0.8,2.1,1.7,2.8,2.5c0.7,0.9,1.2,1.6,1.8,2.4l1.7,2.3c1.1,1.5,2.2,3.1,3.2,4.7
				c2.1,3.2,4,6.4,5.8,9.7c1.9,3.4,3.3,6.7,5.3,8.9c0.2,0.3,0.5,0.5,0.8,0.8c0.2,0.2,0.5,0.4,0.8,0.6c0.5,0.4,1.1,0.7,1.7,0.9
				c1.2,0.4,2.3,0.4,3.1,0l2.5-1.2l0.6-0.3c0,0,0,0,0,0c1-2,2.5-4.1,4.6-5.4c2-1.4,4.5-2.1,6.8-2.2c2.4-0.1,4.6,0.4,6.7,1.1
				c2.1,0.8,4,1.9,5.7,3.3c1.7,1.4,3.2,3.2,4.2,5.1c1.1,1.9,1.8,4,2.3,6c0.5,2,0.7,3.9,1,5.8c0.5,3.7,1.1,6.9,2.7,8.9
				c0.8,1,1.9,1.8,3.3,2.4c1.4,0.7,3.1,1.2,4.7,1.6c3.6,0.9,7.4,1.5,11.2,2.1l2.9,0.4c1,0.1,1.8,0.2,2.7,0.3
				c0.9,0.1,1.8,0.1,2.7,0.1c0.9,0,1.8-0.1,2.7-0.1c7.4-0.4,14.7-2.5,21.6-5.5c3.4-1.5,6.7-3.3,9.7-5.5l1.1-0.8l1.1-0.9l0.2-0.1l0,0
				l0.3-0.9c0.3-0.9,0.6-1.7,0.8-2.6c0.2-0.9,0.5-1.8,0.6-2.7c0.7-3.6,0.9-7.3,0.9-11.1c0-3.7-0.5-7.5-1.1-11.2
				c-0.7-3.7-1.6-7.4-2.8-11c-1.2-3.6-2.6-7.1-4.3-10.5c-0.4-0.9-0.9-1.7-1.3-2.5l-0.7-1.2l-0.7-1.2c-0.5-0.8-0.9-1.6-1.5-2.4
				l-1.6-2.3c-2.2-3-4.6-5.9-7.3-8.6c-10.6-10.7-24.2-18.6-38.5-24.1c-3.6-1.4-7.1-2.5-10.8-3.4c-3.7-0.8-7.4-1.5-11.2-1.8
				c-3.8-0.4-7.5-0.4-11.3-0.3c-1.9,0.1-3.8,0.2-5.7,0.4c-1.9,0.3-3.8,0.4-5.6,0.8c-7.4,1.3-14.7,3.6-21.4,7l-2.5,1.3l-2.4,1.4
				c-1.6,0.9-3.2,2-4.8,3.1c-3.1,2.2-6.1,4.6-8.9,7.1c-2.8,2.6-5.5,5.3-8,8.1c-0.6,0.7-1.2,1.4-1.8,2.2c-0.6,0.7-1.2,1.5-1.8,2.2
				l-1.7,2.3c-0.5,0.7-1.3,1.9-1.1,1.6l-1,1.5c-0.7,1-1.3,2.1-2,3.1c0,0-0.3,0.5-0.9,1.2c-0.5,0.8-1.3,1.9-2.2,3.2
				c-1.7,2.6-3.8,6-5.4,8.8c-1.4,2.4-2.2,4-2.9,4.9c-0.7,0.9-1.1,1-1.2,0.7c-0.2-0.4-0.2-1.3,0-2.5c0.1-0.6,0.2-1.3,0.4-2.1
				c0.2-0.8,0.4-1.6,0.7-2.4c-0.2,0.3,1.1-3.8,2.9-7.8c0.8-2,1.9-4,2.6-5.5c0.4-0.8,0.7-1.4,1-1.8c0.2-0.4,0.4-0.7,0.4-0.7
				c0.7-1.1,1.3-2.1,2.1-3.2l0.5-0.8l1.1-1.6c1.2-1.6,2.3-3.2,3.6-4.7c4.9-6.1,10.6-11.6,16.8-16.5c6.2-4.8,13.2-8.9,20.5-11.8
				c7.4-2.9,15.1-4.7,23-5.6c7.9-0.8,15.8-0.6,23.6,0.6l1.5,0.2l1.5,0.3l2.9,0.6c1.9,0.5,3.8,1,5.7,1.6c3.8,1.2,7.4,2.6,11,4.2
				c7.2,3.1,14.1,6.8,20.6,11.1c3.2,2.2,6.4,4.5,9.4,7.1c1.5,1.2,2.9,2.6,4.4,4l2.1,2.1c0.7,0.7,1.4,1.4,2,2.2l2,2.2l1.8,2.4
				l0.9,1.2l0.9,1.2c0.6,0.8,1.1,1.6,1.7,2.5c2.1,3.4,4,6.9,5.6,10.5c3.2,7.2,5.5,14.8,6.7,22.7c1.1,7.8,1.2,16-0.6,23.9
				c-0.3,1-0.4,2-0.8,3l-1.2,3.6c0,0.1,0,0.1-0.1,0.2l-0.1,0.1l-0.3,0.2l-0.5,0.4l-0.8,0.6c-0.4,0.3-0.8,0.7-1.2,1
				c-0.8,0.6-1.6,1.2-2.5,1.8c-3.4,2.2-6.9,4.1-10.6,5.7c-7.3,3.1-15.1,5.1-23.2,5.5c-2,0.1-4.1,0.1-6.1-0.1
				c-2.2-0.2-3.9-0.5-5.8-0.8c-3.8-0.5-7.7-1.1-11.6-2.2c-1.9-0.5-3.8-1.1-5.8-2c-0.5-0.2-1-0.4-1.5-0.7c-0.5-0.3-1-0.6-1.5-0.9
				c-0.2-0.2-0.5-0.3-0.7-0.5l-0.7-0.6c-0.4-0.4-0.9-0.8-1.2-1.3c-1.6-1.9-2.5-4.1-3-6.1c-0.6-2.1-0.8-4-1.1-5.9
				c-0.5-3.7-1-7-2.5-9.6c-1.4-2.6-3.9-4.6-6.7-5.7c-2.8-1.1-5.8-1-7.8,0.4c-0.5,0.3-1,0.8-1.4,1.3c-0.4,0.5-0.8,1-1.1,1.7
				c-0.2,0.4-0.4,0.8-0.5,1.3l-0.1,0.3c0,0.1-0.1,0.2-0.2,0.3l-0.6,0.3l-1.9,1l-2.5,1.2c-2.6,1.2-5.5,1.1-7.7,0.3
				c-1.2-0.4-2.2-0.9-3.2-1.6c-0.5-0.3-1-0.7-1.4-1.1c-0.4-0.4-0.8-0.8-1.2-1.2c-1.5-1.7-2.6-3.5-3.6-5.2l-2.6-4.9
				c-1.7-3.2-3.6-6.3-5.6-9.3c-1-1.5-2-3-3.1-4.5l-1.6-2.2c-0.5-0.7-1.1-1.5-1.6-2.1c-0.5-0.6-1-1-1.3-1.2c-0.4-0.2-0.5-0.2-0.8-0.2
				c-0.2,0-0.5,0.1-0.9,0.4c-0.4,0.3-0.9,0.8-1.3,1.4c-0.5,0.6-0.9,1.2-1.3,2c-0.4,0.8-0.9,1.6-1.4,2.4c-0.9,1.6-1.7,3.2-2.6,4.8
				c-3.3,6.5-6.1,13.2-8.4,20.1c-0.6,1.7-1.1,3.5-1.6,5.2c-0.2,0.9-0.5,1.7-0.7,2.6l-0.4,1.4c-0.1,0.2-0.1,0.4-0.2,0.7l-0.2,0.4
				l-0.3,0.6c-0.8,1.7-1.7,3.5-2.7,5.3c-1.1,1.8-2.4,3.5-3.9,5c-1.5,1.5-3.3,2.8-5.4,3.8c-2,1-4.4,1.6-6.9,1.4
				c-0.6-0.1-1.2-0.1-1.9-0.2c-0.2,0-0.3-0.1-0.5-0.1c-0.2-0.1-0.4-0.1-0.7-0.2c-0.4-0.2-0.8-0.4-1.2-0.6c-0.8-0.5-1.4-1.2-1.9-2
				c-0.2-0.4-0.4-0.8-0.5-1.3c-0.1-0.2-0.1-0.4-0.2-0.7l-0.1-0.5l-0.7-5.6c-0.8-7.4-1.4-15.1-0.6-22.9c0.1-1,0.2-1.9,0.4-2.9
				c0.1-0.5,0.2-1,0.2-1.5l0.2-1.1l0.1-0.5l0.2-0.9l0.4-1.8C658.3,358.7,658.9,356.3,659.6,353.9z"/>
		</g>
	</g>
</g>
<g>
	<g>
		<g>
			<path class="st0" d="M802.4,431.1c-0.1-0.1-0.2-0.1-0.2-0.4c-0.6-1.5-0.8-4.5,3.4-4.7c0.1,0,0.4,0,0.5,0.1
				c0.6,0.5,1.5,1.1,2.1,1.6l2,1.6l4.1,3.2l13.4,10.4l4.4,3.4l2.2,1.7l0.9,0.7l0.2,0.2c-0.1,0-0.3,0-0.4,0l-0.9-0.1l-3.4-0.5
				L829,448l-1.9-0.2l-7.5-0.9c-0.3-0.1-0.6,0-0.8,0l-0.8,0c-0.5,0-1,0-1.5,0l-1.9,0.2c-0.8,0-1.6,0.3-2.5,0.5l-1.2,0.3l-1.2,0.4
				c-0.8,0.3-1.6,0.5-2.4,0.9c-3.1,1.3-6.1,3.3-8.8,5.5c-2.8,2.2-5.3,4.7-7.8,7.5c-2.4,2.7-4.7,5.6-7,8.5c-1.1,1.5-2.2,2.9-3.3,4.5
				c-1.1,1.6-2.3,3.1-3.5,4.6c-2.5,3-5.2,5.8-8,8.5l-2.2,2l-2.2,1.9c-0.7,0.6-1.5,1.2-2.3,1.8l-1.3,1c-1.4,1-2.7,2-4.1,2.9
				c0,0-0.5,0.3-1.4,0.8c-0.9,0.5-2.2,1.2-3.6,1.9c-2.9,1.5-6.7,3.1-10,4.1c-1.4,0.5-2.5,0.8-3.4,1.1c-0.9,0.2-1.7,0.4-2.2,0.4
				c-1.1,0.1-1.5-0.1-1.3-0.5c0.3-0.8,2.7-2.4,5.6-4.2c-0.4,0.1,3.2-2,6.7-4.3c1.7-1.2,3.4-2.4,4.7-3.3c1.2-1,2.1-1.6,2.1-1.6
				c1.3-0.9,2.5-1.8,3.7-2.7l1.9-1.5c0.7-0.6,1.4-1.1,2-1.7c0.7-0.6,1.3-1.2,2-1.8c0.7-0.6,1.3-1.2,1.9-1.8c2.6-2.4,4.9-5.1,7.2-7.9
				c0.5-0.7,1.1-1.4,1.6-2.1l1.6-2.2c1.1-1.5,2.2-3,3.4-4.5c2.3-3,4.6-5.9,7.2-8.7c2.6-2.8,5.3-5.5,8.4-7.9l1.1-0.9l1.2-0.8
				c0.8-0.5,1.6-1.2,2.5-1.6l2.6-1.5l2.7-1.3c0.4-0.2,0.9-0.4,1.4-0.6l1.4-0.5c0.5-0.2,1-0.3,1.4-0.5l1.5-0.3c1-0.2,2-0.5,3-0.6
				l0.8-0.1c0.2,0,0.1,0,0.1,0l0,0l0,0l-4.4-3.4l-4.1-3.2l-2-1.6C803.7,432.1,803.1,431.7,802.4,431.1z"/>
		</g>
	</g>
</g>
<g>
	<g>
		<g>
			<path class="st0" d="M675.6,526c0.1,0,0.1,0,0.1,0.2c0.2,0.5,0.3,1.3,0.1,2.3c-0.1,1-0.6,2.2-0.9,3.5c0,0-0.1,0.2-0.1,0.2
				c0,0-0.1,0-0.3,0c-0.2,0-0.5,0-1,0.1c-0.9,0.1-2.3,0.4-3.8,0.8c-3,0.8-5.9,1.6-5.9,1.6s-2.1-0.1-3.7-0.6c-2.6-0.7-2-2.3-0.8-3.3
				c-0.2-0.1,3.1-2,3.1-2s0.7-0.2,1.8-0.5c1.1-0.3,2.6-0.7,4.1-1.1c1.5-0.4,3.1-0.8,4.5-0.9C674.3,525.8,675.5,525.9,675.6,526z"/>
		</g>
	</g>
</g>
<g>
	<g>
		<g>
			<path class="st0" d="M690.4,569.8c-0.1,0-0.1,0-0.2-0.1c-0.6-0.9-1.2-3.1-0.1-5.8c0,0,0.1-0.2,0.2-0.3c0,0,0.3,0,0.9,0
				c0.5,0,1.3-0.1,2.2-0.2c1.8-0.2,4.3-0.5,6.7-0.9c2.4-0.4,4.9-0.9,6.7-1.3c1.8-0.4,3-0.7,3-0.7s3.3-0.1,5.8,0.3
				c2.1,0.2,2.8,0.8,2.7,1.4c-0.1,0.6-0.9,1.3-2,2c0.1,0-1.2,0.7-2.6,1.3c-1.4,0.6-2.8,1.2-2.8,1.2s-4.9,1.1-9.9,2
				c-2.5,0.4-5.1,0.8-7.1,1C691.8,569.8,690.4,569.8,690.4,569.8z"/>
		</g>
	</g>
</g>
<g>
	<path class="st2" d="M813.8,454.6"/>
</g>
<g>
	<g>
		<g>
			<path class="st0" d="M1074.4,572.2c0,0.2,0,0.2-0.2,0.4c-0.5,0.7-1.3,1.6-2.3,1.8c-1,0.2-2.2-0.3-3.5-1.8c0-0.1-0.2-0.3-0.2-0.4
				c0-3.1-0.4-6.2-1.5-9.1c-1.9-5.8-5.6-11.2-9.8-16.1c-4.2-4.9-9.1-9.5-14-14c-10-9.1-19.5-18.8-28.8-28.6
				c-9.3-9.8-18.5-19.6-28-28.9c-4.8-4.7-9.7-9.2-14.7-13.6c-5-4.3-10.2-8.6-15.5-12.6c-10.6-8-21.8-15.1-34-20
				c-12.2-5-25.1-7.9-38.3-9.6c-3.3-0.4-6.6-0.7-9.8-0.8c-1.6-0.1-3.2-0.1-4.7,0.1c-1.5,0.1-2.9,0.4-4.3,0.8
				c-2.8,0.9-5.6,2.3-8.2,4.1c-2.6,1.8-5,3.8-7.2,6.1l-1.6,1.8c-0.2,0.2-0.3,0.4-0.5,0.6l-0.9,1.1c-0.6,0.7-1.1,1.5-1.7,2.3
				c0,0-0.3,0.4-0.9,1.2c-0.6,0.7-1.3,1.8-2.2,3.1c-1.7,2.5-3.5,6-4.8,8.9c-1.1,2.5-1.6,4.3-2.1,5.2c-0.5,1-0.8,1.2-1.1,0.9
				c-0.3-0.3-0.4-1.2-0.5-2.5c0-1.3,0.1-2.9,0.4-4.7c-0.2,0.3,0.7-3.9,2.4-8.1c0.4-1,0.9-2.1,1.3-3c0.5-0.9,0.9-1.9,1.3-2.6
				c0.4-0.7,0.8-1.4,1-1.8c0.3-0.4,0.4-0.7,0.4-0.7c0.6-0.9,1.2-1.7,1.9-2.5l1-1.2l1.7-1.9l1.9-1.9l2-1.8c2.7-2.3,5.6-4.3,8.7-6
				c3.2-1.7,6.7-2.9,10.5-3.3c3.7-0.3,7.1-0.1,10.5,0.1c3.4,0.3,6.7,0.7,10.1,1.2c6.6,1,13.3,2.3,19.8,4c6.5,1.8,12.9,4,19.2,6.7
				c12.4,5.4,23.8,12.9,34.4,21.1c10.6,8.1,20.6,17.1,30.1,26.5c9.5,9.3,18.5,19.1,27.7,28.6c9.1,9.6,18.3,18.9,28.1,27.8
				c4.9,4.5,9.8,9.1,14.2,14.4c2.2,2.6,4.3,5.4,6.2,8.3c1.9,2.9,3.4,6.2,4.6,9.6C1073.8,564.5,1074.4,568.4,1074.4,572.2z"/>
		</g>
	</g>
</g>
<g>
	<g>
		<g>
			<path class="st0" d="M1106.8,674c0,0.2,0,0.2-0.2,0.4c-0.9,1.4-3.3,3.2-5.8-0.1c0-0.1-0.2-0.3-0.2-0.5c0.1-3.4,0.1-6.7,0-10.1
				c-0.3-7.1-1.3-14.2-2.7-21.2c-1.5-7-3.5-13.9-6.2-20.5c-1.3-3.3-2.7-6.6-4.3-9.8l-0.6-1.2l-0.1-0.3c0-0.1,0-0.2,0-0.3l0.1-0.7
				l0.1-1c0-0.2,0.1-0.4,0-0.6l0-1.2l-0.1-1.2c-0.1-1.5-0.5-3.1-1-4.6c-1-3-2.8-5.9-4.9-8.7l-0.4-0.5l-0.2-0.3l-0.4-0.6l-0.9-1.1
				l-1.9-2.3c0,0-1.4-1.9-3.3-4.6c-1.9-2.7-4.1-6.2-5.4-9.5c-1.2-2.7-1.5-4.7-1.5-5.8c0-1.1,0.2-1.5,0.6-1.3c0.8,0.4,2,2.9,4,5.5
				c-0.1-0.2,0.5,0.6,1.3,1.7c0.9,1.2,2.2,2.7,3.6,4.3c1.4,1.5,2.9,3.1,4,4.2c1.1,1.2,1.9,2,1.9,2l1.9,2.4l1,1.2l0.6,0.8
				c0.3,0.4,0.6,0.7,0.8,1.1c2.2,3.1,4.2,6.5,5.4,10.5c0.6,2,0.9,4,1,6.1c0,1,0,2.1-0.1,3.1c0,0.1-0.2-0.3,0.4,0.9
				c1.6,3.3,3,6.7,4.4,10.1c2.6,6.9,4.7,13.9,6.3,21.1c1.5,7.2,2.5,14.5,2.8,21.9C1106.9,667,1106.9,670.5,1106.8,674z"/>
		</g>
	</g>
</g>
<g>
	<g>
		<g>
			<path class="st0" d="M1100.6,673.5c0-0.2,0-0.2,0.2-0.4c0.2-0.3,0.5-0.7,0.9-1c0.2-0.2,0.4-0.3,0.6-0.4c0.1-0.1,0.2-0.1,0.3-0.2
				l0.1,0c0,0,0,0,0,0c0,0,0,0.1,0-0.2c-0.7,0.2,1.3-1.3,1.8-0.2c0.1,0.3,0.1,0.3,0.1,0.3c0,0.1,0,0.1,0,0.1l0,0c0,0,0,0,0,0
				c-0.1,0-0.1,0-0.2,0.1c-0.3,0.1-0.5,0.1-0.8,0.1c-0.1,0-0.3,0-0.4-0.1c-0.1,0-0.1,0-0.2-0.1l0,0c0,0-0.1,0,0.1,0
				c0.2,0,0.3,0,0.5,0l0.1,0c0,0,0,0,0,0c-0.1,0,0.1,0.2,0.2,0c0,0,0,0,0,0c0,0,0.1,0,0.1,0l0.5,0c0,0,0,0,0.1,0l0.1,0
				c0.6,0.3,1.2,0.8,1.9,1.6c0,0.1,0.2,0.3,0.2,0.5l-0.2,10.3c-0.5,26.1-1.2,52.3-2,78.4c-0.4,13.1-0.8,26.1-1.3,39.2l-0.8,19.6
				l-0.3,6.8c0,0-1.1,9.4-2.5,16c-1,5.6-1.9,7.2-2.4,6.6c-0.6-0.6-0.8-3.5-1-7c-0.1,0.4-0.1-3.8-0.1-8.1c0-4.3-0.1-8.6-0.1-8.6
				l0.4-8.2l0.8-19.2c0.5-12.8,0.9-25.7,1.3-38.5c0.8-25.7,1.4-51.4,1.9-77L1100.6,673.5z"/>
		</g>
	</g>
</g>
<g>
	<g>
		<g>
			<path class="st0" d="M983,708.5c0.1-0.1,0.2-0.1,0.4,0c1.5,0.3,4.4,1.5,2.4,5.3c0,0.1-0.2,0.3-0.4,0.4c-3.3,1.4-6.6,2.6-10,3.6
				c-7.9,2.3-15.9,3.7-23.9,4.6c-8,0.9-16,1.3-24,1.6c-8,0.3-15.9,0.6-23.7,1.2c-3.9,0.3-7.8,0.7-11.7,1.2l-1.8,0.2l-1.5,0.2
				c-1,0.2-2,0.3-2.9,0.5c0,0-0.6,0.1-1.5,0.2c-1,0.1-2.3,0.3-3.9,0.5c-1.6,0.2-3.3,0.5-5.1,0.8c-1.8,0.3-3.6,0.6-5.2,0.9
				c-2.7,0.6-4.5,0.9-5.6,1c-1.1,0.1-1.5-0.1-1.3-0.5c0.3-0.7,2.8-2.4,6.1-3.9c-0.2,0,0.7-0.4,2.2-0.9c0.7-0.3,1.6-0.6,2.6-1
				c1-0.3,2-0.7,3-1c4.2-1.3,8.5-2.3,8.5-2.3l3-0.5c0.5-0.1,1-0.2,1.5-0.2l2.5-0.3c3.9-0.5,7.9-0.9,11.8-1.2
				c7.9-0.6,15.7-0.9,23.5-1.2c15.5-0.7,31.1-1.6,45.6-6C976.9,710.9,980,709.8,983,708.5z"/>
		</g>
	</g>
</g>
<g>
	<g>
		<g>
			<path class="st0" d="M866.3,701.7c0-0.1,0-0.2,0.1-0.4c0.6-1.5,2.5-3.9,5.7-1.1c0.1,0.1,0.3,0.3,0.3,0.4
				c0.6,3.4,1.3,6.8,1.8,10.2c3.5,20.2,6,40.5,7.9,60.9c0.9,10.2,1.6,20.4,2.2,30.6c0.3,5.1,0.5,10.2,0.7,15.3l0.2,6.6
				c0,0-0.1,2.4-0.3,5.6c-0.2,3.2-0.5,7.3-1,10.6c-1.3,11.3-2.7,6.8-3.4-0.2c-0.1,0.4-0.4-3.8-0.7-8c-0.3-4.2-0.7-8.6-0.7-8.6
				l-0.1-3l0-1.5l-0.1-3c-0.2-5-0.4-10-0.7-15c-0.6-10-1.3-19.9-2.2-29.9c-1.9-19.9-4.4-39.7-7.8-59.4
				C867.5,708.4,866.9,705,866.3,701.7z"/>
		</g>
	</g>
</g>
<g>
	<g>
		<g>
			<path class="st3" d="M983.5,702.1c-0.1-0.1-0.1-0.2,0-0.4c0.3-1.6,1.8-4.2,5.4-2.1c0.1,0,0.3,0.2,0.4,0.4l3.6,9.6
				c4.6,12.2,9.3,24.4,13.7,36.8c2.2,6.2,4.3,12.4,6.3,18.7l1.5,4.7l1.4,4.7l1.7,6.1c0,0,0.4,2.4,1,5.5c0.3,1.6,0.5,3.4,0.8,5.2
				c0.2,1.8,0.4,3.7,0.5,5.4c0.9,11.4-1.3,7.1-3.4,0.5c0,0.4-1.1-3.6-2.4-7.7c-0.6-2-1.3-4.1-1.8-5.6c-0.5-1.5-0.9-2.6-0.9-2.6
				l-0.8-2.9l-0.4-1.4l-0.6-2c-0.9-3.1-1.8-6.1-2.8-9.1c-1.9-6.1-4-12.1-6.1-18.2c-4.3-12.1-8.9-24-13.4-36.1L983.5,702.1z"/>
		</g>
	</g>
</g>
<g>
	<g>
		<g>
			<path class="st0" d="M867.4,545.9c-0.1-0.1-0.1-0.2-0.1-0.4c0-1.6,0.7-4.6,4.8-3.3c0.1,0,0.4,0.2,0.5,0.3c2,2.9,3.8,5.8,5.7,8.7
				c12.5,20.1,22.6,41.7,30,64.2c0.9,2.8,1.8,5.7,2.6,8.5c0.8,2.8,1.7,5.4,2.9,7.5c0.6,1.1,1.3,2,2.2,2.8c0.8,0.8,1.8,1.6,2.9,2.3
				c1.1,0.7,2.3,1.3,3.5,1.9c1.3,0.5,2.6,1.1,3.9,1.6c5.2,1.9,10.7,3,16.3,3.4c5.6,0.4,11.2,0,16.7-1.1c5.5-1.1,10.8-3,15.7-5.5
				l0.5-0.2l0.3-0.1c0.3-0.1,0.3-0.2,0.6-0.3l1-0.4l2-0.8l4-1.7c2.7-1.2,5.3-2.3,8-3.5c10.5-4.8,20.8-10.3,30.5-16.5
				c9.7-6.3,18.8-13.5,26.8-21.6l0.8-0.8c0.2-0.2,0.6-0.6,0.6-0.6l0.2-0.3l0.5-0.5l1-1.1l2-2.2c0,0,0.1-0.1,0.3-0.3
				c0.2-0.2,0.5-0.4,0.8-0.8c0.7-0.7,1.6-1.7,2.7-2.8c0.6-0.6,1.1-1.2,1.7-1.8c0.6-0.6,1.2-1.3,1.8-2c1.2-1.3,2.4-2.7,3.6-3.9
				c3.5-4.3,5-5.5,5.2-4.7c0.2,0.8-0.9,3.5-2.5,6.7c0.3-0.3-1.9,3.4-4.3,7c-1.3,1.8-2.6,3.6-3.5,4.9c-0.5,0.7-0.9,1.2-1.2,1.6
				c-0.3,0.4-0.5,0.6-0.5,0.6l-2.1,2.3l-1,1.1l-0.3,0.3l-0.1,0.1c-0.1,0.1-0.3,0.3-0.4,0.4l-0.8,0.8l-3.2,3.1
				c-8.5,8.2-18,15.2-27.9,21.4c-9.9,6.2-20.3,11.6-30.9,16.3c-2.7,1.1-5.3,2.4-8,3.4l-4,1.6l-0.5,0.2l-0.1,0.1l-1,0.5l-2,1
				c-5.5,2.6-11.4,4.3-17.3,5.3c-6,1-12,1.1-18,0.5c-6-0.6-12-2-17.6-4.2c-2.8-1.1-5.6-2.4-8.3-4.3c-1.3-1-2.6-2.1-3.8-3.4
				c-1.1-1.3-2-2.8-2.7-4.3c-1.4-2.9-2.2-5.9-3.1-8.6c-0.8-2.7-1.7-5.5-2.6-8.2c-7.2-21.6-16.9-42.4-29-61.8
				C871.1,551.5,869.3,548.7,867.4,545.9z"/>
		</g>
	</g>
</g>
<g>
	<g>
		<g>
			<path class="st0" d="M879.6,534.4c-0.1-0.1-0.1-0.1-0.2-0.4c-0.3-1.6-0.1-4.6,4.1-4.2c0.1,0,0.4,0.1,0.5,0.2l1.8,1.9l1.8,1.9
				c1.2,1.3,2.4,2.6,3.5,3.9c11.4,13.1,20.9,27.5,29.7,42.3c2.2,3.7,4.3,7.4,6.4,11.1c2.1,3.7,4.2,7.4,6.4,10.9
				c2.2,3.5,4.6,6.7,7.4,9.5l0.7,0.7l0.5,0.5c0.3,0.3,0.7,0.6,1,0.9c0.7,0.6,1.4,1.1,2.2,1.6c0,0,0.4,0.3,1.1,0.9
				c0.7,0.5,1.8,1.2,3.1,1.9c2.5,1.5,6.1,2.7,9.1,3.1c2.6,0.3,4.4,0.1,5.5,0.1c1.1,0,1.5,0.2,1.3,0.6c-0.1,0.2-0.3,0.4-0.7,0.7
				c-0.4,0.3-0.8,0.6-1.5,0.8c-1.2,0.6-2.9,1-4.8,1.3c0.1,0-0.1,0-0.6,0.1c-0.4,0.1-1.1,0.1-2,0c-1.7,0-4-0.3-6.2-1
				c-2.3-0.6-4.4-1.5-6-2.4c-1.6-0.8-2.6-1.5-2.6-1.5c-0.9-0.6-1.7-1.3-2.6-2l-1.2-1.1l-0.8-0.8c-0.4-0.4-0.8-0.8-1.2-1.2
				c-3.1-3.3-5.6-6.9-7.9-10.5c-2.3-3.7-4.3-7.4-6.4-11c-2.1-3.6-4.2-7.2-6.3-10.8c-8.5-14.3-17.7-28.2-28.6-40.6
				c-1.1-1.3-2.2-2.5-3.4-3.8l-1.7-1.9L879.6,534.4z"/>
		</g>
	</g>
</g>
<g>
	<g>
		<g>
			<path class="st0" d="M1066.9,585.7c0-0.1,0-0.2,0.1-0.4c0.4-0.6,1-1.5,2-1.9c1-0.4,2.2-0.4,3.8,1.3c0.1,0.1,0.3,0.4,0.3,0.5
				c0.3,4-0.5,7.9-1.8,11.4c-1.4,3.7-3.4,6.9-5.6,9.9c-2.2,3-4.7,5.7-7.3,8.3c-5.2,5-10.7,9.6-16.4,13.9c-11.4,8.6-23.9,16-37,21.7
				c-6.6,2.9-13.3,5.4-20.1,7.5c-6.9,2.1-14,3.6-21.2,4.4c-7.2,0.8-14.6,0.8-21.9-0.4l-2.4-0.4c-0.5-0.1-1-0.2-1.6-0.3l-3.1-0.8
				c0,0-0.6-0.2-1.6-0.6c-1-0.4-2.3-0.9-3.8-1.7c-0.7-0.4-1.5-0.8-2.3-1.3c-0.4-0.2-0.8-0.5-1.2-0.7c-0.4-0.3-0.8-0.5-1.2-0.8
				c-0.8-0.6-1.6-1.1-2.3-1.7c-0.7-0.6-1.4-1.2-2-1.8c-0.5-0.5-1-0.9-1.5-1.4c-0.4-0.4-0.8-0.9-1.1-1.2c-0.6-0.8-1.1-1.4-1.3-1.8
				c-0.6-0.9-0.5-1.4-0.1-1.4c0.4,0,1.3,0.3,2.3,0.9c0.5,0.3,1.1,0.7,1.7,1.1c0.7,0.3,1.4,0.7,2.1,1.1c-0.1-0.1,0.7,0.3,1.9,1
				c0.7,0.3,1.4,0.7,2.3,1.1c0.4,0.2,0.9,0.4,1.3,0.6c0.5,0.2,0.9,0.3,1.4,0.5c1,0.3,1.9,0.7,2.8,1c0.9,0.3,1.8,0.5,2.5,0.7
				c0.7,0.2,1.4,0.4,1.8,0.4c0.4,0.1,0.7,0.1,0.7,0.1l2.7,0.7l1.4,0.2l1.4,0.2c0.8,0.1,1.6,0.3,2.4,0.4c6.6,0.8,13.3,0.6,19.9-0.3
				c6.7-0.9,13.3-2.4,19.7-4.5c6.5-2.1,12.8-4.5,19.1-7.3c12.4-5.6,24.2-12.6,35-20.9c5.4-4.1,10.6-8.6,15.5-13.2
				c2.4-2.3,4.6-4.8,6.5-7.4c1.9-2.6,3.6-5.4,4.7-8.3C1066.6,591.6,1067.1,588.6,1066.9,585.7z"/>
		</g>
	</g>
</g>
<g>
	<g>
		<g>
			<path class="st0" d="M837,395.8c-0.1-0.1-0.2-0.1-0.2-0.4c-0.5-1.6-0.3-4.6,3.9-4.3c0.1,0,0.4,0.1,0.5,0.1c2.5,2.2,5,4.4,7.7,6.3
				c4.6,3.4,9.4,6.4,14.5,8.9c1.7,0.9,3.4,1.6,5.1,2.4c0,0,0.5,0.3,1.4,0.7c0.9,0.4,2.1,1.1,3.5,1.7c1.4,0.7,3,1.5,4.7,2.2
				c0.8,0.4,1.6,0.7,2.5,1.1c0.8,0.3,1.6,0.7,2.4,1c1.3,0.5,2.3,1,3.2,1.4c0.9,0.4,1.5,0.7,2,1c0.9,0.6,1.1,0.9,0.8,1.2
				c-0.4,0.2-1.3,0.3-2.5,0.2c-1.3,0-2.9-0.2-4.6-0.5c0.2,0.1-0.8-0.1-2.3-0.4c-1.5-0.4-3.6-0.9-5.7-1.5c-1-0.3-2.1-0.6-3.1-0.9
				c-1-0.3-1.9-0.6-2.7-0.9c-1.6-0.5-2.6-0.9-2.6-0.9c-1.5-0.7-3.1-1.4-4.6-2.2c-5.4-2.7-10.6-5.8-15.4-9.4
				C842.3,400.4,839.6,398.1,837,395.8z"/>
		</g>
	</g>
</g>
<g>
	<g>
		<g>
			<path class="st0" d="M821.1,446c0-0.1,0-0.1,0.1-0.2c0.8-0.7,2.9-2,5.7-0.9c0.1,0,0.2,0.1,0.3,0.2c0,0.1,0.3,1.9,0.5,4.4
				c0.2,2.5,0.4,5.8,0.6,9c0.2,3.2,0.3,6.4,0.5,8.8c0.2,2.4,0.3,3.9,0.3,3.9s-0.3,4.1-0.6,7.1c-0.2,2.5-0.6,3.4-1.2,3.3
				c-0.6-0.1-1.5-1.2-2.2-2.7c0,0.1-0.2-0.3-0.4-1c-0.2-0.7-0.5-1.6-0.8-2.6c-0.5-1.9-1-3.8-1-3.8s-0.2-1.6-0.3-4
				c-0.2-2.4-0.3-5.6-0.5-8.8c-0.2-3.2-0.4-6.3-0.6-8.7C821.3,447.6,821.1,446.1,821.1,446z"/>
		</g>
	</g>
</g>
<g>
	<g>
		<g>
			<path class="st0" d="M452.4,567.1c0.1,0,0.1,0,0.1,0.1c0.5,0.9,1.3,3.1,0.4,5.8c0,0-0.1,0.2-0.1,0.3c-0.1,0-1.3,0.1-3.1,0.2
				c-1.8,0.1-4.1,0.3-6.5,0.5c-4.7,0.4-9.3,1.1-9.3,1.1s-3.1-0.2-5.4-0.8c-3.8-0.7-2.6-2.3-0.5-3.4c-0.1,0,1.2-0.6,2.5-1
				c1.4-0.5,2.7-0.9,2.7-0.9s4.7-0.7,9.4-1.1c2.4-0.2,4.8-0.4,6.6-0.6C451.1,567.1,452.3,567.1,452.4,567.1z"/>
		</g>
	</g>
</g>
<g>
	<g>
		<g>
			<path class="st0" d="M411.2,575.3c0.1,0,0.1,0,0.2,0.1c0.9,0.5,2.6,2.2,2.6,5.2c0,0.1,0,0.3-0.1,0.3c-0.1,0-1.5,0.7-3.6,1.8
				c-2.1,1-4.8,2.4-7.5,3.9c-5.4,2.9-10.6,5.9-10.6,5.9s-3.7,1.5-6.6,2.1c-4.7,1.4-3.9-0.8-1.7-3c-0.2,0,1.2-1.2,2.6-2.3
				c1.4-1.2,2.9-2.3,2.9-2.3s5.3-3.1,10.7-6c2.7-1.4,5.5-2.9,7.6-3.9C409.7,576,411.1,575.3,411.2,575.3z"/>
		</g>
	</g>
</g>
<g>
	<g>
		<g>
			<path class="st0" d="M447.1,584.2c0,0,0.1,0,0.2,0.1c0.7,0.7,2.1,2.6,2,5.5c0,0.1,0,0.3-0.1,0.3c-0.3,0.1-18.6,6.7-18.6,6.7
				s-3.2,0.5-5.6,0.4c-4,0-3.1-1.8-1.1-3.3c-0.3,0,4.9-3,4.9-3S446.8,584.3,447.1,584.2z"/>
		</g>
	</g>
</g>
<g>
	<g>
		<g>
			<path class="st0" d="M412.2,599.7c0,0,0,0,0.1,0.1c0.7,0.6,2.3,2.2,3.8,4.4c0,0,0.1,0.2,0.1,0.2c-0.1,0.1-4.5,3.9-4.5,3.9
				s-1.1,0.1-2.3-0.1c-1.7-0.3-2.3-1.6-2.2-2.6c-0.1-0.1,0.5-2,0.5-2S412.1,599.7,412.2,599.7z"/>
		</g>
	</g>
</g>
<g>
	<g>
		<g>
			<path class="st0" d="M446.3,595.9c0-0.1,0.1-0.1,0.2-0.1c1.1,0,3.4,0.7,4.6,3.5c0,0.1,0.1,0.3,0.1,0.3
				C451,600,434.6,621,434.6,621s-3.2,3-5.8,4.9c-4.2,3.3-4,0.8-2.7-2.2c-0.3,0.2,3.8-6.8,3.8-6.8S446.1,596.2,446.3,595.9z"/>
		</g>
	</g>
</g>
<g>
	<g>
		<g>
			<path class="st0" d="M449.3,612c0,0,0,0,0.2,0c0.9,0.1,3.2,0.5,5.4,2.1c0,0,0.2,0.2,0.2,0.2c0,0-0.3,0.8-0.8,1.9
				c-0.5,1.1-1.1,2.6-1.7,4c-1.3,2.9-2.8,5.7-2.8,5.7s-1.5,1.5-3,2.3c-2.3,1.5-3-0.1-3-1.7c-0.1,0,0.1-0.9,0.2-1.8
				c0.2-0.9,0.3-1.8,0.3-1.8s1.4-2.6,2.6-5.3c0.6-1.4,1.2-2.7,1.6-3.8C449,612.8,449.3,612,449.3,612z"/>
		</g>
	</g>
</g>
<g>
	<path d="M726.1,402.6c-0.3-0.8-0.8-1.6-1.4-2.2c-1.6-1.5-3.9-1.7-5.6-0.7c-1,0.6-2.7,2.6-2.2,4c1.1,3.3,4.9,5.4,8.2,3.8
		c1.2-0.6,1.7-1.8,1.5-3C726.5,403.9,726.3,403.3,726.1,402.6z"/>
</g>
<path d="M833,352.1c-8.5-24-29.2-41.8-50.2-54.6c-12.3-6-26.3-8.2-40.1-6.5c-10.5,1.3-18.4,0.5-27.6,5.1c-5.2,1.8-10.3,4.3-14.9,7.4
	c-3.6,1.9-10.9,8.7-12.8,10.3c-9.2,7.9-14.7,18.3-18,29.8c-1.7,5.9-2.8,12-3.7,18c-1,6.7-2.6,13.8,0.2,20.3c2.6,6.2,12.5,8,14.5,0
	c1.9-8,4.3-15.8,7-23.5c1.3-3.7,2.7-7.3,4.3-10.9c0.7-1.6,1.3-3.2,2.1-4.7c0.9-1.7,0.5-1.9,1.8-1.6c3,0.8,5.9,4.9,7.8,7
	c2.6,2.9,5.2,5.8,7.6,8.9c2.4,3,4.7,6.1,6.9,9.3c2.2,3.1,4.1,6.8,7.5,8.7c6.6,3.8,12-1.9,18.5-2.3c5.2-0.3,10.5,1.6,14.3,5.1
	c4.3,3.9,5.4,9.8,8.2,14.7c3.4,5.9,8.6,9.8,15.4,10.7c14.5,1.8,27.1-1.8,39.2-9.8C835.4,383.7,838.2,366.7,833,352.1z"/>
<g>
	<g>
		<g>
			<path class="st3" d="M958.4,669.1c-0.1-0.1-0.1-0.2-0.1-0.4c0-0.9,0.2-2,1-2.7c0.7-0.7,2-1,3.9-0.4c0.1,0,0.4,0.2,0.5,0.3
				c1.8,2.8,3.7,5.5,5.8,8.3c3.9,5.2,8,10.3,12.3,15.3c2.1,2.5,4.3,4.9,6.5,7.2l3.4,3.5c1.2,1.2,2.3,2.5,3.4,3.7
				c4.6,5,8.6,10.3,12.8,15.3c2.1,2.5,4.2,4.9,6.4,7.2l2.2,2.2l2.2,2c0,0,0.4,0.4,1.1,1.1c0.7,0.7,1.6,1.7,2.7,2.8
				c1.1,1.1,2.4,2.4,3.7,3.7c1.3,1.3,2.6,2.5,3.8,3.7c8.2,7.7,3.9,6.2-2.2,2.6c0.1,0.1-0.7-0.4-2-1.2c-0.6-0.4-1.4-0.9-2.2-1.5
				c-0.8-0.6-1.7-1.2-2.6-1.8c-1.8-1.2-3.5-2.6-4.8-3.6c-0.7-0.5-1.2-1-1.6-1.3c-0.4-0.3-0.6-0.5-0.6-0.5c-0.7-0.7-1.5-1.4-2.2-2.1
				l-1.1-1.1l-0.7-0.7c-0.3-0.3-0.6-0.6-0.9-0.9c-2.3-2.4-4.5-4.9-6.6-7.5c-4.2-5.1-8.1-10.1-12.4-14.8c-1.1-1.2-2.2-2.3-3.3-3.5
				l-3.4-3.5c-2.3-2.4-4.5-4.9-6.6-7.4c-4.3-5-8.4-10.1-12.3-15.4C962.3,675,960.3,672.1,958.4,669.1z"/>
		</g>
	</g>
</g>
<g>
	<g>
		<g>
			<path class="st0" d="M1017.9,782.6c0-0.1,0-0.2,0.1-0.4c0.8-1.4,2.8-3.6,5.8-0.6c0.1,0.1,0.3,0.3,0.3,0.5l0.8,10.3l1.2,17.9
				l0.4,5.7c0,0,0,9.5-0.4,16.2c-0.4,11.3-2.1,7-3.4,0c0,0.4-0.7-3.8-1.2-8c-0.6-4.2-1.1-8.6-1.1-8.6l-0.3-4.9l-1.2-17.8
				L1017.9,782.6z"/>
		</g>
	</g>
</g>
<g>
	<g>
		<g>
			<path class="st0" d="M643.1,495.7c0,0,0,0.1-0.1,0.2c-0.4,0.3-1.1,0.8-2.1,1.1c-1,0.3-2.2,0.5-3.6,0.1c-0.1,0-0.3-0.1-0.3-0.2
				c0,0-0.1-0.5-0.2-1.3c-0.1-0.8-0.2-1.8-0.2-3.1c0-2.5,0.4-5.8,1.5-8.9c1-3.1,2.6-5.9,3.8-7.8c1.3-2,2.3-3.2,2.3-3.2
				s0.7-0.7,1.8-1.5c1.1-0.8,2.5-1.8,3.8-2.4c2.1-1.1,3-1.1,3.3-0.5c0.2,0.6-0.2,1.8-0.9,3c0.1-0.1-0.8,1.3-1.6,2.7
				c-0.9,1.4-1.6,2.8-1.6,2.8s-0.2,0.3-0.5,0.7c-0.3,0.5-0.8,1.1-1.3,2c-1.1,1.6-2.3,3.9-3.1,6.4c-0.8,2.4-1.1,4.9-1.1,6.8
				C642.8,494.4,643.1,495.6,643.1,495.7z"/>
		</g>
	</g>
</g>
<g>
	<g>
		<g>
			<path class="st0" d="M615.4,502.7c-0.1-0.1-0.2-0.1-0.3-0.3c-0.7-1.4-1.3-4.4,2.9-5.1c0.1,0,0.4,0,0.6,0c3,1.8,6,3.6,9,5.7
				c2.5,1.9,5,4.1,7,6.9c2,2.8,3.2,6.3,3.6,9.6c0,0.4,0.1,0.8,0.1,1.2l0,1.2l0,0.7c0,0.3,0.1,0.7-0.1,1.1c-0.3,0.9-0.3,1-0.4,1.3
				c-0.4,1.2-0.6,2.5-0.6,3.6c-0.1,2.3,0.6,4.5,1.9,6.3c0.8,1,2,1.9,3.3,2.4c0,0,0.4,0.2,1.1,0.5c0.7,0.3,1.7,0.5,2.9,0.6
				c0.6,0,1.2,0,1.9-0.2c0.3-0.1,0.6-0.2,0.9-0.3c0.3-0.1,0.6-0.3,0.9-0.5c0.6-0.3,1.1-0.8,1.6-1.4c0.5-0.5,0.9-1.2,1.2-1.8
				c0.9-2.2,0.7-3.9,0.5-4.9c-0.2-1-0.2-1.4,0.2-1.4c0.2,0,0.5,0.2,0.9,0.5c0.3,0.3,0.8,0.8,1.1,1.5c0.7,1.3,1,3.3,0.6,5.4
				c0-0.1,0,0.1-0.1,0.6c-0.1,0.5-0.4,1.2-0.8,2c-0.4,0.8-1.1,1.8-2,2.7c-0.4,0.5-1,0.9-1.6,1.3c-0.3,0.2-0.6,0.3-0.9,0.5
				c-0.3,0.2-0.6,0.3-0.9,0.4c-2.5,1-5.4,1-7.3,0.6c-2-0.4-3.2-1-3.2-1c-1.9-0.9-3.6-2.2-4.9-4c-2.3-2.9-3.4-6.7-3.2-10.3
				c0.1-1.8,0.4-3.5,0.8-5.1c0.1-0.4,0.3-0.9,0.2-0.8l0-0.4l0-1c0-0.3-0.1-0.6-0.1-0.9c-0.3-2.5-1.1-4.8-2.5-6.8
				c-1.4-2-3.4-3.8-5.6-5.4C621.3,506.1,618.4,504.4,615.4,502.7z"/>
		</g>
	</g>
</g>
<g>
	<g>
		<g>
			<path class="st0" d="M571.7,489.8c0,0,0,0-0.2,0c-0.5-0.1-1.3-0.2-2.2-0.5c-1-0.3-2.1-0.8-3.1-1.8c0,0-0.2-0.2-0.2-0.2
				c0,0,0.1-0.3,0.3-0.7c0.2-0.4,0.6-1,1-1.7c0.9-1.4,2.3-3,4-4.2c1.7-1.3,3.6-2.2,5.1-2.7c1.5-0.5,2.5-0.7,2.5-0.7s0.2,0,0.5,0
				c0.3,0,0.7,0.1,1.2,0.2c0.9,0.2,2.1,0.6,2.9,1.1c1.4,0.8,1.6,1.6,1.4,2.2c-0.3,0.6-1,0.9-1.7,1.3c0.1,0.1-0.8,0.3-1.6,0.6
				c-0.4,0.2-0.8,0.4-1.1,0.5c-0.3,0.2-0.5,0.3-0.5,0.3s-0.2,0-0.5,0.1c-0.3,0.1-0.7,0.2-1.2,0.4c-1,0.3-2.2,0.9-3.3,1.8
				c-1.1,0.8-2,1.8-2.6,2.7c-0.3,0.4-0.5,0.8-0.6,1C571.7,489.6,571.7,489.8,571.7,489.8z"/>
		</g>
	</g>
</g>
<g>
	<g>
		<g>
			<g>
				<path class="st0" d="M544.4,835.8c0,0.1,0,0.1-0.1,0.2c-0.5,0.6-1.7,1.2-2.6-0.4c0,0-0.1-0.2-0.1-0.2c0.1-0.7,0.2-1.4,0.3-2.2
					l0.1-0.9l0,0l0,0l0,0l-0.4,0.2l-0.6,0.3c-0.8,0.4-1.7,0.6-2.5,0.9c-1.7,0.4-3.3,0.7-5,0.9c-3.3,0.4-6.6,0.5-9.9,0.6
					c-3.4,0-6.6-0.2-9.9-0.6c-1.6-0.2-3.3-0.4-4.9-0.7l-2.4-0.5c-0.8-0.2-1.6-0.3-2.5-0.5c-0.2-0.1-0.4-0.1-0.6-0.2l-0.3-0.1
					l-0.2-0.1l-0.3-0.1c-0.7-0.3-1.4-0.7-1.8-1.2c-0.4-0.5-0.6-1-0.5-1.7c0.1-0.7,0.3-1,1-1.4c0.3-0.2,0.6-0.4,1-0.5l1-0.4
					c0.4-0.1,0.8-0.2,1.2-0.4c0.8-0.2,1.6-0.4,2.5-0.6c3.3-0.7,6.6-0.9,9.9-1.1c3.3-0.2,6.6-0.3,9.9-0.2l2.8,0.1
					c0,0,1.1,0.1,2.5,0.3c1.4,0.2,3.2,0.5,4.7,0.9c4.9,1.1,2.8,1.5-0.2,1.5c0.2,0-1.7,0-3.6,0c-1.9,0-3.8,0-3.8,0l-1.3,0l-2.3,0
					c-3.2,0-6.3,0.1-9.5,0.3c-3.2,0.2-6.3,0.5-9.3,1.2c-0.8,0.2-1.5,0.4-2.2,0.6l-0.5,0.1l0.4,0.1c0.3,0.1,0.7,0.2,1.1,0.3
					c0.7,0.2,1.5,0.3,2.3,0.5c0.8,0.2,1.5,0.3,2.3,0.4c1.5,0.2,3.1,0.4,4.7,0.6c3.1,0.3,6.3,0.5,9.4,0.5c3.2-0.1,6.3-0.2,9.4-0.6
					c1.5-0.2,3.1-0.4,4.5-0.8c0.7-0.2,1.4-0.4,2.1-0.7l0.5-0.2l0.2-0.1c0.1-0.1,0.3-0.2,0.5-0.3c0.2-0.1,0.3-0.2,0.5-0.3
					c0.2-0.1,0.4-0.3,0.5-0.4c0.3,0.1,0.6,0.2,0.8,0.2l1.7,0.4l0.1,0c0,0,0,0.1,0,0.1l0,0.3c0,0.7,0,1.5,0,2.2l-0.1,0.8l-0.1,0.6
					C544.6,834.2,544.5,835,544.4,835.8z"/>
			</g>
		</g>
	</g>
	<g>
		<g>
			<g>
				<path class="st0" d="M540.9,836.5c0,0,0.1,0,0.2,0c0.3,0,0.8,0,1.2,0.2c0.4,0.2,0.7,0.7,0.5,1.7c0,0-0.1,0.2-0.1,0.2
					c-1.4,1.2-3,1.9-4.6,2.3c-3.1,0.9-6.1,0.9-9,1.1c-3,0.1-5.9,0-8.9-0.2c-3-0.2-5.9-0.5-8.8-1c-1.5-0.2-2.9-0.5-4.4-0.8l-1.4-0.3
					c-0.5-0.1-0.9-0.2-1.4-0.4c0,0-0.3-0.1-0.7-0.3c-0.2-0.1-0.5-0.2-0.8-0.4c-0.2-0.1-0.3-0.2-0.5-0.3c-0.1-0.1-0.5-0.3-0.7-0.5
					l-0.2-0.1c-0.1,0-0.1-0.1-0.1-0.2c0-0.2-0.1-0.3-0.1-0.5c0-0.2-0.1-0.4-0.1-0.5l0-0.3c0-0.4-0.1-0.8-0.1-1.3
					c-0.1-0.9,0-1.7,0-2.5c0.2-2.6,0.7-3.3,1-3c0.2,0.3,0.3,1.6,0.6,3c0-0.2,0.2,1.6,0.7,3.3c0.1,0.3,0.1,0.2,0.1,0.3
					c0,0,0.1,0,0.1,0c0.3,0.2,0.7,0.3,1,0.4c0.6,0.2,1,0.3,1,0.3c0.4,0.1,0.8,0.2,1.2,0.3l1.6,0.3c1.4,0.3,2.8,0.5,4.2,0.8
					c2.8,0.4,5.6,0.7,8.4,0.9c2.8,0.2,5.7,0.2,8.5,0.1c2.8-0.1,5.7-0.2,8.2-0.9C538.7,837.9,540,837.3,540.9,836.5z"/>
			</g>
		</g>
	</g>
	<g>
		<g>
			<g>
				<path class="st0" d="M504.4,831.2c0.1-0.1,0.1-0.1,0.2-0.1c0.1,0,0.2,0,0.4,0c0.1,0,0.4,0,0.7,0.2c0.2,0.1,0.3,0.2,0.4,0.4
					c0.1,0.2,0,0.2,0,0.3c-0.1,0.2-0.2,0.2-0.3,0.2c-0.1,0-0.2,0-0.4,0l-0.2,0l0.1,0c0,0,0.1,0,0,0c0,0,0,0.1,0.1,0.2c0,0,0,0,0,0
					s0,0,0,0c0,0-0.1,0-0.1,0l0,0h0c-0.3,0,2.4,0.2,1.3,0.1v0v0l0,0l0,0l0,0c0,0.1,0,0.3,0,0.5c0,0.4-0.1,1,0,1.5
					c0,1.1,0.1,2.1,0.1,2.1s-0.2,0.7-0.5,1.3c-0.4,1-1.1,0.8-1.5,0.2c0,0-0.2-0.3-0.4-0.6c-0.2-0.3-0.3-0.7-0.3-0.7
					s-0.1-1.2-0.1-2.4c0-0.6,0-1.2,0.1-1.7c0-0.2,0-0.4,0-0.6c0-0.1,0-0.1,0-0.2c0.1-0.3,0.1-0.5,0.2-0.6
					C504.3,831.3,504.4,831.3,504.4,831.2z"/>
			</g>
		</g>
	</g>
	<g>
		<g>
			<g>
				<path class="st0" d="M509.2,833.9C509.2,833.8,509.2,833.8,509.2,833.9c0.4-0.1,1.4-0.4,2.6-0.2c0,0,0.1,0,0.1,0
					c0,0,0,0.3,0,0.7c0,0.4,0,0.9,0.1,1.4c0,1,0,2,0,2s-0.3,0.7-0.7,1.1c-0.6,0.8-1.2,0.4-1.5,0c-0.1,0-0.5-1.1-0.5-1.1s0-0.9,0-1.9
					c0-0.5-0.1-0.9-0.1-1.3C509.2,834.1,509.2,833.9,509.2,833.9z"/>
			</g>
		</g>
	</g>
	<g>
		<g>
			<g>
				<path class="st0" d="M515.4,834L515.4,834L515.4,834L515.4,834L515.4,834l1.3,0.1l0,0c0,0,0,0,0,0c0,0,0.1,0.1,0,0.1
					c-0.1,0,0,0,0-0.1l0.1-0.3l0,0l0,0l0,0l0,0l0,0.1l0,0.2c0,0.1,0,0.3-0.2,0.3c-0.1,0-0.3,0-0.4-0.3c-0.1-0.3-0.1-0.5-0.1-0.6
					c0-0.1,0.1-0.3,0.1-0.4c0.1-0.1,0.1-0.1,0.2-0.2c0,0,0.2-0.1,0.3-0.1c0,0,0.2,0,0.3,0c0.1,0,0.2,0,0.4,0.1
					c0.1,0,0.3,0.2,0.4,0.3c0.1,0.1,0.2,0.4,0.3,0.5c0,0.1,0,0.3,0.1,0.3c0,0,0,0,0,0c0,0,0,0.3,0,0.6c0,0.4,0,0.9,0,1.3
					c0,1,0,1.9,0,1.9s-0.2,0.6-0.6,1.1c-0.5,0.8-1.2,0.6-1.5,0.1c-0.1,0.1-0.6-1.1-0.6-1.1s-0.1-1,0-2c0-0.5,0-1,0-1.4
					C515.4,834.3,515.4,834,515.4,834z"/>
			</g>
		</g>
	</g>
	<g>
		<g>
			<g>
				<path class="st0" d="M521.3,834.2C521.3,834.2,521.3,834.2,521.3,834.2c0.5-0.1,1.5-0.2,2.7,0c0,0,0.1,0,0.1,0c0,0,0,3.6,0,3.6
					s-0.3,0.6-0.7,1c-0.6,0.7-1.2,0.4-1.5,0c-0.1,0-0.5-1-0.5-1S521.3,834.2,521.3,834.2z"/>
			</g>
		</g>
	</g>
	<g>
		<g>
			<g>
				<path class="st0" d="M527.5,834.1C527.5,834.1,527.5,834.1,527.5,834.1c0.5-0.1,1.5-0.2,2.7,0.1c0,0,0.1,0,0.1,0
					c0,0,0,0.2,0,0.5c0,0.3,0,0.7,0,1.1c0,0.8,0,1.6,0,1.6s-0.3,0.5-0.6,0.9c-0.5,0.7-1.2,0.5-1.5,0.1c-0.1,0.1-0.6-0.9-0.6-0.9
					s0-0.8,0-1.7c0-0.4,0-0.8,0-1.2C527.5,834.3,527.5,834.1,527.5,834.1z"/>
			</g>
		</g>
	</g>
	<g>
		<g>
			<g>
				<path class="st0" d="M533.3,833.7C533.3,833.7,533.3,833.7,533.3,833.7c0.5-0.1,1.4-0.3,2.6-0.2c0,0,0.1,0,0.1,0
					c0,0,0.2,3.5,0.2,3.5s-0.2,0.6-0.6,1c-0.5,0.7-1.2,0.5-1.5,0.1c-0.1,0-0.6-1-0.6-1S533.3,833.7,533.3,833.7z"/>
			</g>
		</g>
	</g>
</g>
<g>
	<g>
		<g>
			<g>
				<path class="st0" d="M548.6,822.2c0,0.1,0,0.1-0.1,0.2c-0.5,0.6-1.7,1.2-2.6-0.4c0,0-0.1-0.2-0.1-0.2c0.1-0.7,0.2-1.4,0.3-2.2
					l0.1-0.9l0,0v0l0,0l0,0l-0.4,0.2l-0.6,0.3c-0.8,0.4-1.7,0.6-2.5,0.9c-1.7,0.4-3.3,0.7-5,0.9c-3.3,0.4-6.6,0.5-9.9,0.6
					c-3.4,0-6.6-0.2-9.9-0.6c-1.6-0.2-3.3-0.4-4.9-0.7l-2.4-0.5c-0.8-0.2-1.6-0.3-2.5-0.5c-0.2-0.1-0.4-0.1-0.6-0.2l-0.3-0.1
					l-0.2-0.1l-0.3-0.1c-0.7-0.3-1.4-0.7-1.8-1.2c-0.4-0.5-0.6-1-0.5-1.7c0.1-0.7,0.3-1,1-1.4c0.3-0.2,0.6-0.4,1-0.5l1-0.4
					c0.4-0.1,0.8-0.2,1.2-0.4c0.8-0.2,1.6-0.4,2.5-0.6c3.3-0.7,6.6-0.9,9.9-1.1c3.3-0.2,6.6-0.3,9.9-0.2l2.8,0.1
					c0,0,1.1,0.1,2.5,0.3c1.4,0.2,3.2,0.5,4.7,0.9c4.9,1.1,2.8,1.5-0.2,1.5c0.2,0-1.7,0-3.6,0c-1.9,0-3.8,0-3.8,0l-1.3,0l-2.3,0
					c-3.2,0-6.3,0.1-9.5,0.3c-3.2,0.2-6.3,0.5-9.3,1.2c-0.8,0.2-1.5,0.4-2.2,0.6l-0.5,0.1l0.4,0.1c0.3,0.1,0.7,0.2,1.1,0.3
					c0.7,0.2,1.5,0.3,2.3,0.5c0.8,0.2,1.5,0.3,2.3,0.4c1.5,0.2,3.1,0.4,4.7,0.6c3.1,0.3,6.3,0.5,9.4,0.5c3.2-0.1,6.3-0.2,9.4-0.6
					c1.5-0.2,3.1-0.4,4.5-0.8c0.7-0.2,1.4-0.4,2.1-0.7l0.5-0.2l0.2-0.1c0.1-0.1,0.3-0.2,0.5-0.3c0.2-0.1,0.3-0.2,0.5-0.3
					c0.2-0.1,0.4-0.3,0.5-0.4c0.3,0.1,0.6,0.2,0.8,0.2l1.7,0.4l0.1,0c0,0,0,0.1,0,0.1l0,0.3c0,0.7,0,1.5,0,2.2l-0.1,0.8l-0.1,0.6
					C548.9,820.6,548.8,821.4,548.6,822.2z"/>
			</g>
		</g>
	</g>
	<g>
		<g>
			<g>
				<path class="st0" d="M545.2,822.9c0,0,0.1,0,0.2,0c0.3,0,0.8,0,1.2,0.2c0.4,0.2,0.7,0.7,0.5,1.7c0,0-0.1,0.2-0.1,0.2
					c-1.4,1.2-3,1.9-4.6,2.3c-3.1,0.9-6.1,0.9-9,1.1c-3,0.1-5.9,0-8.9-0.2c-3-0.2-5.9-0.5-8.8-1c-1.5-0.2-2.9-0.5-4.4-0.8l-1.4-0.3
					c-0.5-0.1-0.9-0.2-1.4-0.4c0,0-0.3-0.1-0.7-0.3c-0.2-0.1-0.5-0.2-0.8-0.4c-0.2-0.1-0.3-0.2-0.5-0.3c-0.1-0.1-0.5-0.3-0.7-0.5
					l-0.2-0.1c-0.1,0-0.1-0.1-0.1-0.2c0-0.2-0.1-0.3-0.1-0.5c0-0.2-0.1-0.4-0.1-0.5l0-0.3c0-0.4-0.1-0.8-0.1-1.3
					c-0.1-0.9,0-1.7,0-2.5c0.2-2.6,0.7-3.3,1-3c0.2,0.3,0.3,1.6,0.6,3c0-0.2,0.2,1.6,0.7,3.3c0.1,0.3,0.1,0.2,0.1,0.3
					c0,0,0.1,0,0.1,0c0.3,0.2,0.7,0.3,1,0.4c0.6,0.2,1,0.3,1,0.3c0.4,0.1,0.8,0.2,1.2,0.3l1.6,0.3c1.4,0.3,2.8,0.5,4.2,0.8
					c2.8,0.4,5.6,0.7,8.4,0.9c2.8,0.2,5.7,0.2,8.5,0.1c2.8-0.1,5.7-0.2,8.2-0.9C543,824.3,544.2,823.7,545.2,822.9z"/>
			</g>
		</g>
	</g>
	<g>
		<g>
			<g>
				<path class="st0" d="M508.7,817.7c0.1-0.1,0.1-0.1,0.2-0.1c0.1,0,0.2,0,0.4,0c0.1,0,0.4,0,0.7,0.2c0.2,0.1,0.3,0.2,0.4,0.4
					c0.1,0.2,0,0.2,0,0.3c-0.1,0.2-0.2,0.2-0.3,0.2c-0.1,0-0.2,0-0.4,0l-0.2,0l0.1,0c0,0,0.1,0,0,0c0,0,0,0.1,0.1,0.2c0,0,0,0,0,0
					s0,0,0,0c0,0-0.1,0-0.1,0l0,0h0c-0.3,0,2.4,0.2,1.3,0.1v0l0,0l0,0l0,0l0,0c0,0.1,0,0.3,0,0.5c0,0.4-0.1,1,0,1.5
					c0,1.1,0.1,2.1,0.1,2.1s-0.2,0.7-0.5,1.3c-0.4,1-1.1,0.8-1.5,0.2c0,0-0.2-0.3-0.4-0.6c-0.2-0.3-0.3-0.7-0.3-0.7
					s-0.1-1.2-0.1-2.4c0-0.6,0-1.2,0.1-1.7c0-0.2,0-0.4,0-0.6c0-0.1,0-0.1,0-0.2c0.1-0.3,0.1-0.5,0.2-0.6
					C508.6,817.8,508.7,817.7,508.7,817.7z"/>
			</g>
		</g>
	</g>
	<g>
		<g>
			<g>
				<path class="st0" d="M513.4,820.3C513.4,820.3,513.4,820.3,513.4,820.3c0.4-0.2,1.4-0.4,2.6-0.2c0,0,0.1,0,0.1,0
					c0,0,0,0.3,0,0.7c0,0.4,0,0.9,0.1,1.4c0,1,0,2,0,2s-0.3,0.7-0.7,1.1c-0.6,0.8-1.2,0.4-1.5,0c-0.1,0-0.5-1.1-0.5-1.1s0-0.9,0-1.9
					c0-0.5-0.1-0.9-0.1-1.3C513.4,820.6,513.4,820.3,513.4,820.3z"/>
			</g>
		</g>
	</g>
	<g>
		<g>
			<g>
				<path class="st0" d="M519.7,820.5L519.7,820.5L519.7,820.5L519.7,820.5L519.7,820.5l1.3,0.1l0,0c0,0,0,0,0,0c0,0,0.1,0.1,0,0.1
					c-0.1,0,0,0,0-0.1l0.1-0.3l0,0l0,0l0,0l0,0l0,0.1l0,0.2c0,0.1,0,0.3-0.2,0.3c-0.1,0-0.3,0-0.4-0.3c-0.1-0.3-0.1-0.5,0-0.6
					c0-0.1,0.1-0.3,0.1-0.4c0.1-0.1,0.1-0.1,0.2-0.2c0,0,0.2-0.1,0.3-0.1c0,0,0.2,0,0.3,0c0.1,0,0.2,0,0.4,0.1
					c0.1,0,0.3,0.2,0.4,0.3c0.1,0.1,0.2,0.4,0.3,0.5c0,0.1,0,0.3,0.1,0.3c0,0,0,0,0,0c0,0,0,0.3,0,0.6c0,0.4,0,0.9,0,1.3
					c0,1,0,1.9,0,1.9s-0.3,0.6-0.6,1.1c-0.5,0.8-1.2,0.6-1.5,0.1c-0.1,0.1-0.6-1.1-0.6-1.1s-0.1-1,0-2c0-0.5,0-1,0-1.4
					C519.7,820.7,519.7,820.5,519.7,820.5z"/>
			</g>
		</g>
	</g>
	<g>
		<g>
			<g>
				<path class="st0" d="M525.6,820.6C525.6,820.6,525.6,820.6,525.6,820.6c0.5-0.1,1.5-0.2,2.7,0c0,0,0.1,0,0.1,0c0,0,0,3.6,0,3.6
					s-0.3,0.6-0.7,1c-0.6,0.7-1.2,0.4-1.5,0c-0.1,0-0.5-1-0.5-1S525.6,820.7,525.6,820.6z"/>
			</g>
		</g>
	</g>
	<g>
		<g>
			<g>
				<path class="st0" d="M531.7,820.6C531.7,820.6,531.7,820.6,531.7,820.6c0.5-0.1,1.5-0.2,2.7,0.1c0,0,0.1,0,0.1,0
					c0,0,0,0.2,0,0.5c0,0.3,0,0.7,0,1.1c0,0.8,0,1.6,0,1.6s-0.3,0.5-0.6,0.9c-0.5,0.7-1.2,0.5-1.5,0.1c-0.1,0.1-0.6-0.9-0.6-0.9
					s0-0.8,0-1.7c0-0.4,0-0.8,0-1.2C531.7,820.8,531.7,820.6,531.7,820.6z"/>
			</g>
		</g>
	</g>
	<g>
		<g>
			<g>
				<path class="st0" d="M537.6,820.1C537.6,820.1,537.6,820.1,537.6,820.1c0.5-0.1,1.4-0.3,2.6-0.2c0,0,0.1,0,0.1,0
					c0,0,0.2,3.5,0.2,3.5s-0.2,0.6-0.6,1c-0.5,0.7-1.2,0.5-1.5,0.1c-0.1,0-0.6-1-0.6-1S537.6,820.2,537.6,820.1z"/>
			</g>
		</g>
	</g>
</g>
<g>
	<g>
		<g>
			<g>
				<path class="st0" d="M371.6,847.1c0,0.1,0,0.1-0.1,0.2c-0.5,0.6-1.7,1.2-2.6-0.4c0,0-0.1-0.2-0.1-0.2c0.1-0.7,0.2-1.4,0.3-2.2
					l0.1-0.9l0,0v0l0,0l0,0l-0.4,0.2l-0.6,0.3c-0.8,0.4-1.7,0.6-2.5,0.9c-1.7,0.4-3.3,0.7-5,0.9c-3.3,0.4-6.6,0.5-9.9,0.6
					c-3.4,0-6.6-0.2-9.9-0.6c-1.6-0.2-3.3-0.4-4.9-0.7l-2.4-0.5c-0.8-0.2-1.6-0.3-2.5-0.5c-0.2-0.1-0.4-0.1-0.6-0.2l-0.3-0.1
					l-0.2-0.1l-0.3-0.1c-0.7-0.3-1.4-0.7-1.8-1.2c-0.4-0.5-0.6-1-0.5-1.7c0.1-0.7,0.3-1,1-1.4c0.3-0.2,0.6-0.4,1-0.5l1-0.4
					c0.4-0.1,0.8-0.2,1.2-0.4c0.8-0.2,1.6-0.4,2.5-0.6c3.3-0.7,6.6-0.9,9.9-1.1c3.3-0.2,6.6-0.3,9.9-0.2l2.8,0.1
					c0,0,1.1,0.1,2.5,0.3c1.4,0.2,3.2,0.5,4.7,0.9c4.9,1.1,2.8,1.5-0.2,1.5c0.2,0-1.7,0-3.6,0c-1.9,0-3.8,0-3.8,0l-1.3,0l-2.3,0
					c-3.2,0-6.3,0.1-9.5,0.3c-3.2,0.2-6.3,0.5-9.3,1.2c-0.8,0.2-1.5,0.4-2.2,0.6l-0.5,0.1l0.4,0.1c0.3,0.1,0.7,0.2,1.1,0.3
					c0.7,0.2,1.5,0.3,2.3,0.5c0.8,0.2,1.5,0.3,2.3,0.4c1.5,0.2,3.1,0.4,4.7,0.6c3.1,0.3,6.3,0.5,9.4,0.5c3.2-0.1,6.3-0.2,9.4-0.6
					c1.5-0.2,3.1-0.4,4.5-0.8c0.7-0.2,1.4-0.4,2.1-0.7l0.5-0.2l0.2-0.1c0.1-0.1,0.3-0.2,0.5-0.3c0.2-0.1,0.3-0.2,0.5-0.3
					c0.2-0.1,0.4-0.3,0.5-0.4c0.3,0.1,0.6,0.2,0.8,0.2l1.7,0.4l0.1,0c0,0,0,0.1,0,0.1l0,0.3c0,0.7,0,1.5,0,2.2l-0.1,0.8l-0.1,0.6
					C371.8,845.5,371.7,846.3,371.6,847.1z"/>
			</g>
		</g>
	</g>
	<g>
		<g>
			<g>
				<path class="st0" d="M368.1,847.8c0,0,0.1,0,0.2,0c0.3,0,0.8,0,1.2,0.2c0.4,0.2,0.7,0.7,0.5,1.7c0,0-0.1,0.2-0.1,0.2
					c-1.4,1.2-3,1.9-4.6,2.3c-3.1,0.9-6.1,0.9-9,1.1c-3,0.1-5.9,0-8.9-0.2c-3-0.2-5.9-0.5-8.8-1c-1.5-0.2-2.9-0.5-4.4-0.8l-1.4-0.3
					c-0.5-0.1-0.9-0.2-1.4-0.4c0,0-0.3-0.1-0.7-0.3c-0.2-0.1-0.5-0.2-0.8-0.4c-0.2-0.1-0.3-0.2-0.5-0.3c-0.1-0.1-0.5-0.3-0.7-0.5
					l-0.2-0.1c-0.1,0-0.1-0.1-0.1-0.2c0-0.2-0.1-0.3-0.1-0.5c0-0.2-0.1-0.4-0.1-0.5l0-0.3c0-0.4-0.1-0.8-0.1-1.3
					c-0.1-0.9,0-1.7,0-2.5c0.2-2.6,0.7-3.3,1-3c0.2,0.3,0.3,1.6,0.6,3c0-0.2,0.2,1.6,0.7,3.3c0.1,0.3,0.1,0.2,0.1,0.3
					c0,0,0.1,0,0.1,0c0.3,0.2,0.7,0.3,1,0.4c0.6,0.2,1,0.3,1,0.3c0.4,0.1,0.8,0.2,1.2,0.3l1.6,0.3c1.4,0.3,2.8,0.5,4.2,0.8
					c2.8,0.4,5.6,0.7,8.4,0.9c2.8,0.2,5.7,0.2,8.5,0.1c2.8-0.1,5.7-0.2,8.2-0.9C365.9,849.2,367.2,848.6,368.1,847.8z"/>
			</g>
		</g>
	</g>
	<g>
		<g>
			<g>
				<path class="st0" d="M331.6,842.6c0.1-0.1,0.1-0.1,0.2-0.1c0.1,0,0.2,0,0.4,0c0.1,0,0.4,0,0.7,0.2c0.2,0.1,0.3,0.2,0.4,0.4
					c0.1,0.2,0,0.2,0,0.3c-0.1,0.2-0.2,0.2-0.3,0.2c-0.1,0-0.2,0-0.4,0l-0.2,0l0.1,0c0,0,0.1,0,0,0c0,0,0,0.1,0.1,0.2c0,0,0,0,0,0
					s0,0,0,0c0,0-0.1,0-0.1,0l0,0h0c-0.3,0,2.4,0.2,1.3,0.1v0l0,0l0,0l0,0l0,0c0,0.1,0,0.3,0,0.5c0,0.4-0.1,1,0,1.5
					c0,1.1,0.1,2.1,0.1,2.1s-0.2,0.7-0.5,1.3c-0.4,1-1.1,0.8-1.5,0.2c0,0-0.2-0.3-0.4-0.6c-0.2-0.3-0.3-0.7-0.3-0.7
					s-0.1-1.2-0.1-2.4c0-0.6,0-1.2,0.1-1.7c0-0.2,0-0.4,0-0.6c0-0.1,0-0.1,0-0.2c0.1-0.3,0.1-0.5,0.2-0.6
					C331.5,842.7,331.6,842.6,331.6,842.6z"/>
			</g>
		</g>
	</g>
	<g>
		<g>
			<g>
				<path class="st0" d="M336.4,845.2C336.4,845.2,336.4,845.2,336.4,845.2c0.4-0.2,1.4-0.4,2.6-0.2c0,0,0.1,0,0.1,0
					c0,0,0,0.3,0,0.7c0,0.4,0,0.9,0.1,1.4c0,1,0,2,0,2s-0.3,0.7-0.7,1.1c-0.6,0.8-1.2,0.4-1.5,0c-0.1,0-0.5-1.1-0.5-1.1s0-0.9,0-1.9
					c0-0.5-0.1-0.9-0.1-1.3C336.4,845.5,336.4,845.2,336.4,845.2z"/>
			</g>
		</g>
	</g>
	<g>
		<g>
			<g>
				<path class="st0" d="M342.6,845.3L342.6,845.3L342.6,845.3L342.6,845.3L342.6,845.3l1.3,0.1l0,0c0,0,0,0,0,0c0,0,0.1,0.1,0,0.1
					c-0.1,0,0,0,0-0.1l0.1-0.3l0,0l0,0l0,0l0,0l0,0.1l0,0.2c0,0.1,0,0.3-0.2,0.3c-0.1,0-0.3,0-0.4-0.3c-0.1-0.3-0.1-0.5,0-0.6
					c0-0.1,0-0.3,0.1-0.4c0.1-0.1,0.1-0.1,0.2-0.2c0,0,0.2-0.1,0.3-0.1c0,0,0.2,0,0.3,0c0.1,0,0.2,0,0.4,0.1c0.1,0,0.3,0.2,0.4,0.3
					c0.1,0.1,0.2,0.4,0.3,0.5c0,0.1,0,0.3,0.1,0.3c0,0,0,0,0,0c0,0,0,0.3,0,0.6c0,0.4,0,0.9,0,1.3c0,1,0,1.9,0,1.9s-0.3,0.6-0.6,1.1
					c-0.5,0.8-1.2,0.6-1.5,0.1c-0.1,0.1-0.6-1.1-0.6-1.1s-0.1-1,0-2c0-0.5,0-1,0-1.4C342.6,845.6,342.6,845.4,342.6,845.3z"/>
			</g>
		</g>
	</g>
	<g>
		<g>
			<g>
				<path class="st0" d="M348.5,845.5C348.5,845.5,348.5,845.5,348.5,845.5c0.5-0.1,1.5-0.2,2.7,0c0,0,0.1,0,0.1,0c0,0,0,3.6,0,3.6
					s-0.3,0.6-0.7,1c-0.6,0.7-1.2,0.4-1.5,0c-0.1,0-0.5-1-0.5-1S348.5,845.6,348.5,845.5z"/>
			</g>
		</g>
	</g>
	<g>
		<g>
			<g>
				<path class="st0" d="M354.7,845.5C354.7,845.5,354.7,845.4,354.7,845.5c0.5-0.1,1.5-0.2,2.7,0.1c0,0,0.1,0,0.1,0
					c0,0,0,0.2,0,0.5c0,0.3,0,0.7,0,1.1c0,0.8,0,1.6,0,1.6s-0.3,0.5-0.6,0.9c-0.5,0.7-1.2,0.5-1.5,0.1c-0.1,0.1-0.6-0.9-0.6-0.9
					s0-0.8,0-1.7c0-0.4,0-0.8,0-1.2C354.6,845.7,354.7,845.5,354.7,845.5z"/>
			</g>
		</g>
	</g>
	<g>
		<g>
			<g>
				<path class="st0" d="M360.5,845C360.5,845,360.5,845,360.5,845c0.5-0.1,1.4-0.3,2.6-0.2c0,0,0.1,0,0.1,0c0,0,0.2,3.5,0.2,3.5
					s-0.2,0.6-0.6,1c-0.5,0.7-1.2,0.5-1.5,0.1c-0.1,0-0.6-1-0.6-1S360.5,845.1,360.5,845z"/>
			</g>
		</g>
	</g>
</g>
<g>
	<g>
		<g>
			<g>
				<path class="st0" d="M359.6,832.9c0,0.1,0,0.1-0.1,0.2c-0.5,0.6-1.7,1.2-2.6-0.4c0,0-0.1-0.2-0.1-0.2c0.1-0.7,0.2-1.4,0.3-2.2
					l0.1-0.9l0,0v0l0,0l0,0l-0.4,0.2l-0.6,0.3c-0.8,0.4-1.7,0.6-2.5,0.9c-1.7,0.4-3.3,0.7-5,0.9c-3.3,0.4-6.6,0.5-9.9,0.6
					c-3.4,0-6.6-0.2-9.9-0.6c-1.6-0.2-3.3-0.4-4.9-0.7l-2.4-0.5c-0.8-0.2-1.6-0.3-2.5-0.5c-0.2-0.1-0.4-0.1-0.6-0.2l-0.3-0.1
					l-0.2-0.1l-0.3-0.1c-0.7-0.3-1.4-0.7-1.8-1.2c-0.4-0.5-0.6-1-0.5-1.7c0.1-0.7,0.3-1,1-1.4c0.3-0.2,0.6-0.4,1-0.5l1-0.4
					c0.4-0.1,0.8-0.2,1.2-0.4c0.8-0.2,1.6-0.4,2.5-0.6c3.3-0.7,6.6-0.9,9.9-1.1c3.3-0.2,6.6-0.3,9.9-0.2l2.8,0.1
					c0,0,1.1,0.1,2.5,0.3c1.4,0.2,3.2,0.5,4.7,0.9c4.9,1.1,2.8,1.5-0.2,1.5c0.2,0-1.7,0-3.6,0c-1.9,0-3.8,0-3.8,0l-1.3,0l-2.3,0
					c-3.2,0-6.3,0.1-9.5,0.3c-3.2,0.2-6.3,0.5-9.3,1.2c-0.8,0.2-1.5,0.4-2.2,0.6l-0.5,0.1l0.4,0.1c0.3,0.1,0.7,0.2,1.1,0.3
					c0.7,0.2,1.5,0.3,2.3,0.5c0.8,0.2,1.5,0.3,2.3,0.4c1.5,0.2,3.1,0.4,4.7,0.6c3.1,0.3,6.3,0.5,9.4,0.5c3.2-0.1,6.3-0.2,9.4-0.6
					c1.5-0.2,3.1-0.4,4.5-0.8c0.7-0.2,1.4-0.4,2.1-0.7l0.5-0.2l0.2-0.1c0.1-0.1,0.3-0.2,0.5-0.3c0.2-0.1,0.3-0.2,0.5-0.3
					c0.2-0.1,0.4-0.3,0.5-0.4c0.3,0.1,0.6,0.2,0.8,0.2l1.7,0.4l0.1,0c0,0,0,0.1,0,0.1l0,0.3c0,0.7,0,1.5,0,2.2l-0.1,0.8l-0.1,0.6
					C359.9,831.3,359.8,832.1,359.6,832.9z"/>
			</g>
		</g>
	</g>
	<g>
		<g>
			<g>
				<path class="st0" d="M356.2,833.6c0,0,0.1,0,0.2,0c0.3,0,0.8,0,1.2,0.2c0.4,0.2,0.7,0.7,0.5,1.7c0,0-0.1,0.2-0.1,0.2
					c-1.4,1.2-3,1.9-4.6,2.3c-3.1,0.9-6.1,0.9-9,1.1c-3,0.1-5.9,0-8.9-0.2c-3-0.2-5.9-0.5-8.8-1c-1.5-0.2-2.9-0.5-4.4-0.8l-1.4-0.3
					c-0.5-0.1-0.9-0.2-1.4-0.4c0,0-0.3-0.1-0.7-0.3c-0.2-0.1-0.5-0.2-0.8-0.4c-0.2-0.1-0.3-0.2-0.5-0.3c-0.1-0.1-0.5-0.3-0.7-0.5
					l-0.2-0.1c-0.1,0-0.1-0.1-0.1-0.2c0-0.2-0.1-0.3-0.1-0.5c0-0.2-0.1-0.4-0.1-0.5l0-0.3c0-0.4-0.1-0.8-0.1-1.3
					c-0.1-0.9,0-1.7,0-2.5c0.2-2.6,0.7-3.3,1-3c0.2,0.3,0.3,1.5,0.6,3c0-0.2,0.2,1.6,0.7,3.3c0.1,0.3,0.1,0.2,0.1,0.3
					c0,0,0.1,0,0.1,0c0.3,0.2,0.7,0.3,1,0.4c0.6,0.2,1,0.3,1,0.3c0.4,0.1,0.8,0.2,1.2,0.3l1.6,0.3c1.4,0.3,2.8,0.5,4.2,0.8
					c2.8,0.4,5.6,0.7,8.4,0.9c2.8,0.2,5.7,0.2,8.5,0.1c2.8-0.1,5.7-0.2,8.2-0.9C354,835,355.2,834.4,356.2,833.6z"/>
			</g>
		</g>
	</g>
	<g>
		<g>
			<g>
				<path class="st0" d="M319.7,828.3c0.1-0.1,0.1-0.1,0.2-0.1c0.1,0,0.2,0,0.4,0c0.1,0,0.4,0,0.7,0.2c0.2,0.1,0.3,0.2,0.4,0.4
					c0.1,0.2,0,0.2,0,0.3c-0.1,0.2-0.2,0.2-0.3,0.2c-0.1,0-0.2,0-0.4,0l-0.2,0l0.1,0c0,0,0.1,0,0,0c0,0,0,0.1,0.1,0.2c0,0,0,0,0,0
					s0,0,0,0c0,0-0.1,0-0.1,0l0,0h0c-0.3,0,2.4,0.2,1.3,0.1v0l0,0l0,0l0,0l0,0c0,0.1,0,0.3,0,0.5c0,0.4-0.1,1,0,1.5
					c0,1.1,0.1,2.1,0.1,2.1s-0.2,0.7-0.5,1.3c-0.4,1-1.1,0.8-1.5,0.2c0,0-0.2-0.3-0.4-0.6c-0.2-0.3-0.3-0.7-0.3-0.7
					s-0.1-1.2-0.1-2.4c0-0.6,0-1.2,0.1-1.7c0-0.2,0-0.4,0-0.6c0-0.1,0-0.1,0-0.2c0.1-0.3,0.1-0.5,0.2-0.6
					C319.6,828.4,319.7,828.4,319.7,828.3z"/>
			</g>
		</g>
	</g>
	<g>
		<g>
			<g>
				<path class="st0" d="M324.4,831C324.4,830.9,324.4,830.9,324.4,831c0.4-0.2,1.4-0.4,2.6-0.2c0,0,0.1,0,0.1,0c0,0,0,0.3,0,0.7
					c0,0.4,0,0.9,0.1,1.4c0,1,0,2,0,2s-0.3,0.7-0.7,1.1c-0.6,0.8-1.2,0.4-1.5,0c-0.1,0-0.5-1.1-0.5-1.1s0-0.9,0-1.9
					c0-0.5-0.1-0.9-0.1-1.3C324.4,831.2,324.4,831,324.4,831z"/>
			</g>
		</g>
	</g>
	<g>
		<g>
			<g>
				<path class="st0" d="M330.7,831.1L330.7,831.1L330.7,831.1L330.7,831.1L330.7,831.1l1.3,0.1l0,0c0,0,0,0,0,0c0,0,0.1,0.1,0,0.1
					c-0.1,0,0,0,0-0.1l0.1-0.3l0,0l0,0l0,0l0,0l0,0.1l0,0.2c0,0.1,0,0.3-0.2,0.3c-0.1,0-0.3,0-0.4-0.3c-0.1-0.3-0.1-0.5,0-0.6
					c0-0.1,0.1-0.3,0.1-0.4c0.1-0.1,0.1-0.1,0.2-0.2c0,0,0.2-0.1,0.3-0.1c0,0,0.2,0,0.3,0c0.1,0,0.2,0,0.4,0.1
					c0.1,0,0.3,0.2,0.4,0.3c0.1,0.1,0.2,0.4,0.3,0.5c0,0.1,0,0.3,0.1,0.3c0,0,0,0,0,0c0,0,0,0.3,0,0.6c0,0.4,0,0.9,0,1.3
					c0,1,0,1.9,0,1.9s-0.3,0.6-0.6,1.1c-0.5,0.8-1.2,0.6-1.5,0.1c-0.1,0.1-0.6-1.1-0.6-1.1s-0.1-1,0-2c0-0.5,0-1,0-1.4
					C330.6,831.4,330.7,831.1,330.7,831.1z"/>
			</g>
		</g>
	</g>
	<g>
		<g>
			<g>
				<path class="st0" d="M336.5,831.3C336.5,831.3,336.5,831.3,336.5,831.3c0.5-0.1,1.5-0.2,2.7,0c0,0,0.1,0,0.1,0c0,0,0,3.6,0,3.6
					s-0.3,0.6-0.7,1c-0.6,0.7-1.2,0.4-1.5,0c-0.1,0-0.5-1-0.5-1S336.5,831.3,336.5,831.3z"/>
			</g>
		</g>
	</g>
	<g>
		<g>
			<g>
				<path class="st0" d="M342.7,831.2C342.7,831.2,342.7,831.2,342.7,831.2c0.5-0.1,1.5-0.2,2.7,0.1c0,0,0.1,0,0.1,0
					c0,0,0,0.2,0,0.5c0,0.3,0,0.7,0,1.1c0,0.8,0,1.6,0,1.6s-0.3,0.5-0.6,0.9c-0.5,0.7-1.2,0.5-1.5,0.1c-0.1,0.1-0.6-0.9-0.6-0.9
					s0-0.8,0-1.7c0-0.4,0-0.8,0-1.2C342.7,831.4,342.7,831.2,342.7,831.2z"/>
			</g>
		</g>
	</g>
	<g>
		<g>
			<g>
				<path class="st0" d="M348.6,830.8C348.6,830.8,348.6,830.8,348.6,830.8c0.5-0.1,1.4-0.3,2.6-0.2c0,0,0.1,0,0.1,0
					c0,0,0.2,3.5,0.2,3.5s-0.2,0.6-0.6,1c-0.5,0.7-1.2,0.5-1.5,0.1c-0.1,0-0.6-1-0.6-1S348.6,830.8,348.6,830.8z"/>
			</g>
		</g>
	</g>
</g>
<g>
	<g>
		<g>
			<g>
				<path class="st0" d="M332.9,845.9c0,0.1,0,0.1-0.1,0.2c-0.5,0.6-1.7,1.2-2.6-0.4c0,0-0.1-0.2-0.1-0.2c0.1-0.7,0.2-1.4,0.3-2.2
					l0.1-0.9l0,0v0l0,0l0,0l-0.4,0.2l-0.6,0.3c-0.8,0.4-1.7,0.6-2.5,0.9c-1.7,0.4-3.3,0.7-5,0.9c-3.3,0.4-6.6,0.5-9.9,0.6
					c-3.4,0-6.6-0.2-9.9-0.6c-1.6-0.2-3.3-0.4-4.9-0.7l-2.4-0.5c-0.8-0.2-1.6-0.3-2.5-0.5c-0.2-0.1-0.4-0.1-0.6-0.2l-0.3-0.1
					l-0.2-0.1l-0.3-0.1c-0.7-0.3-1.4-0.7-1.8-1.2c-0.4-0.5-0.6-1-0.5-1.7c0.1-0.7,0.3-1,1-1.4c0.3-0.2,0.6-0.4,1-0.5l1-0.4
					c0.4-0.1,0.8-0.2,1.2-0.4c0.8-0.2,1.6-0.4,2.5-0.6c3.3-0.7,6.6-0.9,9.9-1.1c3.3-0.2,6.6-0.3,9.9-0.2l2.8,0.1
					c0,0,1.1,0.1,2.5,0.3c1.4,0.2,3.2,0.5,4.7,0.9c4.9,1.1,2.8,1.5-0.2,1.5c0.2,0-1.7,0-3.6,0c-1.9,0-3.8,0-3.8,0l-1.3,0l-2.3,0
					c-3.2,0-6.3,0.1-9.5,0.3c-3.2,0.2-6.3,0.5-9.3,1.2c-0.8,0.2-1.5,0.4-2.2,0.6l-0.5,0.1l0.4,0.1c0.3,0.1,0.7,0.2,1.1,0.3
					c0.7,0.2,1.5,0.3,2.3,0.5c0.8,0.2,1.5,0.3,2.3,0.4c1.5,0.2,3.1,0.4,4.7,0.6c3.1,0.3,6.3,0.5,9.4,0.5c3.2-0.1,6.3-0.2,9.4-0.6
					c1.5-0.2,3.1-0.4,4.5-0.8c0.7-0.2,1.4-0.4,2.1-0.7l0.5-0.2l0.2-0.1c0.1-0.1,0.3-0.2,0.5-0.3c0.2-0.1,0.3-0.2,0.5-0.3
					c0.2-0.1,0.4-0.3,0.5-0.4c0.3,0.1,0.6,0.2,0.8,0.2l1.7,0.4l0.1,0c0,0,0,0.1,0,0.1l0,0.3c0,0.7,0,1.5,0,2.2l0,0.8l-0.1,0.6
					C333.1,844.3,333,845.1,332.9,845.9z"/>
			</g>
		</g>
	</g>
	<g>
		<g>
			<g>
				<path class="st0" d="M329.4,846.6c0,0,0.1,0,0.2,0c0.3,0,0.8,0,1.2,0.2c0.4,0.2,0.7,0.7,0.5,1.7c0,0-0.1,0.2-0.1,0.2
					c-1.4,1.2-3,1.9-4.6,2.3c-3.1,0.9-6.1,0.9-9,1.1c-3,0.1-5.9,0-8.9-0.2c-3-0.2-5.9-0.5-8.8-1c-1.5-0.2-2.9-0.5-4.4-0.8l-1.4-0.3
					c-0.5-0.1-0.9-0.2-1.4-0.4c0,0-0.3-0.1-0.7-0.3c-0.2-0.1-0.5-0.2-0.8-0.4c-0.2-0.1-0.3-0.2-0.5-0.3c-0.1-0.1-0.5-0.3-0.7-0.5
					l-0.2-0.1c-0.1,0-0.1-0.1-0.1-0.2c0-0.2-0.1-0.3-0.1-0.5c0-0.2-0.1-0.4-0.1-0.5l0-0.3c0-0.4-0.1-0.8-0.1-1.3
					c-0.1-0.9,0-1.7,0-2.5c0.2-2.6,0.7-3.3,1-3c0.2,0.3,0.3,1.6,0.6,3c0-0.2,0.2,1.6,0.7,3.3c0.1,0.3,0.1,0.2,0.1,0.3
					c0,0,0.1,0,0.1,0c0.3,0.2,0.7,0.3,1,0.4c0.6,0.2,1,0.3,1,0.3c0.4,0.1,0.8,0.2,1.2,0.3l1.6,0.3c1.4,0.3,2.8,0.5,4.2,0.8
					c2.8,0.4,5.6,0.7,8.4,0.9c2.8,0.2,5.7,0.2,8.5,0.1c2.8-0.1,5.7-0.2,8.2-0.9C327.2,848,328.5,847.4,329.4,846.6z"/>
			</g>
		</g>
	</g>
	<g>
		<g>
			<g>
				<path class="st0" d="M292.9,841.4c0.1-0.1,0.1-0.1,0.2-0.1c0.1,0,0.2,0,0.4,0c0.1,0,0.4,0,0.7,0.2c0.2,0.1,0.3,0.2,0.4,0.4
					c0.1,0.2,0,0.2,0,0.3c-0.1,0.2-0.2,0.2-0.3,0.2c-0.1,0-0.2,0-0.4,0l-0.2,0l0.1,0c0,0,0.1,0,0,0c0,0,0,0.1,0.1,0.2c0,0,0,0,0,0
					s0,0,0,0c0,0-0.1,0-0.1,0l0,0h0c-0.3,0,2.4,0.2,1.3,0.1v0v0l0,0l0,0l0,0c0,0.1,0,0.3,0,0.5c0,0.4-0.1,1,0,1.5
					c0,1.1,0.1,2.1,0.1,2.1s-0.2,0.7-0.5,1.3c-0.4,1-1.1,0.8-1.5,0.2c0,0-0.2-0.3-0.4-0.6c-0.2-0.3-0.3-0.7-0.3-0.7
					s-0.1-1.2-0.1-2.4c0-0.6,0-1.2,0.1-1.7c0-0.2,0-0.4,0-0.6c0-0.1,0-0.1,0-0.2c0.1-0.3,0.1-0.5,0.2-0.6
					C292.8,841.5,292.9,841.4,292.9,841.4z"/>
			</g>
		</g>
	</g>
	<g>
		<g>
			<g>
				<path class="st0" d="M297.7,844C297.7,844,297.7,844,297.7,844c0.4-0.2,1.4-0.4,2.6-0.2c0,0,0.1,0,0.1,0c0,0,0,0.3,0,0.7
					c0,0.4,0,0.9,0.1,1.4c0,1,0,2,0,2s-0.3,0.7-0.7,1.1c-0.6,0.8-1.2,0.4-1.5,0c-0.1,0-0.5-1.1-0.5-1.1s0-0.9,0-1.9
					c0-0.5-0.1-0.9-0.1-1.3C297.7,844.2,297.7,844,297.7,844z"/>
			</g>
		</g>
	</g>
	<g>
		<g>
			<g>
				<path class="st0" d="M303.9,844.1L303.9,844.1L303.9,844.1L303.9,844.1L303.9,844.1l1.3,0.1l0,0c0,0,0,0,0,0c0,0,0.1,0.1,0,0.1
					c-0.1,0,0,0,0-0.1l0.1-0.3l0,0l0,0l0,0l0,0l0,0.1l0,0.2c0,0.1,0,0.3-0.2,0.3c-0.1,0-0.3,0-0.4-0.3c-0.1-0.3-0.1-0.5-0.1-0.6
					c0-0.1,0.1-0.3,0.1-0.4c0.1-0.1,0.1-0.1,0.2-0.2c0,0,0.2-0.1,0.3-0.1c0,0,0.2,0,0.3,0c0.1,0,0.2,0,0.4,0.1
					c0.1,0,0.3,0.2,0.4,0.3c0.1,0.1,0.2,0.4,0.3,0.5c0,0.1,0,0.3,0.1,0.3c0,0,0,0,0,0c0,0,0,0.3,0,0.6c0,0.4,0,0.9,0,1.3
					c0,1,0,1.9,0,1.9s-0.3,0.6-0.6,1.1c-0.5,0.8-1.2,0.6-1.5,0.1c-0.1,0.1-0.6-1.1-0.6-1.1s-0.1-1,0-2c0-0.5,0-1,0-1.4
					C303.9,844.4,303.9,844.1,303.9,844.1z"/>
			</g>
		</g>
	</g>
	<g>
		<g>
			<g>
				<path class="st0" d="M309.8,844.3C309.8,844.3,309.8,844.3,309.8,844.3c0.5-0.1,1.5-0.2,2.7,0c0,0,0.1,0,0.1,0c0,0,0,3.6,0,3.6
					s-0.3,0.6-0.7,1c-0.6,0.7-1.2,0.4-1.5,0c-0.1,0-0.5-1-0.5-1S309.8,844.4,309.8,844.3z"/>
			</g>
		</g>
	</g>
	<g>
		<g>
			<g>
				<path class="st0" d="M316,844.2C316,844.2,316,844.2,316,844.2c0.5-0.1,1.5-0.2,2.7,0.1c0,0,0.1,0,0.1,0c0,0,0,0.2,0,0.5
					c0,0.3,0,0.7,0,1.1c0,0.8,0,1.6,0,1.6s-0.3,0.5-0.6,0.9c-0.5,0.7-1.2,0.5-1.5,0.1c-0.1,0.1-0.6-0.9-0.6-0.9s0-0.8,0-1.7
					c0-0.4,0-0.8,0-1.2C315.9,844.5,316,844.3,316,844.2z"/>
			</g>
		</g>
	</g>
	<g>
		<g>
			<g>
				<path class="st0" d="M321.8,843.8C321.8,843.8,321.8,843.8,321.8,843.8c0.5-0.1,1.4-0.3,2.6-0.2c0,0,0.1,0,0.1,0
					c0,0,0.2,3.5,0.2,3.5s-0.2,0.6-0.6,1c-0.5,0.7-1.2,0.5-1.5,0.1c-0.1,0-0.6-1-0.6-1S321.8,843.9,321.8,843.8z"/>
			</g>
		</g>
	</g>
</g>
<g>
	<g>
		<g>
			<g>
				<path class="st0" d="M573.6,849.1c0,0.1,0,0.1-0.1,0.2c-0.5,0.6-1.7,1.2-2.6-0.4c0,0-0.1-0.2-0.1-0.2c0.1-0.7,0.2-1.4,0.3-2.2
					l0.1-0.9l0,0v0l0,0l0,0l-0.4,0.2l-0.6,0.3c-0.8,0.4-1.7,0.6-2.5,0.9c-1.7,0.4-3.3,0.7-5,0.9c-3.3,0.4-6.6,0.5-9.9,0.6
					c-3.4,0-6.6-0.2-9.9-0.6c-1.6-0.2-3.3-0.4-4.9-0.7l-2.4-0.5c-0.8-0.2-1.6-0.3-2.5-0.5c-0.2-0.1-0.4-0.1-0.6-0.2l-0.3-0.1
					l-0.2-0.1l-0.3-0.1c-0.7-0.3-1.4-0.7-1.8-1.2c-0.4-0.5-0.6-1-0.5-1.7c0.1-0.7,0.3-1,1-1.4c0.3-0.2,0.6-0.4,1-0.5l1-0.4
					c0.4-0.1,0.8-0.2,1.2-0.4c0.8-0.2,1.6-0.4,2.5-0.6c3.3-0.7,6.6-0.9,9.9-1.1c3.3-0.2,6.6-0.3,9.8-0.2l2.8,0.1
					c0,0,1.1,0.1,2.5,0.3c1.4,0.2,3.2,0.5,4.7,0.9c4.9,1.1,2.8,1.5-0.2,1.5c0.2,0-1.7,0-3.6,0c-1.9,0-3.8,0-3.8,0l-1.3,0l-2.3,0
					c-3.2,0-6.3,0.1-9.5,0.3c-3.2,0.2-6.3,0.5-9.3,1.2c-0.8,0.2-1.5,0.4-2.2,0.6l-0.5,0.1l0.4,0.1c0.3,0.1,0.7,0.2,1.1,0.3
					c0.7,0.2,1.5,0.3,2.3,0.5c0.8,0.2,1.5,0.3,2.3,0.4c1.5,0.2,3.1,0.4,4.7,0.6c3.1,0.3,6.3,0.5,9.4,0.5c3.2-0.1,6.3-0.2,9.4-0.6
					c1.5-0.2,3.1-0.4,4.5-0.8c0.7-0.2,1.4-0.4,2.1-0.7l0.5-0.2l0.2-0.1c0.1-0.1,0.3-0.2,0.5-0.3c0.2-0.1,0.3-0.2,0.5-0.3
					c0.2-0.1,0.4-0.3,0.5-0.4c0.3,0.1,0.6,0.2,0.8,0.2l1.7,0.4l0.1,0c0,0,0,0.1,0,0.1l0,0.3c0,0.7,0,1.5,0,2.2l-0.1,0.8l-0.1,0.6
					C573.8,847.5,573.7,848.3,573.6,849.1z"/>
			</g>
		</g>
	</g>
	<g>
		<g>
			<g>
				<path class="st0" d="M570.1,849.7c0,0,0.1,0,0.2,0c0.3,0,0.8,0,1.2,0.2c0.4,0.2,0.7,0.7,0.5,1.7c0,0-0.1,0.2-0.1,0.2
					c-1.4,1.2-3,1.9-4.6,2.3c-3.1,0.9-6.1,0.9-9,1.1c-3,0.1-5.9,0-8.9-0.2c-3-0.2-5.9-0.5-8.8-1c-1.5-0.2-2.9-0.5-4.4-0.8l-1.4-0.3
					c-0.5-0.1-0.9-0.2-1.4-0.4c0,0-0.3-0.1-0.7-0.3c-0.2-0.1-0.5-0.2-0.8-0.4c-0.2-0.1-0.3-0.2-0.5-0.3c-0.1-0.1-0.5-0.3-0.7-0.5
					l-0.2-0.1c-0.1,0-0.1-0.1-0.1-0.2c0-0.2-0.1-0.3-0.1-0.5c0-0.2-0.1-0.4-0.1-0.5l0-0.3c0-0.4-0.1-0.8-0.1-1.3
					c-0.1-0.9,0-1.7,0-2.5c0.2-2.6,0.7-3.3,1-3c0.2,0.3,0.3,1.5,0.6,3c0-0.2,0.2,1.6,0.7,3.3c0.1,0.3,0.1,0.2,0.1,0.3
					c0,0,0.1,0,0.1,0c0.3,0.2,0.7,0.3,1,0.4c0.6,0.2,1,0.3,1,0.3c0.4,0.1,0.8,0.2,1.2,0.3l1.6,0.3c1.4,0.3,2.8,0.5,4.2,0.8
					c2.8,0.4,5.6,0.7,8.4,0.9c2.8,0.2,5.7,0.2,8.5,0.1c2.8-0.1,5.7-0.2,8.2-0.9C567.9,851.1,569.2,850.6,570.1,849.7z"/>
			</g>
		</g>
	</g>
	<g>
		<g>
			<g>
				<path class="st0" d="M533.6,844.5c0.1-0.1,0.1-0.1,0.2-0.1c0.1,0,0.2,0,0.4,0c0.1,0,0.4,0,0.7,0.2c0.2,0.1,0.3,0.2,0.4,0.4
					c0.1,0.2,0,0.2,0,0.3c-0.1,0.2-0.2,0.2-0.3,0.2c-0.1,0-0.2,0-0.4,0l-0.2,0l0.1,0c0,0,0.1,0,0,0c0,0,0,0.1,0.1,0.2c0,0,0,0,0,0
					s0,0,0,0c0,0-0.1,0-0.1,0l0,0h0c-0.3,0,2.4,0.2,1.3,0.1v0v0l0,0l0,0l0,0c0,0.1,0,0.3,0,0.5c0,0.4-0.1,1,0,1.5
					c0,1.1,0.1,2.1,0.1,2.1s-0.2,0.7-0.5,1.3c-0.4,1-1.1,0.8-1.5,0.2c0,0-0.2-0.3-0.4-0.6c-0.2-0.3-0.3-0.7-0.3-0.7
					s-0.1-1.2-0.1-2.4c0-0.6,0-1.2,0.1-1.7c0-0.2,0-0.4,0-0.6c0-0.1,0-0.1,0-0.2c0.1-0.3,0.1-0.5,0.2-0.6
					C533.5,844.6,533.6,844.5,533.6,844.5z"/>
			</g>
		</g>
	</g>
	<g>
		<g>
			<g>
				<path class="st0" d="M538.3,847.1C538.3,847.1,538.3,847.1,538.3,847.1c0.4-0.2,1.4-0.4,2.6-0.2c0,0,0.1,0,0.1,0
					c0,0,0,0.3,0,0.7c0,0.4,0,0.9,0.1,1.4c0,1,0,2,0,2s-0.3,0.7-0.7,1.1c-0.6,0.8-1.2,0.4-1.5,0c-0.1,0-0.5-1.1-0.5-1.1s0-0.9,0-1.9
					c0-0.5-0.1-0.9-0.1-1.3C538.4,847.4,538.4,847.1,538.3,847.1z"/>
			</g>
		</g>
	</g>
	<g>
		<g>
			<g>
				<path class="st0" d="M544.6,847.3L544.6,847.3L544.6,847.3L544.6,847.3L544.6,847.3l1.3,0.1l0,0c0,0,0,0,0,0c0,0,0.1,0.1,0,0.1
					c-0.1,0,0,0,0-0.1l0.1-0.3l0,0l0,0l0,0l0,0l0,0.1l0,0.2c0,0.1,0,0.3-0.2,0.3c-0.1,0-0.3,0-0.4-0.3c-0.1-0.3-0.1-0.5-0.1-0.6
					c0-0.1,0.1-0.3,0.1-0.4c0.1-0.1,0.1-0.1,0.2-0.2c0,0,0.2-0.1,0.3-0.1c0,0,0.2,0,0.3,0c0.1,0,0.2,0,0.4,0.1
					c0.1,0,0.3,0.2,0.4,0.3c0.1,0.1,0.2,0.4,0.3,0.5c0,0.1,0,0.3,0.1,0.3c0,0,0,0,0,0c0,0,0,0.3,0,0.6c0,0.4,0,0.9,0,1.3
					c0,1,0,1.9,0,1.9s-0.3,0.6-0.6,1.1c-0.5,0.8-1.2,0.6-1.5,0.1c-0.1,0.1-0.6-1.1-0.6-1.1s-0.1-1,0-2c0-0.5,0-1,0-1.4
					C544.6,847.6,544.6,847.3,544.6,847.3z"/>
			</g>
		</g>
	</g>
	<g>
		<g>
			<g>
				<path class="st0" d="M550.5,847.5C550.5,847.4,550.5,847.4,550.5,847.5c0.5-0.1,1.5-0.2,2.7,0c0,0,0.1,0,0.1,0c0,0,0,3.6,0,3.6
					s-0.3,0.6-0.7,1c-0.6,0.7-1.2,0.4-1.5,0c-0.1,0-0.5-1-0.5-1S550.5,847.5,550.5,847.5z"/>
			</g>
		</g>
	</g>
	<g>
		<g>
			<g>
				<path class="st0" d="M556.7,847.4C556.7,847.4,556.7,847.4,556.7,847.4c0.5-0.1,1.5-0.2,2.7,0.1c0,0,0.1,0,0.1,0
					c0,0,0,0.2,0,0.5c0,0.3,0,0.7,0,1.1c0,0.8,0,1.6,0,1.6s-0.3,0.5-0.6,0.9c-0.5,0.7-1.2,0.5-1.5,0.1c-0.1,0.1-0.6-0.9-0.6-0.9
					s0-0.8,0-1.7c0-0.4,0-0.8,0-1.2C556.6,847.6,556.7,847.4,556.7,847.4z"/>
			</g>
		</g>
	</g>
	<g>
		<g>
			<g>
				<path class="st0" d="M562.5,846.9C562.5,846.9,562.5,846.9,562.5,846.9c0.5-0.1,1.4-0.3,2.6-0.2c0,0,0.1,0,0.1,0
					c0,0,0.2,3.5,0.2,3.5s-0.2,0.6-0.6,1c-0.5,0.7-1.2,0.5-1.5,0.1c-0.1,0-0.6-1-0.6-1S562.5,847,562.5,846.9z"/>
			</g>
		</g>
	</g>
</g>
<g>
	<g>
		<g>
			<path class="st0" d="M1053.4,617.5c0,0.1,0,0.1-0.2,0.2c-0.5,0.3-1.3,0.5-2.3,0.4c-1-0.1-2.2-0.5-3.5-1c0,0-0.2-0.1-0.2-0.1
				c0,0,0.1-0.6-0.2-1.9c-0.2-0.6-0.5-1.4-0.9-2.3c-0.4-0.9-1-1.9-1.5-2.9c-2.2-4-4.6-7.9-4.6-7.9s-1-2.8-1.4-5.1
				c-0.9-3.7,1-3.3,2.9-1.8c0-0.1,1,0.8,2,1.8c1,1,1.9,2.1,1.9,2.1s2.5,4,4.7,8.1c0.6,1,1.1,2,1.6,3.1c0.5,1.1,1,2.2,1.3,3.3
				c0.3,1.1,0.5,2.1,0.5,2.8C1053.5,617,1053.4,617.5,1053.4,617.5z"/>
		</g>
	</g>
</g>
<g>
	<g>
		<g>
			<path class="st0" d="M983.8,652.8c0,0,0,0-0.1,0.1c-0.3,0.3-0.8,1-1.2,1.8c-0.3,0.4-0.6,0.9-1,1.3c-0.5,0.5-1.1,0.9-1.9,1
				c-0.1,0-0.3,0-0.4-0.1c-0.1-0.1-0.6-0.7-0.9-1.4c-0.4-0.7-0.7-1.5-1-2.5c-0.6-1.7-1.3-4-1.9-6.3c-1.3-4.6-2.4-9.2-2.4-9.2
				s-0.1-3.2,0.4-5.5c0.6-3.8,2.2-2.6,3.4-0.6c0-0.1,0.6,1.1,1.2,2.4c0.6,1.3,1.1,2.5,1.1,2.5s1,4.4,2.3,8.8c0.6,2.2,1.3,4.4,1.8,6
				c0.2,0.8,0.5,1.3,0.6,1.5C983.9,653,983.8,652.8,983.8,652.8z"/>
		</g>
	</g>
</g>
<g>
	<g>
		<g>
			<path class="st0" d="M923.9,651.7c0,0,0,0-0.1,0.1c-0.3,0.2-0.7,0.7-1.2,1.3c-0.5,0.5-1.3,1.5-2.6,1.6c-0.1,0-0.2,0-0.3-0.1
				c0,0-0.1-0.1-0.2-0.3c-0.1-0.2-0.3-0.5-0.4-0.9c-0.2-0.7-0.4-1.4-0.4-2.2c-0.1-1.4-0.2-3-0.3-4.8c-0.1-3.4,0-6.9,0-6.9
				s0.6-2.2,1.5-3.7c1.3-2.5,2.4-1.3,2.9,0.3c0.1-0.1,0.2,0.9,0.4,1.8c0.2,1,0.4,1.9,0.4,1.9s-0.1,3.2,0,6.4
				c0.1,1.6,0.2,3.2,0.3,4.4C923.9,651.4,923.9,651.7,923.9,651.7C924,651.8,923.9,651.7,923.9,651.7L923.9,651.7z"/>
		</g>
	</g>
</g>
<g>
	<g>
		<g>
			<path class="st0" d="M1074,587.2c0,0,0,0-0.1,0.2c-0.6,0.8-2.3,2.3-5,3c0,0-0.2,0-0.3,0c0,0-0.4-0.8-1.2-1.8
				c-0.7-1-1.7-2.4-2.9-3.6c-1.1-1.2-2.4-2.3-3.4-3.1c-1-0.8-1.7-1.2-1.7-1.2s-0.3-0.4-0.8-1.1c-0.5-0.6-1.1-1.4-1.6-2.2
				c-1.8-2.4-0.4-3.2,1.6-3c-0.1-0.1,1.1,0.1,2.2,0.5c0.6,0.2,1.1,0.4,1.5,0.5c0.4,0.2,0.7,0.3,0.7,0.3s0.8,0.5,2,1.5
				c1.2,0.9,2.6,2.2,4,3.6c1.3,1.4,2.6,3,3.4,4.2C1073.5,586.3,1074,587.2,1074,587.2z"/>
		</g>
	</g>
</g>
<g>
	<g>
		<g>
			<path class="st0" d="M535,470.9c0.1-0.1,0.2-0.1,0.4-0.2c0.8-0.1,2-0.1,2.8,0.5c0.8,0.6,1.4,1.8,1,3.8c0,0.1-0.1,0.4-0.2,0.5
				c-2.5,2.2-5,4.5-7.4,6.9c-5.6,5.5-11,11.3-16,17.3c-5.1,6-9.9,12.2-14.3,18.8l-1.6,2.3l-1.5,2.4c0,0-1.4,1.9-3.3,4.4
				c-0.9,1.3-2,2.7-3.1,4.2c-1.1,1.5-2.2,2.9-3.2,4.3c-6.4,9.2-5.6,4.7-2.9-1.9c-0.1,0.1,0.2-0.8,0.9-2.2c0.7-1.4,1.7-3.3,2.6-5.2
				c1-1.9,2-3.8,2.8-5.3c0.8-1.4,1.3-2.4,1.3-2.4l1.4-2.1l1.4-2.1c4.5-6.7,9.5-13.1,14.7-19.2c5.2-6.2,10.7-12.1,16.5-17.7
				C529.8,475.5,532.3,473.2,535,470.9z"/>
		</g>
	</g>
</g>
<path d="M529,482.2c-7.5,18.5-19.5,34.8-34.7,47.7c-1.9,0.7-3.6,1.5-5.3,2.6c-0.3,0.2-0.5,0.5-0.7,0.8c-0.4,0.2-0.8,0.5-1.2,0.7
	c-0.8,0.6-1.2,1.6-0.8,2.5c-0.1,0.1-0.2,0.2-0.3,0.4c-0.1,0.2-0.2,0.4-0.3,0.5c-1,1.6,1.1,3.9,2.7,2.7c2.5-1.7,4.7-3.8,7.1-5.7
	c0,0,0,0,0,0c0.5-0.1,0.9-0.4,1.1-0.8c0.7-0.5,1.5-1,2.3-1.4c0.9-0.5,1.1-1.3,0.9-2.1c14.5-13,25.7-29,33-47
	C533.8,480.9,530,479.9,529,482.2z"/>
<g>
	<g>
		<g>
			<path class="st3" d="M763.9,291.8c0.2,0,0.2,0,0.4,0.2c1.3,1.1,2.6,3.7-1,5.7c-0.1,0-0.4,0.2-0.5,0.2c-0.8-0.1-1.6-0.3-2.4-0.4
				l-2.5-0.3c-1.6-0.3-3.3-0.3-4.9-0.5c-9.4-0.6-18.9,0.4-27.9,3.2c-1.8,0.5-3.5,1.1-5.2,1.8c0,0-0.1,0-0.4,0.1
				c-0.3,0.1-0.6,0.2-1.1,0.3c-0.9,0.3-2.2,0.7-3.6,1.2c-2.9,1.1-6.5,2.6-9.5,4c-2.5,1.2-4.1,2.1-5.2,2.4c-1,0.4-1.5,0.3-1.4-0.1
				c0-0.4,0.6-1.2,1.4-2.1c0.4-0.5,0.9-1,1.5-1.6c0.6-0.5,1.2-1.1,1.9-1.6c-0.2,0.1,0.6-0.6,1.9-1.5c1.3-0.9,3.1-2.2,5-3.2
				c3.8-2.3,8-4.1,8-4.1l2.4-0.9c0.8-0.3,1.6-0.5,2.5-0.8c9.7-3,19.9-4.1,30-3.5c1.8,0.2,3.6,0.2,5.3,0.5l2.7,0.3
				C762.1,291.5,763,291.7,763.9,291.8z"/>
		</g>
	</g>
</g>
<g>
	<g>
		<g>
			<path class="st3" d="M783.6,297.6c0,0,0,0,0,0.2c-0.2,0.9-1,3-2.4,5.3c0,0-0.1,0.2-0.1,0.2c0,0-0.3-0.2-0.8-0.4
				c-0.5-0.2-1.1-0.5-1.7-0.7c-1.3-0.5-2.6-0.9-2.6-0.9s-0.6-0.9-1-2c-0.7-1.6,0.2-2.8,1.1-3.3c0-0.1,0.5-0.2,1-0.4
				c0.5-0.1,1-0.2,1-0.2s1.4,0.5,2.8,1c0.7,0.3,1.4,0.6,1.9,0.8C783.2,297.4,783.6,297.6,783.6,297.6z"/>
		</g>
	</g>
</g>
</svg>
