<?xml version="1.0" encoding="utf-8"?>
<!-- Generator: Adobe Illustrator 22.0.1, SVG Export Plug-In . SVG Version: 6.00 Build 0)  -->
<svg version="1.1" id="Layer_1" xmlns="http://www.w3.org/2000/svg" xmlns:xlink="http://www.w3.org/1999/xlink" x="0px" y="0px"
	 viewBox="0 0 1500 1080" style="enable-background:new 0 0 1500 1080;" xml:space="preserve">
<style type="text/css">
	.st0{fill:#FF8E00;}
	.st1{fill:#231F20;}
	.st2{fill:#202020;}
	.st3{fill:#FFFFFF;}
</style>
<path class="st0" d="M1037.2,854.7c-4.6-4.6-7.2-7.8-10.1-12.2c-3.2-4.8-6-9.9-8.5-15.2c-2-4.2-3.6-8.3-5.6-14.1
	c-2.1-6.2-3.9-12.6-5.5-19c-3.7-14.5-6.4-29.6-10.3-44.2c-1.1-10.7-3.4-20.9-10.4-29.4c-0.8-1.7-1.7-3.4-2.6-5.1
	c-4-7.4-14.2-9.7-21.2-5.6c-7.4,4.3-9.5,13.7-5.6,21.1c-3.9,3.8-5.7,9.3-4.2,15.1l15.8,63.7c5.2,20.8,9.5,41.9,18,61.6
	c3.3,7.7,14.6,9.4,21.2,5.6c1.6-0.9,2.9-2.1,4-3.3c0.2,0.1,0.5,0.2,0.8,0.3c0.8,0.9,1.6,1.7,2.4,2.6c5.9,5.9,16,5.9,21.9,0
	C1043.1,870.7,1043.1,860.6,1037.2,854.7z"/>
<path class="st0" d="M976.8,833.3c0,0,83.5,9.6,128.9,10.5c0,0-17.1,7-12.4,30.2l-100.9-1.1L976.8,833.3z"/>
<path class="st1" d="M524.1,858.8c-0.7-15.8-1.9-31.5-2.5-47.3c-0.1-3.2-0.2-6.4-0.2-9.7c-1.5-25.5-2.2-51-2.2-76.5
	c-0.6-2.9-1.2-5.7-1.8-8.6c-0.4-0.3-0.8-0.6-1.1-1c-1.3-0.7-2.5-1.4-3.8-2.1c-1.8-0.9-2.1-1.1-3.3-1.5c-1.5,1.2-2.8,2.6-4.1,3.9
	c-0.2,0.2-0.8,0.9-1,1.2c-0.9,1.2-1.8,2.4-2.6,3.6c-1.9,2.8-3.6,5.7-5.1,8.6c-6.5,12.2-10.8,25.5-16.5,38.1
	c-2.5,5.5-10.5,7-15.8,4.9c-3.2,0.7-6.1,0.4-8.7-0.6c-3.7-0.3-7.4-0.7-11.2-0.5c-2.5,0.1-5.2,0.3-8,0.8c-3.4,2.2-6.7,4.5-9.5,7.1
	c-2.2,2.1-2.6,2.8-3.5,5.5c-0.5,1.6-1.1,3.2-1.4,4.8c0,0.1,0,0.2,0,0.3c-0.1,0.4-0.1,0.9-0.2,1.3c0,0.6,0,1.3-0.1,1.1
	c0,0.1,0,0.1,0,0.2c0.2,1.4,0.3,2.7,0.1,4.1c0.1,2.2,0.4,4.4,0.5,6.5c0.2,4.3,0.1,8.7-0.1,13c0.1,0.6,0.2,1.3,0.2,2
	c0.3,8.9-0.5,17.8-1.1,26.7c-0.1,1.3-0.2,2.6-0.4,3.9c0.1,1.1,0.1,2.2,0.1,3.2c0,6-0.4,13.5,0.2,19.2c0.7,1.1,1.4,2.2,2.1,3.3
	c0.1,0.2,0.7,0.8,0.9,1.1c0.2,0.2,0.3,0.4,0.5,0.5c0.7,0,1.4,0.1,2.1,0.2c12.1-0.6,24.3-0.9,36.5-0.3c1.5,0.1,3,0.1,4.5,0.2
	c1.4,0,2.8,0,4.3,0.1c2.2,0,4.4-0.6,6.4-1.8c0.2,0.9,0.5,1.8,1,2.6c5,0.4,10.1,0.7,15.1,0.8c9.3-2.7,18.3-7.1,27.4-10.1
	c0.8-1.7,1.7-3.3,2.6-4.9C524.2,861.3,524.2,860,524.1,858.8z"/>
<path class="st0" d="M904.9,840.4c-0.4-0.6-0.9-1.1-1.3-1.6c0.2-0.2,0.5-0.3,0.7-0.5c0.7-0.4-5.5-2.8-4.8-3.3
	c17-1.6,27.2-28,27.2-28c4.7-9.9,9.4-19.8,14.1-29.7c1-2.1,1.3-4.3,1-6.5c4.6-7,9.5-13.8,14.4-20.5c0,0.1,0,0.3,0,0.4
	c1.4-3,3.4-5.9,5.9-8.7c5.8-6.4,13.1-9.8,21-12.9c2.4-0.9,4.8-1.7,7.3-2.4c-0.7-2-1.6-4-2.6-6.4c-4.5-11.2-12.6-18.3-23.6-22.6
	c-11.4-4.4-22.9-8.1-33.9-13c-2.1-1-5.8-2.6-9.1-3.6c-1.4-1.7-3.3-2.9-5.3-3.7c-3.4,7.3-7.8,14-13.9,19.4
	c-13.8,12.6-33,19.4-51.8,18.2c-22.3-1.4-44-14.3-48.8-37.6c-2-9.7-1.4-19.9,1.7-29.1c-0.3-0.2-0.6-0.4-0.9-0.6
	c-1.2-1.1-2.6-1.9-4.2-2.4c-20.1-10-44.2-2.7-65.8,0.5c-26.1,3.9-52.4,5.7-78.8,6c-2.2-1.2-4.2-2.7-6.1-4.3c-0.4-0.4-0.9-0.7-1.3-1
	c1.5-2.9,4.2-5.9,5.8-8.1c3.4-4.8,6.9-9.7,10.3-14.5c6.7-9.3,13.5-18.4,20.8-27.2c3.6-4.4,5-10,2-15.1c-1.3-2.2-3.5-4.1-6-5.2
	c-2.2-3.2-5.9-5.2-9.9-5.3c-0.2-0.2-0.4-0.4-0.6-0.6c-4-4-10.1-3.6-14.1,0c-7.1,6.2-12.5,13.7-16.9,21.9c-2.5,2.5-4.9,5.1-7,7.9
	c-6.9,9.4-13,19.9-18.7,30.1c-0.1,0.2-0.3,0.3-0.4,0.5c-5.3,7.5-10.4,16.6-12.1,25.7c-2.2,11.5,4.4,19.6,15.3,22.4
	c0.6,0.1,1.1,0.3,1.7,0.4c4.6,1.9,9.6,2.7,14.6,3.1c7.9,0.7,15.8,1,23.7,1.3c7.7,0.3,15.6,0.8,23.5,1c4.1,0.3,8.3,0.4,12.4,0.5
	c4.4,1.2,9.1,1.8,13.2,2.3c9.2,1.3,18.4,1.9,27.6,2.3c9,0.5,18.3,0.8,27.4,2.1c-4.4,12.7-4.4,26.4-8.1,39
	c-17.7,59.3,11.8,79.6,11.8,79.6c6.5,4.1,13.9,5.3,21.2,6.4c8.4,1.3,16.7,3.4,24.9,5.8c2.9,0.9,5.9,1.7,8.6,3.1
	c0.3,0.2,0.6,0.5,0.9,0.7c-1.5-0.4-3-0.7-4.5-1c-10.4-2.1-21.1-2.5-31.2-0.1c0,0-14.3-0.1-18.4,15.2c-2.3,10-4.6,19.9-6.9,29.9
	c-0.2,1-0.3,2-0.3,2.8c0.5,1.8,1.4,3.2,3.4,4.1c4.6,2.1,10.4,1,15.8-0.4c0.2-0.1,0.4-0.3,0.5-0.4c6.4-2.5,13-4.5,19.6-6.1
	c2.6-0.1,5.2-0.5,7.6-0.6c6.2-0.3,12.4-0.6,18.6-1c18.7-1,37.4-1.9,56.2-2.9c6.2,1.5,12.5,2.4,19.1,0.9c5.5-1.3,11.2-4.2,12.7-10.1
	C911.4,851.6,908.2,845,904.9,840.4z"/>
<path class="st1" d="M734.8,489.2c-7.1-6-14.4-11.9-21.7-17.7c-0.5-1.8-1.6-3.4-3.2-4.5c-0.2-0.4-0.4-0.9-0.6-1.3
	c-19.2-31.9-40-62.8-62.4-92.5c-2.1-2.7-5.2-4.5-8.4-4c-1.1,4.7-2.2,9.4-3.9,13.9c-3.9,10.7-9.3,19.3-16.6,27.9
	c-1.5,1.8-3.1,3.5-4.7,5.1c-8.1,9.4-17.9,17-29,22.7c-3.4,1.7-4.5,4.7-4.1,7.6c2.5,1.3,4.9,2.9,7.2,4.7c1.7,0.7,3.3,1.4,4.9,2.1
	c0.1,0,0.2-0.1,0.3-0.1c0.8-0.4,1.6-0.8,2.3-1.2c0.5,0.6,1.2,1.2,1.8,1.7c12.2,9.4,27,14.4,41.4,19.6c15.5,5.7,30.9,11.8,46,18.3
	c1.8,0.8,3.8,1.1,5.6,0.9c0.4,0.8,0.9,1.5,1.6,2.2c3.1,3.1,8.6,3.3,11.7,0c1.8-1.9,3.7-3.8,5.5-5.8c4.9,4,9.9,8,14.7,12.1
	c3.4,2.9,8.3,3.3,11.7,0C737.8,497.9,738.3,492.1,734.8,489.2z"/>
<g>
	<g>
		<g>
			<path class="st2" d="M885,511.4c0,0.1-0.1,0.1-0.3,0.1c-0.6,0.2-1.5,0.4-2.6,0.4c-0.5,0-1.1-0.1-1.6-0.5c-0.5-0.5-0.9-1.3-1-2.5
				c0-0.1,0-0.5,0.1-0.7c0.6-1,1.4-2,2.5-2.8c0.5-0.4,1.1-0.8,1.8-1c0.7-0.3,1.2-0.4,1.8-0.5c2.2-0.5,4.3-0.4,6.3,0
				c1.1,0.2,2.2,0.5,3.2,0.8c2.1,0.7,4.1,1.7,5.9,3c0,0,0.1,0.1,0.4,0.3c0.2,0.2,0.6,0.5,1,0.9c0.8,0.8,2,1.9,3,3.4
				c1.1,1.5,2,3.3,2.7,5.2c0.7,1.9,1,4,1,5.8c0,3.1-1,5.1-1.7,5.9c-0.8,0.9-1.2,0.9-1.3,0.5c-0.1-0.4,0-1.2,0-2.3
				c0-1.1-0.1-2.5-0.4-4c0,0.2-0.2-0.7-0.6-1.9c-0.4-1.3-1.3-2.9-2.4-4.4c-1.1-1.5-2.5-2.7-3.7-3.5c-0.6-0.4-1.1-0.7-1.4-0.9
				c-0.3-0.2-0.6-0.3-0.6-0.3c-1.2-0.8-2.5-1.4-3.8-1.8c-0.8-0.2-1.5-0.5-2.3-0.6c-1.4-0.2-2.8-0.3-3.9,0c-0.7,0.2-0.8,0.2-1.1,0.4
				C885.6,510.6,885.2,511,885,511.4z"/>
		</g>
	</g>
</g>
<g>
	<g>
		<g>
			<path class="st2" d="M871,501.2c-0.1,0.2-0.1,0.3-0.4,0.4c-0.8,0.6-2.1,1.1-3.1,0.6c-0.5-0.2-0.8-0.7-1.1-1.2
				c-0.3-0.5-0.6-1.2-1-2c0-0.1-0.1-0.3-0.1-0.4c0.2-0.5,0.4-1,0.4-1.4c0-0.4,0-0.5-0.3-1.2c-0.4-1.1-1.2-2.2-2.2-3.2
				c-0.5-0.6-1.1-1.1-1.8-1.6c-1.3-1-2.8-1.8-4.3-2.4c0,0-0.4-0.2-1.2-0.6c-0.8-0.3-1.9-0.7-3.3-1c-1.4-0.3-3-0.4-4.6-0.3
				c-1.6,0.1-3.2,0.4-4.7,0.9c-2.4,0.9-3.7,2-4.5,2.7c-0.8,0.7-1.2,0.8-1.3,0.4c-0.1-0.4,0-1.4,0.8-2.6c0.7-1.2,2-2.6,3.7-3.7
				c-0.2,0.1,0.7-0.6,2.3-1.2c1.6-0.7,3.9-1.3,6.3-1.5c2.4-0.2,4.9,0.1,6.7,0.5c0.9,0.2,1.6,0.4,2.2,0.6c0.5,0.2,0.8,0.3,0.8,0.3
				c1.7,0.8,3.4,1.7,4.9,2.8c0.9,0.7,1.7,1.4,2.5,2.2c1.4,1.5,2.7,3.2,3.5,5.3c0.2,0.5,0.4,1,0.6,1.8c0.1,0.7,0.2,1.4,0.1,2.1
				C871.9,498.9,871.5,500.1,871,501.2z"/>
		</g>
	</g>
</g>
<path class="st1" d="M900.3,431.3c0,0,34.4-16.7,65.7,17.4c31.3,34.1,29.4,43.5,32.9,51.6c3.5,8.2,15.6,23.3-0.8,50
	c-6.8,11.3-4.2,23.6-5.6,31.8c-1.4,8.2-4.4,21.4-18.8,30.2c0,0-2.5,46.7-44.8,44.2c-42.3-2.6-38-12.7-54.3-2.7c0,0,1-37,34.4-44.2
	c33.5-7.2,33.5-25.8,31.6-41.8c-2-16-60.3-47.7-50.7-113.4C890,454.4,894,434.9,900.3,431.3z"/>
<path class="st1" d="M897.9,433.5c0,0-17.5-16.8-33.8-4.1c-16.3,12.8-10.5,39.6-41.1,46c-30.7,6.4-43.9,19.4-38.9,47.1
	c5.1,27.7,9.1,32.6,0.5,52.9c-7.4,17.4-0.9,36.4,24.8,45.7c15.7,5.7,35.3-1.1,35.3-1.1l-3.1-7.8c0,0-39.1-18.7-25.4-65.4
	c14.8-50.4,29.5-66.4,52-83c6.7-4.9,16.5-9.2,24.1-9.1L897.9,433.5z"/>
<g>
	<g>
		<g>
			<path class="st2" d="M831.8,613.7c-0.1-0.1-0.2-0.1-0.3-0.4c-0.4-0.8-0.7-1.9-0.4-2.9c0.4-1,1.4-1.8,3.3-2.1c0.1,0,0.4,0,0.5,0
				c2.8,1.6,5.7,3,8.8,4.1l0.1,0.1c1.7,0.6,3.4,1.1,5.2,1.5c0,0,0.1,0,0.4,0.1c0.2,0.1,0.6,0.2,1,0.3c0.4,0.1,1,0.2,1.6,0.4
				c0.3,0.1,0.6,0.2,1,0.2c0.3,0.1,0.7,0.1,1.1,0.2c2.9,0.7,6.8,0.9,10,0.8c2.7-0.1,4.5-0.4,5.6-0.4c1.1,0,1.5,0.2,1.3,0.6
				c-0.2,0.4-0.9,0.9-2.1,1.5c-0.6,0.3-1.2,0.7-2,0.9c-0.8,0.3-1.6,0.5-2.5,0.8c0.2,0-0.8,0.3-2.4,0.6c-0.8,0.1-1.8,0.3-2.8,0.4
				c-1,0.1-2.2,0.1-3.3,0.2c-4.6,0.1-9.1-0.8-9.1-0.8l-1.3-0.3l-1.3-0.4c-0.8-0.3-1.7-0.5-2.5-0.8l-0.1,0
				C838.2,617.1,834.9,615.6,831.8,613.7z"/>
		</g>
	</g>
</g>
<g>
	<g>
		<g>
			<path class="st2" d="M847.2,547.8c0,0,0,0-0.2,0c-0.5-0.1-1.2-0.3-2.2-0.7c-0.9-0.4-2-1-2.9-2.2c0,0-0.1-0.2-0.1-0.3
				c0.1-0.1,0.8-1.3,2.3-2.9c0.8-0.8,1.8-1.6,3.1-2.2c0.6-0.3,1.4-0.6,2.1-0.8c0.7-0.2,1.5-0.3,2.3-0.3c0.8-0.1,1.5,0,2.2,0.1
				c0.7,0.1,1.4,0.3,2,0.5c0.6,0.3,1.3,0.4,1.9,0.7c0.6,0.3,1.1,0.6,1.6,1c0.5,0.4,0.9,0.7,1.2,1.1c0.3,0.4,0.6,0.7,0.8,1
				c0.4,0.6,0.6,0.9,0.6,0.9s0.1,0.3,0.2,0.7c0.1,0.4,0.2,1,0.3,1.7c0.1,1.3-0.2,2.9-0.8,4c-0.8,1.9-1.7,2.1-2.2,1.8
				c-0.5-0.3-0.9-1.2-1.2-2.1c-0.1,0.1-0.3-1-0.7-1.9c-0.1-0.2-0.2-0.4-0.3-0.6c-0.1-0.2-0.2-0.3-0.3-0.4c-0.2-0.2-0.3-0.3-0.3-0.3
				c0,0-0.1-0.1-0.2-0.3c-0.1-0.1-0.2-0.2-0.3-0.3c-0.1-0.1-0.3-0.2-0.5-0.4c-0.6-0.5-2.4-1.1-3.7-1c-1.3,0-2.5,0.8-3.4,1.6
				c-0.4,0.4-0.8,0.8-1,1.1C847.3,547.6,847.2,547.8,847.2,547.8z"/>
		</g>
	</g>
</g>
<path class="st1" d="M853.9,500.8c0,0-2.3-5.9-8.7-2.8c-8.9,4.4-2.3,12.8,2.8,11.4C852.8,508.1,854.3,504.4,853.9,500.8z"/>
<path class="st1" d="M892.8,523.4c0,0-2.3-5.9-8.7-2.8c-8.9,4.4-2.3,12.8,2.8,11.4C891.6,530.7,893.2,527,892.8,523.4z"/>
<g>
	<g>
		<g>
			<path class="st2" d="M657.7,637.2c0.2,0,0.2,0,0.4,0.2c0.7,0.6,1.4,1.6,1.4,2.6c0,1-0.8,2.1-2.4,3.2c-0.1,0-0.3,0.2-0.5,0.2
				c-2.9-0.5-5.9-0.2-8.8,0.7c-0.3,0.1-0.6,0.2-0.9,0.3l-0.9,0.3l-1.2,0.5c-0.4,0.2-0.8,0.4-1.2,0.6l-1.2,0.6l-1.1,0.7
				c0,0-0.5,0.2-1.3,0.7c-0.8,0.5-2,1.1-3.3,1.9c-2.6,1.6-5.8,3.9-8.4,5.9c-2.2,1.8-3.6,2.9-4.5,3.5c-0.9,0.6-1.4,0.6-1.4,0.2
				c-0.1-0.8,1.3-3.4,3.6-6.2c-0.3,0.2,2.4-3.1,5.7-6.1c1.6-1.5,3.4-2.9,4.8-4c0.7-0.5,1.3-0.9,1.7-1.2c0.4-0.3,0.7-0.4,0.7-0.4
				c0.7-0.5,1.6-0.8,2.4-1.2c0.8-0.4,1.6-0.7,2.5-1.1l1.1-0.4c0.4-0.1,0.7-0.2,1.1-0.3C649.8,637,653.8,636.6,657.7,637.2z"/>
		</g>
	</g>
</g>
<g>
	<g>
		<g>
			<path class="st2" d="M658.5,638.3c0,0,0.1,0,0.2,0.1c0.4,0.3,1,0.8,1.6,1.7c0.5,0.9,1,2,1.3,3.4c0,0.1,0,0.2,0,0.3
				c0,0-0.2,0.1-0.6,0.3c-0.3,0.2-0.8,0.5-1.3,0.9c-1,0.8-2.2,2.2-3.2,3.7c-1,1.6-1.8,3.3-2.2,4.7c-0.5,1.4-0.7,2.3-0.7,2.3
				s-0.3,0.6-0.8,1.4c-0.5,0.8-1.1,1.8-1.7,2.7c-1.8,3-3,1.6-3.4-0.6c-0.1,0.1-0.2-1.2-0.2-2.6c0-1.4,0.1-2.8,0.1-2.8
				s0.1-0.3,0.2-0.8c0.1-0.5,0.4-1.2,0.7-2c0.6-1.6,1.5-3.8,2.8-5.8c1.3-2,3-3.9,4.5-5.1c0.8-0.6,1.4-1.1,1.9-1.4
				C658.1,638.5,658.4,638.3,658.5,638.3z"/>
		</g>
	</g>
</g>
<g>
	<g>
		<g>
			<path class="st2" d="M835,621c0-0.1,0-0.2,0.2-0.3c0.6-0.5,1.5-1,2.5-1.1c1-0.1,2.2,0.4,3.1,2.5c0,0.1,0.1,0.4,0.1,0.6
				c-1.1,3.7-2.8,6.9-4.2,10c-0.8,1.7-1.6,3.3-2.2,5c-0.3,0.8-0.6,1.6-0.9,2.5l-0.3,1.2l-0.3,0.9c-0.1,0.3-0.2,0.6-0.4,0.9
				c-1,2.4-2.7,4.2-4.6,5.6c-1,0.7-2.1,1.3-3.3,1.7c-1.2,0.4-2.6,0.7-4.1,0.5c-0.4-0.1-0.7-0.1-1.2-0.2c-0.5-0.2-0.6-0.2-0.9-0.3
				l-1.4-0.5c-0.9-0.3-1.8-0.7-2.7-1c-1.8-0.7-3.6-1.4-5.4-2.1c-3.5-1.4-7-2.8-10.5-4c-7-2.5-14-4.4-21-4.1l-1.3,0l-1.4,0.1
				l-2.8,0.2c-1.9,0.1-3.8,0.2-5.6,0.4c-3.8,0.3-7.5,0.6-11.3,0.9c-15.1,1.3-30.1,2.9-45.3,4c-7.6,0.6-15.2,1.1-22.8,1.3l-7,0.2
				c0,0-0.6,0-1.6-0.1c-1-0.1-2.4-0.2-4-0.3c-1.6-0.1-3.4-0.3-5.2-0.5c-0.9-0.1-1.8-0.2-2.7-0.3c-0.5-0.1-0.9-0.1-1.3-0.2
				c-0.5-0.1-0.9-0.1-1.4-0.3c-1.5-0.3-2.7-0.9-3.5-1.3c-0.9-0.4-1.5-0.8-1.9-1.1c-0.9-0.6-1.1-1-0.7-1.2c0.4-0.2,1.3-0.3,2.6-0.1
				c1.3,0.1,2.8,0.4,4.2,0.3c-0.1,0,0.6-0.1,2.1-0.2c1.5-0.1,3.6-0.2,5.8-0.3c2.1-0.1,4.3-0.3,5.9-0.4c0.8,0,1.5-0.1,1.9-0.1
				c0.5,0,0.7-0.1,0.7-0.1l3-0.1l1.5,0l4.3-0.2c7.4-0.3,14.8-0.8,22.2-1.4c14.8-1.2,29.6-2.7,44.5-4c3.7-0.3,7.5-0.6,11.2-0.9
				c1.9-0.1,3.7-0.2,5.6-0.4l2.8-0.2c0.9-0.1,2-0.1,3-0.1c8.1,0,15.7,2.2,22.8,4.8c3.6,1.3,7,2.7,10.5,4c1.7,0.7,3.4,1.3,5.2,2
				c0.9,0.3,1.7,0.6,2.6,0.9l1.3,0.4c0.1,0,0.1,0,0.1,0c0,0,0,0,0.1,0c0.1,0,0.2,0,0.3,0c0.8,0.1,2.1-0.4,3.2-1.2c1.1-0.8,2-2,2.4-3
				c0.1-0.1,0.1-0.3,0.1-0.4c0-0.1,0-0.1,0.1-0.2l0.1-0.4c0.1-0.5,0.3-1,0.4-1.5c0.3-1,0.6-1.9,1-2.8c0.7-1.9,1.6-3.6,2.4-5.3
				C832.7,626.9,834.2,623.9,835,621z"/>
		</g>
	</g>
</g>
<g>
	<g>
		<g>
			<path class="st2" d="M1028,835.6c0,0.1,0.1,0.2,0,0.4c-0.5,1.6-2.1,4.1-5.6,1.7c-0.1,0-0.3-0.3-0.4-0.4c-1-3.3-2-6.5-3-9.8
				c-1.6-4.8-3.4-9.6-5.1-14.5c-1.7-4.9-3.3-9.9-4.7-14.9c-2.9-9.9-5.6-19.9-8-30c-1.2-5-2.3-10.1-3.4-15.2l-1.5-7.6
				c-0.3-1.3-0.5-2.5-0.8-3.7c-0.3-1.2-0.6-2.4-0.9-3.7c-1.3-4.9-2.7-9.8-4.3-14.6c-0.8-2.4-1.6-4.8-2.5-7.2l-0.7-1.8l-0.3-0.9
				c-0.1-0.3-0.2-0.6-0.3-0.8c-0.4-0.9-0.9-1.8-1.5-2.6c-1.3-1.7-3-3.1-4.9-4.3c-0.5-0.3-1-0.6-1.5-0.8l-0.4-0.2
				c-0.2-0.1-0.3-0.1-0.5-0.3l-0.3-0.2l-0.8-0.5l-3.2-2c-2.1-1.4-4.3-2.6-6.5-3.9c-2.2-1.2-4.4-2.5-6.7-3.6c-9-4.6-18.4-8.6-28-12.6
				c-9.5-4-19.1-8.1-28.3-13.1l-0.9-0.5c-0.3-0.1-0.7-0.4-0.6-0.4l-0.3-0.2l-0.7-0.4l-1.3-0.8l-2.7-1.5c0,0-0.5-0.4-1.3-1
				c-0.8-0.6-2-1.5-3.4-2.5c-0.3-0.2-0.6-0.4-0.9-0.6l-0.5-0.3c-0.1-0.1-0.1-0.4-0.2-0.5c-0.1-0.4-0.2-0.7-0.3-1.1
				c-0.1-0.4-0.2-0.8-0.2-1c-0.2-1-0.2-2.1-0.2-3.1c0.1-2.1,0.6-4,1.1-5.6c0.8-2.8,1.6-4.5,2.1-5.4c0.5-1,0.9-1.2,1.1-0.9
				c0.2,0.3,0.4,1.3,0.4,2.5c0,1.3-0.1,2.9-0.2,4.5c0.1-0.2,0,0.8,0,2.2c0,1.4,0.1,3.3,0.7,4.8c0.1,0.1,0.1,0.2,0.2,0.2
				c0,0,0.1,0,0.1,0c0.2,0.1,0.4,0.2,0.6,0.3c0.9,0.5,1.7,0.9,2.4,1.3c1.4,0.8,2.4,1.2,2.4,1.2l2.5,1.5l1.3,0.7l0.3,0.2l0.5,0.3
				l0.8,0.4l3.3,1.8c8.8,4.6,18.1,8.5,27.5,12.4c9.3,3.9,18.8,7.9,27.9,12.8c2.3,1.2,4.5,2.4,6.7,3.8l3.3,2l3.3,2.1l1.6,1l0.6,0.4
				l0.8,0.4c1.2,0.7,2.4,1.4,3.6,2.3c2.3,1.7,4.4,3.9,5.9,6.5c0.4,0.7,0.7,1.4,1,2.1c0.3,0.7,0.5,1.2,0.7,1.8l1.3,3.6
				c0.8,2.4,1.7,4.8,2.4,7.3c1.5,4.9,3,9.8,4.2,14.8c0.6,2.5,1.1,5.1,1.6,7.6l1.5,7.4c1,4.9,2.1,9.8,3.3,14.7
				c2.3,9.8,5,19.5,7.8,29.2c1.4,4.8,2.9,9.6,4.6,14.3c1.7,4.7,3.4,9.5,5,14.4C1026,829,1027.1,832.3,1028,835.6z"/>
		</g>
	</g>
</g>
<g>
	<g>
		<g>
			<path class="st2" d="M989.5,878c0.1,0.1,0.1,0.2,0,0.4c-0.1,0.8-0.4,1.9-1.2,2.6c-0.8,0.7-2,1-4,0.2c-0.1,0-0.4-0.2-0.5-0.3
				c-1.6-3.1-3.1-6.3-4.5-9.4c-6-13.3-11-27.1-14.7-41.3c-1-3.6-1.8-7-2.7-10.5c-0.9-3.5-1.9-6.9-2.9-10.4l-6-20.8
				c-2-7-3.9-14-5.4-21.2c-0.3-1.8-0.8-3.6-1-5.5l-0.5-3.2c0,0,0-0.1,0,0l-0.6,1.3c-1.6,3.2-3,6.5-4.4,9.7
				c-2.8,6.6-5.2,13.3-7.2,20.1c-1,3.5-2,7.1-2.7,10.6c-0.4,1.8-0.7,3.6-1,5.4c-0.3,1.8-0.6,3.6-0.9,5.5c-1.2,7.4-2.4,14.8-3.7,22.2
				c-0.7,3.7-1.4,7.4-2.3,11.1l-0.3,1.4l-0.3,1.1l-0.1,0.5l-0.3,1c-0.3,1.4-0.7,2.7-1.1,4.1c0,0-0.8,2.3-2.1,5.3
				c-1.3,3-3.2,6.7-5,9.6c-1.5,2.5-2.6,4-3.4,4.8c-0.8,0.8-1.2,0.9-1.3,0.5c-0.3-0.8,0.6-3.6,1.6-6.9c-0.2,0.3,1.2-3.6,2.4-7.6
				c1.2-4,2-8.2,2-8.2c0.4-1.2,0.7-2.5,1-3.7l0.2-0.9l0.3-1.2l0.3-1.3l0.6-2.6c0.7-3.4,1.4-6.9,2-10.4c1.3-6.9,2.4-14,3.5-21
				l0.4-2.6l0.5-2.7c0.3-1.8,0.6-3.6,1.1-5.3c0.8-3.6,1.7-7.1,2.7-10.5c2.1-7.1,4.6-14,7.4-20.7c1.4-3.4,2.9-6.7,4.5-10l0.3-0.6
				l0.5-1l1.1-2.2c0.7-1.5,1.5-3,2.4-4.5c1.7-3.1,3.3-5.7,4.9-8.5l2.4-4l0.5-0.8l0.2-0.4l0.1-0.2l0.1-0.1c0,0,0,0.1,0,0.2l-0.2,3.4
				l-0.4,7.9l-0.1,2l0,0.5c0,0.1,0,0.3,0,0.4l0,0.7l0.2,2.9l0.2,2.9l0.1,1.5c0,0.1,0,0.3,0,0.4l0,0.2l0,0.1l0.1,0.3l0.4,2.6
				c0.3,1.7,0.7,3.5,1,5.2c1.5,6.9,3.4,13.9,5.3,20.8l6,20.8c1,3.5,2,7,2.9,10.5c1,3.5,1.8,7.1,2.8,10.5
				c3.6,13.8,8.5,27.3,14.4,40.3C986.5,871.9,988,875,989.5,878z"/>
		</g>
	</g>
</g>
<g>
	<g>
		<g>
			<path class="st2" d="M920.2,832.6c0.1,0,0.2-0.1,0.4,0c0.7,0.2,1.7,0.7,2.3,1.6c0.6,0.9,0.7,2.2-0.6,3.9c0,0.1-0.3,0.3-0.4,0.4
				c-3.5,1-7,1.7-10.5,2.2c-3.5,0.5-7,0.7-10.5,0.6c-2-0.1-4.1-0.2-6.1-0.5c0,0-0.6-0.2-1.7-0.4c-1-0.3-2.5-0.7-4.1-1.3
				c-3.2-1.2-7-3.6-9.5-6.1c-1.1-1.1-1.9-2-2.4-2.8c-0.6-0.8-0.9-1.5-1.1-2c-0.4-1-0.3-1.4,0.1-1.4c0.4,0,1.2,0.5,2.1,1.2
				c0.5,0.3,1.1,0.7,1.6,1.1c0.6,0.4,1.3,0.8,2,1.2c-0.1-0.1,0.6,0.4,1.9,1c1.2,0.7,3,1.4,4.9,2c1.9,0.6,3.8,0.9,5.3,1.1
				c0.7,0.1,1.4,0.1,1.8,0.2c0.4,0,0.7,0,0.7,0c1.5,0.2,3.1,0.3,4.6,0.4c3.1,0.1,6.3-0.1,9.5-0.6C913.8,834.2,917,833.5,920.2,832.6
				z"/>
		</g>
	</g>
</g>
<g>
	<g>
		<g>
			<path class="st2" d="M751.4,817.3c-0.1,0-0.1-0.1-0.1-0.2c-0.1-0.6,0-1.5,0.5-2.3c0.5-0.9,1.4-1.8,2.6-2.6c0,0,0.2-0.1,0.3-0.1
				c0,0,0.3,0.2,0.9,0.5c0.6,0.3,1.4,0.7,2.4,1.2c2,0.9,4.8,1.8,7.7,2.4c2.9,0.6,5.9,0.9,8.1,0.9c1.1,0,2,0.1,2.7,0c0.7,0,1,0,1,0
				s0.2,0,0.7,0.1c0.4,0,1,0.2,1.7,0.2c1.3,0.1,3.1,0.4,4.5,0.6c4.9,0.5,3.4,2.1,0.4,3.4c0.1,0-0.3,0.2-1,0.4
				c-0.7,0.2-1.6,0.4-2.5,0.7c-0.9,0.2-1.9,0.5-2.6,0.6c-0.7,0.1-1.2,0.2-1.2,0.2s-1.6,0.1-4.1,0c-1.2,0-2.7-0.2-4.2-0.3
				c-1.5-0.2-3.2-0.4-4.8-0.8c-3.3-0.7-6.5-1.7-8.9-2.8C753,818.4,751.5,817.4,751.4,817.3z"/>
		</g>
	</g>
</g>
<path class="st1" d="M1117.2,842.8c0,0-16.8,4.4-8,34.9c0,0,1.6-16.7,12.4-23.3c8.3-5.1,20.7-2.2,24.2,0.1
	C1145.8,854.4,1139.9,836.5,1117.2,842.8z"/>
<g>
	<g>
		<g>
			<path class="st2" d="M1127.3,852.2c-0.1,0-0.2,0-0.4-0.2c-1.2-1.1-2.8-3.6,0.9-5.8c0.1,0,0.4-0.2,0.5-0.2l10.2,1.7l5.7,0.9
				l1.9,0.3l2.3-0.7l20.9-6.2l5.2-1.5l0.7-0.2l0.3-0.1l0.2,0l0.1,0l0,0c1.8-1.6-2.4,2.2-2,1.7l0.1-0.2l0.1-0.2l0.1-0.1
				c0.6-0.9,1.2-1.3,1.8-1.6c0.3-0.1,0.6-0.2,0.8-0.3c0.2-0.1,0.5-0.1,0.7-0.1c1.8-0.2,2.9,0.1,4,0.4c2.1,0.7,3.9,1.5,5.6,2.5
				c1.7,0.9,3.3,2,4.8,3v0c3.8,2.6,7.2,5.2,10.7,8l2.6,2.1l1.6,1.3l3,2.5c0,0,0.4,0.4,1.1,1c0.7,0.6,1.6,1.4,2.7,2.1
				c0.6,0.4,1.2,0.7,1.9,1c0.4,0.2,0.9,0.4,1.4,0.6c0.5,0.2,0.9,0.5,1.4,0.8c1.8,1.1,3.2,2.5,4.3,3.8c2,2.2,2.9,4,3.3,5
				c0.4,1.1,0.2,1.5-0.2,1.4c-0.8-0.1-2.9-2.1-5.5-4c0.1,0.1-0.6-0.4-1.8-1.1c-0.6-0.4-1.3-0.7-2.1-1.1c-0.4-0.1-0.8-0.3-1.2-0.4
				c-0.5-0.1-0.9-0.3-1.4-0.4c-2.3-0.6-4.7-1.9-6.1-2.9c-0.7-0.5-1.3-0.9-1.7-1.2c-0.4-0.3-0.6-0.5-0.6-0.5c-2.1-1.7-3.2-2.8-7-5.8
				c-3.2-2.5-6.5-5-9.8-7.3v0c-1.4-1-2.9-1.9-4.4-2.7c-1.5-0.8-3-1.5-4.3-1.9c-0.2-0.1-0.3-0.1-0.5-0.1c-0.1,0-0.3-0.1-0.4-0.1
				l-0.3,0c0,0-0.2,0-0.1,0c0-0.2-0.1-0.5-0.2-0.7c-0.1-0.2-0.1-0.4-0.2-0.6c-0.1-0.2-0.1-0.3-0.3-0.4c-0.1-0.1-0.2-0.2-0.5-0.4l0,0
				c1,0.6-2.2-1.3,2.1,1.3l0.1-0.2l0.1-0.2c0.4-0.4-3.7,3.3-2,1.8l0,0l-0.1,0l-0.2,0l-0.3,0.1l-0.7,0.2l-5.2,1.5l-20.9,6.2l-3.2,0.9
				l-0.3,0.1c-0.1,0-0.1,0-0.2,0l-0.2,0l-0.7-0.1l-1-0.2l-1.4-0.2l-5.7-0.9L1127.3,852.2z"/>
		</g>
	</g>
</g>
<g>
	<g>
		<g>
			<path class="st2" d="M1186.2,864.5c0,0,0,0,0-0.2c0.2-1,1.3-3,3.8-4.4c0,0,0.2-0.1,0.3-0.1c0,0,0.9,0.7,2,1.7
				c1.2,1,2.8,2.2,4.5,3.4c1.6,1.2,3.3,2.3,4.6,3.1c1.3,0.8,2.1,1.3,2.1,1.3s1.9,1.8,3.1,3.4c1.1,1.2,1.4,2,1.1,2.5
				c-0.3,0.5-1.3,0.7-2.5,0.6c0.1,0.1-1.2-0.1-2.5-0.5c-1.3-0.3-2.5-0.8-2.5-0.8s-0.2-0.1-0.6-0.4c-0.4-0.2-1-0.6-1.7-1
				c-1.3-0.9-3.1-2-4.8-3.3c-1.7-1.2-3.4-2.5-4.6-3.6C1187.1,865.3,1186.2,864.6,1186.2,864.5z"/>
		</g>
	</g>
</g>
<g>
	<g>
		<g>
			<path class="st2" d="M1172,866.1c0,0,0,0,0-0.2c0.2-0.4,0.5-1.2,1.1-2c0.6-0.8,1.5-1.7,2.7-2.4c0,0,0.2-0.1,0.2-0.1
				c0,0,0.7,0.6,1.7,1.4c1,0.8,2.4,1.8,3.7,2.8c2.8,2,5.7,3.5,5.7,3.5s0.4,0.4,0.9,1c0.5,0.6,1.2,1.3,1.7,2c1.9,2.1,0.7,3.1-1.3,3.2
				c0.1,0.1-1,0-2.1-0.3c-0.6-0.1-1.1-0.2-1.5-0.3c-0.4-0.1-0.7-0.2-0.7-0.2s-3.2-1.7-6.2-3.8c-1.5-1-2.9-2.1-4-3
				C1172.7,866.7,1172,866.1,1172,866.1z"/>
		</g>
	</g>
</g>
<g>
	<g>
		<g>
			<path class="st2" d="M834.8,707c0-0.1,0.1-0.2,0.3-0.3c1.3-1,4-2.2,5.6,1.7c0,0.1,0.1,0.4,0.1,0.5l-3.1,9.8l-5.6,17.8l-1.7,5.5
				c0,0-3.5,8.8-6.4,14.9c-4.7,10.3-4.6,5.6-3.2-1.2c-0.3,0.7,3.9-16.3,3.9-16.3l1.5-4.7l5.6-17.8L834.8,707z"/>
		</g>
	</g>
</g>
<path class="st1" d="M843.9,721.1c-7.1,0-7.1,11,0,11C851,732.1,851,721.1,843.9,721.1z"/>
<g>
	<g>
		<g>
			<path class="st2" d="M1213.9,873.6c0.2,0,0.2,0,0.4,0.2c1.5,1,3.6,3.4,0.1,6.3c-0.1,0.1-0.4,0.2-0.5,0.3c-11.6,0-850.1,0-850.1,0
				s-10.2-0.7-17.4-1.7c-12.2-1.4-7.3-2.9,0.2-3.7c-0.8-0.1,18.1-1.3,18.1-1.3S1202.1,873.6,1213.9,873.6z"/>
		</g>
	</g>
</g>
<g>
	<g>
		<g>
			<path class="st3" d="M896.8,431.5c0-0.1,0-0.1,0.1-0.2c0.6-0.6,2-1.2,2.8,0.7c0,0,0.1,0.2,0.1,0.3c-0.4,1.6-0.8,3.3-1.2,4.9
				c-3.6,17.5-4.1,35.7-0.8,53.3c0.8,4.4,1.9,8.7,3.2,13c0.7,2.1,1.4,4.2,2.2,6.3c0.4,1,0.8,2.1,1.2,3.1l1.4,3.1c0.4,1,0.9,2,1.4,3
				c0.5,1,1,2,1.5,3l1.7,2.9l0.8,1.4l0.9,1.4l1.9,3c0,0,0.1,0.3,0.4,0.7c0.3,0.4,0.6,1,1,1.7c0.4,0.7,0.9,1.5,1.3,2.2
				c0.5,0.8,1,1.5,1.4,2.3c3,4.8,1.1,3.5-1.4,1c0.1,0.1-1.4-1.3-2.7-3c-0.7-0.8-1.4-1.7-1.9-2.3c-0.5-0.6-0.9-1.1-0.9-1.1l-2.6-4.1
				c-2.3-3.9-4.5-7.8-6.2-12c-3.7-8.2-6.2-16.9-7.9-25.8c-0.8-4.4-1.3-8.9-1.7-13.4c-0.3-4.5-0.4-9-0.3-13.5c0.2-9,1.2-17.9,3-26.7
				C895.9,434.8,896.3,433.2,896.8,431.5z"/>
		</g>
	</g>
</g>
<g>
	<g>
		<g>
			<path class="st3" d="M998.8,527.7c0-0.1,0-0.1,0.1-0.2c0.5-0.6,1.7-1.6,2.9,0.2c0,0,0.1,0.2,0.1,0.3c-0.1,1.8-0.4,3.6-0.9,5.3
				c-0.8,3.1-2,6.1-3.6,8.9c-0.5,0.9-1,1.7-1.5,2.5c0,0-0.7,1-1.8,2.2c-1.1,1.2-2.6,2.7-3.9,3.7c-2.2,1.8-3.1,2.1-3.1,1.7
				c0-0.4,0.9-1.6,1.9-3c-0.1,0.1,1.1-1.5,2.3-3.2c0.6-0.9,1.2-1.7,1.5-2.4c0.4-0.7,0.7-1.1,0.7-1.1c0.4-0.7,0.8-1.3,1.2-2
				c1.5-2.6,2.6-5.3,3.3-8.1C998.4,531,998.7,529.3,998.8,527.7z"/>
		</g>
	</g>
</g>
<g>
	<g>
		<g>
			<path class="st3" d="M996.4,514C996.4,514,996.4,514,996.4,514c0.4-0.4,1.3-1.1,2.6-1.4c0,0,0.1,0,0.1,0c0,0,0.2,0.4,0.4,0.9
				c0.2,0.5,0.5,1.2,0.7,1.9c0.5,1.4,0.8,2.8,0.8,2.8s-0.1,1-0.5,1.7c-0.5,1.2-1.2,0.8-1.7,0.3c0,0-0.2-0.3-0.5-0.6
				c-0.2-0.3-0.4-0.7-0.4-0.7s-0.3-1.2-0.7-2.4c-0.2-0.6-0.4-1.2-0.6-1.6C996.6,514.3,996.4,514,996.4,514z"/>
		</g>
	</g>
</g>
<g>
	<g>
		<g>
			<path class="st3" d="M975.1,611.5c0.1,0,0.1,0,0.2,0c0.4,0.1,1,0.3,1.3,0.7c0.3,0.4,0.3,1.1-0.1,2c0,0-0.1,0.2-0.2,0.2
				c-1.5,0.7-2.9,1.5-4.2,2.4c-2.3,1.6-4.3,3.7-5.4,6.2c-0.2,0.3-0.2,0.6-0.3,0.9c-0.1,0.3-0.2,0.6-0.3,1c-0.1,0.7-0.2,1.3-0.3,2.1
				c-0.1,0.8-0.2,1.6-0.4,2.4l-0.3,1.2l-0.3,1.2c-0.9,3.1-2.4,6-4.2,8.7c-0.5,0.6-1,1.3-1.5,1.9c-0.5,0.6-1,1.2-1.6,1.8l-1.2,1.2
				l-1.2,1.1c0,0-0.2,0.2-0.7,0.5c-0.4,0.3-1,0.7-1.7,1.2c-1.4,0.9-3.2,1.9-4.8,2.5c-2.7,1.1-3.6,1.1-3.4,0.7
				c0.1-0.4,1.3-1.2,2.7-2.3c-0.2,0.1,1.5-1.1,3.1-2.4c1.6-1.3,3.1-2.8,3.1-2.8c0.3-0.3,0.7-0.6,1-1l1.2-1.2c0.5-0.5,1-1.1,1.4-1.6
				c0.4-0.6,0.9-1.1,1.3-1.7c1.6-2.4,2.8-4.9,3.6-7.7c0.4-1.4,0.7-2.8,0.8-4.2l0.1-0.5l0.1-0.6l0.2-1.3l0.4-1.2l0.2-0.6l0.3-0.6
				c1.4-3.1,3.8-5.5,6.4-7.4C971.9,613.1,973.5,612.2,975.1,611.5z"/>
		</g>
	</g>
</g>
<g>
	<g>
		<g>
			<path class="st2" d="M647.3,644.8c-0.1,0.1-0.1,0.1-0.4,0.2c-1.6,0.4-4.6,0.2-4.2-4c0-0.1,0.1-0.4,0.2-0.5
				c2.4-2.5,4.8-4.9,7.1-7.4c9.8-10.3,19.3-20.9,28.6-31.8l3.7-4.4c0,0,1.6-1.7,3.9-4c2.2-2.3,5.1-5.1,7.5-7.4
				c8.1-7.9,6.3-3.6,2.5,2.3c0.3-0.2-2.1,3.2-4.6,6.7c-2.5,3.5-5.1,7-5.1,7l-3.2,3.8c-9.3,10.9-18.9,21.6-28.8,32
				C652.1,639.9,649.7,642.4,647.3,644.8z"/>
		</g>
	</g>
</g>
<g>
	<g>
		<g>
			<path class="st2" d="M660.9,545c0.1-0.1,0.1-0.2,0.4-0.2c1.6-0.5,4.6-0.5,4.4,3.8c0,0.1-0.1,0.4-0.1,0.5l-3.9,4.5l-1.9,2.3
				l-1.8,2c-3.5,4.1-7,8.2-10.4,12.3c-13.7,16.5-26.4,33.7-37.8,51.9c-2.9,4.5-5.7,9.1-8.4,13.7l-2,3.5c-0.7,1.1-1.5,2.4-1.8,3.3
				c-0.9,2-1.5,4.4-1.8,6.8c-0.3,2.5-0.4,5-0.2,7.5c0,1.3,0.2,2.5,0.3,3.8c0.2,1.3,0.3,2.5,0.6,3.8c0.5,2.5,1.2,4.9,2.1,7.2
				c0.9,2.3,2.1,4.4,3.5,6c0.2,0.2,0.3,0.4,0.5,0.6l0.7,0.6l0.7,0.6l0.7,0.5l0.7,0.5l0.8,0.5l0.8,0.5l0.8,0.4
				c2.1,1.2,4.5,2.1,6.9,2.9c4.8,1.5,10,2.3,15.2,2.8c10.5,1,21.2,0.8,32,1c2.7,0,5.5,0.1,8.2,0.3c1.4,0.1,2.8,0.2,4.1,0.4l4,0.4
				l16.1,1.7c10.7,1.1,21.4,2.1,32.1,2.8c5.3,0.4,10.7,0.7,16.1,0.9l2,0.1l0.3,0l0.1,0c-0.6-0.8,5.6,6.9,3,3.7l-0.1,0.5
				c-0.1,0.4-0.1,0.7-0.2,1.1c-0.2,0.7-0.4,1.5-0.7,2.3c-0.1,0.2-0.1,0.4-0.3,0.7l-0.2,0.4l-0.2,0.4l-0.1,0.2l-0.2,0.3
				c-0.2,0.2-0.2,0.3-0.6,0.7c-0.1,0.1-0.5,0.4-0.1,0.1l-0.2,0.1c-0.1,0.1-0.2,0.2-0.3,0.2c-0.1,0.1-0.1,0.1,0,0l0.1,0
				c0,0,0.1,0,0-0.2l-0.2-0.5c0-0.1-0.2-0.4-0.1-0.4l0.1-0.4l0.2-0.5c0.1-0.1-0.1-0.2,0.3-0.2l0.8,0l0.8,0c0.4,0.1,0.4-0.1,0.4-0.3
				l1-5.2l0.2-1.2c0-0.2,0.1-0.4,0.1-0.6l-0.2-0.3l-0.2-0.3c-0.1-0.1-0.1-0.3-0.2-0.2l-0.6,0c-1.1-0.1-0.5,0,0.7,0l0.5,0
				c0.1,0,0,0.1,0,0.2l0,0.2l-0.2,1l-0.4,2l-1.9,9.5l-1.6,7.9c-1.1,5.3-2.2,10.5-3.1,15.8c-1,5.3-1.8,10.5-2.5,15.8
				c-0.7,5.3-1.2,10.6-1.4,15.8c-0.2,5.2,0,10.5,0.8,15.5l0.3,1.9l0.4,1.8l0.5,1.8l0.6,1.8c0.9,2.3,2,4.6,3.3,6.9l0,0
				c2.6,4.6,5.7,9.1,8.6,14c1.1,1.9,2.1,4,3.1,6.1c0.8,2.1,1.8,4.3,2.4,6.5c0.3,1.1,0.7,2.2,0.9,3.3c0.3,1.1,0.5,2.2,0.8,3.3
				l0.6,3.4c0.2,1.1,0.3,2.3,0.4,3.4c0.4,4.5,0.5,9,0.2,13.5c0,0.6,0,1.1-0.1,1.7l-0.1,1.4l0,0.3l-0.1,0.6c-0.1,1.6-0.3,3.3-0.5,4.9
				c0,0-0.1,0.6-0.3,1.6c-0.2,1-0.5,2.4-0.9,4c-0.8,3.2-1.9,7.1-3,10.2c-3.5,10.8-4,6.1-3.3-0.9c-0.1,0.3,0.4-3.8,0.8-8
				c0.2-2.1,0.4-4.2,0.5-5.8c0.1-1.6,0.2-2.7,0.2-2.7l0.3-2.1l0.2-2.1l0.1-0.8c0.1-1,0.1-1.9,0.2-2.9c0-1,0.1-1.9,0.1-2.9
				c0.1-3.9-0.1-7.7-0.6-11.5c-1-7.6-3.2-14.8-7.1-21.4c-2.7-4.6-5.8-9.1-8.6-14.1h0c-1.4-2.4-2.6-5-3.7-7.7l-0.7-2.1l-0.6-2.1
				l-0.5-2.2l-0.4-2.1c-0.9-5.6-1.1-11.2-0.8-16.7c0.2-5.5,0.8-11,1.5-16.4c0.7-5.4,1.5-10.8,2.5-16.1c1-5.3,2-10.6,3.1-15.9
				l2.9-14.2c0-0.7,2.8,3.4,1.5,1.6c-0.1-0.1-0.4-0.4-0.7-0.6c-0.1-0.1-0.3-0.2-0.5-0.3c-0.2-0.1-0.4-0.3-0.6-0.4c0,0,0,0,0,0l0-0.1
				c0-0.1,0.1-0.2,0.1-0.3c0.2-0.4,0.3-1,0.4-1.6c0.1-0.3,0.1-0.6,0.2-0.9l0.1-0.5c-2.6-3.3,3.6,4.4,2.9,3.6l-0.1,0l-0.3,0l-2-0.1
				c-5.4-0.2-10.8-0.6-16.2-0.9c-10.8-0.8-21.6-1.8-32.3-2.8l-16.1-1.7l-4-0.4c-1.3-0.1-2.6-0.3-3.9-0.3c-2.6-0.2-5.3-0.2-7.9-0.3
				c-10.7-0.2-21.6,0.1-32.5-1c-5.5-0.6-11-1.4-16.5-3.1c-2.7-0.9-5.4-1.9-8-3.3l-1-0.5l-0.9-0.6l-0.9-0.6l-0.9-0.7l-0.9-0.7
				l-0.9-0.7l-0.9-0.8c-0.3-0.3-0.6-0.6-0.8-0.9c-2.2-2.4-3.7-5.1-4.7-7.8c-1.1-2.7-1.9-5.5-2.4-8.3c-0.3-1.4-0.5-2.8-0.7-4.2
				c-0.1-1.4-0.3-2.8-0.4-4.3c-0.2-2.8,0-5.7,0.3-8.6c0.4-2.9,1-5.8,2.4-8.7c0.7-1.6,1.4-2.6,2.1-3.8l2.1-3.5
				c2.8-4.6,5.6-9.3,8.5-13.8c11.6-18.3,24.5-35.8,38.3-52.5c3.5-4.2,6.9-8.3,10.5-12.4l1.8-2.1l2-2.3L660.9,545z"/>
		</g>
	</g>
</g>
<g>
	<g>
		<g>
			<path class="st2" d="M655.2,558.1c-0.1-0.1-0.1-0.2-0.1-0.5c0-0.9,0.3-2,1.1-2.7c0.8-0.7,2.1-0.9,4-0.2c0.1,0,0.4,0.2,0.4,0.3
				c0.7,1.4,1.7,2.7,2.6,4l1.5,1.8c0.3,0.3,0.5,0.6,0.8,0.9l0.8,0.8c0.5,0.5,1.1,1.1,1.6,1.6l1.7,1.5c0.6,0.5,1.2,1,1.8,1.4l1.9,1.4
				c2.6,1.7,5.2,3.3,8.1,4.7l1.2,0.6l1.3,0.6c0.9,0.4,1.7,0.8,2.5,1.1c0,0,0.5,0.3,1.4,0.7c0.9,0.4,2.1,1,3.5,1.7
				c2.8,1.4,6.5,3,9.5,4.4c5.2,2.2,6.6,3.3,5.9,3.7c-0.7,0.4-3.6,0.2-7.1-0.5c0.3,0.2-3.8-0.7-8-1.9c-2.1-0.6-4.2-1.2-5.8-1.8
				c-0.8-0.3-1.5-0.5-1.9-0.6c-0.5-0.2-0.7-0.3-0.7-0.3c-1.5-0.7-3.1-1.3-4.6-2.1c-3.1-1.4-6-3.2-8.9-5.1c-0.7-0.5-1.4-1-2.1-1.5
				c-0.7-0.5-1.4-1-2-1.6l-2-1.7c-0.6-0.6-1.2-1.2-1.9-1.8l-1-1c-0.3-0.3-0.6-0.7-0.9-1.1c-0.6-0.7-1.2-1.4-1.8-2.1
				C657.2,561.2,656,559.7,655.2,558.1z"/>
		</g>
	</g>
</g>
<g>
	<g>
		<g>
			<path class="st2" d="M677.8,572.3c-0.1,0-0.1,0.1-0.2,0c-1-0.2-3.2-1.3-4-4.3c0-0.1,0-0.3,0-0.3c0.1-0.1,1.2-1.1,2.9-2.8
				c1.7-1.6,3.9-3.8,6-6.1c4.3-4.5,8.1-9.3,8.1-9.3s0.8-0.7,1.8-1.6c1.1-0.9,2.4-2,3.6-2.9c3.9-3.1,3.9-0.8,2.7,2.1
				c0.1-0.1-0.7,1.6-1.6,3.2c-0.9,1.6-1.9,3.3-1.9,3.3s-3.9,4.9-8.3,9.5c-2.2,2.3-4.4,4.6-6.1,6.2
				C679.1,571.1,677.9,572.2,677.8,572.3z"/>
		</g>
	</g>
</g>
<g>
	<g>
		<g>
			<path class="st2" d="M688.4,560.3c-0.2,0-0.2,0-0.5-0.1c-0.8-0.3-1.8-1-2.2-1.9c-0.4-1-0.1-2.2,1.1-3.8c0-0.1,0.3-0.3,0.4-0.3
				c3.1-0.5,6-1.6,8.7-3.1c3.9-2.2,7.4-5.3,10.9-8.7c0.9-0.9,1.8-1.7,2.7-2.6l0.7-0.7c0,0.1,0.3-0.3,0.4-0.5l1.2-1.3
				c1.6-1.8,3.1-3.6,4.6-5.6c1.2-1.5,2.3-3,3.4-4.5c0,0,0.4-0.4,1-1.2c0.3-0.4,0.7-0.8,1.1-1.3c0.4-0.5,0.9-1,1.2-1.5
				c0.3-0.4,0.4-0.7,0.5-0.8c0-0.1,0-0.2,0-0.4c0-0.2-0.2-0.3-0.3-0.5c-0.3-0.4-0.9-0.7-1.4-0.9c-0.6-0.2-1.1-0.2-1.8-0.1
				c-1.1,0.2-2.1,0.7-2.9,1.1c-0.8,0.4-1.4,0.8-1.9,1c-1,0.5-1.4,0.5-1.4,0c0-0.4,0.4-1.2,1.2-2.3c0.8-1,2.1-2.4,4.1-3.2
				c-0.1,0,0.1-0.1,0.6-0.3c0.5-0.2,1.5-0.4,2.5-0.3c1.1,0.1,2.3,0.4,3.6,1.2c0.6,0.4,1.2,1,1.7,1.7c0.5,0.7,0.9,1.7,0.9,2.7
				c0.1,1-0.1,1.9-0.4,2.7c-0.3,0.8-0.6,1.4-0.9,1.9c-0.6,0.9-1.1,1.7-1.5,2.4c-0.9,1.4-1.5,2.3-1.5,2.3c-1,1.3-2,2.7-3,4
				c-1.6,2-3.2,3.9-4.8,5.8l-1.3,1.4c-0.2,0.2-0.3,0.4-0.8,0.9l-0.7,0.6c-0.9,0.8-1.7,1.6-2.6,2.5c-3.5,3.4-7.4,7.1-12.2,9.7
				C695.7,558.3,692.1,559.7,688.4,560.3z"/>
		</g>
	</g>
</g>
<g>
	<g>
		<g>
			<path class="st2" d="M681.8,500c-0.1,0-0.2,0-0.3-0.2c-0.5-0.4-0.8-1.1-1.5-2c-0.3-0.4-0.6-0.9-0.6-1.6c0.1-0.7,0.7-1.6,1.8-2.3
				c0.1-0.1,0.5-0.2,0.6-0.3c2.2,0.1,4,0.5,5.7,0.9c1.8,0.4,3.5,0.9,5.2,1.4c2.2,0.7,4.4,1.5,6.6,2.3c1.8,0.7,3.6,1.4,5.5,2.1
				c0,0,2.2,1.1,5,2.7c1.4,0.8,3,1.8,4.6,2.9c0.4,0.3,0.8,0.6,1.2,0.9c0.2,0.2,0.4,0.3,0.6,0.5l0.3,0.3l0.2,0.2
				c0.6,0.6,1.2,1.2,1.8,1.7c0.3,0.2,0.5,0.5,0.8,0.7c0.3,0.3,0.6,0.6,0.9,0.9c0.5,0.6,0.8,1.2,0.9,1.9c0,0.6-0.2,1.1-0.4,1.6
				c-0.2,0.4-0.5,0.7-0.7,1c-0.8,0.8-1.2,0.8-1.3,0.4c-0.1-0.2,0-0.5,0-0.9c0-0.3,0.1-0.7,0-1c0-0.4-0.3-0.7-0.7-0.9
				c-0.2-0.1-0.4-0.2-0.6-0.2c-0.3-0.1-0.7-0.4-1.1-0.6c0.1,0.1-0.7-0.3-2.1-1.2c-0.4-0.3-0.5-0.3-0.9-0.5c-0.3-0.2-0.7-0.4-1.1-0.6
				c-0.8-0.4-1.8-0.8-2.7-1.2c-3.8-1.6-7.9-2.9-7.9-2.9c-1.5-0.6-3-1.2-4.5-1.8c-2.1-0.8-4.2-1.5-6.3-2.2c-1.6-0.5-3.2-1-4.8-1.3
				C684.7,500.4,683.1,500.1,681.8,500z"/>
		</g>
	</g>
</g>
<g>
	<g>
		<g>
			<path class="st2" d="M699.8,493.4c0.1,0.1,0.2,0.1,0.3,0.2c0.8,1.1,1.5,3.5-1.9,4.4c-0.1,0-0.3,0.1-0.5,0
				c-2.6-1.1-5.2-2.2-7.8-3.3c-10.1-4.2-20.4-8.3-30.6-12.4c-10.2-4.1-20.4-8.2-30.6-12.5c-10.2-4.2-20.3-8.5-30.5-12.9l-15.2-6.6
				l-5.1-2.3c0,0-1.7-0.9-4.1-2.2c-2.3-1.3-5.2-3-7.5-4.4c-8-4.8-4.2-4.3,1.3-2.5c-0.3-0.2,3,1,6.3,2.3c3.3,1.2,6.7,2.5,6.7,2.5
				l6.3,2.8l14.9,6.5c9.9,4.3,19.9,8.5,29.9,12.6c10,4.1,20,8.2,30.1,12.2c10,4,20.1,8,30.1,12.2
				C694.6,491.2,697.2,492.3,699.8,493.4z"/>
		</g>
	</g>
</g>
<g>
	<g>
		<g>
			<path class="st2" d="M721.8,467.6c0,0.1,0.1,0.2,0,0.4c-0.1,0.8-0.6,1.8-1.4,2.1c-0.8,0.4-1.9,0.1-3.2-0.5
				c-0.1,0-0.3-0.2-0.3-0.3c-0.8-2.2-2.3-4.6-3.8-6.9c-2.9-4.5-6.3-8.7-9.6-13.1c-0.8-1.1-1.7-2.2-2.5-3.4l-2.3-3.4l-4.6-6.8
				l-18.4-27.3c-6.1-9.1-12.2-18.3-18.2-27.4l-9-13.8l-3-4.7c0,0-3.8-6.9-6-12c-4-8.5-1-5.9,2.5-1.3c-0.1-0.3,1.9,2.5,4,5.4
				c2.1,2.8,4.2,5.8,4.2,5.8l3.7,5.8l8.8,13.5c5.9,9,11.9,18,17.9,26.9l18.1,26.8l4.5,6.7l2.3,3.3c0.7,1,1.5,2.1,2.3,3.2
				c3.3,4.3,6.6,8.6,9.7,13.2C719.1,462,720.7,464.5,721.8,467.6z"/>
		</g>
	</g>
</g>
<g>
	<g>
		<g>
			<path class="st2" d="M564.7,440.4c-0.2,0-0.2,0-0.5-0.1c-0.4-0.1-0.9-0.5-1.3-0.9c-0.4-0.4-0.6-1-0.5-1.4
				c0.1-0.4,0.4-0.7,0.8-1.1c0.2-0.2,0.3-0.4,0.4-0.7c0.1-0.1,0.2-0.3,0.2-0.4c0.1-0.1,0.1-0.2,0.2-0.4c0,0,0.2-0.2,0.2-0.2
				c0.9-0.1,2.2-0.4,3.4-0.9c1.2-0.4,2.5-1,3.7-1.5c1.1-0.5,2.2-1.1,3.3-1.6l3.2-1.9c1.1-0.6,2.1-1.3,3.2-2c1-0.7,2.1-1.4,3.1-2.1
				c4.1-2.9,7.9-6.2,11.6-9.6c7.3-6.9,13.5-15,19.4-23.3c2.9-4.2,5.8-8.4,8.6-12.7l2.1-3.2c0.7-1.1,1.5-2.2,2-3.1
				c1.2-2.1,2.3-4.3,3.3-6.6c1-2.3,1.9-4.6,2.8-7c0.8-2.4,1.6-4.8,2.2-7.1c0.2-0.6,0.2-1.1,0.4-1.7c0.1-0.5,0.1-1,0.1-1.5
				c0-1-0.2-1.7-0.5-2c-0.3-0.3-0.6-0.5-1.3-0.5c-0.7,0-1.7,0.4-2.7,0.8c-1,0.4-2.1,1.2-3.1,1.8c-1.1,0.6-2.1,1.3-3.1,2
				c-2.1,1.4-4.1,2.9-6.1,4.5c-4,3.1-7.8,6.5-11.4,10c-7.3,7-14.2,14.6-20.5,22.5c-6.3,8-12.2,16.3-16.9,25.2l-1.2,2.3l-0.5,1.1
				l-1,2.2c0,0-0.2,0.4-0.6,1.1c-0.4,0.7-0.9,1.7-1.4,2.9c-0.6,1.1-1.1,2.5-1.7,3.8c-0.5,1.4-1,2.7-1.4,4c-0.6,2.2-0.8,3.6-1,4.5
				c-0.2,0.9-0.4,1.1-0.7,0.9c-0.3-0.2-0.5-0.9-0.8-2c-0.1-0.5-0.2-1.1-0.2-1.8c-0.1-0.7-0.1-1.4,0-2.2c-0.1,0.3,0.1-3.4,1.1-6.9
				c0.5-1.8,1-3.5,1.5-4.8c0.2-0.7,0.4-1.2,0.6-1.6c0.1-0.4,0.2-0.6,0.2-0.6l1.1-2.3c0.2-0.4,0.4-0.8,0.6-1.1l0.9-1.7
				c0.6-1.2,1.2-2.3,1.9-3.4c5.1-9,11.1-17.3,17.6-25.2c6.5-7.9,13.4-15.4,20.9-22.4c3.8-3.5,7.7-6.8,11.8-10c1-0.8,2.1-1.6,3.1-2.3
				l1.6-1.1l1.6-1.1c1.1-0.7,2.2-1.4,3.4-2c1.1-0.7,2.5-1.3,4-1.8c0.8-0.2,1.6-0.4,2.5-0.4c0.9,0,1.9,0.1,2.9,0.5
				c1,0.4,1.9,1.1,2.5,1.9c0.7,0.8,1.1,1.8,1.3,2.6c0.4,1.8,0.3,3.3,0.1,4.8c-0.2,1.4-0.6,2.7-0.9,4c-1.4,5.1-3.3,9.8-5.4,14.6
				c-1.1,2.4-2.2,4.7-3.7,7.1l-4.2,6.3c-2.8,4.2-5.7,8.4-8.6,12.6c-2.9,4.2-6,8.3-9.3,12.2c-1.6,2-3.4,3.9-5.1,5.8
				c-1.8,1.9-3.6,3.7-5.5,5.5c-3.8,3.5-7.7,6.9-12,9.9c-1,0.8-2.1,1.5-3.2,2.2c-1.1,0.7-2.1,1.4-3.3,2.1c-1.1,0.7-2.2,1.3-3.3,2
				c-1.2,0.7-2.4,1.2-3.6,1.8c-1.3,0.6-2.7,1.2-4.2,1.7c-0.7,0.3-1.5,0.5-2.2,0.7c-0.4,0.1-0.8,0.2-1.2,0.3
				C565.6,440.3,565.2,440.4,564.7,440.4z"/>
		</g>
	</g>
</g>
<g>
	<g>
		<g>
			<path class="st3" d="M583.9,455.1c-0.1,0-0.2,0.1-0.4,0c-1.4-0.2-3.5-1.4-1.8-4.4c0-0.1,0.2-0.3,0.3-0.3c2.6-1.1,5.2-2,7.6-3.3
				c1.3-0.7,2.7-1.3,4-2l3.9-2.2c0.6-0.4,1.3-0.7,1.9-1.1l1.9-1.2c1.2-0.8,2.5-1.6,3.7-2.5c4.8-3.5,9.2-7.5,13.3-11.9
				c4.1-4.4,7.7-9.1,11.1-14.1l2.5-3.8l2.3-3.9l0.4-0.7c0.1-0.2,0.2-0.4,0.3-0.5l0.6-1.1l1.2-2.2c0,0,1.1-1.6,2.5-3.8
				c1.4-2.2,3.2-5,4.8-7.3c5-7.9,4.4-4.1,2.5,1.4c0.2-0.2-1.1,3-2.5,6.2c-0.7,1.6-1.5,3.3-2,4.5c-0.6,1.2-1,2-1,2l-1.2,2.2
				c-0.2,0.4-0.4,0.7-0.6,1.1l-1,1.7c-1.5,2.6-3.2,5.2-4.9,7.8c-3.5,5.1-7.3,9.9-11.5,14.4c-4.3,4.5-8.9,8.6-13.9,12.2
				c-1.3,0.9-2.6,1.7-3.8,2.6l-1.9,1.3c-0.7,0.4-1.3,0.8-2,1.2l-4,2.3c-1.4,0.7-2.8,1.4-4.1,2.1C589.3,453,586.5,454,583.9,455.1z"
				/>
		</g>
	</g>
</g>
<g>
	<g>
		<g>
			<path class="st2" d="M715.4,466.4c0,0-0.1,0,0-0.2c0-0.5,0.1-1.4,0.5-2.3c0.4-0.9,1.1-2,2.6-2.6c0.1,0,0.3-0.1,0.4-0.1
				c0,0,0.2,0.1,0.4,0.3c0.2,0.2,0.5,0.4,0.8,0.6c0.7,0.5,1.6,1.3,2.7,2.2c2.1,1.8,4.8,4.3,7.3,6.8c5.2,5,10.1,10.1,10.1,10.1
				s2.8,3.8,4.2,6.8c2.7,5,0.2,4.2-2.6,2.3c0.1,0.2-1.5-1.1-3.1-2.4c-1.6-1.3-3.3-2.6-3.3-2.6s-1.2-1.2-3-3.1
				c-1.8-1.9-4.3-4.3-6.8-6.7c-2.5-2.4-5-4.8-7-6.4c-1-0.8-1.8-1.5-2.4-1.9c-0.3-0.2-0.5-0.4-0.7-0.5
				C715.5,466.4,715.4,466.4,715.4,466.4z"/>
		</g>
	</g>
</g>
<g>
	<g>
		<g>
			<path class="st2" d="M737.1,490.3c0,0,0-0.1,0.2-0.1c0.5,0,1.3,0,2.3,0.3c1,0.3,2.1,0.8,3.1,1.9c0,0,0.2,0.2,0.2,0.3
				c0,0-0.2,0.4-0.4,1c-0.3,0.6-0.7,1.4-1.3,2.4c-1.1,1.9-2.8,4.3-4.7,6.4c-2,2.1-4.2,4-6,5.2c-1.8,1.2-3.1,1.9-3.1,1.9
				s-0.2,0.1-0.6,0.2c-0.4,0.1-0.9,0.2-1.6,0.4c-1.3,0.3-2.9,0.5-4.2,0.4c-2.2,0-3-0.6-2.9-1.2c0.1-0.7,0.9-1.4,1.9-2.1
				c-0.1,0,1.1-0.7,2.3-1.5c0.6-0.4,1.2-0.9,1.6-1.2c0.4-0.3,0.7-0.6,0.7-0.6s0.3-0.1,0.7-0.4c0.4-0.3,1.1-0.6,1.8-1.2
				c1.5-1,3.3-2.5,4.9-4.2c1.6-1.7,3-3.7,3.8-5.2c0.4-0.8,0.8-1.5,1-1.9C737,490.6,737.1,490.4,737.1,490.3z"/>
		</g>
	</g>
</g>
<g>
	<g>
		<g>
			<path class="st2" d="M712.6,457.8c0.1-0.1,0.1-0.2,0.3-0.3c1.3-0.9,4.1-2.2,5.5,1.9c0,0.1,0.1,0.4,0.1,0.6
				c-1.2,3.3-2.6,6.6-4.2,9.8c-2.1,4.3-4.6,8.5-7.3,12.5c-0.5,0.8-1.1,1.6-1.7,2.4c-0.6,0.8-1.2,1.6-1.8,2.4c0,0-0.4,0.5-1.1,1.2
				c-0.7,0.8-1.7,1.8-2.9,2.9c-2.4,2.3-5.6,4.9-8.4,6.9c-1.2,0.8-2.2,1.5-3,2c-0.8,0.5-1.5,0.8-2,1c-1,0.4-1.4,0.3-1.4-0.1
				c0.1-0.9,2-3,4.3-5.6c-0.3,0.2,2.5-2.8,5.1-6c1.3-1.6,2.6-3.3,3.5-4.6c0.9-1.3,1.5-2.2,1.5-2.2c1-1.3,1.9-2.5,2.8-3.9
				c2.6-3.7,4.9-7.6,6.9-11.7C710.2,464,711.4,461,712.6,457.8z"/>
		</g>
	</g>
</g>
<g>
	<g>
		<g>
			<path class="st2" d="M691.9,487.5c0.1-0.1,0.1-0.2,0.4-0.2c1.6-0.4,4.6-0.4,4.4,3.8c0,0.1-0.1,0.4-0.1,0.5
				c-2.3,2.6-4.7,5.1-7,7.6c-7.4,7.8-15,15.3-22.9,22.5l-4.3,3.9c0,0-1.9,1.5-4.5,3.4c-2.6,1.9-5.9,4.2-8.8,6
				c-9.6,6.1-6.9,2.2-2-2.8c-0.3,0.2,2.7-2.7,5.7-5.7c3-3,6.1-6.1,6.1-6.1l3.6-3.3c7.8-7.1,15.3-14.5,22.6-22.2
				C687.3,492.6,689.6,490,691.9,487.5z"/>
		</g>
	</g>
</g>
<g>
	<g>
		<g>
			<path class="st2" d="M719.7,509.7c0.1-0.1,0.2-0.1,0.4-0.1c1.6-0.2,4.5,0.4,3.6,4.4c0,0.1-0.1,0.4-0.2,0.5
				c-2.6,2.1-5.3,4.2-8,6.2c-10.5,8.1-21.3,16-32.6,23.2c-1.6,1-3.2,2-4.8,3c0,0-0.5,0.3-1.4,0.7c-0.9,0.4-2.1,1.1-3.5,1.7
				c-2.9,1.3-6.5,2.9-9.7,3.9c-2.6,1-4.4,1.3-5.5,1.5c-1.1,0.1-1.4-0.1-1.3-0.4c0.1-0.4,0.8-1,1.8-1.7c0.5-0.4,1.1-0.7,1.7-1.1
				c0.6-0.4,1.3-0.9,2-1.3c-0.2,0,0.6-0.4,1.9-1.2c1.2-0.8,3-1.8,4.7-3c1.7-1.1,3.5-2.3,4.7-3.2c1.3-0.9,2.2-1.5,2.2-1.5l4-2.5
				c11-7.1,21.7-14.9,32.1-22.9C714.4,513.8,717.1,511.7,719.7,509.7z"/>
		</g>
	</g>
</g>
<g>
	<g>
		<g>
			<path class="st2" d="M672.9,500.2c0.1-0.1,0.2-0.1,0.3-0.2c0,0,0,0,0.1,0l0,0l0,0l0,0h0l3.8,0.6l0,0l0,0l0,0c0,0,0,0.1,0,0.2
				c0.3,1.6,0,4.6-4.2,4c0,0-0.1,0-0.2-0.1l0,0l0,0l0,0l0,0l0,0l3.7,0.6l0,0l0,0c0,0,0,0,0,0c-0.1,0-0.1,0-0.2,0.3
				c-0.1,0.3-0.1,0.8-0.1,1.4c0,0.6,0.2,1.3,0.4,1.9c0,0.2,0.1,0.3,0.2,0.5l0.2,0.6l0.4,1.2l0.8,2c0.7,1.7,1.5,3.3,2.3,5
				c0,0,0.9,2.1,2.3,4.8c1.4,2.7,3.4,6.1,5.2,8.8c1.6,2.3,2.7,3.8,3.2,4.7c0.5,1,0.5,1.4,0.1,1.4c-0.8,0-3.4-1.5-6-4
				c0.2,0.3-2.9-2.7-5.6-6.2c-2.8-3.5-5-7.5-5-7.5c-0.8-1.5-1.5-3.1-2.2-4.7l-0.9-2.2l-0.5-1.3l-0.2-0.6c-0.1-0.2-0.2-0.5-0.2-0.7
				c-0.3-1-0.5-2-0.6-3.1c-0.1-1.1-0.1-2.3,0.3-3.7c0.2-0.7,0.5-1.4,1-2C671.6,501.2,672.2,500.6,672.9,500.2z"/>
		</g>
	</g>
</g>
<g>
	<g>
		<g>
			<path class="st2" d="M672.2,497.1c0.2,0.1,0.3,0.1,0.5,0.3c0.4,0.4,0.8,0.9,0.9,1.5c0.2,0.6,0.2,1.1,0,1.6
				c-0.2,0.5-0.6,0.9-1.2,1.2c-0.5,0.3-1.2,0.7-1.8,1.1c0,0-0.2,0.2-0.3,0.2c-0.7-0.3-1.8-0.2-2.9,0.3c-1,0.4-2,1.2-2.6,2.1
				c-0.5,0.7-0.9,1.7-1.1,2.8c-0.2,1.1-0.2,2.2-0.1,3.4c0.2,2.4,1,4.9,2,7.5c0.7,1.7,1.4,3.4,2.2,5c0,0,0.8,2.1,2.2,4.9
				c1.4,2.8,3.3,6.1,5.1,8.9c1.6,2.3,2.6,3.8,3.2,4.7c0.5,1,0.5,1.4,0.1,1.4c-0.8,0-3.4-1.5-6-4c0.2,0.3-2.9-2.7-5.6-6.3
				c-1.3-1.8-2.6-3.7-3.5-5.1c-0.9-1.5-1.4-2.5-1.4-2.5c-0.8-1.6-1.4-3.2-2.1-4.8c-1.1-2.8-2-5.8-2.4-9.1c-0.2-1.7-0.1-3.4,0.2-5.2
				c0.3-1.8,0.9-3.5,2.1-5.2c0.7-1,1.5-1.8,2.4-2.5c0.9-0.7,1.9-1.3,2.9-1.8c1-0.5,2.2-0.8,3.4-0.9
				C669.6,496.6,670.9,496.7,672.2,497.1z"/>
		</g>
	</g>
</g>
<g>
	<g>
		<g>
			<path class="st2" d="M652.9,507.6c0.2,0,0.3,0,0.6,0.1c0.5,0.2,1.1,0.6,1.5,1c0.4,0.5,0.6,1,0.5,1.5c0,0.5-0.3,1-0.7,1.5
				c-0.2,0.3-0.4,0.5-0.6,0.8c-0.2,0.3-0.4,0.6-0.6,0.9c0,0.1-0.1,0.2-0.2,0.2c-0.7,0.1-1.7,0.5-2.4,1.4c-0.4,0.4-0.7,0.9-0.9,1.4
				c-0.1,0.2-0.2,0.5-0.3,0.7c-0.1,0.2-0.1,0.5-0.1,0.8c-0.4,2.8,1,6.1,2.9,9.3c0.9,1.6,1.9,3.1,3,4.5c0,0,0.3,0.5,0.8,1.3
				c0.5,0.8,1.3,1.9,2.2,3c0.9,1.2,2,2.4,3.2,3.6c1.2,1.2,2.6,2.3,3.8,3.2c2.2,1.4,3.9,2.2,4.8,2.7c0.9,0.5,1.2,0.9,0.9,1.1
				c-0.3,0.2-1.3,0.4-2.6,0.3c-1.3-0.1-3-0.4-4.8-1.1c0.2,0.1-0.8-0.3-2.3-1c-1.5-0.8-3.4-2-5.2-3.5c-1.8-1.5-3.4-3.1-4.5-4.4
				c-1.1-1.3-1.9-2.2-1.9-2.2c-1-1.4-1.9-2.9-2.8-4.4c-1.1-1.8-2.1-3.7-2.8-5.9c-0.8-2.2-1.2-4.6-0.9-7.2c0.1-0.5,0.2-1.2,0.3-1.8
				c0.2-0.6,0.4-1.1,0.6-1.7c0.5-1.1,1.2-2,2-2.9C648,509.3,650.2,507.9,652.9,507.6z"/>
		</g>
	</g>
</g>
<g>
	<g>
		<g>
			<path class="st2" d="M643.9,523.6c0.3-0.1,0.4-0.1,0.8-0.1c0.8,0,1.5,0.3,2,0.8c0.5,0.5,0.7,1.1,0.7,1.6c0,0.5-0.3,1-0.6,1.5
				c-0.2,0.2-0.3,0.5-0.5,0.8c-0.1,0.3-0.3,0.6-0.1,1l0,0l0,0l0-0.1l0,0l0,0l0,0c0,0,0,0,0,0.1c0,0,0,0.1,0,0.1c0,0,0,0.1,0,0.1
				c-0.1,0-0.5,0.3-0.8,0.7c-0.2,0.2-0.3,0.3-0.4,0.6c-0.2,0.3-0.3,0.6-0.5,0.9c-0.6,1.2-1,2.6-1.1,4c-0.1,0.9-0.1,1.7-0.1,2.6
				c0.1,1.6,0.5,3.1,1.1,4.5c0,0,0,0.1,0.1,0.3c0.1,0.2,0.2,0.5,0.4,0.9c0.3,0.7,0.9,1.7,1.7,2.8c0.8,1,2,2.1,3.3,3
				c1.3,0.9,2.9,1.6,4.3,2c2.5,0.7,4.3,0.7,5.3,0.8c1.1,0.1,1.4,0.3,1.2,0.7c-0.2,0.4-1,0.9-2.3,1.3c-1.3,0.4-3.1,0.7-5,0.5
				c0.2,0.1-0.9,0-2.6-0.4c-1.7-0.4-4-1.2-6-2.6c-2.1-1.3-3.9-3.3-4.9-4.9c-0.6-0.8-0.9-1.5-1.2-2c-0.2-0.5-0.4-0.8-0.4-0.8
				c-0.7-1.8-1.1-3.8-1.3-5.7c-0.1-1.3-0.1-2.5,0.1-3.8c0.2-2,0.8-4,1.7-5.9c0.2-0.5,0.5-0.9,0.7-1.4c0.3-0.5,0.7-1,1-1.5
				C641.5,525.1,642.4,524.2,643.9,523.6z"/>
		</g>
	</g>
</g>
<g>
	<g>
		<g>
			<path class="st2" d="M828.7,559.6c-0.1-0.1-0.2-0.2-0.2-0.3c0-0.1,0.1-0.2,0.1-0.4c0-0.1,0.1-0.3,0.1-0.5c0-0.4-0.1-0.8-0.1-1.1
				c-0.1-0.5,0-0.9,0.3-1.7c0.3-0.7,1.3-1.3,3-1c0,0,0.2,0.1,0.3,0.1c0.1,0,0.2,0,0.3,0.1c2.7,2.1,5.3,4.2,8.1,6.1
				c0.8,0.6,1.7,1.2,2.5,1.7c1.5,1,3.1,1.9,4.7,2.8c0,0,1.9,1.2,4.6,2.7c2.7,1.4,6.2,2.9,9.3,3.9c2.6,0.7,4.4,1.1,5.4,1.4
				c1,0.3,1.3,0.6,1.1,0.9c-0.6,0.6-3.6,1.3-7.3,1c0.2,0.1-0.8,0-2.4-0.2c-1.6-0.2-3.8-0.7-5.9-1.3c-2.2-0.6-4.3-1.4-5.9-2.1
				c-1.6-0.7-2.6-1.2-2.6-1.2c-1.5-0.8-3-1.7-4.4-2.7c-0.9-0.6-1.8-1.2-2.7-1.8C834.2,563.9,831.4,561.8,828.7,559.6z"/>
		</g>
	</g>
</g>
<g>
	<g>
		<g>
			<path class="st2" d="M828,555.7c0-0.1,0.1-0.1,0.2-0.1c0.6-0.1,1.4,0,2.3,0.5c0.9,0.5,1.8,1.4,2.7,2.5c0,0,0.1,0.2,0.1,0.2
				c0,0.1-0.6,0.9-1,2.6c-0.4,1.6-0.3,4,0.5,6.3c0.4,1.1,0.9,2.2,1.5,3.2c0.6,1,1.3,1.9,1.9,2.6c1.2,1.5,2.2,2.4,2.2,2.4
				s0.5,0.7,1.2,1.7c0.7,1,1.7,2.3,2.4,3.5c2.7,3.8,0.5,3.8-2.2,2.6c0.1,0.1-1.4-0.7-2.9-1.6c-1.5-0.9-3-2-3-2s-0.3-0.3-0.7-0.8
				c-0.5-0.5-1.1-1.2-1.9-2.1c-0.7-0.9-1.6-2-2.4-3.3c-0.8-1.3-1.5-2.9-2-4.5c-1-3.2-1.2-6.7-0.6-9.4c0.3-1.3,0.7-2.4,1-3.2
				C827.7,556.2,827.9,555.8,828,555.7z"/>
		</g>
	</g>
</g>
<g>
	<g>
		<g>
			<path class="st2" d="M628.7,326.2c0,0.1,0.1,0.2,0,0.4c-0.4,1.6-2,4.1-5.5,1.8c-0.1,0-0.3-0.3-0.4-0.4l-3-9.9l-2.8-9.1l-1.7-5.5
				c0,0-2.2-9.2-3.2-15.9c-2.1-11.1,0.6-7.3,3.4-0.8c-0.1-0.7,6,15.6,6,15.6l1.5,4.7l2.8,9.1L628.7,326.2z"/>
		</g>
	</g>
</g>
<g>
	<g>
		<g>
			<path class="st2" d="M587.1,331.4c0.1,0.1,0.1,0.2,0.1,0.4c0.1,1.6-0.5,4.6-4.6,3.6c-0.1,0-0.4-0.1-0.5-0.2l-6.3-8.2l-23.7-31
				l-3.5-4.6c0,0-5.2-7.9-8.5-13.7c-5.8-9.7-2-7,2.9-1.9c-0.3-0.7,11.1,12.5,11.1,12.5l3,3.9l23.7,31L587.1,331.4z"/>
		</g>
	</g>
</g>
<g>
	<g>
		<g>
			<path class="st2" d="M551,364.9c0.1,0.1,0.2,0.1,0.3,0.3c1,1.3,2.1,4.1-1.8,5.5c-0.1,0-0.4,0.1-0.5,0.1l-9.8-3.3l-1.9-0.7
				l-5.4-1.9c0,0-8.7-3.7-14.7-6.7c-10.2-4.9-5.5-4.7,1.3-3.2c-0.6-0.4,16.2,4.3,16.2,4.3l4.7,1.6l1.9,0.6L551,364.9z"/>
		</g>
	</g>
</g>
<g>
	<g>
		<g>
			<path class="st2" d="M543.1,415.2c0.2,0,0.2,0,0.4,0.2c1.4,0.9,3.4,3.1,0.1,5.8c-0.1,0-0.3,0.2-0.5,0.3l-10.3,0l-7.1,0l-5.8,0
				c0,0-9.5-0.6-16.1-1.5c-11.3-1.3-6.8-2.7,0.2-3.4c-0.7-0.1,16.7-1.2,16.7-1.2l4.9,0l7.1,0L543.1,415.2z"/>
		</g>
	</g>
</g>
<g>
	<g>
		<g>
			<path class="st2" d="M871,571.1c0,0,0,0,0-0.2c0-0.4,0.1-1.2,0.2-2.3c0.1-1,0.3-2.2,1.3-3.4c0,0,0.2-0.2,0.3-0.2
				c0,0,0.4,0.1,1.1,0.4c0.6,0.3,1.5,0.8,2.3,1.5c1.7,1.5,3,3.8,3.4,6.4c0.2,1.2,0.3,2.6,0.1,3.8c-0.2,1.1-0.4,2.1-0.7,3
				c-0.6,1.6-1.1,2.6-1.1,2.6s-0.5,0.6-1.2,1.2c-0.7,0.7-1.6,1.4-2.5,1.8c-2.8,1.7-3.2-0.1-2.8-2c-0.1,0,0.3-1,0.6-2
				c0.3-1,0.5-2,0.5-2s0.1-0.2,0.2-0.5c0.1-0.3,0.3-0.8,0.5-1.3c0.2-0.5,0.3-1.1,0.4-1.8c0.1-0.6,0.1-1.2-0.1-1.8
				c-0.2-1.3-0.9-2.3-1.5-2.8C871.4,571.1,871,571.1,871,571.1z"/>
		</g>
	</g>
</g>
<g>
	<g>
		<g>
			<path class="st2" d="M809,646.9c0.1-0.1,0.1-0.2,0.4-0.3c0.8-0.4,2-0.6,2.9-0.1c0.9,0.4,1.6,1.6,1.8,3.5c0,0.1,0,0.4-0.1,0.5
				c-1.7,2.4-3,5.3-3.6,8.3c-0.6,2.4-0.8,5-0.6,7.6c0.1,2.6,0.5,5.1,1.2,7.6c0.7,2.5,1.7,4.9,2.9,7.2c1.2,2.3,2.7,4.4,4.4,6.3
				c3.5,3.9,7.7,7.2,12.4,9.6c4.7,2.4,9.8,4.1,15.1,4.9c5.3,0.9,10.7,0.9,15.9,0.1c5.2-0.8,10.4-2.3,15.3-4.6
				c4.9-2.2,9.5-5.1,13.7-8.5c0.1-0.1,0.3-0.2,0.4-0.3l0.3-0.3l0.3-0.2l0.6-0.5l1.1-0.9c0.7-0.6,1.4-1.3,2.2-2c0,0,0.1-0.1,0.3-0.3
				c0.2-0.2,0.5-0.4,0.9-0.7c0.7-0.6,1.8-1.5,2.9-2.5c2.3-2,5.1-4.9,7.4-7.2c0.9-1,1.7-1.9,2.4-2.6c0.6-0.7,1.2-1.2,1.6-1.6
				c0.8-0.7,1.3-0.8,1.4-0.4c0.2,0.8-0.9,3.6-2.7,6.7c0.3-0.3-2,3.4-4.7,6.9c-2.7,3.5-5.9,6.7-5.9,6.7c-0.8,0.7-1.5,1.4-2.3,2.1
				l-1.2,1l-0.3,0.2l-0.3,0.2c-0.1,0.1-0.3,0.2-0.4,0.3l-1.7,1.3c-4.6,3.5-9.6,6.4-15,8.7c-5.3,2.3-11,3.9-16.9,4.6
				c-5.8,0.7-11.7,0.5-17.5-0.6c-5.8-1-11.4-2.9-16.6-5.7c-5.2-2.8-9.9-6.5-13.8-11.1c-2-2.3-3.7-4.8-5-7.4
				c-0.7-1.3-1.3-2.7-1.9-4.1c-0.5-1.4-1-2.8-1.4-4.3c-0.4-1.4-0.7-2.9-1-4.4c-0.2-1.5-0.4-3-0.4-4.5c-0.1-1.5,0-3,0.1-4.5
				c0.1-0.8,0.2-1.5,0.3-2.3c0.1-0.8,0.3-1.5,0.4-2.3C805.2,653.7,806.8,650.1,809,646.9z"/>
		</g>
	</g>
</g>
<g>
	<g>
		<g>
			<path class="st3" d="M474,745.2c0-0.2,0-0.2,0.2-0.4c1-1.5,3.4-3.6,6.3-0.1c0.1,0.1,0.2,0.4,0.3,0.5c0,3.7,0,7.3,0.1,11
				c0.3,16.6,1.4,33.2,2.2,49.8l2.3,44.3c0,0-0.1,10.2-0.8,17.4c-0.8,12.2-2.5,7.4-3.7,0c-0.1,0.8-2.2-17.8-2.2-17.8l-2.3-44.2
				c-0.8-16.4-1.9-32.7-2.2-49.2C474,752.6,474,748.9,474,745.2z"/>
		</g>
	</g>
</g>
<g>
	<g>
		<g>
			<path class="st2" d="M478.1,749.4c0,0.1,0,0.2-0.2,0.3c-0.6,0.6-1.4,1.3-2.5,1.6c-1.1,0.2-2.5,0-3.7-2.1c0-0.1-0.2-0.5-0.2-0.6
				c0.5-4.3,2.2-8.1,4.1-11.6c2.1-3.9,4.6-7.2,6.9-10.6c2.3-3.4,4.7-6.8,7.1-10.2c4.8-6.7,9.6-13.4,14.4-20.1l3.6-5
				c0,0,6.5-7.8,11.3-13.1c8-9.2,6.5-4.4,2.9,2.3c0.3-0.3-2,3.6-4.4,7.5c-2.4,3.9-4.9,7.9-4.9,7.9l-3.1,4.3
				c-4.8,6.7-9.6,13.3-14.4,20c-2.4,3.3-4.7,6.7-7,10.1c-2.3,3.4-4.7,6.7-6.5,10.1C479.7,743.3,478.5,746.4,478.1,749.4z"/>
		</g>
	</g>
</g>
<g>
	<g>
		<g>
			<path class="st2" d="M521.8,673.8c0-0.2,0-0.2,0.1-0.4c0.9-1.5,3.2-3.7,6.1-0.3c0.1,0.1,0.3,0.4,0.3,0.5l0.4,10.9l6.4,166.4
				c0,0-0.3,10-1,17c-0.9,11.9-2.6,7.2-3.6-0.1c-0.1,0.8-1.9-17.5-1.9-17.5l-6.3-165.5L521.8,673.8z"/>
		</g>
	</g>
</g>
<g>
	<g>
		<g>
			<path class="st2" d="M476.8,749.6c0.2,0,0.2,0,0.4,0.2c1.4,1.1,3.1,3.8-0.8,6.2c-0.1,0-0.4,0.2-0.5,0.2
				c-3.5-0.5-7.1-0.8-10.7-0.9c-7.4-0.3-14.8,0-22.3,0.5c-2,0.1-4.1,0.3-6.1,0.5c0,0-2.5,0-6,0.1c-3.4,0-7.8,0-11.4-0.2
				c-6.1-0.2-8-0.9-7.4-1.6c0.6-0.7,3.6-1.4,7.3-2.2c-0.4,0,4-0.7,8.6-1.4c4.6-0.7,9.2-1.4,9.2-1.4l5.3-0.4c7.6-0.6,15.3-0.9,23-0.6
				C469.3,748.8,473.1,749,476.8,749.6z"/>
		</g>
	</g>
</g>
<g>
	<g>
		<g>
			<path class="st2" d="M411.4,754.4c0.2-0.2,0.3-0.3,0.7-0.4c0.7-0.3,1.5-0.3,2.1-0.2c0.7,0.2,1.1,0.6,1.4,1
				c0.2,0.5,0.3,1.1,0.2,1.7c-0.1,0.7-0.2,1.4,0.2,2.1c0,0.1,0.1,0.2,0.1,0.2c-0.1,0.1-0.3,0.4-0.4,1c-0.1,0.5-0.2,1.2-0.3,1.9
				c0,0.7,0,1.4,0.1,2.3l0.2,2.7c1.1,15.3,1.9,30.6,2.3,45.9c0.2,7.7,0.3,15.3,0.3,23c0,3.8,0,7.7-0.1,11.5l-0.1,6.6
				c0,0-0.2,2.5-0.6,5.8c-0.4,3.3-0.9,7.5-1.5,11c-1.8,11.7-3.1,6.9-3.6-0.4c-0.1,0.4-0.2-4-0.4-8.4c-0.2-4.4-0.4-9-0.4-9l0.1-7.1
				l0-11.2c0-7.5-0.1-15-0.3-22.4c-0.4-15-1.1-29.9-2.3-44.8l-0.2-2.7c-0.1-0.8-0.2-2-0.1-3c0-1.1,0.2-2.2,0.5-3.4
				C409.7,757,410.2,755.6,411.4,754.4z"/>
		</g>
	</g>
</g>
<g>
	<g>
		<g>
			<path class="st2" d="M427.2,728.6c0,0,0.1-0.1,0.2,0c1.1,0.1,3.6,0.9,5.2,3.7c0,0.1,0.1,0.3,0.1,0.3
				c-0.2,0.3-14.5,19.7-14.5,19.7s-2.9,2.7-5.3,4.3c-3.9,2.9-4,0.5-3-2.3c-0.3,0.2,3.1-6.3,3.1-6.3S427,728.9,427.2,728.6z"/>
		</g>
	</g>
</g>
<g>
	<g>
		<g>
			<path class="st2" d="M525.6,671.1c0,0,0,0,0.1,0.2c0.3,1,1,3.4,0.3,6.4c0,0.1-0.1,0.3-0.1,0.3c-0.1,0-1.1,0.1-2.6,0
				c-1.5,0-3.4-0.2-5.3-0.5c-3.7-0.5-7.3-1.2-7.3-1.2s-2.2-1.2-3.6-2.5c-2.4-2-1-3.2,0.8-3.7c-0.1-0.1,1-0.2,2.1-0.3
				c1.1-0.1,2.2-0.2,2.2-0.2s3.4,0.7,6.7,1.1c1.7,0.2,3.3,0.4,4.6,0.4C524.7,671.2,525.6,671.1,525.6,671.1z"/>
		</g>
	</g>
</g>
<g>
	<g>
		<g>
			<path class="st2" d="M477.4,630.1c0,0.2,0,0.2-0.1,0.5c-0.7,1.6-2.8,4.1-6.2,1.1c-0.1-0.1-0.3-0.3-0.3-0.5l-1.7-11l-0.5-3.5
				c-0.2-1.1-0.4-2.2-0.6-3.3l-0.1-0.4L463,619c-5.9,7.5-11.9,15-18,22.3l-9.2,11l-4.6,5.5l-2,2.4l0,0l0.1,1.3
				c0.8,9.5,1.5,19.1,2,28.6l0.4,7.5l0.2,6.1l0.2,5.4c0,0-0.1,2.6-0.3,6c-0.2,3.5-0.6,7.8-1.1,11.4c-1.4,12.1-2.9,7.2-3.7-0.2
				c-0.1,0.4-0.4-4.1-0.8-8.6c-0.4-4.6-0.8-9.2-0.8-9.2l-0.2-4.9l-0.3-6.3l-0.4-6.8c-0.5-9.5-1.3-19-2-28.5l-0.2-2.3l-0.1-0.9l0-0.4
				l0-0.2c0-0.1,0-0.2,0.1-0.2l1.2-1.4l2.6-3.1l4.6-5.5l9.1-11c6.1-7.3,12-14.7,17.9-22.2l4.4-5.6l1.8-2.3l1.1-1.4l1.1-1.2l2.1-2.5
				l1.1-1.2l0.5-0.6l0.3-0.3l0.1-0.2l0.1-0.1c0,0,0,0.1,0,0.1l2.3,6.1c0.4,1.1,0.7,2.1,1,3.3c0.2,0.6,0.3,1.1,0.4,1.7l0.3,1.3
				c0.3,1.2,0.5,2.5,0.7,3.7l0.5,3.5L477.4,630.1z"/>
		</g>
	</g>
</g>
<g>
	<g>
		<g>
			<path class="st2" d="M491.8,649c0,0.2,0,0.2-0.1,0.5c-0.7,1.6-2.6,4.2-6.1,1.3c-0.1-0.1-0.3-0.3-0.4-0.5c-0.7-3.7-1.3-7.3-1.9-11
				c-0.4-2.3-0.7-4.7-1-7l-0.6-5.2c0,0,0,0,0,0l-3.8,4.6l-4.2,5c-2.8,3.3-5.7,6.6-8.5,9.9c-5.7,6.6-11.4,13.1-17.1,19.6l-2.1,2.5
				l-0.1,0.1l0,0l0,0.7c0,2.2,0,4.3,0,6.5c0,4.3,0.1,8.6,0.3,12.9c0.1,2.2,0.2,4.3,0.3,6.4l0.3,4.9l0.4,5.1c0,0,0,2.5,0,5.9
				c0,3.4,0.1,7.7,0,11.3c0,6.1-0.4,8-1.1,7.4c-0.7-0.5-1.7-3.5-2.6-7.2c0,0.4-0.9-4-1.6-8.6c-0.8-4.6-1.4-9.2-1.4-9.2l-0.4-5.1
				l-0.3-6c-0.1-2.1-0.2-4.3-0.3-6.4c-0.1-4.3-0.2-8.6-0.2-12.8l0-3.2l0-3.8l0-0.8l0-0.4c0-0.1,0.1-0.2,0.2-0.3l1-1.2l1.2-1.4
				l2.1-2.4c5.6-6.5,11.2-12.8,16.7-19.3c2.8-3.2,5.5-6.4,8.3-9.6l4-4.9l2-2.4l2.3-2.9l8.7-11.3l0.5-0.7c0.1-0.1,0.2-0.3,0.3-0.3
				l0,0.4l0.2,1.8l0.3,3.6l0.7,7.1l0.6,5.3l0.4,3.5c0.3,2.3,0.6,4.6,1,6.9C490.5,641.8,491.1,645.4,491.8,649z"/>
		</g>
	</g>
</g>
<g>
	<g>
		<g>
			<path class="st2" d="M470.1,723.2c0,0.2,0,0.2-0.2,0.4c-0.9,1.5-3.3,3.7-6.2,0.2c-0.1-0.1-0.3-0.4-0.3-0.5
				c-0.1-3.7-0.2-7.3-0.4-11c-0.4-10-1.4-20-2.2-30.1l-0.6-7.6l-0.1-1.9l-0.1-1.7l-0.1-0.9l0-0.5l0-0.2l0-0.1c0,0,0.1-0.1,0.1-0.1
				l4.2-3.5c3.9-3.2,7.9-6.4,11.8-9.6c3.9-3.2,7.8-6.3,11.6-9.6c1.9-1.6,3.8-3.3,5.6-4.9l1.9-1.7c0.9-0.9,1.8-1.8,2.8-2.7l5.5-5.4
				l1.3-1.3l0.3-0.3c0-0.1,0,0.1,0,0.1l0,0.1l0,0.3l0,1.1l-0.1,4.7c0,1.6-0.1,3.1,0,4.3c0.1,1.3,0.2,2.5,0.4,3.8l0.9,7.6l0.8,6.9
				c0,0,0.6,10.2,0.4,17.4c0.1,12.2-2,7.6-3.7,0.2c0,0.8-3.4-17.6-3.4-17.6l-1.6-13.5l-2,1.8c-1.9,1.7-3.8,3.3-5.7,4.9
				c-3.8,3.2-7.7,6.4-11.5,9.5c-3.9,3.1-7.7,6.2-11.5,9.4l-0.7,0.6l-0.3,0.3l0,0l0,0l0.2,2.6l0.6,7.4c0.8,9.8,1.8,19.8,2.2,29.8
				C469.9,715.7,470,719.5,470.1,723.2z"/>
		</g>
	</g>
</g>
<g>
	<g>
		<g>
			<path class="st2" d="M1007.9,846.9c-0.1,0.1-0.2,0.1-0.4,0c-0.8-0.1-1.8-0.5-2.5-1.3c-0.7-0.8-1-2,0-4c0-0.1,0.2-0.4,0.4-0.5
				c3.4-1.5,6.8-2.5,10.3-3.4c8.2-2,16.4-3,24.6-3.7c8.2-0.6,16.4-0.8,24.6-0.8c8.2,0,16.4,0.3,24.6,0.8c4.1,0.3,8.2,0.5,12.2,0.9
				l6.4,0.6c0,0,2.4,0.4,5.5,1c3.2,0.6,7.1,1.5,10.4,2.4c11,2.8,6.3,3.5-0.6,3.4c0.4,0.1-3.8-0.1-8.1-0.3c-4.2-0.2-8.6-0.3-8.6-0.3
				l-3-0.3l-4-0.3c-4-0.3-7.9-0.6-11.9-0.8c-7.9-0.5-15.9-0.7-23.8-0.7c-7.9,0-15.9,0.2-23.7,0.8c-7.9,0.6-15.7,1.6-23.2,3.5
				C1014,844.7,1010.8,845.7,1007.9,846.9z"/>
		</g>
	</g>
</g>
</svg>
